<?xml version="1.0" encoding="UTF-8"?>
<svg width="317px" height="221px" viewBox="0 0 317 221" version="1.1" xmlns="http://www.w3.org/2000/svg" xmlns:xlink="http://www.w3.org/1999/xlink">
    <!-- Generator: Sketch 54.1 (76490) - https://sketchapp.com -->
    <title>Group 2</title>
    <desc>Created with Sketch.</desc>
    <g id="Page-1" stroke="none" stroke-width="1" fill="none" fill-rule="evenodd">
        <g id="Footer/web" transform="translate(-339.000000, -2.000000)">
            <g id="Group-2" transform="translate(337.000000, -2.316504)">
                <path d="M66.768479,48.3069185 C66.768479,48.3069185 65.8928292,98.5956033 64.1415296,199.172973 L283.035445,257.114471 C286.072635,83.1139577 287.600967,-4.44415661 287.620442,-5.55987208 C216.49538,-50.3145512 100.740557,-24.7795678 66.768479,48.3069185 Z" id="Oval-2-Copy-2" fill="#FFFFFF" transform="translate(175.880986, 114.692764) rotate(89.000000) translate(-175.880986, -114.692764) "></path>
                <path d="M46.7389364,26.8604678 C46.5536061,37.4808512 45.5914956,92.6147424 43.8526051,192.262141 C54.3439598,212.590343 70.9052994,229.859876 93.5366241,244.07074 C147.256863,277.803236 213.977641,276.238776 262.932386,240.908193 C263.945298,240.177175 268.339717,-11.5789217 267.350408,-12.2001374 C196.101713,-56.9392584 91.8227739,-45.6419673 46.7389364,26.8604678 Z" id="Oval-2-Copy-3" fill="#000325" transform="translate(155.673530, 114.874391) rotate(89.000000) translate(-155.673530, -114.874391) "></path>
            </g>
        </g>
    </g>
</svg>