<?xml version="1.0" encoding="utf-8"?>
<!-- Generator: Adobe Illustrator 22.1.0, SVG Export Plug-In . SVG Version: 6.00 Build 0)  -->
<svg version="1.1" id="Capa_1" xmlns="http://www.w3.org/2000/svg" xmlns:xlink="http://www.w3.org/1999/xlink" x="0px" y="0px"
	width="192px" height="77px"  viewBox="0 0 192 77" style="enable-background:new 0 0 192 77;" xml:space="preserve">
<style type="text/css">
	.st0{fill:#FFFFFF;}
	.st1{clip-path:url(#SVGID_2_);fill:#FFFFFF;}
	.st2{clip-path:url(#SVGID_4_);fill:#FFFFFF;}
</style>
<title>logo/logofooter</title>
<desc>Created with Sketch.</desc>
<path class="st0" d="M85.1,14.3c5.4,0,10.7,0,16,0c0.5,0,1,0,1.5,0c0.1,0,0.6-0.1,0.7,0c0.1,0.1,0.1,0.7,0.1,0.9c0,0.9,0,1.7,0,2.6
	c0,0.2,0.1,1.1,0,1.3c-0.1,0.1-0.8,0-0.9,0c-1.5,0-3.1,0-4.6,0c-1.5,0-3,0-4.5,0c-0.1,0-0.8-0.1-0.9,0c-0.1,0.1,0,0.8,0,0.9
	c0,1.6,0,3.2,0,4.7c0,0.4-0.1,0.3,0.2,0.4c0.4,0.1,1.2,0,1.6,0c1.6,0,3.3,0,5,0c0.2,0,1.1-0.1,1.2,0c0.1,0.1,0,1.1,0,1.3
	c0,0.8,0,1.6,0,2.3c0,0.4,0.1,0.3-0.3,0.4c-0.6,0.1-1.3,0-1.9,0c-0.9,0-1.7,0-2.6,0c-0.8,0-1.5,0-2.3,0c-0.1,0-0.9-0.1-1,0
	c-0.2,0.2,0,1.6,0,2c0,3.2,0,6.4,0,9.7c0,1.3,0,2.6,0,3.9c0,0.6-0.2,0.8,0.5,0.8c3,0,6,0,9,0c0.3,0,1-0.1,1.3,0
	c0.3,0.1,0.2,0.2,0.2,0.6c0,0.8,0,1.6,0,2.5c0,0.2,0.1,1.1,0,1.2c-0.1,0.1-0.6,0-0.6,0c-0.5,0-1,0-1.5,0c-1.5,0-3,0-4.5,0
	c-3.2,0-6.4,0-9.7,0c-0.3,0-1.7,0.2-2,0c-0.1-0.1,0-0.8,0-0.9c0-5.6,0-11.1,0-16.6c0-5.6,0-11.2,0-16.8
	C85.1,14.9,85.1,14.6,85.1,14.3z"/>
<path class="st0" d="M48.9,14.3c3.5,0,7.1,0,10.6,0c2.6,0,5.1,0,7.7,0c0.9,0,2,0,2.9,0c0.4,0,1.3-0.2,1.6,0c0.4,0.2,0.2,1.1,0.2,1.6
	c0,1.1,0,2.2,0,3.3c-2.5,0-4.9,0-7.4,0c0,5.4,0,10.9,0,16.2c0,3.5,0,7.1,0,10.6c0,1,0,2,0,3c0,0.7,0.1,0.6-0.7,0.6
	c-1.8,0-3.5,0-5.4,0c-0.3,0-1.5,0.2-1.8,0c-0.1-0.1,0-0.1-0.1-0.3c-0.2-0.6,0-1.7,0-2.3c0-1.5,0-2.9,0-4.3c0-7.1,0-14.2,0-21.3
	c0-0.5,0-0.9,0-1.5c0-0.2,0.1-0.6,0-0.8C56.5,18.8,55,19,54.5,19c-1.7,0-3.4,0-5.2,0c-0.5,0-0.4,0.1-0.5-0.3c-0.1-0.8,0-1.7,0-2.5
	C48.9,15.5,48.9,14.9,48.9,14.3z"/>
<path class="st0" d="M21.6,14.3c2,0,3.9,0,5.9,0c0.3,0,1.3-0.1,1.5,0c0.1,0.1,0,0.7,0,0.8c0,3.9,0,7.7,0,11.6c0,4.8,0,9.7,0,14.5
	c0,1.3-0.1,2.6,0,3.9c0,0.3-0.1,0.3,0.1,0.4c0.1,0.1,0.6,0,0.8,0c0.4,0,0.9,0,1.4,0c2.4,0,4.8,0,7.2,0c0.3,0,1.1-0.1,1.2,0.1
	c0.1,0.2,0,0.9,0,1.2c0,0.7,0,1.3,0,2c0,0.1,0.1,0.9,0,0.9c-0.1,0.1-0.2,0-0.3,0c-0.5,0.1-1.3,0-1.9,0c-2.3,0-4.6,0-7,0s-4.6,0-7,0
	c-0.4,0-1.4,0.2-1.8,0c-0.3-0.1-0.1,0.1-0.2-0.2c-0.1-0.3,0-0.8,0-1.1c0-0.7,0-1.3,0-2c0-2,0-4,0-5.9c0-8.5,0-17,0-25.5
	C21.6,14.7,21.6,14.5,21.6,14.3z"/>
<path class="st0" d="M-0.1,14.3c5.3,0,10.6,0,15.9,0c0.5,0,1,0,1.5,0c0.1,0,0.6-0.1,0.8,0c0.1,0.1,0.1,0.6,0.1,0.8
	c0,0.8,0,1.6,0,2.5c0,0.2,0.1,1.3,0,1.4c-0.1,0.1-0.7,0-0.8,0c-1.5,0-3,0-4.5,0c-1.5,0-3,0-4.6,0c-0.1,0-0.8-0.1-0.9,0
	c-0.1,0.1,0,0.9,0,1.1c0,0.8,0,1.6,0,2.5c0,0.6-0.1,1.4,0,2c0.1,0.4-0.1,0.3,0.3,0.3c0.6,0.1,1.3,0,1.8,0c1.6,0,3.2,0,4.9,0
	c0.2,0,0.9-0.1,1,0c0.1,0.1,0,1.4,0,1.6c0,0.8,0.1,1.6,0,2.3c-0.1,0.4,0.1,0.3-0.4,0.3c-1.5,0.1-3,0-4.5,0c-0.8,0-1.5,0-2.2,0
	c-0.1,0-0.8-0.1-0.9,0c-0.2,0.2,0,1.8,0,2.1c0,3.3,0,6.6,0,9.8c0,1.2,0,2.5,0,3.7c0,0.7-0.1,0.7,0.6,0.7c3,0,6,0,9,0
	c0.3,0,1-0.1,1.2,0c0.2,0.1,0.1,0.6,0.1,0.9c0,0.8,0,1.7,0,2.5c0,0.2,0.1,0.7-0.1,0.8c-0.1,0.1-0.6,0-0.8,0c-0.5,0-1,0-1.5,0
	c-1.5,0-3,0-4.5,0c-3.2,0-6.3,0-9.5,0c-0.3,0-1.6,0.2-1.8,0c-0.1-0.1,0-0.8,0-1c0-5.6,0-11.2,0-16.7s0-11.1,0-16.6
	C-0.1,14.9-0.1,14.6-0.1,14.3z"/>
<path class="st0" d="M157.1,16.1c-2.9-2.5-7.1-1.8-10.6-1.8c-2.2,0-4.4,0-6.6,0c-0.7,0-1.4,0-2.1,0c-0.1,0-0.4-0.1-0.5,0
	c-0.1,0.1,0,0.6,0,0.7c0,0.5,0,0.9,0,1.5c0,1.5,0,3.1,0,4.6c0,4.4,0,8.8,0,13.2c0,4,0,7.9,0,11.9c0,1,0,2.1,0,3.1
	c0,0.1-0.1,0.4,0,0.4c0.2,0.2,1.4,0,1.6,0c2,0,4,0.1,6.1,0c0.4-0.1,0.3,0.1,0.4-0.3c0.1-0.6,0-1.4,0-2.1c0-3.5,0-7,0-10.4
	c0.6,0,1.1,0,1.6,0c1.9,0,3.8,0,5.7,0c2.3-0.1,4.2-1.4,5.7-3.1C162.4,28.9,162,20.3,157.1,16.1z M154.2,25.8
	c-0.1,1.9-0.8,4.5-2.6,5.6c-0.9,0.5-2.1,0.3-3.2,0.3s-2.1,0-3.1,0c0-2.2,0-4.5,0-6.7c0-1.3,0-2.6,0-3.9c0-0.3-0.2-1.5,0-1.8
	c0.1-0.1,1,0,1.2,0c0.6,0,1.3,0,1.9,0c1.3,0,2.4-0.1,3.5,0.8C153.7,21.3,154.4,23.7,154.2,25.8z"/>
<path class="st0" d="M112.3,49.6c-1.1,0-2.3,0-3.4,0c-0.4,0-1.4,0.2-1.6-0.1c-0.1-0.3,0-1.1,0-1.4c0-0.9,0-1.8,0-2.6
	c0-5.8,0-11.5,0-17.3c0-4.5,0-8.9,0-13.4c0-0.4-0.1-0.4,0.2-0.5c0.4-0.2,1.3,0,1.8,0c0.8,0,1.5,0,2.2,0c0.7,0,0.8-0.1,1,0.4
	c0.4,0.8,0.8,1.6,1.2,2.5c1.3,2.7,2.5,5.4,3.9,8c0.9,2,1.8,4.1,2.9,6.1c0.1,0.1,0.1,0.3,0.2,0.3c0.9-2.6,1.8-5.2,2.8-7.8
	c0.7-2,1.4-3.9,2.1-5.9c0.3-0.7,0.5-1.5,0.8-2.1c0.1-0.4,0.3-1,0.5-1.3c0.2-0.3,0-0.2,0.4-0.3c0.8-0.1,1.6,0,2.4,0c1,0,2.1,0,3.1,0
	c0.3,0,1.6-0.2,1.8,0c0.1,0.1,0.1,1,0.1,1.3c0,1.2,0,2.5,0,3.7c0,7.9,0,15.9,0,23.8c0,1.5,0,2.8,0,4.3c0,0.5,0,0.9,0,1.5
	c0,0.2,0.1,0.6,0,0.8c-0.2,0.4-2.1,0.1-2.6,0.1c-1.1,0-2.1,0-3.2,0c-0.4,0-0.8,0-1.2,0c-0.3,0-0.7,0.1-0.9,0
	c-0.3-0.1-0.1,0.1-0.2-0.3c-0.1-0.4,0-1,0-1.5c0-1.8,0-3.6,0-5.4c0-3.6,0-7.1,0-10.7c0-0.3,0-0.4,0-0.7c-1.9,5.4-3.8,10.9-5.6,16.4
	c-0.2,0.5-0.3,1-0.5,1.5c-0.1,0.1-0.1,0.6-0.3,0.7s-0.9,0.1-1.1,0c-0.1-0.1-0.2-0.6-0.3-0.8c-1.1-3-2.3-6-3.4-9
	c-0.9-2.6-2-5.2-2.9-7.8c0,5.1,0,10.2,0,15.4C112.3,48.1,112.3,48.8,112.3,49.6z"/>
<path class="st0" d="M74.4,14.3c1.5,0,3,0,4.4,0c0.4,0,2.7-0.3,2.8,0.1c0.2,0.4,0,1.5,0,2c0,1.3,0,2.7,0,4c0,7.7,0,15.4,0,23.1
	c0,1.3,0,2.7,0,4c0,0.4,0.3,1.6,0,2c-0.3,0.4-2.5,0.1-2.9,0.1c-0.9,0-1.9,0-2.8,0c-0.2,0-1.3,0.1-1.5,0c-0.1-0.1,0-1.1,0-1.3
	c0-1.2,0-2.4,0-3.6c0-3.7,0-7.4,0-11.1c0-6.3,0-12.6,0-18.9C74.4,14.5,74.4,14.4,74.4,14.3z"/>
<path class="st0" d="M77.5,60.5c-1.4,3.7-2.8,7.5-4.1,11.2c-1.2-3.3-2.5-6.6-3.7-10c-0.1-0.4-0.3-0.8-0.4-1.3
	c-0.8-1.6-3-1.8-3.7-0.1c-0.6,1.3,0.6,3.3,1.1,4.6c1.3,3.3,2.5,6.7,4,9.9c1,2.2,3.7,2.8,5.1,0.6c0.7-1,1.1-2.3,1.5-3.3
	c1.1-2.7,2.2-5.4,3.3-8.1c0.4-0.9,1.2-2.4,0.9-3.4C80.8,58.6,78.1,58.7,77.5,60.5"/>
<g>
	<defs>
		<path id="SVGID_1_" d="M84.3,61.2c0,4.5-0.1,9,0,13.6c0.1,2,2.7,3,3.8,1.1c0.6-1.1,0.3-2.9,0.3-4.1c0-2.2,0-4.4,0-6.6
			c0-1.1,0-2.3,0-3.5s-0.3-2.3-1.6-2.6C85.5,58.9,84.3,59.9,84.3,61.2"/>
	</defs>
	<use xlink:href="#SVGID_1_"  style="overflow:visible;fill:#FFFFFF;"/>
	<clipPath id="SVGID_2_">
		<use xlink:href="#SVGID_1_"  style="overflow:visible;"/>
	</clipPath>
	<path class="st1" d="M88.4,59.1c-0.7,0-1.5,0-2.1,0c-0.3,0-1.8-0.2-2,0c-0.1,0.1,0,0.7,0,0.8c0,0.7,0,1.3,0,2c0,3.9,0,7.8,0,11.8
		c0,0.7,0,1.5,0,2.1c0,0.2-0.1,0.9,0,1c0.1,0.2,1.2,0.1,1.5,0.1c0.4,0,0.9,0,1.4,0c0.3,0,1,0.1,1.2,0c0.3-0.2,0.1-1.8,0.1-2.1
		c0-1.8,0-3.7,0-5.6C88.4,65.8,88.4,62.5,88.4,59.1z"/>
</g>
<g>
	<defs>
		<path id="SVGID_3_" d="M84.3,54.7c0,2.7,4.1,2.7,4.1,0C88.4,52.1,84.3,52,84.3,54.7"/>
	</defs>
	<use xlink:href="#SVGID_3_"  style="overflow:visible;fill:#FFFFFF;"/>
	<clipPath id="SVGID_4_">
		<use xlink:href="#SVGID_3_"  style="overflow:visible;"/>
	</clipPath>
	<path class="st2" d="M88.4,52.6c-1.2,0-2.4,0-3.6,0c-0.5,0-0.4-0.1-0.5,0.3c-0.1,0.6,0,1.4,0,2.1c0,0.3-0.2,1.5,0,1.6
		c0.1,0.1,0.9,0.1,1.1,0.1c0.6,0,2.8,0.3,3-0.1c0.1-0.2,0-0.7,0-0.9c0-0.4,0-0.9,0-1.3C88.4,53.8,88.4,53.2,88.4,52.6z"/>
</g>
<path class="st0" d="M113.2,71.8c-0.2-1.6,1.3-2.3,2.6-2.5c1.6-0.3,3.8-0.1,5.2-0.9c0.3,1.3,0.1,2.8-0.9,3.9
	C118.9,73.5,113.5,74.6,113.2,71.8 M113.1,60.5c-1.4,0.9-0.8,3.2,0.9,3.1c0.8,0,1.5-0.4,2.1-0.8c0.9-0.4,1.7-0.4,2.7-0.3
	c1.1,0.1,2.5,0.6,2.5,2c0,0.4-0.1,0.8-0.5,1c-0.9,0.6-2.2,0.6-3.2,0.7c-1.8,0.2-3.7,0.3-5.4,1.1c-1.8,0.8-3.1,2.3-3.1,4.4
	c0,1.3,0.4,2.5,1.3,3.4c2,2.1,5.4,2,8,1.5c2.8-0.6,5.4-2.3,6.4-5.1c0.7-1.8,0.4-3.8,0.4-5.6c0-0.9,0.1-1.8-0.1-2.7
	c-0.2-1.7-1.5-2.8-3-3.4C119.4,58.7,115.6,59,113.1,60.5"/>
<path class="st0" d="M146.9,59.1c-1.3,0-2.6,0.3-3.7,0.9c-0.4,0.3-0.9,0.6-1.3,1.1c-0.3,0.3-0.3,0.4-0.6,0.4s-0.6-0.5-0.8-0.7
	c-2-1.6-4.7-2.2-7.2-1.3c-2.5,0.9-4.5,3-5.1,5.6c-0.3,1.3-0.2,2.7-0.2,4c0,1.5,0,3,0,4.5c0,0.7-0.1,1.5,0.2,2.2
	c0.5,1,1.7,1.4,2.7,0.9c1.4-0.7,1.2-2.3,1.2-3.6c0-1.6,0-3.1,0-4.7c0-1.7,0-3.5,1.6-4.5c2.4-1.6,5.6,0.3,5.5,3.1c0-0.1,0-0.1,0-0.2
	c-0.1,0.6,0,1.4,0,2.1c0,1.2,0,2.4,0,3.5c0,1.5-0.4,3.7,1.3,4.4c1.3,0.4,2.5-0.3,2.7-1.5c0.1-0.4,0.1-0.9,0.1-1.3c0-2.2,0-4.5,0-6.7
	c0-0.9,0.1-1.8,0.8-2.6c1.1-1.3,3-1.8,4.5-0.9c2.1,1.2,1.8,3.7,1.8,5.8c0,1.8-0.1,3.5,0,5.3s2.2,2.8,3.5,1.5c0.8-0.8,0.6-2,0.6-3
	c0-2.2,0-4.4,0-6.6C154.5,62.5,151.1,59.1,146.9,59.1z"/>
<path class="st0" d="M160.6,68c0-4.6,6.3-6.6,8.8-2.6c2.1,3.4-0.7,8-4.8,7.3C162.3,72.3,160.6,70.4,160.6,68 M156.5,68.1
	c0,3.9,2.4,7.2,6.1,8.4c3.5,1.1,7.6,0,9.8-3c4.5-6.1-0.3-15.2-8-14.3C159.9,59.7,156.5,63.5,156.5,68.1"/>
<path class="st0" d="M179.3,59.8c-1.5,0.6-2.9,1.8-3.2,3.5c-0.4,1.7,0.4,3.2,1.8,4.2c1.3,0.9,3,1.3,4.5,1.7c1.4,0.3,3.3,0.5,4.4,1.5
	c1.3,1.3,0.1,2.8-1.3,3.2c-1.5,0.4-3.3,0.3-4.6-0.7c-1.3-0.9-1.6-2.9-3.5-2.7c-2,0.3-2,2.3-1,3.6c2,2.8,6.4,3,9.5,2.7
	c3.2-0.4,6.6-2.5,5.9-6.3c-0.7-3.4-5.4-4-8.2-4.6c-1.1-0.3-3.4-0.6-3.4-2.1c0-1.7,2.7-1.9,3.9-1.7c0.9,0.1,1.6,0.5,2.2,1.1
	c0.6,0.6,1.1,1.5,2,1.7c2,0.5,3.3-1.4,2.1-3c-1.1-1.6-3.3-2.3-5.2-2.5C183.4,59,181.2,59,179.3,59.8"/>
<path class="st0" d="M182.3,15.2c-5.9-2.7-12.3,0.3-15.7,5.4c-4,6-4.3,14.2-1.2,20.7c2.7,5.6,8.5,9.8,14.9,8.2
	c7.6-1.9,11.4-10.2,11.4-17.4C191.7,25.4,188.6,18.1,182.3,15.2z M181.3,40.5c-0.4,1.8-0.9,3.9-2.1,5.3c-0.3,0.4-1.1,1.2-1.6,1.3
	c-0.5,0.1-1.1-0.4-1.5-0.8c-1.3-1.4-1.8-3.4-2.2-5.2c-1.3-5.6-1.3-11.7-0.3-17.3c0.3-1.6,1.9-8.7,4.9-6.6c1.6,1,2.1,3.5,2.6,5.1
	c0.8,3.2,1.1,6.4,1.1,9.6C182.2,34.8,181.9,37.7,181.3,40.5z"/>
<path class="st0" d="M107.4,60.6c-0.6-2-3.3-1.9-3.9-0.1c-1.3,3.7-2.8,7.5-4.1,11.2c-1.2-3.3-2.5-6.6-3.7-10
	c-0.1-0.4-0.3-0.8-0.4-1.3c-0.8-1.6-2.9-1.8-3.7-0.1c-0.6,1.3,0.6,3.3,1.1,4.6c1.3,3.3,2.5,6.7,4,9.9c1,2.2,3.7,2.8,5.1,0.6
	c0.7-1,1.1-2.3,1.5-3.3c1.1-2.7,2.2-5.4,3.3-8.1C106.8,63.1,107.7,61.7,107.4,60.6z"/>
<path class="st0" d="M5.6,3.1c-0.3-1.5-2-2.6-3.4-1.6C1,2.3,1.2,4.2,1.2,5.5c0.1,1.6,0.6,3.2,2.5,3c0.8-0.1,1.4-0.6,1.7-1.3
	c0.2-0.5,0.1-0.5,0.5-0.6c0.3-0.1,0.6,0,0.8,0C6.4,8.8,4.5,10,2.3,9.4c-2-0.6-2.2-2.8-2.2-4.5s0.2-3.9,2.1-4.5
	c2.1-0.7,4.2,0.6,4.5,2.8C6.3,3.1,5.9,3.1,5.6,3.1z"/>
<path class="st0" d="M12,8.4c1.1,0,2.1,0,3.2,0c0.2,0,1.1-0.1,1.2,0c0.1,0.1,0,1,0,1c-0.1,0.1-0.9,0-1.1,0c-0.8,0-1.5,0-2.2,0
	c-0.3,0-2,0.2-2.1-0.1c-0.1-0.1,0-0.8,0-0.9c0-0.6,0-1.3,0-1.8c0-1.4,0-2.7,0-4.1c0-0.5,0-1,0-1.5c0-0.1-0.1-0.6,0-0.7
	c0.1-0.1,1.1-0.1,1.1,0c0.1,0.1,0,0.7,0,0.9C12,3.5,12,5.9,12,8.4z"/>
<path class="st0" d="M26.8,0.3c0,1.3,0,2.5,0,3.8c0,1.5,0.2,3.2-0.8,4.4c-1.1,1.4-3.7,1.5-4.9,0.3c-1.1-1.1-0.9-2.8-0.9-4.3
	c0-0.8,0-1.7,0-2.5c0-0.3-0.2-1.4,0-1.6c0.1-0.1,1.1-0.1,1.1,0.1c0.2,0.3,0,1.4,0,1.7c0,1.3-0.1,2.7,0,3.9c0.1,0.9,0.3,2,1.3,2.4
	c0.8,0.3,1.9,0.2,2.5-0.4c1-1.1,0.6-3.5,0.6-4.9c0-0.8-0.1-1.6,0-2.5c0-0.1-0.1-0.3,0.1-0.4C25.8,0.1,26.6,0.3,26.8,0.3z"/>
<path class="st0" d="M34.5,0.3c1.1,0,2.5,0.2,3,1.4c0.5,1.1-0.1,2.7-1.3,3c2.7,0.5,2.1,4-0.1,4.6c-0.8,0.2-1.6,0.1-2.4,0.1
	c-0.3,0-1.7,0.2-1.9,0c-0.1-0.1,0-0.9,0-1.1c0-0.8,0-1.6,0-2.4c0-1.6,0-3.3,0-5c0-0.6-0.1-0.6,0.4-0.6C32.8,0.2,33.7,0.3,34.5,0.3z
	 M32.8,4.2c0.9,0,2.3,0.3,3-0.3c1.2-0.8,0.6-2.3-0.6-2.5c-0.4-0.1-2.3-0.3-2.5,0.1c-0.2,0.3,0,1.2,0,1.6C32.8,3.3,32.8,3.7,32.8,4.2
	z M32.8,8.4c0.9,0,2.4,0.3,3.3-0.3c0.6-0.3,0.8-1.1,0.7-1.7c-0.2-0.8-0.8-1.1-1.5-1.2c-0.6-0.1-1.2-0.1-1.8-0.1
	c-0.5,0-0.6-0.1-0.7,0.3C32.7,6.3,32.8,7.5,32.8,8.4z"/>
<path class="st0" d="M48.2,9.4c0-1.5,0-3,0-4.5c0-1,0-2.1,0-3.1c0-0.3-0.2-1.3,0-1.5c0.1-0.1,0.7,0,0.9,0c0.6,0,1.1,0,1.6,0
	c0.9,0,1.9,0.1,2.6,0.7c1,0.9,1.1,2.3,1.1,3.5c0,1.2,0.1,2.5-0.6,3.5C52.8,9.9,50.1,9.4,48.2,9.4z M53.3,5.3c0-1.5,0.1-3.7-1.6-4
	c-0.6-0.1-1.3-0.1-1.9-0.1c-0.5,0-0.4,0-0.4,0.4c0,1.5,0,3,0,4.4c0,0.6-0.1,1.3,0,1.8c0.1,0.4,0,0.3,0.6,0.3c0.7,0,1.6,0.1,2.3-0.2
	C53.2,7.6,53.3,6.3,53.3,5.3"/>
<path class="st0" d="M64.4,0.3c0,0.2,0.1,0.9,0,1c-0.1,0.1-0.7,0-0.8,0c-1,0-2,0-3,0c-0.1,0-0.4-0.1-0.5,0c-0.1,0.1,0,1,0,1.1
	c0,0.4-0.1,1,0,1.5C60.2,4.2,60,4,60.3,4.1c0.4,0.1,0.9,0,1.4,0c0.6,0,1.1,0,1.6,0c0.1,0,0.6-0.1,0.7,0c0.1,0.1,0.1,1,0,1
	c-0.1,0.1-0.7,0-0.8,0c-0.6,0-1.1,0-1.7,0c-0.3,0-1.1-0.1-1.3,0c-0.3,0.1-0.1,0-0.1,0.4c-0.1,0.4,0,0.9,0,1.4c0,0.3-0.1,1.1,0,1.3
	c0.2,0.3,1.3,0.1,1.7,0.1c0.5,0,1.1,0,1.6,0c0.2,0,0.9-0.1,1.1,0c0.1,0.1,0.1,0.8,0.1,0.9c-0.1,0.2-0.1,0.1-0.4,0.1c-1,0-2,0-3,0
	c-0.5,0-0.9,0-1.5,0c-0.1,0-0.6,0.1-0.7,0c-0.1-0.1,0-1.1,0-1.4c0-1,0-2,0-3c0-1.2,0-2.3,0-3.5c0-0.3-0.1-1.1,0.1-1.3
	c0.2-0.1,0.9,0,1.1,0c0.6,0,1.2,0,1.8,0C62.8,0.3,63.6,0.3,64.4,0.3z"/>
<path class="st0" d="M79.5,2.3c-0.6-0.8-1.4-1.2-2.4-1.1c-0.8,0.1-1.5,0.5-1.5,1.5c0,2,3,1.5,4.2,2.5c1.3,0.9,1.1,3-0.2,3.9
	c-1.6,1.1-4.2,0.6-5.3-0.9c0.2-0.1,0.6-0.6,0.8-0.6c0.3-0.1,0.6,0.4,0.9,0.6c0.8,0.5,2.4,0.7,3.2-0.1c0.5-0.5,0.4-1.5,0-2
	c-0.8-0.8-2.3-0.6-3.3-1.1c-2-1-1.8-3.9,0.4-4.5c1.1-0.3,2.5-0.2,3.4,0.5c0.3,0.2,0.8,0.6,0.7,0.9C80.2,1.9,79.7,2.1,79.5,2.3z"/>
<path class="st0" d="M91.6,0.3c0,1.3,0,2.5,0,3.8c0,1.5,0.2,3.2-0.8,4.4c-1.1,1.4-3.7,1.5-4.9,0.3C84.8,7.5,85,5.8,85,4.4
	c0-0.8,0-1.7,0-2.5c0-0.3-0.2-1.4,0-1.6c0.1-0.1,1.1-0.1,1.1,0.1c0.2,0.3,0,1.4,0,1.7c0,1.3-0.1,2.7,0,3.9c0.1,0.9,0.3,2,1.3,2.4
	c0.8,0.3,1.9,0.2,2.5-0.4c1-1.1,0.6-3.5,0.6-4.9c0-0.8-0.1-1.6,0-2.5c0-0.1-0.1-0.3,0.1-0.4C90.6,0.1,91.4,0.3,91.6,0.3z"/>
<path class="st0" d="M101.3,2.3c-0.6-0.8-1.4-1.2-2.4-1.1c-0.8,0.1-1.5,0.5-1.5,1.5c0,2,3,1.5,4.2,2.5c1.3,0.9,1.1,3-0.2,3.9
	c-1.6,1.1-4.2,0.6-5.3-0.9c0.2-0.1,0.6-0.6,0.8-0.6c0.3-0.1,0.6,0.4,0.9,0.6c0.8,0.5,2.4,0.7,3.2-0.1c0.5-0.5,0.4-1.5,0-2
	c-0.8-0.8-2.3-0.6-3.3-1.1c-2-1-1.8-3.9,0.4-4.5c1.1-0.3,2.5-0.2,3.4,0.5c0.3,0.2,0.8,0.6,0.7,0.9C102,1.9,101.5,2.1,101.3,2.3z"/>
<path class="st0" d="M111.8,3.1c-0.3-1.5-2-2.6-3.4-1.6c-1.1,0.8-0.9,2.7-0.9,4c0.1,1.6,0.6,3.2,2.5,3c0.8-0.1,1.4-0.6,1.7-1.3
	c0.2-0.5,0.1-0.5,0.5-0.6c0.3-0.1,0.6,0,0.8,0c-0.3,2.2-2.2,3.5-4.4,2.8c-2-0.6-2.2-2.8-2.2-4.5s0.2-3.9,2.1-4.5
	c2.1-0.7,4.2,0.6,4.5,2.8C112.5,3.1,112.2,3.1,111.8,3.1z"/>
<path class="st0" d="M122.3,9.4c-0.4-0.9-0.9-1.8-1.4-2.8c-0.1-0.3-0.3-0.9-0.5-1.1c-0.2-0.1-0.9-0.1-1.2-0.1c-0.3,0-0.9-0.1-1,0.1
	c-0.2,0.3,0,1.3,0,1.6c0,0.6,0,1.1,0,1.8c0,0.6,0,0.4-0.6,0.4c-0.4,0-0.4,0.1-0.6-0.1c-0.1-0.3,0-0.9,0-1.2c0-1.3,0-2.5,0-3.7
	c0-1.1,0-2.3,0-3.5c0-0.1-0.1-0.5,0-0.6c0.1-0.1,1,0,1.2,0c1.3,0,3-0.3,4.2,0.6c1.6,1.3,0.9,3.9-0.9,4.4c0.7,1.3,1.4,2.7,2,4
	C123.1,9.4,122.7,9.4,122.3,9.4z M120,4.5c0.7,0,1.6-0.1,2-0.8c0.3-0.5,0.3-1.4-0.1-1.8c-0.4-0.6-1.3-0.6-1.9-0.6
	c-0.4,0-1.3-0.2-1.6,0c-0.3,0.1-0.2,0.3-0.2,0.7c0,0.6,0,1.3,0,1.9c0,0.5-0.1,0.6,0.3,0.6C118.9,4.6,119.5,4.5,120,4.5z"/>
<path class="st0" d="M129,9.4c-0.3,0-0.9,0.1-1.1,0c-0.1-0.1,0-0.1-0.1-0.2c-0.2-0.5,0-1.5,0-2c0-1.9,0-3.8,0-5.6
	c0-0.3-0.1-1.2,0-1.3c0.1-0.2,1.1-0.1,1.1,0.1c0.2,0.3,0,1.3,0,1.6c0,0.9,0,1.9,0,2.8C129,6.4,129,7.9,129,9.4z"/>
<path class="st0" d="M135.2,5.9c0,0.9,0,1.8,0,2.7c0,0.1,0.1,0.8,0,0.8c-0.1,0.1-1.1,0.1-1.1,0c-0.2-0.2,0-1.4,0-1.6
	c0-1.1,0-2.2,0-3.3c0-1,0-2.1,0-3.1c0-0.3-0.1-0.9,0.1-1.1c0.3-0.1,1.1,0,1.5,0c0.4,0,0.9,0,1.3,0c1.3,0,2.6,0.4,3.2,1.6
	c0.6,1.5,0,3.2-1.5,3.8C137.6,6.1,136.3,5.9,135.2,5.9z M137,4.9c0.8,0,1.6-0.2,2-0.9c0.3-0.6,0.3-1.5-0.2-2
	c-0.4-0.6-1.3-0.6-1.9-0.6c-0.3,0-1.4-0.2-1.6,0c-0.1,0.1-0.1,0.8-0.1,0.9c0,0.6,0,1.3,0,2c0,0.4-0.1,0.5,0.2,0.7
	C135.8,5.1,136.5,4.9,137,4.9z"/>
<path class="st0" d="M150.1,0.3c0,0.3,0.1,0.6,0,0.8c-0.1,0.3,0.1,0.1-0.2,0.2c-0.5,0.2-1.5,0-2.1,0c-0.4,0-0.4-0.1-0.5,0.2
	c-0.1,0.4,0,1.1,0,1.5c0,1.5,0,3,0,4.4c0,0.5,0,1.1,0,1.6c0,0.4,0.1,0.3-0.3,0.4c-0.1,0-0.8,0.1-0.8,0c-0.1-0.1,0-0.2,0-0.3
	c-0.1-0.4,0-1,0-1.4c0-1.5,0-3,0-4.4c0-0.5,0-1.1,0-1.6c0-0.4,0.1-0.3-0.2-0.4c-0.5-0.2-1.5,0-2,0c-0.1,0-0.5,0.1-0.6,0
	c-0.1-0.1-0.1-0.8,0-0.8c0.1-0.3-0.1-0.1,0.1-0.2c0.1-0.1,0.5,0,0.6,0c0.8,0,1.6,0,2.3,0C147.7,0.3,148.9,0.3,150.1,0.3z"/>
<path class="st0" d="M156.9,9.5c-2,0-3-1.4-3.3-3.2c-0.2-1.6-0.3-3.9,0.8-5.1c1-1.2,3.2-1.3,4.4-0.4c1.4,1,1.3,3,1.3,4.6
	C160.2,7.5,159.3,9.5,156.9,9.5 M154.7,5.4c0,1.8,0.9,3.8,3,3c1.5-0.6,1.4-2.7,1.3-4c0-1.7-0.8-3.7-2.8-3
	C154.5,1.8,154.7,4,154.7,5.4z"/>
<path class="st0" d="M169.8,9.4c-0.4-0.9-0.9-1.8-1.4-2.8c-0.1-0.3-0.3-0.9-0.5-1.1c-0.2-0.1-0.9-0.1-1.2-0.1c-0.3,0-0.9-0.1-1,0.1
	c-0.2,0.3,0,1.3,0,1.6c0,0.6,0,1.1,0,1.8c0,0.6,0,0.4-0.6,0.4c-0.4,0-0.4,0.1-0.6-0.1c-0.1-0.3,0-0.9,0-1.2c0-1.3,0-2.5,0-3.7
	c0-1.1,0-2.3,0-3.5c0-0.1-0.1-0.5,0-0.6c0.1-0.1,1,0,1.2,0c1.3,0,3-0.3,4.2,0.6c1.6,1.3,0.9,3.9-0.9,4.4c0.7,1.3,1.4,2.7,2,4
	C170.7,9.4,170.3,9.4,169.8,9.4z M167.6,4.5c0.7,0,1.6-0.1,2-0.8c0.3-0.5,0.3-1.4-0.1-1.8c-0.4-0.6-1.3-0.6-1.9-0.6
	c-0.4,0-1.3-0.2-1.6,0c-0.3,0.1-0.2,0.3-0.2,0.7c0,0.6,0,1.3,0,1.9c0,0.5-0.1,0.6,0.3,0.6C166.5,4.6,167.1,4.5,167.6,4.5z"/>
<path class="st0" d="M180.8,0.3c0,0.2,0.1,0.9,0,1c-0.1,0.1-0.7,0-0.8,0c-1,0-2,0-3,0c-0.1,0-0.4-0.1-0.5,0c-0.1,0.1,0,1,0,1.1
	c0,0.4-0.1,1,0,1.5c0.1,0.4-0.1,0.1,0.3,0.3c0.4,0.1,0.9,0,1.4,0c0.6,0,1.1,0,1.6,0c0.1,0,0.6-0.1,0.7,0c0.1,0.1,0.1,1,0,1
	c-0.1,0.1-0.7,0-0.8,0c-0.6,0-1.1,0-1.7,0c-0.3,0-1.1-0.1-1.3,0c-0.3,0.1-0.1,0-0.1,0.4c-0.1,0.4,0,0.9,0,1.4c0,0.3-0.1,1.1,0,1.3
	c0.2,0.3,1.3,0.1,1.7,0.1c0.5,0,1.1,0,1.6,0c0.2,0,0.9-0.1,1.1,0c0.1,0.1,0.1,0.8,0.1,0.9c-0.1,0.2-0.1,0.1-0.4,0.1c-1,0-2,0-3,0
	c-0.5,0-0.9,0-1.5,0c-0.1,0-0.6,0.1-0.7,0c-0.1-0.1,0-1.1,0-1.4c0-1,0-2,0-3c0-1.2,0-2.3,0-3.5c0-0.3-0.1-1.1,0.1-1.3
	c0.2-0.1,0.9,0,1.1,0c0.6,0,1.2,0,1.8,0C179.1,0.3,180,0.3,180.8,0.3z"/>
<path class="st0" d="M189.9,2.3c-0.6-0.8-1.4-1.2-2.4-1.1c-0.8,0.1-1.5,0.5-1.5,1.5c0,2,3,1.5,4.2,2.5c1.3,0.9,1.1,3-0.2,3.9
	c-1.6,1.1-4.2,0.6-5.3-0.9c0.2-0.1,0.6-0.6,0.8-0.6c0.3-0.1,0.6,0.4,0.9,0.6c0.8,0.5,2.4,0.7,3.2-0.1c0.5-0.5,0.4-1.5,0-2
	c-0.8-0.8-2.3-0.6-3.3-1.1c-2-1-1.8-3.9,0.4-4.5c1.1-0.3,2.5-0.2,3.4,0.5c0.3,0.2,0.8,0.6,0.7,0.9C190.6,1.9,190.1,2.1,189.9,2.3z"
	/>
</svg>
