<svg xmlns="http://www.w3.org/2000/svg" width="24" height="24" viewBox="0 0 24 24">
  <g id="Grupo_262" data-name="Grupo 262" transform="translate(-34 -914)">
    <rect id="Placement_Area" data-name="Placement Area" width="24" height="24" transform="translate(34 914)" fill="none"/>
    <g id="Page-1" transform="translate(36.509 916)">
      <g id="Group-11">
        <g id="Group-Copy-2">
          <path id="Stroke-7" d="M5.512,20c1.3-.009,6.263-2.2,1.847-9.247-.335-.444.221-3.1,1.418-4.092S9.873,2.691,8.336.5c-.209-.245-.9-.982-.888.031s.073,3.887.073,3.887.008.351-.679.351-.735-.338-.735-.338S6,.911,6,.588,5.529,0,5.177,0H5.143c-.352,0-.8.276-.794.6s.029,3.836.029,3.836-.034.345-.722.353-.688-.346-.688-.346S2.91,1.577,2.888.561,2.2.3,2.005.541C.549,2.758.565,5.728,1.793,6.707s1.889,3.627,1.575,4.074c-4.148,7.11.9,9.228,2.2,9.219Z" transform="translate(-0.891)" fill="none" stroke="#f55e5e" stroke-width="1" fill-rule="evenodd"/>
          <path id="Stroke-9" d="M19.174,7.29c1.113-.948,1.383-3.6-2.962-6.835-.193-.23-2.564-.921-2.54.045l.2,10.7s.032,3.069-.5,3.806S11.429,20.019,16.151,20c1.226-.023,5.8-2.12,1.7-8.8C17.55,10.769,18.068,8.245,19.174,7.29Z" transform="translate(-0.891)" fill="none" stroke="#f55e5e" stroke-width="1" fill-rule="evenodd"/>
        </g>
      </g>
    </g>
  </g>
</svg>
