<svg xmlns="http://www.w3.org/2000/svg" width="24" height="24" viewBox="0 0 24 24">
  <g id="Grupo_260" data-name="Grupo 260" transform="translate(-34 -914)">
    <rect id="Placement_Area" data-name="Placement Area" width="24" height="24" transform="translate(34 914)" fill="none"/>
    <g id="Page-1" transform="translate(34.003 913.989)">
      <g id="Group-27" transform="translate(-0.003 0.011)">
        <g id="Group-13">
          <g id="Group-9" transform="translate(2.636 2.508)">
            <path id="Stroke-26" d="M18.836,12.349V9.714a1,1,0,0,0-.919-1.07H1.969a1,1,0,0,0-.919,1.07v2.635a1.276,1.276,0,0,1,1.17,1.36,1.276,1.276,0,0,1-1.17,1.36V17.7a1,1,0,0,0,.919,1.07H17.917a1,1,0,0,0,.919-1.07v-2.63a1.276,1.276,0,0,1-1.17-1.361A1.276,1.276,0,0,1,18.836,12.349Z" transform="translate(-0.111 -0.947)" fill="none" stroke="#3a9cff" stroke-width="0.7" fill-rule="evenodd"/>
            <path id="Stroke-30" d="M18.477,8.184a1.007,1.007,0,0,0,.169-1.044l-.892-2.166a1.114,1.114,0,0,1-1.5-.624,1.254,1.254,0,0,1,.583-1.6L15.942.58A.875.875,0,0,0,14.76.089L.535,6.777A.981.981,0,0,0,.075,8.036l.86,1.6" transform="translate(0.003 -0.011)" fill="none" stroke="#3a9cff" stroke-width="0.7" fill-rule="evenodd"/>
            <path id="Stroke-34" d="M9.735,12.144l.306.67a.241.241,0,0,0,.178.138l.713.112a.241.241,0,0,1,.137.4l-.535.569a.241.241,0,0,0-.063.2l.124.783a.241.241,0,0,1-.357.247l-.6-.343a.241.241,0,0,0-.238,0l-.6.343a.241.241,0,0,1-.357-.247l.124-.783a.241.241,0,0,0-.063-.2l-.535-.569a.241.241,0,0,1,.137-.4l.713-.112a.241.241,0,0,0,.178-.138l.306-.67a.241.241,0,0,1,.439,0Z" transform="translate(-0.854 -1.311)" fill="none" stroke="#3a9cff" stroke-width="0.7" fill-rule="evenodd"/>
            <path id="Path-8" d="M16.8,8.649v10.12" transform="translate(-1.819 -0.948)" fill="none" stroke="#3a9cff" stroke-linecap="round" stroke-linejoin="round" stroke-width="0.7" stroke-dasharray="1.946" fill-rule="evenodd"/>
            <path id="Path-8-Copy" d="M14.109,2.162l2.4,5.784" transform="translate(-1.527 -0.244)" fill="none" stroke="#3a9cff" stroke-linecap="round" stroke-linejoin="round" stroke-width="0.7" stroke-dasharray="1.946" fill-rule="evenodd"/>
          </g>
        </g>
      </g>
    </g>
  </g>
</svg>
