<svg xmlns="http://www.w3.org/2000/svg" width="24" height="24" viewBox="0 0 24 24">
  <g id="Grupo_261" data-name="Grupo 261" transform="translate(-34 -914)">
    <rect id="Placement_Area" data-name="Placement Area" width="24" height="24" transform="translate(34 914)" fill="none"/>
    <g id="Page-1" transform="translate(35.505 916.459)">
      <g id="Group-30" transform="translate(-0.001 0)">
        <g id="Group-18">
          <g id="Group-17">
            <g id="Group-7">
              <g id="Group-14-Copy-5">
                <g id="Group-14-Copy-3">
                  <path id="Stroke-24" d="M17.189,2.12C15.98-.551,12.3-.551,9.556,1.957H9.551c-7.728-7.092-16.935,6.59,0,17.125h.006a23.593,23.593,0,0,0,7.017-6.894Z" transform="translate(0.001 0)" fill="none" stroke="#47c7ac" stroke-width="1" fill-rule="evenodd"/>
                  <path id="Stroke-23" d="M20.968,5.437H18.941a.578.578,0,0,1-.578-.578V2.8a.578.578,0,0,0-.578-.578H15.864a.578.578,0,0,0-.578.578V4.859a.578.578,0,0,1-.578.578H12.678a.578.578,0,0,0-.578.58V7.971a.578.578,0,0,0,.578.578h2.029a.578.578,0,0,1,.578.578v2.058a.578.578,0,0,0,.578.578h1.921a.578.578,0,0,0,.578-.578V9.127a.578.578,0,0,1,.578-.578h2.027a.578.578,0,0,0,.578-.578V6.017a.578.578,0,0,0-.578-.58Z" transform="translate(-0.555 -0.102)" fill="#fbfbfb" stroke="#47c7ac" stroke-width="1" fill-rule="evenodd"/>
                </g>
              </g>
            </g>
          </g>
        </g>
      </g>
    </g>
  </g>
</svg>
