<svg xmlns="http://www.w3.org/2000/svg" width="24" height="24" viewBox="0 0 24 24">
  <g id="Grupo_259" data-name="Grupo 259" transform="translate(-34 -914)">
    <rect id="Placement_Area" data-name="Placement Area" width="24" height="24" transform="translate(34 914)" fill="none"/>
    <g id="Page-1" transform="translate(37.108 916.524)">
      <g id="Group-26" transform="translate(0.004 -0.001)">
        <g id="Group-12">
          <path id="Stroke-25-Copy-4" d="M33.166,12.95V7.208a.332.332,0,0,0-.332-.332H30.1a.332.332,0,0,0-.332.332V9.479l-3.16-3.23a.332.332,0,0,0-.471,0l0,0-8.555,8.738a.332.332,0,0,0,.238.565h.908v9.217a.332.332,0,0,0,.332.332h4.434a.332.332,0,0,0,.332-.332V19.836a2.547,2.547,0,0,1,2.547-2.547h0a2.547,2.547,0,0,1,2.547,2.547V24.77a.332.332,0,0,0,.325.332h4.432a.332.332,0,0,0,.332-.332V15.555h.909a.332.332,0,0,0,.246-.567Z" transform="translate(-17.484 -6.149)" fill="none" stroke="#ac68ff" stroke-width="1" fill-rule="evenodd"/>
        </g>
      </g>
    </g>
  </g>
</svg>
