<svg xmlns="http://www.w3.org/2000/svg" width="25.075" height="24.786" viewBox="0 0 25.075 24.786">
  <g id="Grupo_263" data-name="Grupo 263" transform="translate(-33.425 -913.607)">
    <rect id="Placement_Area" data-name="Placement Area" width="24" height="24" transform="translate(34 914)" fill="none"/>
    <g id="Page-1" transform="translate(34.002 914.107)">
      <g id="Group-28" transform="translate(-0.002)">
        <g id="Group-14">
          <path id="Stroke-22-Copy-4" d="M30.913,14.245h.768c.509,0,.238-1.515.238-1.674s-.476,0-1.417,0h-.989l-1.07-1.576h1.07a9.247,9.247,0,0,0,0-1.511c0-.209-.409-.209-1.07-.209H27Q24.5,6,23.847,6a1.164,1.164,0,0,0-.655.246.638.638,0,0,0-.357.508,4.363,4.363,0,0,0,.751,1.408,35.874,35.874,0,0,1,2.19,4.251,15.346,15.346,0,0,1,1.436,3.759c0,.273-.426.427-1.282.452a36.784,36.784,0,0,0-6.048.388A10.753,10.753,0,0,1,18.835,15.7a7.388,7.388,0,0,0-1.15-1.352,2.092,2.092,0,0,0-1.114-.215A1,1,0,0,0,16,14.25,19.379,19.379,0,0,0,17.262,17.9,13.13,13.13,0,0,0,16,21.544a.969.969,0,0,0,.573.119,2.085,2.085,0,0,0,1.107-.207,7.143,7.143,0,0,0,1.148-1.349,11.413,11.413,0,0,1,1.056-1.324,26.222,26.222,0,0,0,4.242.348,17.5,17.5,0,0,1,2.748.139c.227.071.34.19.34.357a15.586,15.586,0,0,1-1.436,3.752,35.71,35.71,0,0,1-2.19,4.253,4.392,4.392,0,0,0-.751,1.408.644.644,0,0,0,.357.51,1.225,1.225,0,0,0,.655.238q.657,0,3.152-3.258h1.442c.66,0,1.469.119,1.469-.365,0-.421.069-1.277-.4-1.277H28.127l1.383-1.657h1c.845,0,1.82.214,1.82-.268,0-.428.106-1.289-.4-1.289H30.733l2.2-2.548h3.1Q40,19.125,40,17.843c0-.339-.53-.613-1.6-.832a13.078,13.078,0,0,0-2.366-.325h-3.1Z" transform="translate(-15.998 -6)" fill="none" stroke="#f0cd34" stroke-width="1" fill-rule="evenodd"/>
        </g>
      </g>
    </g>
  </g>
</svg>
