<svg xmlns="http://www.w3.org/2000/svg" width="55.6" height="42.943" viewBox="0 0 55.6 42.943">
  <g id="Grupo_114576" data-name="Grupo 114576" transform="translate(17185.6 1180)">
    <path id="Icon_material-outline-mail" data-name="Icon material-outline-mail" d="M49.8,10.68A4.694,4.694,0,0,0,45.123,6H7.68A4.694,4.694,0,0,0,3,10.68V38.762a4.694,4.694,0,0,0,4.68,4.68H45.123a4.694,4.694,0,0,0,4.68-4.68Zm-4.68,0L26.4,22.358,7.68,10.68Zm0,28.082H7.68v-23.4L26.4,27.061l18.721-11.7Z" transform="translate(-17188.6 -1180.5)" fill="#000325"/>
    <g id="Grupo_596" data-name="Grupo 596">
      <circle id="Elipse_2" data-name="Elipse 2" cx="11" cy="11" r="11" transform="translate(-17152 -1180)" fill="#fff"/>
      <path id="Icon_ion-checkmark-circled" data-name="Icon ion-checkmark-circled" d="M11.006,2.25a8.756,8.756,0,1,0,8.756,8.756A8.757,8.757,0,0,0,11.006,2.25ZM15.5,8.078,10.06,15.056c-.043.043-.113.137-.2.137a.288.288,0,0,1-.2-.113c-.051-.051-3.084-2.967-3.084-2.967l-.059-.059a.2.2,0,0,1,0-.25.511.511,0,0,0,.043-.047c.3-.317.911-.958.95-1s.094-.117.188-.117.16.082.207.129,1.759,1.693,1.759,1.693l4.351-5.59a.223.223,0,0,1,.137-.055.219.219,0,0,1,.137.051l1.2.942a.219.219,0,0,1,.051.137.2.2,0,0,1-.039.129Z" transform="translate(-17152.006 -1180.006)" fill="#61af74"/>
    </g>
  </g>
</svg>
