<?xml version="1.0" encoding="UTF-8"?>
<svg viewBox="0 0 16 16" version="1.1" xmlns="http://www.w3.org/2000/svg" xmlns:xlink="http://www.w3.org/1999/xlink">
    <!-- Generator: Sketch 54.1 (76490) - https://sketchapp.com -->
    <title>Group 5</title>
    <desc>Created with Sketch.</desc>
    <g id="Page-1" stroke="none" stroke-width="1" fill="none" fill-rule="evenodd">
        <g id="header/fixeddesktop" transform="translate(-375.000000, -12.000000)" fill="#13032C">
            <g id="Group-5" transform="translate(375.000000, 12.000000)">
                <path d="M1,0 L15,0 C15.5522847,-1.01453063e-16 16,0.44771525 16,1 L16,1 C16,1.55228475 15.5522847,2 15,2 L1,2 C0.44771525,2 6.76353751e-17,1.55228475 0,1 L0,1 C-6.76353751e-17,0.44771525 0.44771525,1.01453063e-16 1,0 Z" id="Rectangle-3"></path>
                <path d="M1,8 L15,8 C15.5522847,8 16,8.44771525 16,9 L16,9 C16,9.55228475 15.5522847,10 15,10 L1,10 C0.44771525,10 6.76353751e-17,9.55228475 0,9 L0,9 C-6.76353751e-17,8.44771525 0.44771525,8 1,8 Z" id="Rectangle-3-Copy"></path>
                <path d="M1,16 L15,16 C15.5522847,16 16,16.4477153 16,17 L16,17 C16,17.5522847 15.5522847,18 15,18 L1,18 C0.44771525,18 6.76353751e-17,17.5522847 0,17 L0,17 C-6.76353751e-17,16.4477153 0.44771525,16 1,16 Z" id="Rectangle-3-Copy-2"></path>
            </g>
        </g>
    </g>
</svg>