<?xml version="1.0" encoding="utf-8"?>
<!-- Generator: Adobe Illustrator 25.4.1, SVG Export Plug-In . SVG Version: 6.00 Build 0)  -->
<svg version="1.1" id="Capa_1" xmlns="http://www.w3.org/2000/svg" xmlns:xlink="http://www.w3.org/1999/xlink" x="0px" y="0px"
	 viewBox="0 0 75 30" style="enable-background:new 0 0 75 30;" xml:space="preserve">
<style type="text/css">
	.st0{fill:#0075A7;}
	.st1{fill:url(#SVGID_1_);}
</style>
<desc>Created with Sketch.</desc>
<g>
	<polygon class="st0" points="28.9,10.1 35,10.1 35,11.7 31.3,11.7 31.3,13.7 34,13.7 34,15.1 31.3,15.1 31.3,20.5 35,20.5 35,21.9 
		28.9,21.9 	"/>
	<polygon class="st0" points="16.8,10.1 24.5,10.1 24.5,11.8 22,11.8 22,21.9 19.4,21.9 19.4,11.7 16.8,11.7 	"/>
	<polygon class="st0" points="7.7,10.1 10.1,10.1 10.1,20.5 13.7,20.5 13.7,21.9 7.7,21.9 	"/>
	<polygon class="st0" points="0.4,10.1 6.5,10.1 6.5,11.7 2.9,11.7 2.9,13.7 5.6,13.7 5.6,15.1 2.9,15.1 2.9,20.5 6.5,20.5 
		6.5,21.9 0.4,21.9 	"/>
	<g>
		<path class="st0" d="M61.2,16c0,2.5-0.6,4.5-1.3,4.9c-0.1,0-0.1,0.1-0.2,0.1c-0.9,0-1.5-2.3-1.5-5c0-2.8,0.7-5,1.5-5
			C60.6,11,61.2,13.3,61.2,16 M64.4,16c0-3.3-2.1-5.9-4.7-5.9c-2.6,0-4.7,2.7-4.7,5.9c0,3.3,2.1,5.9,4.7,5.9
			C62.3,22,64.4,19.3,64.4,16"/>
		<path class="st0" d="M49,15.9h1.7c0.7,0,1.2-1.1,1.2-2.1c0-1-0.7-2-1.4-2H49V15.9z M49,17.6v4.3h-2.7V10.1h5c1.8,0,3,1.8,3,3.9
			c0,2.1-1.6,3.6-2.8,3.6L49,17.6z"/>
		<polygon class="st0" points="37.9,21.9 36.3,21.9 36.3,10.1 37.9,10.1 40.7,15.9 42.8,10.1 45.3,10.1 45.3,21.9 42.6,21.9 
			42.6,15.7 40.5,21.9 40.1,21.9 37.9,16.1 		"/>
		<rect x="25.3" y="10.1" class="st0" width="2.4" height="11.8"/>
	</g>
	<path class="st0" d="M5.2,1.6c0,0.1,0,0.3-0.1,0.4C5,2,4.9,2.1,4.8,2.2C4.7,2,4.4,1.9,4.2,1.8C4,1.7,3.7,1.7,3.4,1.7
		C2.8,1.7,2.3,1.9,2,2.3S1.4,3.2,1.4,3.9c0,0.7,0.2,1.3,0.6,1.7C2.3,6,2.8,6.2,3.5,6.2c0.3,0,0.6,0,0.8-0.1C4.5,6,4.7,5.9,4.9,5.7
		C5,5.8,5.1,5.9,5.2,6c0.1,0.1,0.1,0.2,0.1,0.4c0,0.1,0,0.2-0.1,0.3C5.1,6.8,5,6.9,4.8,7C4.7,7.1,4.5,7.1,4.2,7.2
		C4,7.3,3.7,7.3,3.3,7.3C2.8,7.3,2.4,7.3,2,7.1C1.6,7,1.2,6.8,1,6.5C0.7,6.2,0.4,5.9,0.3,5.4C0.1,5,0,4.5,0,3.9c0-0.6,0.1-1,0.3-1.5
		s0.4-0.8,0.7-1.1c0.3-0.3,0.6-0.5,1-0.7c0.4-0.1,0.8-0.2,1.2-0.2c0.3,0,0.6,0,0.8,0.1c0.2,0.1,0.5,0.1,0.6,0.2C4.9,0.9,5,1,5.1,1.2
		C5.2,1.3,5.2,1.4,5.2,1.6z M7.6,7.2c-0.1,0-0.2,0-0.4,0c-0.3,0-0.4,0-0.6-0.1C6.5,7,6.5,6.8,6.5,6.6V0.3c0.1,0,0.1,0,0.2-0.1
		c0.1,0,0.2,0,0.4,0c0.3,0,0.4,0,0.6,0.1s0.2,0.3,0.2,0.5v6.3C7.8,7.2,7.7,7.2,7.6,7.2z M13.9,6.6c-0.1,0.1-0.2,0.2-0.3,0.3
		c-0.2,0.1-0.5,0.2-0.8,0.3c-0.3,0.1-0.7,0.1-1.1,0.1c-0.4,0-0.7,0-1-0.1C10.4,7.1,10.2,7,9.9,6.8C9.7,6.6,9.6,6.4,9.5,6.2
		C9.3,5.9,9.3,5.6,9.3,5.2V2.2c0.1,0,0.1,0,0.2-0.1c0.1,0,0.2,0,0.4,0c0.2,0,0.4,0,0.6,0.1c0.1,0.1,0.2,0.3,0.2,0.5v2.5
		c0,0.4,0.1,0.6,0.3,0.8c0.2,0.2,0.5,0.2,0.8,0.2c0.2,0,0.4,0,0.6-0.1c0.2,0,0.3-0.1,0.3-0.1V2.2c0.1,0,0.1,0,0.2-0.1
		c0.1,0,0.2,0,0.4,0c0.3,0,0.4,0,0.6,0.1s0.2,0.3,0.2,0.5v3.5C13.9,6.3,13.9,6.5,13.9,6.6z M17.9,2c0.3,0,0.7,0.1,0.9,0.2
		c0.3,0.1,0.5,0.3,0.8,0.5c0.2,0.2,0.4,0.5,0.5,0.8c0.1,0.3,0.2,0.7,0.2,1.2c0,0.4-0.1,0.8-0.2,1.2c-0.1,0.3-0.3,0.6-0.5,0.8
		c-0.2,0.2-0.5,0.4-0.8,0.5c-0.3,0.1-0.7,0.2-1.1,0.2c-0.4,0-0.8,0-1.1-0.1c-0.3-0.1-0.6-0.2-0.8-0.3c-0.1-0.1-0.3-0.2-0.3-0.3
		s-0.1-0.3-0.1-0.4V0.3c0.1,0,0.1,0,0.2-0.1c0.1,0,0.2,0,0.4,0c0.2,0,0.4,0,0.6,0.1c0.1,0.1,0.2,0.3,0.2,0.5v1.5
		c0.1-0.1,0.3-0.1,0.5-0.2C17.4,2,17.6,2,17.9,2z M17.7,3c-0.2,0-0.4,0-0.5,0.1c-0.2,0.1-0.3,0.1-0.4,0.2V6c0.1,0.1,0.2,0.1,0.4,0.2
		c0.2,0.1,0.3,0.1,0.5,0.1c0.4,0,0.7-0.1,1-0.4s0.4-0.7,0.4-1.2c0-0.6-0.1-1-0.4-1.2S18,3,17.7,3z"/>
	<linearGradient id="SVGID_1_" gradientUnits="userSpaceOnUse" x1="29.4899" y1="26.5253" x2="63.266" y2="26.5253">
		<stop  offset="0" style="stop-color:#E04E34"/>
		<stop  offset="0.1642" style="stop-color:#E15035"/>
		<stop  offset="0.2233" style="stop-color:#E35737"/>
		<stop  offset="0.2654" style="stop-color:#E7623B"/>
		<stop  offset="0.2995" style="stop-color:#ED7340"/>
		<stop  offset="0.3287" style="stop-color:#F48948"/>
		<stop  offset="0.3541" style="stop-color:#FDA450"/>
		<stop  offset="0.3582" style="stop-color:#FFA952"/>
		<stop  offset="0.6447" style="stop-color:#5CB864"/>
		<stop  offset="0.6461" style="stop-color:#5CB765"/>
		<stop  offset="0.6749" style="stop-color:#5C9F7F"/>
		<stop  offset="0.7064" style="stop-color:#5C8D94"/>
		<stop  offset="0.7423" style="stop-color:#5C80A2"/>
		<stop  offset="0.7856" style="stop-color:#5C78AA"/>
		<stop  offset="0.8571" style="stop-color:#5C76AD"/>
		<stop  offset="0.9982" style="stop-color:#4A649E"/>
	</linearGradient>
	<path class="st1" d="M32.7,25.4c0.1-0.3,0.3-0.4,0.5-0.4c0.1,0,0.1,0,0.2,0c0.3,0.1,0.4,0.4,0.3,0.7c-0.3,0.8-1.4,3.5-1.4,3.5
		s-0.2,0.6-0.7,0.6c-0.5,0-0.7-0.6-0.7-0.6s-1.3-3.3-1.4-3.5c-0.1-0.3,0.1-0.6,0.3-0.7c0.3-0.1,0.6,0.1,0.7,0.3c0,0.1,1.1,3,1.1,3
		S32.7,25.4,32.7,25.4 M34.6,25.6c0,0.1,0,0.2,0,0.2l0,1.7v0c0,0,0,1.6,0,1.8c0,0.4,0.3,0.6,0.5,0.6c0.3,0,0.5-0.2,0.5-0.6
		c0-0.2,0-1.8,0-1.8l0-1.7c0,0,0,0,0-0.2c0-0.3-0.2-0.6-0.5-0.6C34.8,25,34.6,25.2,34.6,25.6 M34.6,23.8c0,0.3,0.2,0.6,0.5,0.6
		c0.3,0,0.5-0.3,0.5-0.6c0-0.3-0.2-0.6-0.5-0.6C34.8,23.2,34.6,23.5,34.6,23.8 M42.3,28.5c0,0.4,0.5,0.4,0.8,0.4c0.1,0,0.1,0,0.1,0
		c1.6,0,1.2-1.4,1.2-1.4c-0.2,0.1-0.5,0.2-1.4,0.3C43,27.8,42.2,27.8,42.3,28.5 M42.2,25.4c0.6-0.4,1.4-0.4,1.4-0.4
		c0.9,0,1.5,0.3,1.7,0.9c0,0.1,0.1,0.2,0.1,0.4v1.4c0,1.1-1,2.1-2.6,2.1c-1.8,0-1.7-1.4-1.7-1.4c0-0.7,0.5-1.3,1.9-1.4
		c1.4-0.1,1.3-0.3,1.3-0.5c0-0.3-0.4-0.5-1-0.5c-0.4,0-0.6,0.3-1,0.3c0,0-0.1,0-0.2,0c-0.1-0.1-0.3-0.3-0.3-0.6
		C42.1,25.5,42.1,25.5,42.2,25.4 M51.3,25c-0.7,0-1.1,0.2-1.4,0.7h0C49.4,25.3,49,25,48.3,25h-0.1c-0.6,0-0.9,0.2-1.2,0.4
		c-0.5,0.4-0.8,1-0.8,1.6l0,1.9c0,0,0,0.2,0,0.3c0,0.4,0.3,0.6,0.5,0.6c0.3,0,0.5-0.2,0.5-0.6V29v-1.6c0,0,0,0,0-0.2
		c0-0.6,0.4-1,0.9-1c0.5,0,0.9,0.4,0.9,1c0,0.1,0,0,0,0c0,0,0-0.1,0,0.3l0,2c0,0,0.1,0.5,0.5,0.5c0.5,0,0.6-0.6,0.6-0.6V27
		c0-0.5,0.5-0.9,0.9-0.9c0.5,0,0.9,0.4,0.9,1c0,0.3,0,0.2,0,0.2V29v0.3c0,0.3,0.3,0.6,0.5,0.6c0.3,0,0.5-0.2,0.5-0.6
		c0-0.1,0-0.3,0-0.3l0-1.9c0-0.6-0.2-1.2-0.8-1.6C52.2,25.2,51.9,25,51.3,25L51.3,25z M54.9,27.4c0,0.8,0.7,1.3,1.3,1.3
		c0.9,0,1.3-0.7,1.3-1.3c0-0.6-0.4-1.3-1.3-1.3C55.5,26.1,54.9,26.6,54.9,27.4 M53.8,27.4c0-1.5,1.2-2.4,2.4-2.4
		c1.6,0,2.4,1.4,2.4,2.4c0,1.1-0.8,2.4-2.4,2.4C55.1,29.8,53.8,29,53.8,27.4 M59.9,25.2c-0.3,0.1-0.5,0.3-0.7,0.5
		c-0.1,0.2-0.2,0.4-0.2,0.7c0,0.3,0.1,0.5,0.2,0.7c0.2,0.2,0.4,0.3,0.7,0.4c0.3,0.1,0.6,0.2,1.1,0.3c0.4,0.1,0.7,0.2,0.8,0.3
		c0.2,0.1,0.3,0.2,0.3,0.5c0,0.1-0.1,0.3-0.2,0.4C61.6,29,61.4,29,61.2,29c-0.3,0-0.6-0.1-0.7-0.2c-0.2-0.1-0.3-0.3-0.5-0.5
		c-0.1-0.1-0.1-0.2-0.2-0.3c-0.1-0.1-0.2-0.1-0.3-0.1c-0.2,0-0.3,0-0.4,0.1c-0.1,0.1-0.1,0.2-0.1,0.3c0,0.2,0.1,0.4,0.2,0.6
		c0.2,0.2,0.4,0.4,0.7,0.5c0.3,0.1,0.7,0.2,1.2,0.2c0.5,0,0.9-0.1,1.2-0.2c0.3-0.1,0.6-0.3,0.8-0.5c0.2-0.2,0.3-0.5,0.3-0.8
		c0-0.2-0.1-0.4-0.2-0.6c-0.1-0.2-0.3-0.3-0.6-0.4c-0.2-0.1-0.6-0.2-1-0.3c-0.3-0.1-0.6-0.1-0.8-0.2c-0.2-0.1-0.3-0.1-0.4-0.2
		c-0.1-0.1-0.2-0.2-0.2-0.3c0-0.1,0.1-0.2,0.2-0.3c0.2-0.1,0.3-0.1,0.6-0.1c0.2,0,0.4,0,0.5,0.1c0.1,0.1,0.2,0.2,0.3,0.3
		c0.1,0.1,0.2,0.2,0.3,0.3c0.1,0.1,0.2,0.1,0.3,0.1c0.2,0,0.3,0,0.4-0.1c0.1-0.1,0.1-0.2,0.1-0.3c0-0.1,0-0.3-0.1-0.4
		c-0.1-0.1-0.2-0.2-0.4-0.4c-0.2-0.1-0.4-0.2-0.7-0.3C61.6,25,61.3,25,61,25C60.5,25,60.2,25.1,59.9,25.2 M39.7,25.4
		c0,0.1-1.1,3-1.1,3s-1.1-3-1.1-3c-0.1-0.3-0.4-0.4-0.7-0.3c-0.3,0.1-0.4,0.4-0.3,0.7c0.1,0.2,1.4,3.5,1.4,3.5s0.2,0.6,0.7,0.6
		c0.5,0,0.7-0.6,0.7-0.6s1.1-2.7,1.4-3.5c0.1-0.3-0.1-0.6-0.3-0.7c-0.1,0-0.1,0-0.2,0C40,25,39.8,25.1,39.7,25.4"/>
</g>
</svg>
