<?xml version="1.0" encoding="utf-8"?>
<!-- Generator: Adobe Illustrator 22.1.0, SVG Export Plug-In . SVG Version: 6.00 Build 0)  -->
<svg version="1.1" id="Capa_1" xmlns="http://www.w3.org/2000/svg" xmlns:xlink="http://www.w3.org/1999/xlink" x="0px" y="0px"
	width="75px" height="30px" viewBox="0 0 74.5 29.8" style="enable-background:new 0 0 74.5 29.8;" xml:space="preserve">
<style type="text/css">
	.st0{fill:#3677B2;enable-background:new    ;}
	.st1{fill:url(#SVGID_1_);}
	.st2{fill:url(#SVGID_2_);}
	.st3{fill:url(#SVGID_3_);}
	.st4{fill:url(#SVGID_4_);}
	.st5{fill:url(#SVGID_5_);}
	.st6{fill:url(#SVGID_6_);}
	.st7{fill:url(#SVGID_7_);}
	.st8{fill:url(#SVGID_8_);}
</style>
<title>logotiposETvivamos[2] (3) Copy</title>
<desc>Created with Sketch.</desc>
<g>
	<path class="st0" d="M33.1,5.5c2.1,0,4.1,0,6.2,0c0.2,0,0.4,0,0.6,0c0,0,0.2,0,0.3,0c0,0,0,0.3,0,0.3c0,0.3,0,0.7,0,1
		c0,0.1,0,0.4,0,0.5c0,0-0.3,0-0.3,0c-0.6,0-1.2,0-1.8,0c-0.6,0-1.2,0-1.8,0c0,0-0.3,0-0.4,0c0,0,0,0.3,0,0.4c0,0.6,0,1.2,0,1.8
		c0,0.2,0,0.1,0.1,0.2c0.2,0,0.5,0,0.6,0c0.6,0,1.3,0,1.9,0c0.1,0,0.4,0,0.5,0c0,0,0,0.4,0,0.5c0,0.3,0,0.6,0,0.9
		c0,0.2,0,0.1-0.1,0.2c-0.2,0-0.5,0-0.7,0c-0.3,0-0.7,0-1,0c-0.3,0-0.6,0-0.9,0c0,0-0.4,0-0.4,0c-0.1,0.1,0,0.6,0,0.8
		c0,1.2,0,2.5,0,3.7c0,0.5,0,1,0,1.5c0,0.2-0.1,0.3,0.2,0.3c1.2,0,2.3,0,3.5,0c0.1,0,0.4,0,0.5,0c0.1,0,0.1,0.1,0.1,0.2
		c0,0.3,0,0.6,0,1c0,0.1,0,0.4,0,0.5c0,0-0.2,0-0.2,0c-0.2,0-0.4,0-0.6,0c-0.6,0-1.2,0-1.7,0c-1.2,0-2.5,0-3.8,0
		c-0.1,0-0.7,0.1-0.8,0c0,0,0-0.3,0-0.4c0-2.2,0-4.3,0-6.4c0-2.2,0-4.3,0-6.5C33.1,5.8,33.1,5.6,33.1,5.5z"/>
	<path class="st0" d="M19,5.5c1.4,0,2.7,0,4.1,0c1,0,2,0,3,0c0.4,0,0.8,0,1.1,0c0.1,0,0.5-0.1,0.6,0C28,5.6,28,6,28,6.1
		c0,0.4,0,0.9,0,1.3c-1,0-1.9,0-2.9,0c0,2.1,0,4.2,0,6.3c0,1.4,0,2.7,0,4.1c0,0.4,0,0.8,0,1.2c0,0.3,0,0.2-0.3,0.2
		c-0.7,0-1.4,0-2.1,0c-0.1,0-0.6,0.1-0.7,0c0,0,0,0,0-0.1c-0.1-0.2,0-0.7,0-0.9c0-0.6,0-1.1,0-1.7c0-2.7,0-5.5,0-8.3
		c0-0.2,0-0.4,0-0.6c0-0.1,0-0.2,0-0.3c-0.1-0.1-0.6-0.1-0.8-0.1c-0.7,0-1.3,0-2,0c-0.2,0-0.2,0-0.2-0.1c0-0.3,0-0.7,0-1
		C19,6,19,5.8,19,5.5z"/>
	<path class="st0" d="M8.4,5.5c0.8,0,1.5,0,2.3,0c0.1,0,0.5,0,0.6,0c0,0,0,0.3,0,0.3c0,1.5,0,3,0,4.5c0,1.9,0,3.7,0,5.6
		c0,0.5,0,1,0,1.5c0,0.1,0,0.1,0,0.1c0,0,0.2,0,0.3,0c0.2,0,0.4,0,0.5,0c0.9,0,1.9,0,2.8,0c0.1,0,0.4,0,0.5,0c0,0.1,0,0.4,0,0.5
		c0,0.3,0,0.5,0,0.8c0,0,0,0.3,0,0.4c0,0-0.1,0-0.1,0c-0.2,0-0.5,0-0.7,0c-0.9,0-1.8,0-2.7,0s-1.8,0-2.7,0c-0.2,0-0.5,0.1-0.7,0
		c-0.1,0,0,0-0.1-0.1c0-0.1,0-0.3,0-0.4c0-0.3,0-0.5,0-0.8c0-0.8,0-1.5,0-2.3c0-3.3,0-6.6,0-9.9C8.4,5.7,8.4,5.6,8.4,5.5z"/>
	<path class="st0" d="M0,5.5c2.1,0,4.1,0,6.2,0c0.2,0,0.4,0,0.6,0c0,0,0.2,0,0.3,0c0,0,0,0.2,0,0.3c0,0.3,0,0.6,0,1
		c0,0.1,0,0.5,0,0.5c0,0-0.3,0-0.3,0c-0.6,0-1.2,0-1.7,0c-0.6,0-1.2,0-1.8,0c0,0-0.3,0-0.4,0c0,0,0,0.4,0,0.4c0,0.3,0,0.6,0,1
		c0,0.2,0,0.5,0,0.8c0,0.1,0,0.1,0.1,0.1c0.2,0,0.5,0,0.7,0c0.6,0,1.2,0,1.9,0c0.1,0,0.3,0,0.4,0c0,0,0,0.5,0,0.6c0,0.3,0,0.6,0,0.9
		c0,0.1,0,0.1-0.1,0.1c-0.6,0-1.2,0-1.7,0c-0.3,0-0.6,0-0.9,0c0,0-0.3,0-0.3,0c-0.1,0.1,0,0.7,0,0.8c0,1.3,0,2.5,0,3.8
		c0,0.5,0,1,0,1.4c0,0.3,0,0.3,0.2,0.3c1.2,0,2.3,0,3.5,0c0.1,0,0.4,0,0.5,0c0.1,0,0,0.2,0,0.3c0,0.3,0,0.7,0,1c0,0.1,0,0.3,0,0.3
		c0,0-0.2,0-0.3,0c-0.2,0-0.4,0-0.6,0c-0.6,0-1.2,0-1.8,0c-1.2,0-2.5,0-3.7,0c-0.1,0-0.6,0.1-0.7,0c0,0,0-0.3,0-0.4
		c0-2.2,0-4.3,0-6.5s0-4.3,0-6.4C0,5.8,0,5.6,0,5.5z"/>
	<path class="st0" d="M61,6.2c-1.1-1-2.7-0.7-4.1-0.7c-0.9,0-1.7,0-2.5,0c-0.3,0-0.5,0-0.8,0c0,0-0.2,0-0.2,0c0,0,0,0.2,0,0.3
		c0,0.2,0,0.4,0,0.6c0,0.6,0,1.2,0,1.8c0,1.7,0,3.4,0,5.1c0,1.5,0,3.1,0,4.6c0,0.4,0,0.8,0,1.2c0,0,0,0.1,0,0.1c0.1,0.1,0.5,0,0.6,0
		c0.8,0,1.6,0,2.4,0c0.2,0,0.1,0,0.1-0.1c0-0.2,0-0.5,0-0.8c0-1.3,0-2.7,0-4c0.2,0,0.4,0,0.6,0c0.7,0,1.5,0,2.2,0
		c0.9,0,1.6-0.5,2.2-1.2C63,11.2,62.9,7.8,61,6.2z M59.9,10c0,0.7-0.3,1.8-1,2.2c-0.3,0.2-0.8,0.1-1.2,0.1c-0.4,0-0.8,0-1.2,0
		c0-0.9,0-1.7,0-2.6c0-0.5,0-1,0-1.5c0-0.1-0.1-0.6,0-0.7c0,0,0.4,0,0.5,0c0.2,0,0.5,0,0.7,0c0.5,0,0.9,0,1.3,0.3
		C59.7,8.2,59.9,9.2,59.9,10z"/>
	<path class="st0" d="M43.6,19.2c-0.4,0-0.9,0-1.3,0c-0.1,0-0.5,0.1-0.6,0c0-0.1,0-0.4,0-0.5c0-0.3,0-0.7,0-1c0-2.2,0-4.5,0-6.7
		c0-1.7,0-3.5,0-5.2c0-0.1,0-0.1,0.1-0.2c0.2-0.1,0.5,0,0.7,0c0.3,0,0.6,0,0.9,0c0.3,0,0.3,0,0.4,0.2c0.1,0.3,0.3,0.6,0.5,1
		c0.5,1,1,2.1,1.5,3.1c0.4,0.8,0.7,1.6,1.1,2.4c0,0,0,0.1,0.1,0.1c0.4-1,0.7-2,1.1-3c0.3-0.8,0.5-1.5,0.8-2.3
		c0.1-0.3,0.2-0.6,0.3-0.8c0-0.1,0.1-0.4,0.2-0.5c0.1-0.1,0-0.1,0.1-0.1c0.3,0,0.6,0,0.9,0c0.4,0,0.8,0,1.2,0c0.1,0,0.6-0.1,0.7,0
		c0,0,0,0.4,0,0.5c0,0.5,0,1,0,1.4c0,3.1,0,6.2,0,9.2c0,0.6,0,1.1,0,1.7c0,0.2,0,0.4,0,0.6c0,0.1,0,0.2,0,0.3c-0.1,0.1-0.8,0-1,0
		c-0.4,0-0.8,0-1.2,0c-0.1,0-0.3,0-0.5,0c-0.1,0-0.3,0-0.4,0c-0.1,0,0,0-0.1-0.1c0-0.2,0-0.4,0-0.6c0-0.7,0-1.4,0-2.1
		c0-1.4,0-2.8,0-4.2c0-0.1,0-0.2,0-0.3c-0.7,2.1-1.5,4.2-2.2,6.3c-0.1,0.2-0.1,0.4-0.2,0.6c0,0,0,0.2-0.1,0.3c0,0-0.4,0-0.4,0
		c0,0-0.1-0.2-0.1-0.3c-0.4-1.2-0.9-2.3-1.3-3.5c-0.4-1-0.8-2-1.1-3c0,2,0,4,0,6C43.6,18.6,43.6,18.9,43.6,19.2z"/>
	<path class="st0" d="M28.9,5.5c0.6,0,1.2,0,1.7,0c0.2,0,1-0.1,1.1,0c0.1,0.1,0,0.6,0,0.8c0,0.5,0,1.1,0,1.6c0,3,0,6,0,9
		c0,0.5,0,1,0,1.5c0,0.1,0.1,0.6,0,0.8c-0.1,0.1-1,0-1.1,0c-0.4,0-0.7,0-1.1,0c-0.1,0-0.5,0-0.6,0c0,0,0-0.4,0-0.5
		c0-0.5,0-0.9,0-1.4c0-1.4,0-2.9,0-4.3C28.9,10.5,28.9,8.1,28.9,5.5C28.9,5.6,28.9,5.6,28.9,5.5z"/>
	<path class="st0" d="M70.8,5.9C68.5,4.8,66,6,64.7,8c-1.5,2.3-1.7,5.5-0.5,8c1.1,2.2,3.3,3.8,5.8,3.2c2.9-0.7,4.4-4,4.4-6.8
		C74.4,9.8,73.2,7,70.8,5.9z M70.4,15.7c-0.1,0.7-0.4,1.5-0.8,2.1c-0.1,0.1-0.4,0.5-0.6,0.5c-0.2,0-0.4-0.2-0.6-0.3
		c-0.5-0.5-0.7-1.3-0.9-2c-0.5-2.2-0.5-4.5-0.1-6.7c0.1-0.6,0.7-3.4,1.9-2.6c0.6,0.4,0.8,1.3,1,2c0.3,1.2,0.4,2.5,0.4,3.7
		C70.7,13.5,70.6,14.6,70.4,15.7z"/>
	<g>
		<linearGradient id="SVGID_1_" gradientUnits="userSpaceOnUse" x1="74.3151" y1="26.3488" x2="29.7329" y2="26.3488">
			<stop  offset="0" style="stop-color:#6A80B5"/>
			<stop  offset="1.838240e-03" style="stop-color:#6A80B5"/>
			<stop  offset="0.35" style="stop-color:#8DB359"/>
			<stop  offset="0.6895" style="stop-color:#E6BA54"/>
			<stop  offset="1" style="stop-color:#CD763C"/>
		</linearGradient>
		<path class="st1" d="M30.1,23.5c-0.5,1.4-1.1,2.9-1.6,4.3c-0.5-1.3-1-2.6-1.4-3.9c0-0.2-0.1-0.3-0.2-0.5c-0.3-0.6-1.2-0.7-1.4,0
			c-0.2,0.5,0.2,1.3,0.4,1.8c0.5,1.3,1,2.6,1.5,3.8c0.4,0.9,1.4,1.1,2,0.2c0.3-0.4,0.4-0.9,0.6-1.3c0.4-1.1,0.9-2.1,1.3-3.1
			c0.1-0.4,0.5-0.9,0.3-1.3C31.4,22.7,30.3,22.7,30.1,23.5z"/>
		<linearGradient id="SVGID_2_" gradientUnits="userSpaceOnUse" x1="74.3151" y1="26.3467" x2="29.7329" y2="26.3467">
			<stop  offset="0" style="stop-color:#6A80B5"/>
			<stop  offset="1.838240e-03" style="stop-color:#6A80B5"/>
			<stop  offset="0.35" style="stop-color:#8DB359"/>
			<stop  offset="0.6895" style="stop-color:#E6BA54"/>
			<stop  offset="1" style="stop-color:#CD763C"/>
		</linearGradient>
		<path class="st2" d="M34.3,25.3c0-0.4,0-0.9,0-1.3c0-0.4-0.1-0.9-0.6-1c-0.5-0.1-1,0.3-1,0.8c0,1.7,0,3.5,0,5.3
			c0,0.8,1.1,1.2,1.5,0.4c0.2-0.4,0.1-1.1,0.1-1.6C34.3,27,34.3,26.1,34.3,25.3z"/>
		<linearGradient id="SVGID_3_" gradientUnits="userSpaceOnUse" x1="74.3151" y1="21.1764" x2="29.7329" y2="21.1764">
			<stop  offset="0" style="stop-color:#6A80B5"/>
			<stop  offset="1.838240e-03" style="stop-color:#6A80B5"/>
			<stop  offset="0.35" style="stop-color:#8DB359"/>
			<stop  offset="0.6895" style="stop-color:#E6BA54"/>
			<stop  offset="1" style="stop-color:#CD763C"/>
		</linearGradient>
		<path class="st3" d="M34.3,21.2c0-1-1.6-1-1.6,0S34.3,22.2,34.3,21.2z"/>
		<linearGradient id="SVGID_4_" gradientUnits="userSpaceOnUse" x1="74.3151" y1="26.3412" x2="29.7329" y2="26.3412">
			<stop  offset="0" style="stop-color:#6A80B5"/>
			<stop  offset="1.838240e-03" style="stop-color:#6A80B5"/>
			<stop  offset="0.35" style="stop-color:#8DB359"/>
			<stop  offset="0.6895" style="stop-color:#E6BA54"/>
			<stop  offset="1" style="stop-color:#CD763C"/>
		</linearGradient>
		<path class="st4" d="M48.6,24.5c-0.1-0.7-0.6-1.1-1.2-1.3c-1.1-0.4-2.5-0.3-3.5,0.3c-0.5,0.3-0.3,1.2,0.3,1.2
			c0.3,0,0.6-0.2,0.8-0.3c0.3-0.1,0.7-0.2,1-0.1c0.4,0,1,0.2,1,0.8c0,0.2,0,0.3-0.2,0.4c-0.3,0.2-0.9,0.2-1.2,0.3
			c-0.7,0.1-1.4,0.1-2.1,0.4c-0.7,0.3-1.2,0.9-1.2,1.7c0,0.5,0.2,1,0.5,1.3c0.8,0.8,2.1,0.8,3.1,0.6c1.1-0.2,2.1-0.9,2.5-2
			c0.3-0.7,0.2-1.5,0.2-2.2C48.6,25.2,48.7,24.8,48.6,24.5z M46.7,28c-0.5,0.5-2.6,0.9-2.7-0.2c-0.1-0.6,0.5-0.9,1-1
			c0.6-0.1,1.5,0,2-0.4C47.1,27,47,27.6,46.7,28z"/>
		<linearGradient id="SVGID_5_" gradientUnits="userSpaceOnUse" x1="74.3151" y1="26.3704" x2="29.7329" y2="26.3704">
			<stop  offset="0" style="stop-color:#6A80B5"/>
			<stop  offset="1.838240e-03" style="stop-color:#6A80B5"/>
			<stop  offset="0.35" style="stop-color:#8DB359"/>
			<stop  offset="0.6895" style="stop-color:#E6BA54"/>
			<stop  offset="1" style="stop-color:#CD763C"/>
		</linearGradient>
		<path class="st5" d="M60,25.9c0-1.7-1.3-3-3-3c-0.5,0-1,0.1-1.4,0.4c-0.2,0.1-0.3,0.2-0.5,0.4c-0.1,0.1-0.1,0.2-0.2,0.1
			c-0.1,0-0.2-0.2-0.3-0.3c-0.8-0.6-1.8-0.9-2.8-0.5c-1,0.3-1.7,1.2-2,2.2c-0.1,0.5-0.1,1.1-0.1,1.6c0,0.6,0,1.2,0,1.7
			c0,0.3,0,0.6,0.1,0.9c0.2,0.4,0.7,0.5,1.1,0.4c0.5-0.3,0.5-0.9,0.5-1.4c0-0.6,0-1.2,0-1.8c0-0.7,0-1.3,0.6-1.8
			c0.9-0.6,2.1,0.1,2.1,1.2c0,0.2,0,0.5,0,0.8c0,0.5,0,0.9,0,1.4c0,0.6-0.2,1.4,0.5,1.7c0.5,0.2,1-0.1,1.1-0.6c0-0.2,0-0.3,0-0.5
			c0-0.9,0-1.7,0-2.6c0-0.4,0-0.7,0.3-1c0.4-0.5,1.2-0.7,1.7-0.3c0.8,0.5,0.7,1.4,0.7,2.3c0,0.7,0,1.4,0,2.1c0,0.7,0.9,1.1,1.3,0.6
			c0.3-0.3,0.2-0.8,0.2-1.2C60,27.6,60,26.7,60,25.9z"/>
		<linearGradient id="SVGID_6_" gradientUnits="userSpaceOnUse" x1="74.3151" y1="26.3416" x2="29.7329" y2="26.3416">
			<stop  offset="0" style="stop-color:#6A80B5"/>
			<stop  offset="1.838240e-03" style="stop-color:#6A80B5"/>
			<stop  offset="0.35" style="stop-color:#8DB359"/>
			<stop  offset="0.6895" style="stop-color:#E6BA54"/>
			<stop  offset="1" style="stop-color:#CD763C"/>
		</linearGradient>
		<path class="st6" d="M63.8,22.9c-1.8,0.2-3.1,1.7-3.1,3.5c0,1.5,0.9,2.8,2.4,3.3c1.4,0.4,2.9,0,3.8-1.2
			C68.7,26.1,66.8,22.6,63.8,22.9z M63.9,28.2c-0.9-0.1-1.5-0.9-1.5-1.8c0-1.8,2.5-2.5,3.4-1C66.6,26.7,65.5,28.5,63.9,28.2z"/>
		<linearGradient id="SVGID_7_" gradientUnits="userSpaceOnUse" x1="74.3151" y1="26.3402" x2="29.7329" y2="26.3402">
			<stop  offset="0" style="stop-color:#6A80B5"/>
			<stop  offset="1.838240e-03" style="stop-color:#6A80B5"/>
			<stop  offset="0.35" style="stop-color:#8DB359"/>
			<stop  offset="0.6895" style="stop-color:#E6BA54"/>
			<stop  offset="1" style="stop-color:#CD763C"/>
		</linearGradient>
		<path class="st7" d="M74.5,27.3c-0.3-1.3-2.1-1.5-3.2-1.8c-0.4-0.1-1.3-0.2-1.3-0.8c0-0.7,1-0.7,1.5-0.7c0.3,0,0.6,0.2,0.9,0.4
			c0.2,0.2,0.4,0.6,0.8,0.7c0.8,0.2,1.3-0.5,0.8-1.2c-0.4-0.6-1.3-0.9-2-1c-0.8-0.1-1.6-0.1-2.4,0.2c-0.6,0.2-1.1,0.7-1.2,1.3
			c-0.1,0.7,0.1,1.2,0.7,1.6c0.5,0.4,1.2,0.5,1.8,0.7c0.5,0.1,1.3,0.2,1.7,0.6c0.5,0.5,0,1.1-0.5,1.2c-0.6,0.2-1.3,0.1-1.8-0.3
			c-0.5-0.3-0.6-1.1-1.3-1.1c-0.8,0.1-0.8,0.9-0.4,1.4c0.8,1.1,2.5,1.2,3.7,1C73.4,29.6,74.8,28.7,74.5,27.3z"/>
		<linearGradient id="SVGID_8_" gradientUnits="userSpaceOnUse" x1="74.3151" y1="26.3473" x2="29.7329" y2="26.3473">
			<stop  offset="0" style="stop-color:#6A80B5"/>
			<stop  offset="1.838240e-03" style="stop-color:#6A80B5"/>
			<stop  offset="0.35" style="stop-color:#8DB359"/>
			<stop  offset="0.6895" style="stop-color:#E6BA54"/>
			<stop  offset="1" style="stop-color:#CD763C"/>
		</linearGradient>
		<path class="st8" d="M40.2,23.5c-0.5,1.4-1.1,2.9-1.6,4.3c-0.5-1.3-1-2.6-1.4-3.9c0-0.2-0.1-0.3-0.2-0.5c-0.3-0.6-1.1-0.7-1.4,0
			c-0.2,0.5,0.2,1.3,0.4,1.8c0.5,1.3,1,2.6,1.5,3.8c0.4,0.9,1.4,1.1,2,0.2c0.3-0.4,0.4-0.9,0.6-1.3c0.4-1.1,0.9-2.1,1.3-3.1
			c0.1-0.4,0.4-0.9,0.3-1.3C41.5,22.7,40.4,22.7,40.2,23.5z"/>
	</g>
	<path class="st0" d="M2.2,1.2c-0.1-0.6-0.8-1-1.3-0.6C0.4,0.9,0.5,1.6,0.5,2.1c0,0.6,0.2,1.2,1,1.2C1.8,3.2,2,3,2.2,2.7
		c0.1-0.2,0-0.2,0.2-0.2c0.1,0,0.2,0,0.3,0C2.5,3.4,1.8,3.9,1,3.6C0.2,3.4,0.1,2.5,0.1,1.9s0.1-1.5,0.8-1.8c0.8-0.3,1.6,0.2,1.7,1.1
		C2.5,1.2,2.4,1.2,2.2,1.2z"/>
	<path class="st0" d="M4.7,3.2c0.4,0,0.8,0,1.2,0c0.1,0,0.4,0,0.5,0c0,0,0,0.4,0,0.4c0,0-0.4,0-0.4,0c-0.3,0-0.6,0-0.9,0
		c-0.1,0-0.8,0.1-0.8,0c0,0,0-0.3,0-0.4c0-0.2,0-0.5,0-0.7c0-0.5,0-1.1,0-1.6c0-0.2,0-0.4,0-0.6c0,0,0-0.2,0-0.3c0,0,0.4,0,0.4,0
		c0,0,0,0.3,0,0.3C4.7,1.3,4.7,2.3,4.7,3.2z"/>
	<path class="st0" d="M10.4,0.1c0,0.5,0,1,0,1.5c0,0.6,0.1,1.2-0.3,1.7C9.7,3.8,8.7,3.8,8.2,3.3C7.8,2.9,7.9,2.2,7.9,1.7
		c0-0.3,0-0.7,0-1c0-0.1-0.1-0.5,0-0.6c0,0,0.4,0,0.4,0c0.1,0.1,0,0.5,0,0.7c0,0.5,0,1,0,1.5c0,0.4,0.1,0.8,0.5,0.9
		c0.3,0.1,0.7,0.1,1-0.2C10.1,2.6,10,1.7,10,1.1c0-0.3,0-0.6,0-1c0,0,0-0.1,0-0.1C10.1,0,10.4,0.1,10.4,0.1z"/>
	<path class="st0" d="M13.4,0.1c0.4,0,1,0.1,1.2,0.5c0.2,0.4,0,1.1-0.5,1.2c1,0.2,0.8,1.6,0,1.8c-0.3,0.1-0.6,0-0.9,0
		c-0.1,0-0.7,0.1-0.7,0c0,0,0-0.4,0-0.4c0-0.3,0-0.6,0-0.9c0-0.6,0-1.3,0-1.9c0-0.2,0-0.2,0.1-0.2C12.8,0,13.1,0.1,13.4,0.1z
		 M12.8,1.6c0.3,0,0.9,0.1,1.2-0.1c0.5-0.3,0.2-0.9-0.2-1c-0.2,0-0.9-0.1-1,0c-0.1,0.1,0,0.5,0,0.6C12.8,1.3,12.8,1.4,12.8,1.6z
		 M12.8,3.2c0.4,0,0.9,0.1,1.3-0.1c0.2-0.1,0.3-0.4,0.3-0.7C14.3,2.2,14,2.1,13.7,2c-0.2,0-0.5,0-0.7,0c-0.2,0-0.2,0-0.3,0.1
		C12.7,2.4,12.8,2.9,12.8,3.2z"/>
	<path class="st0" d="M18.7,3.6c0-0.6,0-1.2,0-1.8c0-0.4,0-0.8,0-1.2c0-0.1-0.1-0.5,0-0.6c0,0,0.3,0,0.3,0c0.2,0,0.4,0,0.6,0
		c0.4,0,0.7,0,1,0.3c0.4,0.3,0.4,0.9,0.4,1.4c0,0.5,0,1-0.2,1.3C20.5,3.8,19.5,3.6,18.7,3.6z M20.7,2c0-0.6,0-1.4-0.6-1.5
		c-0.2,0-0.5,0-0.7,0c-0.2,0-0.2,0-0.2,0.2c0,0.6,0,1.2,0,1.7c0,0.2,0,0.5,0,0.7c0,0.2,0,0.1,0.2,0.1c0.3,0,0.6,0,0.9-0.1
		C20.7,2.9,20.7,2.4,20.7,2"/>
	<path class="st0" d="M25,0.1c0,0.1,0,0.3,0,0.4c0,0-0.3,0-0.3,0c-0.4,0-0.8,0-1.2,0c0,0-0.2,0-0.2,0c0,0,0,0.4,0,0.4
		c0,0.2,0,0.4,0,0.6c0,0.1,0,0,0.1,0.1c0.1,0,0.4,0,0.5,0c0.2,0,0.4,0,0.6,0c0,0,0.2,0,0.3,0s0,0.4,0,0.4c0,0-0.3,0-0.3,0
		c-0.2,0-0.4,0-0.7,0c-0.1,0-0.4,0-0.5,0c-0.1,0,0,0,0,0.1c0,0.2,0,0.4,0,0.5c0,0.1,0,0.4,0,0.5c0.1,0.1,0.5,0,0.7,0
		c0.2,0,0.4,0,0.6,0c0.1,0,0.3,0,0.4,0c0,0,0,0.3,0,0.3c0,0.1,0,0-0.2,0c-0.4,0-0.8,0-1.2,0c-0.2,0-0.4,0-0.6,0c0,0-0.2,0-0.3,0
		c0,0,0-0.4,0-0.5c0-0.4,0-0.8,0-1.2c0-0.5,0-0.9,0-1.4c0-0.1,0-0.4,0-0.5c0.1,0,0.3,0,0.4,0c0.2,0,0.5,0,0.7,0
		C24.4,0.1,24.7,0.1,25,0.1z"/>
	<path class="st0" d="M30.9,0.9c-0.2-0.3-0.5-0.5-0.9-0.4c-0.3,0-0.6,0.2-0.6,0.6c0,0.8,1.2,0.6,1.6,1c0.5,0.4,0.4,1.2-0.1,1.5
		c-0.6,0.4-1.6,0.2-2.1-0.4c0.1,0,0.2-0.2,0.3-0.2c0.1,0,0.2,0.2,0.3,0.2c0.3,0.2,0.9,0.3,1.2,0c0.2-0.2,0.2-0.6,0-0.8
		c-0.3-0.3-0.9-0.2-1.3-0.4c-0.8-0.4-0.7-1.5,0.1-1.8C30,0,30.6,0,30.9,0.3c0.1,0.1,0.3,0.2,0.3,0.4C31.1,0.7,31,0.8,30.9,0.9z"/>
	<path class="st0" d="M35.6,0.1c0,0.5,0,1,0,1.5c0,0.6,0.1,1.2-0.3,1.7c-0.4,0.5-1.4,0.6-1.9,0.1C32.9,2.9,33,2.2,33,1.7
		c0-0.3,0-0.7,0-1c0-0.1-0.1-0.5,0-0.6c0,0,0.4,0,0.4,0c0.1,0.1,0,0.5,0,0.7c0,0.5,0,1,0,1.5c0,0.4,0.1,0.8,0.5,0.9
		c0.3,0.1,0.7,0.1,1-0.2c0.4-0.4,0.2-1.3,0.2-1.9c0-0.3,0-0.6,0-1c0,0,0-0.1,0-0.1C35.2,0,35.5,0.1,35.6,0.1z"/>
	<path class="st0" d="M39.3,0.9c-0.2-0.3-0.5-0.5-0.9-0.4c-0.3,0-0.6,0.2-0.6,0.6c0,0.8,1.2,0.6,1.6,1c0.5,0.4,0.4,1.2-0.1,1.5
		c-0.6,0.4-1.6,0.2-2.1-0.4c0.1,0,0.2-0.2,0.3-0.2c0.1,0,0.2,0.2,0.3,0.2c0.3,0.2,0.9,0.3,1.2,0c0.2-0.2,0.2-0.6,0-0.8
		c-0.3-0.3-0.9-0.2-1.3-0.4c-0.8-0.4-0.7-1.5,0.1-1.8C38.5,0,39,0,39.4,0.3c0.1,0.1,0.3,0.2,0.3,0.4C39.6,0.7,39.4,0.8,39.3,0.9z"/>
	<path class="st0" d="M43.4,1.2c-0.1-0.6-0.8-1-1.3-0.6c-0.4,0.3-0.4,1.1-0.4,1.5c0,0.6,0.2,1.2,1,1.2c0.3,0,0.5-0.2,0.7-0.5
		c0.1-0.2,0-0.2,0.2-0.2c0.1,0,0.2,0,0.3,0c-0.1,0.9-0.9,1.3-1.7,1.1c-0.8-0.2-0.9-1.1-0.9-1.8s0.1-1.5,0.8-1.8
		c0.8-0.3,1.6,0.2,1.7,1.1C43.7,1.2,43.5,1.2,43.4,1.2z"/>
	<path class="st0" d="M47.5,3.6c-0.2-0.4-0.3-0.7-0.5-1.1c0-0.1-0.1-0.3-0.2-0.4c-0.1,0-0.3,0-0.5,0c-0.1,0-0.3,0-0.4,0
		c-0.1,0.1,0,0.5,0,0.6c0,0.2,0,0.4,0,0.7c0,0.2,0,0.2-0.2,0.2c-0.1,0-0.2,0-0.2,0c0-0.1,0-0.3,0-0.5c0-0.5,0-1,0-1.4
		c0-0.4,0-0.9,0-1.3c0,0,0-0.2,0-0.2c0,0,0.4,0,0.5,0c0.5,0,1.2-0.1,1.6,0.2c0.6,0.5,0.4,1.5-0.4,1.7c0.3,0.5,0.5,1.1,0.8,1.6
		C47.8,3.6,47.6,3.6,47.5,3.6z M46.6,1.7c0.3,0,0.6,0,0.8-0.3c0.1-0.2,0.1-0.5,0-0.7c-0.2-0.2-0.5-0.2-0.7-0.2c-0.1,0-0.5-0.1-0.6,0
		c-0.1,0-0.1,0.1-0.1,0.3c0,0.2,0,0.5,0,0.7c0,0.2,0,0.2,0.1,0.2C46.2,1.8,46.4,1.7,46.6,1.7z"/>
	<path class="st0" d="M50.1,3.6c-0.1,0-0.3,0-0.4,0c0,0,0,0,0-0.1c-0.1-0.2,0-0.6,0-0.8c0-0.7,0-1.5,0-2.2c0-0.1,0-0.5,0-0.5
		c0-0.1,0.4,0,0.4,0c0.1,0.1,0,0.5,0,0.6c0,0.4,0,0.7,0,1.1C50.1,2.4,50.1,3,50.1,3.6z"/>
	<path class="st0" d="M52.5,2.3c0,0.3,0,0.7,0,1c0,0,0,0.3,0,0.3c0,0-0.4,0-0.4,0c-0.1-0.1,0-0.5,0-0.6c0-0.4,0-0.9,0-1.3
		c0-0.4,0-0.8,0-1.2c0-0.1,0-0.4,0-0.4c0.1,0,0.4,0,0.6,0c0.2,0,0.3,0,0.5,0c0.5,0,1,0.1,1.2,0.6c0.2,0.6,0,1.2-0.6,1.5
		C53.4,2.3,52.9,2.3,52.5,2.3z M53.2,1.9c0.3,0,0.6-0.1,0.8-0.4c0.1-0.2,0.1-0.6-0.1-0.8c-0.2-0.2-0.5-0.2-0.7-0.2
		c-0.1,0-0.5-0.1-0.6,0c0,0,0,0.3,0,0.4c0,0.2,0,0.5,0,0.8c0,0.2,0,0.2,0.1,0.3C52.7,1.9,53,1.9,53.2,1.9z"/>
	<path class="st0" d="M58.3,0.1c0,0.1,0,0.2,0,0.3c0,0.1,0,0-0.1,0.1c-0.2,0.1-0.6,0-0.8,0c-0.2,0-0.1,0-0.2,0.1c0,0.1,0,0.4,0,0.6
		c0,0.6,0,1.2,0,1.7c0,0.2,0,0.4,0,0.6c0,0.2,0,0.1-0.1,0.2c0,0-0.3,0-0.3,0c0,0,0-0.1,0-0.1c0-0.1,0-0.4,0-0.5c0-0.6,0-1.2,0-1.7
		c0-0.2,0-0.4,0-0.6c0-0.1,0-0.1-0.1-0.2c-0.2-0.1-0.6,0-0.8,0c0,0-0.2,0-0.2,0c0,0,0-0.3,0-0.3c0-0.1,0,0,0-0.1c0,0,0.2,0,0.2,0
		c0.3,0,0.6,0,0.9,0C57.3,0.1,57.8,0.1,58.3,0.1z"/>
	<path class="st0" d="M60.9,3.7c-0.8,0-1.2-0.5-1.3-1.2c-0.1-0.6-0.1-1.5,0.3-2c0.4-0.5,1.2-0.5,1.7-0.1c0.5,0.4,0.5,1.2,0.5,1.8
		C62.2,2.9,61.8,3.7,60.9,3.7 M60,2.1c0,0.7,0.3,1.5,1.2,1.2c0.6-0.2,0.5-1.1,0.5-1.6c0-0.7-0.3-1.4-1.1-1.2C60,0.7,60,1.5,60,2.1z"
		/>
	<path class="st0" d="M65.9,3.6c-0.2-0.4-0.3-0.7-0.5-1.1c0-0.1-0.1-0.3-0.2-0.4c-0.1,0-0.3,0-0.5,0c-0.1,0-0.3,0-0.4,0
		c-0.1,0.1,0,0.5,0,0.6c0,0.2,0,0.4,0,0.7c0,0.2,0,0.2-0.2,0.2c-0.1,0-0.2,0-0.2,0c0-0.1,0-0.3,0-0.5c0-0.5,0-1,0-1.4
		c0-0.4,0-0.9,0-1.3c0,0,0-0.2,0-0.2c0,0,0.4,0,0.5,0c0.5,0,1.2-0.1,1.6,0.2c0.6,0.5,0.4,1.5-0.4,1.7c0.3,0.5,0.5,1.1,0.8,1.6
		C66.2,3.6,66.1,3.6,65.9,3.6z M65,1.7c0.3,0,0.6,0,0.8-0.3c0.1-0.2,0.1-0.5,0-0.7c-0.2-0.2-0.5-0.2-0.7-0.2c-0.1,0-0.5-0.1-0.6,0
		c-0.1,0-0.1,0.1-0.1,0.3c0,0.2,0,0.5,0,0.7c0,0.2,0,0.2,0.1,0.2C64.6,1.8,64.8,1.7,65,1.7z"/>
	<path class="st0" d="M70.2,0.1c0,0.1,0,0.3,0,0.4c0,0-0.3,0-0.3,0c-0.4,0-0.8,0-1.2,0c0,0-0.2,0-0.2,0c0,0,0,0.4,0,0.4
		c0,0.2,0,0.4,0,0.6c0,0.1,0,0,0.1,0.1s0.4,0,0.5,0c0.2,0,0.4,0,0.6,0c0,0,0.2,0,0.3,0c0,0,0,0.4,0,0.4c0,0-0.3,0-0.3,0
		c-0.2,0-0.4,0-0.7,0c-0.1,0-0.4,0-0.5,0c-0.1,0,0,0,0,0.1c0,0.2,0,0.4,0,0.5c0,0.1,0,0.4,0,0.5c0.1,0.1,0.5,0,0.7,0
		c0.2,0,0.4,0,0.6,0c0.1,0,0.3,0,0.4,0c0,0,0,0.3,0,0.3c0,0.1,0,0-0.2,0c-0.4,0-0.8,0-1.2,0c-0.2,0-0.4,0-0.6,0c0,0-0.2,0-0.3,0
		c0,0,0-0.4,0-0.5c0-0.4,0-0.8,0-1.2c0-0.5,0-0.9,0-1.4c0-0.1,0-0.4,0-0.5c0.1,0,0.3,0,0.4,0c0.2,0,0.5,0,0.7,0
		C69.5,0.1,69.8,0.1,70.2,0.1z"/>
	<path class="st0" d="M73.7,0.9c-0.2-0.3-0.5-0.5-0.9-0.4c-0.3,0-0.6,0.2-0.6,0.6c0,0.8,1.2,0.6,1.6,1c0.5,0.4,0.4,1.2-0.1,1.5
		c-0.6,0.4-1.6,0.2-2.1-0.4c0.1,0,0.2-0.2,0.3-0.2c0.1,0,0.2,0.2,0.3,0.2c0.3,0.2,0.9,0.3,1.2,0c0.2-0.2,0.2-0.6,0-0.8
		c-0.3-0.3-0.9-0.2-1.3-0.4c-0.8-0.4-0.7-1.5,0.1-1.8c0.4-0.1,1-0.1,1.3,0.2c0.1,0.1,0.3,0.2,0.3,0.4C74,0.7,73.8,0.8,73.7,0.9z"/>
</g>
</svg>
