<svg xmlns="http://www.w3.org/2000/svg" xmlns:xlink="http://www.w3.org/1999/xlink" viewBox="0 0 323.41 148.73"><defs><style>.cls-1{fill:#0075a7;}.cls-2{fill:url(#Degradado_sin_nombre_59);}</style><linearGradient id="Degradado_sin_nombre_59" x1="148.02" y1="132.21" x2="317.56" y2="132.21" gradientUnits="userSpaceOnUse"><stop offset="0" stop-color="#e04e34"/><stop offset="0.16" stop-color="#e15035"/><stop offset="0.22" stop-color="#e35737"/><stop offset="0.27" stop-color="#e7623b"/><stop offset="0.3" stop-color="#ed7340"/><stop offset="0.33" stop-color="#f48948"/><stop offset="0.35" stop-color="#fda450"/><stop offset="0.36" stop-color="#ffa952"/><stop offset="0.64" stop-color="#5cb864"/><stop offset="0.65" stop-color="#5cb765"/><stop offset="0.67" stop-color="#5c9f7f"/><stop offset="0.71" stop-color="#5c8d94"/><stop offset="0.74" stop-color="#5c80a2"/><stop offset="0.79" stop-color="#5c78aa"/><stop offset="0.86" stop-color="#5c76ad"/><stop offset="1" stop-color="#4a649e"/></linearGradient></defs><g id="Capa_2" data-name="Capa 2"><g id="Capa_1-2" data-name="Capa 1"><polygon class="cls-1" points="144.93 49.94 175.51 49.94 175.51 57.74 157.1 57.74 157.1 67.98 170.64 67.98 170.64 74.7 157.1 74.7 157.1 101.96 175.51 101.96 175.51 109.02 144.93 109.02 144.93 49.94"/><polygon class="cls-1" points="84.33 49.94 122.91 49.94 122.91 58.17 110.5 58.14 110.5 109.02 97.4 109.02 97.4 57.78 84.33 57.78 84.33 49.94"/><polygon class="cls-1" points="38.6 49.94 50.94 49.94 50.94 101.96 68.72 101.96 68.72 109.02 38.6 109.02 38.6 49.94"/><polygon class="cls-1" points="2.22 49.94 32.7 49.94 32.7 57.74 14.55 57.74 14.55 67.64 27.92 67.64 27.92 74.7 14.55 74.7 14.55 101.96 32.7 101.96 32.7 109.02 2.22 109.02 2.22 49.94"/><path class="cls-1" d="M307.41,79.54c0,12.65-2.92,22.68-6.68,24.5-.37.19-.71.75-1.08.75-4.29,0-7.77-11.32-7.77-25.25s3.48-25.25,7.77-25.25,7.76,11.3,7.76,25.25m16,0c0-16.46-10.64-29.84-23.76-29.84s-23.77,13.38-23.77,29.84,10.65,29.8,23.77,29.8S323.41,96,323.41,79.54"/><path class="cls-1" d="M245.77,79h8.66c3.52,0,6.21-5.37,6.21-10.73,0-5-3.31-10-7.25-10h-7.62Zm0,8.6V109H232.26V50h24.95c9,0,14.87,9.11,14.87,19.68,0,10.38-7.9,17.87-13.84,17.87Z"/><polygon class="cls-1" points="190.35 109.03 182.02 109.03 182.02 49.94 190.35 49.94 204.2 78.97 214.59 49.94 227.41 49.94 227.41 109.03 213.91 109.03 213.91 77.9 203.16 109.03 201.43 109.03 190.35 79.69 190.35 109.03"/><rect class="cls-1" x="126.93" y="49.94" width="12.14" height="59.08"/><path class="cls-1" d="M26.19,6.85a3,3,0,0,1-.58,1.84,4.38,4.38,0,0,1-1.33,1.19A21.74,21.74,0,0,0,21.2,8.23,10.6,10.6,0,0,0,17,7.49a9.33,9.33,0,0,0-7.2,2.92q-2.69,2.92-2.68,8.45t2.76,8.45a10,10,0,0,0,7.44,2.81,12.1,12.1,0,0,0,4.22-.66,15.78,15.78,0,0,0,3.16-1.57,3.75,3.75,0,0,1,1.23,1.3,3.68,3.68,0,0,1,.47,1.89,3,3,0,0,1-.47,1.65,4,4,0,0,1-1.6,1.32,12.7,12.7,0,0,1-3,1.2,17.69,17.69,0,0,1-4.81.56,19.92,19.92,0,0,1-6.51-1,14.38,14.38,0,0,1-5.23-3.13,14.48,14.48,0,0,1-3.5-5.29A20.07,20.07,0,0,1,0,18.86a19.38,19.38,0,0,1,1.28-7.3A15.37,15.37,0,0,1,4.76,6.24,14.63,14.63,0,0,1,9.91,3a17.31,17.31,0,0,1,6.24-1.12,19.52,19.52,0,0,1,4.14.4,12.4,12.4,0,0,1,3.19,1.09,5.9,5.9,0,0,1,2,1.59A3.09,3.09,0,0,1,26.19,6.85ZM38,35.17a9.06,9.06,0,0,1-1.78.16,4.52,4.52,0,0,1-2.79-.69,3,3,0,0,1-.88-2.45V.43a6.75,6.75,0,0,1,1.25-.3A11,11,0,0,1,35.54,0a4.5,4.5,0,0,1,2.79.69,2.93,2.93,0,0,1,.88,2.44V34.9ZM69.6,32.06a3.74,3.74,0,0,1-1.55,1.46,14.55,14.55,0,0,1-3.9,1.6,21,21,0,0,1-5.39.63,18.87,18.87,0,0,1-5-.61,10.36,10.36,0,0,1-3.82-1.88A8.24,8.24,0,0,1,47.5,30a11.68,11.68,0,0,1-.85-4.68V9.88a7.42,7.42,0,0,1,1.24-.29,11.45,11.45,0,0,1,1.84-.13,4.68,4.68,0,0,1,2.76.66,2.9,2.9,0,0,1,.9,2.47V25.23a4.91,4.91,0,0,0,1.41,4,6,6,0,0,0,4,1.2,10.6,10.6,0,0,0,2.79-.32,6.55,6.55,0,0,0,1.73-.69V9.88a7.68,7.68,0,0,1,1.24-.29,11.16,11.16,0,0,1,1.79-.13,4.64,4.64,0,0,1,2.78.66A2.92,2.92,0,0,1,70,12.59V30A4.47,4.47,0,0,1,69.6,32.06ZM89.78,9a13.49,13.49,0,0,1,4.76.83,10.44,10.44,0,0,1,3.85,2.49A11.7,11.7,0,0,1,101,16.5a16.43,16.43,0,0,1,.93,5.81,16.3,16.3,0,0,1-1,5.85,11.46,11.46,0,0,1-2.71,4.19A11.09,11.09,0,0,1,94,34.9a16.75,16.75,0,0,1-5.5.85A17.29,17.29,0,0,1,83.14,35a14.9,14.9,0,0,1-3.77-1.75,5.55,5.55,0,0,1-1.65-1.62,4,4,0,0,1-.53-2.1V.43a6.55,6.55,0,0,1,1.25-.3A11.41,11.41,0,0,1,80.27,0,4.58,4.58,0,0,1,83,.69a2.91,2.91,0,0,1,.9,2.44v7.28a12.87,12.87,0,0,1,2.58-1A12.18,12.18,0,0,1,89.78,9Zm-1.17,5.31a6.94,6.94,0,0,0-2.62.48,12.83,12.83,0,0,0-2.1,1.06V29.17a9.88,9.88,0,0,0,1.86.82,8.21,8.21,0,0,0,2.7.4,6.19,6.19,0,0,0,4.79-2q1.8-2,1.8-6.09t-1.78-6A6,6,0,0,0,88.61,14.34Z"/><path class="cls-2" d="M164.34,126.46a2.78,2.78,0,0,1,2.65-1.92,2.49,2.49,0,0,1,.91.16,2.75,2.75,0,0,1,1.62,3.47c-1.45,4-7.07,17.75-7.07,17.75s-1.18,2.8-3.62,2.8c-2.61,0-3.73-2.8-3.73-2.8s-6.56-16.68-6.88-17.53a2.86,2.86,0,0,1,1.62-3.67,2.74,2.74,0,0,1,3.46,1.65c.13.29,5.52,15.3,5.52,15.3l5.52-15.21m9.18.9c0,.69,0,.89,0,.89v8.69h0c0,.18,0,8.2,0,9a2.73,2.73,0,1,0,5.46,0V128.24s0-.18,0-.89a2.74,2.74,0,1,0-5.47,0m0-8.86a2.74,2.74,0,1,0,2.74-2.8,2.78,2.78,0,0,0-2.74,2.8m38.73,23.37c.21,2,2.71,2.25,3.82,2.25.31,0,.52,0,.52,0,7.84,0,6.14-6.9,6.14-6.9-1,.64-2.57.8-7,1.31,0,0-3.81.28-3.49,3.36m-.2-15.39c2.95-1.93,7.22-1.92,7.22-1.92,4.37,0,7.76,1.69,8.75,4.42a6.17,6.17,0,0,1,.28,1.9V138c0,5.63-5,10.69-13.24,10.69-8.86,0-8.43-7.19-8.43-7.19,0-3.35,2.74-6.56,9.68-7.1S223,133,223,131.73c0-1.73-2.09-2.6-4.93-2.56-1.84,0-3.13,1.42-4.79,1.55a2.66,2.66,0,0,1-.83-.16,2.28,2.28,0,0,1-1.3-2.84,2.09,2.09,0,0,1,1-1.24m45.23-1.92a8.63,8.63,0,0,0-7.27,3.36H250c-2.12-2.07-4.21-3.36-7.53-3.36h-.27a10,10,0,0,0-6.05,2.14,10.37,10.37,0,0,0-3.92,8.07l0,9.74s0,.78,0,1.41a2.76,2.76,0,0,0,2.72,2.8,2.81,2.81,0,0,0,2.74-2.8V136.4a10.18,10.18,0,0,1,0-1.2,4.75,4.75,0,1,1,9.49-.2v.08c0-.19,0-.38,0,1.43l0,9.9a2.93,2.93,0,0,0,2.72,2.32c2.64,0,2.76-2.8,2.76-2.8V134.65a4.74,4.74,0,1,1,9.47.55,10.18,10.18,0,0,1,0,1.2v9.52a2.8,2.8,0,0,0,2.74,2.8,2.75,2.75,0,0,0,2.73-2.79c0-.64,0-1.42,0-1.42l0-9.73a10.33,10.33,0,0,0-3.93-8.07,9.87,9.87,0,0,0-6-2.15Zm18.25,12.08a6.39,6.39,0,1,0,6.38-6.52,6.43,6.43,0,0,0-6.38,6.52m-5.44,0a11.93,11.93,0,0,1,11.84-12.1c7.94,0,11.85,6.81,11.85,12.13s-3.91,12-11.92,12a11.81,11.81,0,0,1-11.77-12.06m30.55-11.19a7.7,7.7,0,0,0-3.35,2.54,5.65,5.65,0,0,0-1.13,3.37,4.85,4.85,0,0,0,1.22,3.37,8.9,8.9,0,0,0,3.28,2.21,37.53,37.53,0,0,0,5.32,1.6,16.17,16.17,0,0,1,4.16,1.37,2.44,2.44,0,0,1,1.25,2.28,2.22,2.22,0,0,1-1.21,1.82,5.59,5.59,0,0,1-3.11.79,7.46,7.46,0,0,1-3.7-.78,6.87,6.87,0,0,1-2.33-2.37,5,5,0,0,0-1-1.29,2.28,2.28,0,0,0-1.52-.45,2.66,2.66,0,0,0-1.88.69,2.25,2.25,0,0,0-.74,1.68,4.71,4.71,0,0,0,1.16,2.95,8.53,8.53,0,0,0,3.59,2.44,15.43,15.43,0,0,0,5.83,1,17.92,17.92,0,0,0,6.06-.9,7.81,7.81,0,0,0,3.77-2.66,6.94,6.94,0,0,0,1.27-4.21,4.71,4.71,0,0,0-1-2.9,7.94,7.94,0,0,0-2.82-2.21,21.89,21.89,0,0,0-4.81-1.61c-1.65-.37-2.95-.69-3.89-1a7.1,7.1,0,0,1-2.24-1,1.81,1.81,0,0,1-.83-1.54,2,2,0,0,1,1.13-1.71,5.47,5.47,0,0,1,2.85-.68,5,5,0,0,1,4.33,1.91,10.45,10.45,0,0,0,1.56,1.57,2.65,2.65,0,0,0,1.66.52,3,3,0,0,0,2.07-.65,2.13,2.13,0,0,0,.73-1.67,3.32,3.32,0,0,0-.69-1.92,6.43,6.43,0,0,0-2-1.78,11.5,11.5,0,0,0-3.27-1.29,18.64,18.64,0,0,0-4.41-.47,13.54,13.54,0,0,0-5.34.94m-101.47,1c-.11.33-5.52,15.21-5.52,15.21s-5.39-15-5.52-15.3a2.73,2.73,0,0,0-3.45-1.65,2.86,2.86,0,0,0-1.63,3.67c.32.85,6.89,17.53,6.89,17.53s1.12,2.8,3.73,2.8c2.44,0,3.62-2.8,3.62-2.8s5.61-13.72,7.07-17.75a2.76,2.76,0,0,0-1.63-3.47,2.49,2.49,0,0,0-.91-.16,2.79,2.79,0,0,0-2.65,1.92"/></g></g></svg>