<?xml version="1.0" encoding="utf-8"?>
<!-- Generator: Adobe Illustrator 22.1.0, SVG Export Plug-In . SVG Version: 6.00 Build 0)  -->
<svg version="1.1" id="Capa_1" xmlns="http://www.w3.org/2000/svg" xmlns:xlink="http://www.w3.org/1999/xlink" x="0px" y="0px"
	 viewBox="0 0 304.2 121.6" style="enable-background:new 0 0 304.2 121.6;" xml:space="preserve">
<style type="text/css">
	.st0{fill:#3978B3;}
	.st1{fill:#C3733D;}
	.st2{clip-path:url(#SVGID_2_);fill:url(#SVGID_3_);}
	.st3{clip-path:url(#SVGID_5_);fill:url(#SVGID_6_);}
	.st4{clip-path:url(#SVGID_8_);fill:url(#SVGID_9_);}
	.st5{clip-path:url(#SVGID_11_);fill:url(#SVGID_12_);}
	.st6{clip-path:url(#SVGID_14_);fill:url(#SVGID_15_);}
	.st7{clip-path:url(#SVGID_17_);fill:url(#SVGID_18_);}
	.st8{fill:url(#SVGID_19_);}
</style>
<path class="st0" d="M135,22.4c8.5,0,16.9,0,25.4,0c0.8,0,1.6,0,2.4,0c0.2,0,1-0.1,1.1,0c0.2,0.2,0.1,1.1,0.1,1.4c0,1.4,0,2.7,0,4.1
	c0,0.3,0.2,1.7,0,2c-0.1,0.1-1.2,0-1.4,0c-2.4,0-4.9,0-7.3,0c-2.4,0-4.8,0-7.2,0c-0.2,0-1.3-0.2-1.5,0c-0.2,0.2,0,1.3,0,1.5
	c0,2.5,0,5,0,7.5c0,0.7-0.1,0.5,0.3,0.7c0.7,0.2,1.9,0,2.6,0c2.6,0,5.3,0,7.9,0c0.3,0,1.7-0.2,1.9,0c0.2,0.2,0,1.7,0,2
	c0,1.2,0,2.5,0,3.7c0,0.7,0.1,0.5-0.5,0.7c-0.9,0.2-2,0-3,0c-1.4,0-2.7,0-4.1,0c-1.2,0-2.4,0-3.6,0c-0.2,0-1.5-0.2-1.6,0
	c-0.3,0.3,0,2.6,0,3.1c0,5.1,0,10.2,0,15.3c0,2,0,4.1,0,6.1c0,1-0.3,1.2,0.8,1.2c4.7,0,9.5,0,14.2,0c0.5,0,1.6-0.2,2.1,0
	c0.4,0.2,0.3,0.3,0.3,0.9c0,1.3,0,2.6,0,3.9c0,0.3,0.2,1.7,0,1.9c-0.1,0.1-0.9,0-1,0c-0.8,0-1.6,0-2.4,0c-2.4,0-4.7,0-7.1,0
	c-5.1,0-10.2,0-15.4,0c-0.5,0-2.7,0.3-3.1,0c-0.2-0.2,0-1.2,0-1.5c0-8.8,0-17.6,0-26.3c0-8.9,0-17.7,0-26.6
	C135,23.4,135,22.9,135,22.4z"/>
<path class="st0" d="M77.7,22.4c5.6,0,11.2,0,16.8,0c4.1,0,8.1,0,12.2,0c1.5,0,3.1,0,4.6,0c0.6,0,2-0.3,2.6,0
	c0.6,0.3,0.3,1.8,0.3,2.5c0,1.8,0,3.5,0,5.3c-3.9,0-7.8,0-11.7,0c0,8.6,0,17.2,0,25.7c0,5.6,0,11.2,0,16.8c0,1.6,0,3.1,0,4.7
	c0,1.1,0.1,0.9-1.1,0.9c-2.8,0-5.6,0-8.5,0c-0.5,0-2.3,0.3-2.8,0c-0.2-0.1,0-0.1-0.1-0.4c-0.3-1,0-2.7,0-3.7c0-2.3,0-4.6,0-6.8
	c0-11.2,0-22.4,0-33.7c0-0.8,0-1.5,0-2.3c0-0.3,0.1-1,0-1.3c-0.3-0.6-2.6-0.3-3.4-0.3c-2.7,0-5.4,0-8.2,0c-0.8,0-0.7,0.2-0.8-0.5
	c-0.2-1.3,0-2.7,0-4C77.7,24.3,77.7,23.4,77.7,22.4z"/>
<path class="st0" d="M34.5,22.4c3.1,0,6.2,0,9.4,0c0.4,0,2.1-0.2,2.3,0c0.1,0.2,0,1.1,0,1.3c0,6.1,0,12.2,0,18.3
	c0,7.6,0,15.3,0,22.9c0,2-0.2,4.1,0,6.1c0,0.4-0.1,0.4,0.1,0.6c0.2,0.1,1,0,1.2,0c0.7,0,1.5,0,2.2,0c3.8,0,7.6,0,11.4,0
	c0.4,0,1.7-0.2,1.9,0.1c0.2,0.3,0,1.5,0,1.9c0,1.1,0,2.1,0,3.2c0,0.2,0.1,1.4,0,1.5c-0.1,0.1-0.3,0-0.4,0c-0.8,0.2-2.1,0-3,0
	c-3.7,0-7.3,0-11,0c-3.7,0-7.3,0-11,0c-0.7,0-2.2,0.3-2.8,0c-0.4-0.2-0.1,0.1-0.3-0.3c-0.2-0.4,0-1.3,0-1.8c0-1.1,0-2.1,0-3.2
	c0-3.1,0-6.3,0-9.4c0-13.4,0-26.9,0-40.3C34.5,23,34.5,22.7,34.5,22.4z"/>
<path class="st0" d="M0.1,22.4c8.4,0,16.8,0,25.2,0c0.8,0,1.6,0,2.4,0c0.2,0,1-0.1,1.2,0c0.2,0.1,0.1,1,0.1,1.3c0,1.3,0,2.6,0,3.9
	c0,0.3,0.2,2,0,2.2c-0.1,0.1-1.1,0-1.3,0c-2.4,0-4.8,0-7.1,0c-2.4,0-4.8,0-7.3,0c-0.2,0-1.3-0.2-1.5,0c-0.2,0.2,0,1.5,0,1.7
	c0,1.3,0,2.6,0,3.9c0,1-0.2,2.2,0,3.2c0.1,0.6-0.1,0.4,0.5,0.5c0.9,0.2,2,0,2.9,0c2.6,0,5.1,0,7.7,0c0.3,0,1.4-0.2,1.6,0
	c0.2,0.2,0,2.2,0,2.5c0,1.2,0.2,2.5,0,3.7c-0.1,0.6,0.1,0.4-0.6,0.5c-2.3,0.2-4.8,0-7.1,0c-1.2,0-2.4,0-3.5,0c-0.2,0-1.2-0.1-1.4,0
	c-0.3,0.3,0,2.8,0,3.3c0,5.2,0,10.4,0,15.5c0,1.9,0,3.9,0,5.8c0,1.1-0.2,1.1,0.9,1.1c4.8,0,9.5,0,14.3,0c0.4,0,1.6-0.2,1.9,0
	c0.3,0.2,0.1,1,0.1,1.4c0,1.3,0,2.7,0,4c0,0.3,0.1,1.1-0.1,1.3c-0.2,0.1-1,0-1.2,0c-0.8,0-1.6,0-2.4,0c-2.4,0-4.8,0-7.2,0
	c-5,0-10,0-15,0c-0.4,0-2.5,0.3-2.8,0c-0.2-0.2,0-1.3,0-1.6c0-8.8,0-17.7,0-26.5c0-8.8,0-17.5,0-26.3C0.1,23.4,0.1,22.9,0.1,22.4z"
	/>
<path class="st0" d="M249,25.3c-4.6-3.9-11.2-2.9-16.8-2.9c-3.5,0-6.9,0-10.4,0c-1.1,0-2.2,0-3.4,0c-0.2,0-0.7-0.1-0.8,0
	c-0.1,0.1,0,0.9,0,1.1c0,0.8,0,1.5,0,2.3c0,2.4,0,4.9,0,7.3c0,7,0,13.9,0,20.9c0,6.3,0,12.5,0,18.8c0,1.6,0,3.3,0,4.9
	c0,0.1-0.1,0.6,0,0.6c0.3,0.3,2.2,0,2.6,0c3.2,0,6.4,0.2,9.6,0c0.7-0.1,0.5,0.1,0.6-0.5c0.2-1,0-2.2,0-3.3c0-5.5,0-11,0-16.5
	c0.9,0,1.7,0,2.6,0c3,0,6,0,9,0c3.6-0.1,6.7-2.2,9-4.9C257.3,45.5,256.7,31.9,249,25.3z M244.4,40.6c-0.2,3-1.2,7.2-4.1,8.8
	c-1.4,0.8-3.4,0.5-5,0.5c-1.6,0-3.3,0-4.9,0c0-3.5,0-7.1,0-10.6c0-2.1,0-4.1,0-6.2c0-0.4-0.3-2.4,0-2.8c0.2-0.2,1.6,0,1.9,0
	c1,0,2,0,3,0c2,0,3.8-0.1,5.5,1.2C243.5,33.5,244.6,37.3,244.4,40.6z"/>
<path class="st0" d="M178,78.3c-1.8,0-3.6,0-5.4,0c-0.6,0-2.2,0.3-2.5-0.2c-0.2-0.4,0-1.7,0-2.2c0-1.4,0-2.8,0-4.1
	c0-9.1,0-18.2,0-27.4c0-7.1,0-14.1,0-21.2c0-0.6-0.1-0.6,0.3-0.8c0.7-0.3,2.1,0,2.8,0c1.2,0,2.3,0,3.5,0c1.1,0,1.2-0.2,1.6,0.7
	c0.6,1.3,1.2,2.6,1.9,3.9c2,4.2,4,8.5,6.1,12.7c1.5,3.2,2.9,6.5,4.6,9.6c0.1,0.2,0.2,0.4,0.3,0.5c1.5-4.1,2.9-8.2,4.4-12.3
	c1.1-3.1,2.2-6.2,3.3-9.3c0.4-1.1,0.8-2.3,1.2-3.4c0.2-0.6,0.4-1.6,0.8-2.1c0.3-0.4,0-0.3,0.6-0.4c1.2-0.2,2.6,0,3.8,0
	c1.6,0,3.3,0,4.9,0c0.5,0,2.6-0.3,2.9,0c0.2,0.2,0.1,1.6,0.1,2c0,1.9,0,3.9,0,5.8c0,12.5,0,25.1,0,37.6c0,2.3,0,4.5,0,6.8
	c0,0.8,0,1.5,0,2.3c0,0.3,0.1,1,0,1.2c-0.3,0.6-3.4,0.2-4.1,0.2c-1.7,0-3.3,0-5,0c-0.6,0-1.3,0-1.9,0c-0.4,0-1.1,0.2-1.5,0
	c-0.4-0.2-0.2,0.1-0.3-0.5c-0.1-0.7,0-1.6,0-2.3c0-2.9,0-5.7,0-8.6c0-5.7,0-11.3,0-17c0-0.4,0-0.7,0-1.1c-3,8.6-6,17.3-8.9,25.9
	c-0.3,0.8-0.5,1.6-0.8,2.3c-0.1,0.2-0.2,1-0.4,1.1c-0.2,0.1-1.5,0.1-1.7,0c-0.2-0.2-0.3-0.9-0.4-1.2c-1.8-4.7-3.6-9.5-5.4-14.2
	c-1.5-4.1-3.1-8.2-4.6-12.3c0,8.1,0,16.2,0,24.3C178,76,178,77.1,178,78.3z"/>
<path class="st0" d="M118,22.4c2.3,0,4.7,0,7,0c0.7,0,4.2-0.4,4.5,0.1c0.3,0.6,0,2.4,0,3.1c0,2.1,0,4.3,0,6.4c0,12.2,0,24.4,0,36.6
	c0,2.1,0,4.2,0,6.3c0,0.6,0.4,2.6,0,3.1c-0.4,0.6-3.9,0.1-4.6,0.1c-1.5,0-3,0-4.5,0c-0.3,0-2.1,0.2-2.3,0c-0.2-0.2,0-1.8,0-2.1
	c0-1.9,0-3.8,0-5.7c0-5.9,0-11.7,0-17.6c0-10,0-19.9,0-29.9C118,22.8,118,22.6,118,22.4z"/>
<path class="st1" d="M122.9,95.6c-2.2,5.9-4.4,11.8-6.5,17.7c-1.9-5.3-3.9-10.5-5.8-15.8c-0.2-0.7-0.4-1.3-0.7-2
	c-1.2-2.5-4.7-2.9-5.9-0.2c-1,2.1,1,5.3,1.8,7.3c2.1,5.2,3.9,10.6,6.3,15.7c1.6,3.5,5.8,4.4,8.1,1c1.1-1.6,1.7-3.6,2.4-5.3
	c1.8-4.3,3.5-8.5,5.2-12.8c0.6-1.5,1.9-3.8,1.4-5.4C128.2,92.6,123.9,92.7,122.9,95.6"/>
<g>
	<defs>
		<path id="SVGID_1_" d="M133.7,96.6c0,7.1-0.2,14.3,0,21.5c0.1,3.2,4.3,4.8,6,1.8c0.9-1.7,0.4-4.6,0.4-6.5c0-3.5,0-6.9,0-10.4
			c0-1.8,0-3.7,0-5.5c0-1.8-0.5-3.6-2.5-4.1C135.7,93,133.7,94.6,133.7,96.6"/>
	</defs>
	<clipPath id="SVGID_2_">
		<use xlink:href="#SVGID_1_"  style="overflow:visible;"/>
	</clipPath>
	
		<linearGradient id="SVGID_3_" gradientUnits="userSpaceOnUse" x1="-145.7054" y1="723.2894" x2="-144.6761" y2="723.2894" gradientTransform="matrix(-115.4212 0 0 -115.4212 -16553.5684 83590.3438)">
		<stop  offset="0" style="stop-color:#6A80B5"/>
		<stop  offset="1.838240e-03" style="stop-color:#6A80B5"/>
		<stop  offset="0.35" style="stop-color:#8DB359"/>
		<stop  offset="0.6895" style="stop-color:#E6BA54"/>
		<stop  offset="1" style="stop-color:#CD763C"/>
	</linearGradient>
	<path class="st2" d="M140.2,93.4c-1.1,0-2.3,0-3.4,0c-0.5,0-2.8-0.3-3.1,0c-0.1,0.1,0,1.1,0,1.3c0,1.1,0,2.1,0,3.2
		c0,6.2,0,12.4,0,18.6c0,1.1,0,2.3,0,3.4c0,0.3-0.2,1.4,0,1.6c0.2,0.3,1.9,0.1,2.3,0.1c0.7,0,1.5,0,2.2,0c0.4,0,1.6,0.2,1.9,0
		c0.5-0.3,0.1-2.8,0.1-3.4c0-2.9,0-5.9,0-8.8C140.2,104,140.2,98.7,140.2,93.4z"/>
</g>
<g>
	<defs>
		<path id="SVGID_4_" d="M133.7,86.3c0,4.2,6.5,4.2,6.5,0C140.2,82.2,133.7,82.1,133.7,86.3"/>
	</defs>
	<clipPath id="SVGID_5_">
		<use xlink:href="#SVGID_4_"  style="overflow:visible;"/>
	</clipPath>
	
		<linearGradient id="SVGID_6_" gradientUnits="userSpaceOnUse" x1="-145.7105" y1="723.2854" x2="-144.6803" y2="723.2854" gradientTransform="matrix(-115.3439 0 0 -115.3439 -16542.9023 83512.9688)">
		<stop  offset="0" style="stop-color:#6A80B5"/>
		<stop  offset="1.838240e-03" style="stop-color:#6A80B5"/>
		<stop  offset="0.35" style="stop-color:#8DB359"/>
		<stop  offset="0.6895" style="stop-color:#E6BA54"/>
		<stop  offset="1" style="stop-color:#CD763C"/>
	</linearGradient>
	<path class="st3" d="M140.2,83.1c-1.9,0-3.8,0-5.7,0c-0.8,0-0.7-0.2-0.8,0.5c-0.2,1,0,2.2,0,3.3c0,0.4-0.3,2.3,0,2.6
		c0.2,0.2,1.4,0.1,1.8,0.1c0.9,0,4.4,0.4,4.7-0.2c0.2-0.3,0-1.1,0-1.4c0-0.7,0-1.4,0-2C140.2,85,140.2,84,140.2,83.1z"/>
</g>
<g>
	<defs>
		<path id="SVGID_7_" d="M179.5,113.5c-0.3-2.5,2-3.6,4.1-3.9c2.6-0.4,6-0.1,8.3-1.5c0.5,2.1,0.1,4.5-1.4,6.1
			C188.5,116.2,180,117.9,179.5,113.5 M179.3,95.6c-2.2,1.4-1.3,5,1.4,4.9c1.2,0,2.3-0.7,3.3-1.2c1.4-0.6,2.7-0.7,4.2-0.5
			c1.8,0.2,4,0.9,4,3.1c0,0.7-0.2,1.2-0.8,1.6c-1.4,0.9-3.5,1-5.1,1.1c-2.9,0.3-5.8,0.4-8.5,1.7c-2.8,1.3-4.9,3.7-4.9,6.9
			c0,2,0.7,4,2.1,5.4c3.1,3.3,8.6,3.2,12.7,2.3c4.4-1,8.5-3.7,10.2-8c1.1-2.8,0.7-6,0.7-8.9c0-1.4,0.1-2.9-0.1-4.3
			c-0.3-2.7-2.4-4.5-4.8-5.4C189.3,92.7,183.3,93.1,179.3,95.6"/>
	</defs>
	<clipPath id="SVGID_8_">
		<use xlink:href="#SVGID_7_"  style="overflow:visible;"/>
	</clipPath>
	
		<linearGradient id="SVGID_9_" gradientUnits="userSpaceOnUse" x1="-145.682" y1="723.2721" x2="-144.6749" y2="723.2721" gradientTransform="matrix(-115.9166 0 0 -115.9166 -16625.6836 83946.6562)">
		<stop  offset="0" style="stop-color:#6A80B5"/>
		<stop  offset="1.838240e-03" style="stop-color:#6A80B5"/>
		<stop  offset="0.35" style="stop-color:#8DB359"/>
		<stop  offset="0.6895" style="stop-color:#E6BA54"/>
		<stop  offset="1" style="stop-color:#CD763C"/>
	</linearGradient>
	<path class="st4" d="M198.5,93.4c-7.9,0-15.8,0-23.6,0c-0.4,0-2.2-0.3-2.5,0c-0.3,0.3,0,2.5,0,2.9c0,4.8,0,9.6,0,14.4
		c0,2.3,0,4.6,0,6.9c0,0.8,0,1.6,0,2.4c0,0.3-0.2,1.1,0,1.4c0.2,0.4,1.1,0.2,1.6,0.2c2,0,3.9,0,5.9,0c4.9,0,9.9,0,14.8,0
		c0.8,0,1.6,0,2.4,0c0.2,0,1.1,0.1,1.3,0c0.3-0.2,0.1-1.3,0.1-1.8c0-8.6,0-17.1,0-25.7C198.5,93.8,198.5,93.6,198.5,93.4z"/>
</g>
<g>
	<defs>
		<path id="SVGID_10_" d="M232.8,93.4c-2.1,0-4.1,0.4-5.9,1.5c-0.7,0.5-1.4,1-2,1.7c-0.4,0.4-0.5,0.7-0.9,0.6
			c-0.4-0.1-0.9-0.8-1.2-1.1c-3.1-2.5-7.5-3.5-11.4-2.1c-4,1.4-7.1,4.7-8,8.8c-0.5,2.1-0.3,4.3-0.3,6.4c0,2.4,0,4.7,0,7.1
			c0,1.1-0.2,2.4,0.3,3.5c0.8,1.6,2.7,2.2,4.3,1.5c2.2-1.1,1.9-3.6,1.9-5.7c0-2.5,0-4.9,0-7.4c0-2.7,0-5.5,2.5-7.2
			c3.8-2.6,8.8,0.4,8.7,4.9c0-0.1,0-0.2,0-0.3c-0.2,1,0,2.2,0,3.3c0,1.9,0,3.8,0,5.6c0,2.3-0.7,5.8,2.1,6.9c2,0.7,3.9-0.5,4.3-2.4
			c0.2-0.7,0.1-1.4,0.1-2.1c0-3.5,0-7.1,0-10.6c0-1.5,0.2-2.9,1.2-4.1c1.7-2.1,4.7-2.8,7.1-1.4c3.4,1.9,2.9,5.9,2.9,9.2
			c0,2.8-0.2,5.6,0,8.4c0.2,2.8,3.5,4.4,5.5,2.3c1.2-1.2,0.9-3.1,0.9-4.7c0-3.5,0-7,0-10.5C244.8,98.7,239.4,93.3,232.8,93.4z"/>
	</defs>
	<clipPath id="SVGID_11_">
		<use xlink:href="#SVGID_10_"  style="overflow:visible;"/>
	</clipPath>
	
		<linearGradient id="SVGID_12_" gradientUnits="userSpaceOnUse" x1="-145.6788" y1="723.2723" x2="-144.6739" y2="723.2723" gradientTransform="matrix(-115.8559 0 0 -115.8559 -16616.9062 83902.8516)">
		<stop  offset="0" style="stop-color:#6A80B5"/>
		<stop  offset="1.838240e-03" style="stop-color:#6A80B5"/>
		<stop  offset="0.35" style="stop-color:#8DB359"/>
		<stop  offset="0.6895" style="stop-color:#E6BA54"/>
		<stop  offset="1" style="stop-color:#CD763C"/>
	</linearGradient>
	<path class="st5" d="M245,93.4c-10.1,0-20.2,0-30.3,0c-2.6,0-5.3,0-7.9,0c-0.8,0-1.6,0-2.4,0c-0.2,0-1-0.1-1.2,0
		c-0.4,0.3-0.1,2.7-0.1,3.3c0,3,0,6,0,9c0,3.2,0,6.5,0,9.7c0,1.2,0,2.5,0,3.7c0,0.5-0.2,1.6,0,2.1c0.2,0.5,1.1,0.3,1.8,0.3
		c2.2,0,4.4,0,6.6,0c6.5,0,13.1,0,19.6,0c2.9,0,5.7,0,8.6,0c1.5,0,3.4,0.3,4.9,0c0.2,0,0.4,0.1,0.5-0.1c0.2-0.2,0-1.4,0-1.7
		c0-2.6,0-5.3,0-7.9c0-5.8,0-11.6,0-17.4C245,94.1,245,93.8,245,93.4z"/>
</g>
<g>
	<defs>
		<path id="SVGID_13_" d="M254.4,107.4c0-7.3,10-10.4,13.9-4.1c3.4,5.4-1.1,12.7-7.6,11.6C257.1,114.3,254.4,111.2,254.4,107.4
			 M248,107.5c0,6.1,3.8,11.4,9.7,13.3c5.6,1.8,12,0,15.5-4.8c7.2-9.6-0.4-24-12.6-22.6C253.4,94.3,248,100.3,248,107.5"/>
	</defs>
	<clipPath id="SVGID_14_">
		<use xlink:href="#SVGID_13_"  style="overflow:visible;"/>
	</clipPath>
	
		<linearGradient id="SVGID_15_" gradientUnits="userSpaceOnUse" x1="-145.6725" y1="723.2745" x2="-144.668" y2="723.2745" gradientTransform="matrix(-115.9637 0 0 -115.9637 -16632.041 83981.0781)">
		<stop  offset="0" style="stop-color:#6A80B5"/>
		<stop  offset="1.838240e-03" style="stop-color:#6A80B5"/>
		<stop  offset="0.35" style="stop-color:#8DB359"/>
		<stop  offset="0.6895" style="stop-color:#E6BA54"/>
		<stop  offset="1" style="stop-color:#CD763C"/>
	</linearGradient>
	<path class="st6" d="M276,93.4c-8.2,0-16.4,0-24.6,0c-0.8,0-1.5,0-2.3,0c-0.2,0-1-0.1-1.1,0c-0.3,0.2,0,1.8,0,2.2
		c0,4.8,0,9.6,0,14.5c0,2.4,0,4.8,0,7.2c0,0.9,0,1.7,0,2.6c0,0.3-0.2,1.2,0,1.4c0.2,0.4,1.1,0.2,1.6,0.2c2,0,4,0,5.9,0
		c5.2,0,10.3,0,15.5,0c1.4,0,3.2,0.3,4.5,0c0.7-0.2,0.4-0.3,0.4-1.2c0-8.7,0-17.5,0-26.2C276,93.9,276,93.6,276,93.4z"/>
</g>
<g>
	<defs>
		<path id="SVGID_16_" d="M284.1,94.5c-2.4,1-4.6,2.9-5.1,5.5c-0.6,2.7,0.6,5.1,2.8,6.6c2.1,1.5,4.7,2.1,7.2,2.7
			c2.2,0.5,5.3,0.8,7,2.4c2.1,2,0.2,4.4-2,5c-2.3,0.7-5.3,0.4-7.3-1.1c-2-1.4-2.6-4.6-5.5-4.3c-3.1,0.4-3.1,3.7-1.6,5.7
			c3.1,4.5,10.2,4.8,15.1,4.2c5-0.7,10.5-4,9.3-9.9c-1.1-5.4-8.6-6.3-12.9-7.3c-1.7-0.4-5.4-1-5.4-3.4c0-2.7,4.2-3,6.1-2.7
			c1.4,0.2,2.5,0.8,3.5,1.8c1,1,1.8,2.3,3.2,2.7c3.2,0.8,5.3-2.2,3.4-4.8c-1.8-2.5-5.3-3.6-8.2-3.9
			C290.5,93.1,287.1,93.2,284.1,94.5"/>
	</defs>
	<clipPath id="SVGID_17_">
		<use xlink:href="#SVGID_16_"  style="overflow:visible;"/>
	</clipPath>
	
		<linearGradient id="SVGID_18_" gradientUnits="userSpaceOnUse" x1="-145.6747" y1="723.2708" x2="-144.6665" y2="723.2708" gradientTransform="matrix(-115.9737 0 0 -115.9737 -16633.9102 83987.7578)">
		<stop  offset="0" style="stop-color:#6A80B5"/>
		<stop  offset="1.838240e-03" style="stop-color:#6A80B5"/>
		<stop  offset="0.35" style="stop-color:#8DB359"/>
		<stop  offset="0.6895" style="stop-color:#E6BA54"/>
		<stop  offset="1" style="stop-color:#CD763C"/>
	</linearGradient>
	<path class="st7" d="M304.1,93.4c-7.8,0-15.6,0-23.4,0c-0.4,0-2-0.2-2.2,0c-0.3,0.4,0,2.6,0,3c0,4.8,0,9.5,0,14.3
		c0,2.3,0,4.6,0,6.9c0,0.8,0,1.6,0,2.3c0,0.3-0.1,1.1,0,1.3c0.2,0.4,1.1,0.2,1.6,0.2c2,0,4,0,5.9,0c4.9,0,9.7,0,14.6,0
		c0.8,0,1.5,0,2.3,0c0.2,0,1,0.1,1.1,0c0.2-0.2,0.1-1.6,0.1-1.9c0-8.5,0-17,0-25.5C304.1,93.8,304.1,93.6,304.1,93.4z"/>
</g>
<path class="st0" d="M288.9,23.8c-9.4-4.3-19.5,0.4-24.9,8.6c-6.3,9.5-6.8,22.5-1.9,32.7c4.3,8.8,13.5,15.5,23.6,13
	c12-3,18.1-16.2,18.1-27.6C303.8,40,298.9,28.4,288.9,23.8z M287.3,63.9c-0.6,2.9-1.5,6.1-3.4,8.4c-0.5,0.6-1.8,1.9-2.6,2
	c-0.8,0.1-1.8-0.7-2.3-1.2c-2-2.2-2.8-5.4-3.5-8.2c-2.1-8.8-2.1-18.5-0.4-27.3c0.5-2.5,3-13.7,7.7-10.5c2.5,1.6,3.4,5.5,4.1,8.1
	c1.3,5,1.7,10.1,1.7,15.2C288.7,54.9,288.3,59.5,287.3,63.9z"/>
<linearGradient id="SVGID_19_" gradientUnits="userSpaceOnUse" x1="144.8218" y1="107.3939" x2="170.3767" y2="107.3939">
	<stop  offset="0" style="stop-color:#CD763C"/>
	<stop  offset="0.1906" style="stop-color:#CE793D"/>
	<stop  offset="0.4057" style="stop-color:#D18340"/>
	<stop  offset="0.6326" style="stop-color:#D79246"/>
	<stop  offset="0.8664" style="stop-color:#E0AA4E"/>
	<stop  offset="1" style="stop-color:#E6BA54"/>
</linearGradient>
<path class="st8" d="M170.3,95.7c-0.9-3.1-5.2-3-6.2-0.1c-2,5.9-4.4,11.8-6.5,17.7c-1.9-5.3-3.9-10.5-5.8-15.8
	c-0.2-0.7-0.4-1.3-0.7-2c-1.2-2.5-4.6-2.9-5.9-0.2c-1,2.1,1,5.3,1.8,7.3c2.1,5.2,3.9,10.6,6.3,15.7c1.6,3.5,5.8,4.4,8.1,1
	c1.1-1.6,1.7-3.6,2.4-5.3c1.8-4.3,3.5-8.5,5.2-12.8C169.4,99.6,170.8,97.4,170.3,95.7z"/>
<path class="st0" d="M9.1,4.7C8.6,2.3,6,0.6,3.7,2.2C1.9,3.5,2.2,6.5,2.2,8.5c0.1,2.5,1,5.1,4,4.7c1.3-0.1,2.2-0.9,2.7-2.1
	c0.3-0.8,0.1-0.8,0.8-0.9c0.4-0.1,0.9,0,1.2,0c-0.5,3.5-3.5,5.5-6.9,4.5c-3.2-0.9-3.5-4.4-3.5-7.2c0-2.8,0.3-6.2,3.4-7.2
	c3.4-1.1,6.6,0.9,7.1,4.4C10.3,4.7,9.7,4.7,9.1,4.7z"/>
<path class="st0" d="M19.3,13.1c1.7,0,3.4,0,5.1,0c0.3,0,1.7-0.2,1.9,0c0.1,0.1,0,1.6,0,1.6c-0.2,0.2-1.5,0-1.8,0
	c-1.2,0-2.3,0-3.5,0c-0.5,0-3.1,0.3-3.4-0.1c-0.2-0.2,0-1.2,0-1.5c0-1,0-2,0-2.9c0-2.2,0-4.3,0-6.5c0-0.8,0-1.6,0-2.4
	c0-0.2-0.1-0.9,0-1.1c0.1-0.1,1.7-0.1,1.8,0c0.2,0.2,0,1.1,0,1.4C19.3,5.4,19.3,9.2,19.3,13.1z"/>
<path class="st0" d="M42.7,0.2c0,2,0,4,0,6c0,2.3,0.3,5-1.2,6.9c-1.7,2.2-5.9,2.4-7.8,0.4c-1.8-1.8-1.5-4.5-1.5-6.8c0-1.3,0-2.7,0-4
	c0-0.4-0.3-2.2,0-2.5c0.2-0.2,1.7-0.1,1.8,0.1c0.3,0.4,0,2.2,0,2.7c0,2.1-0.1,4.2,0,6.2c0.1,1.5,0.5,3.2,2,3.8
	c1.2,0.5,3,0.3,3.9-0.7c1.6-1.7,1-5.5,1-7.7c0-1.3-0.1-2.6,0-3.9c0-0.2-0.1-0.5,0.1-0.6C41.2,0,42.4,0.2,42.7,0.2z"/>
<path class="st0" d="M54.9,0.2c1.8,0,3.9,0.3,4.7,2.2c0.8,1.8-0.1,4.3-2.1,4.8c4.2,0.8,3.4,6.4-0.2,7.3c-1.2,0.3-2.6,0.2-3.8,0.2
	c-0.4,0-2.7,0.3-3,0c-0.2-0.2,0-1.5,0-1.8c0-1.3,0-2.5,0-3.8c0-2.6,0-5.3,0-7.9c0-0.9-0.2-0.9,0.6-1C52.3,0.1,53.6,0.2,54.9,0.2z
	 M52.3,6.4c1.4,0,3.6,0.4,4.8-0.4c1.9-1.2,1-3.7-0.9-4c-0.7-0.1-3.6-0.4-3.9,0.1c-0.3,0.5,0,1.9,0,2.5C52.3,5.1,52.3,5.7,52.3,6.4z
	 M52.3,13.1c1.5,0,3.8,0.4,5.2-0.4c0.9-0.5,1.3-1.7,1.1-2.7c-0.3-1.2-1.3-1.7-2.4-1.9C55.2,7.9,54.3,8,53.4,8
	c-0.8,0-0.9-0.2-1.1,0.4C52,9.8,52.3,11.6,52.3,13.1z"/>
<path class="st0" d="M76.6,14.7c0-2.4,0-4.8,0-7.2c0-1.6,0-3.3,0-4.9c0-0.4-0.3-2.1,0-2.4c0.1-0.2,1.1,0,1.4,0c0.9,0,1.7,0,2.6,0
	c1.5,0,3,0.1,4.1,1.1c1.6,1.4,1.8,3.6,1.8,5.6c0,1.9,0.1,3.9-0.9,5.5C83.9,15.5,79.6,14.7,76.6,14.7z M84.7,8.2
	c0-2.3,0.2-5.8-2.6-6.3c-0.9-0.2-2-0.1-3-0.1c-0.8,0-0.7,0-0.7,0.7c0,2.3,0,4.7,0,7c0,0.9-0.2,2,0,2.9c0.1,0.7,0,0.5,0.9,0.5
	c1.1,0,2.5,0.2,3.6-0.3C84.5,11.9,84.7,9.8,84.7,8.2"/>
<path class="st0" d="M102.3,0.2c0,0.3,0.2,1.4,0,1.6c-0.1,0.1-1.1,0-1.3,0c-1.6,0-3.2,0-4.8,0c-0.2,0-0.7-0.1-0.8,0
	c-0.2,0.2,0,1.6,0,1.8c0,0.7-0.2,1.6,0,2.3c0.2,0.6-0.2,0.2,0.4,0.4c0.6,0.2,1.5,0,2.2,0c0.9,0,1.7,0,2.6,0c0.2,0,1-0.1,1.1,0
	c0.1,0.1,0.1,1.6,0,1.6c-0.1,0.1-1.1,0-1.3,0c-0.9,0-1.8,0-2.7,0c-0.4,0-1.7-0.2-2.1,0c-0.4,0.2-0.2,0-0.2,0.6c-0.1,0.7,0,1.5,0,2.2
	c0,0.4-0.2,1.8,0,2.1c0.3,0.4,2,0.2,2.7,0.2c0.8,0,1.7,0,2.5,0c0.3,0,1.4-0.2,1.7,0c0.1,0.1,0.2,1.2,0.1,1.4
	c-0.2,0.3-0.2,0.2-0.7,0.2c-1.6,0-3.1,0-4.7,0c-0.8,0-1.5,0-2.3,0c-0.1,0-1,0.1-1.1,0c-0.2-0.2,0-1.8,0-2.2c0-1.6,0-3.2,0-4.8
	c0-1.9,0-3.7,0-5.6c0-0.4-0.2-1.7,0.1-2c0.3-0.2,1.4,0,1.8,0c1,0,1.9,0,2.9,0C99.7,0.2,101,0.2,102.3,0.2z"/>
<path class="st0" d="M126.1,3.4c-1-1.2-2.2-1.9-3.8-1.7c-1.3,0.1-2.4,0.8-2.4,2.3c0,3.2,4.8,2.4,6.6,3.9c2,1.5,1.7,4.8-0.3,6.2
	c-2.5,1.7-6.7,0.9-8.4-1.5c0.3-0.2,0.9-0.9,1.3-0.9c0.4-0.1,0.9,0.7,1.4,1c1.3,0.8,3.8,1.1,5-0.2c0.8-0.8,0.7-2.4,0-3.2
	c-1.3-1.3-3.6-1-5.2-1.8c-3.1-1.6-2.8-6.2,0.6-7.2c1.7-0.5,4-0.3,5.4,0.8c0.4,0.3,1.3,1,1.1,1.5C127.2,2.8,126.4,3.2,126.1,3.4z"/>
<path class="st0" d="M145.3,0.2c0,2,0,4,0,6c0,2.3,0.3,5-1.2,6.9c-1.7,2.2-5.9,2.4-7.8,0.4c-1.8-1.8-1.5-4.5-1.5-6.8
	c0-1.3,0-2.7,0-4c0-0.4-0.3-2.2,0-2.5c0.2-0.2,1.7-0.1,1.8,0.1c0.3,0.4,0,2.2,0,2.7c0,2.1-0.1,4.2,0,6.2c0.1,1.5,0.5,3.2,2,3.8
	c1.2,0.5,3,0.3,3.9-0.7c1.6-1.7,1-5.5,1-7.7c0-1.3-0.1-2.6,0-3.9c0-0.2-0.1-0.5,0.1-0.6C143.7,0,144.9,0.2,145.3,0.2z"/>
<path class="st0" d="M160.6,3.4c-1-1.2-2.2-1.9-3.8-1.7c-1.3,0.1-2.4,0.8-2.4,2.3c0,3.2,4.8,2.4,6.6,3.9c2,1.5,1.7,4.8-0.3,6.2
	c-2.5,1.7-6.7,0.9-8.4-1.5c0.3-0.2,0.9-0.9,1.3-0.9c0.4-0.1,0.9,0.7,1.4,1c1.3,0.8,3.8,1.1,5-0.2c0.8-0.8,0.7-2.4,0-3.2
	c-1.3-1.3-3.6-1-5.2-1.8c-3.1-1.6-2.8-6.2,0.6-7.2c1.7-0.5,4-0.3,5.4,0.8c0.4,0.3,1.3,1,1.1,1.5C161.7,2.8,160.9,3.2,160.6,3.4z"/>
<path class="st0" d="M177.2,4.7c-0.5-2.4-3.1-4.1-5.4-2.5c-1.8,1.3-1.5,4.3-1.5,6.3c0.1,2.5,1,5.1,3.9,4.7c1.3-0.1,2.2-0.9,2.7-2.1
	c0.3-0.8,0.1-0.8,0.8-0.9c0.4-0.1,0.9,0,1.2,0c-0.5,3.5-3.5,5.5-6.9,4.5c-3.2-0.9-3.5-4.4-3.5-7.2c0-2.8,0.3-6.2,3.4-7.2
	c3.4-1.1,6.6,0.9,7.1,4.4C178.4,4.7,177.8,4.7,177.2,4.7z"/>
<path class="st0" d="M193.8,14.7c-0.7-1.5-1.4-2.9-2.2-4.4c-0.2-0.4-0.5-1.4-0.8-1.7c-0.3-0.2-1.4-0.1-1.9-0.1
	c-0.5,0-1.4-0.2-1.6,0.1c-0.3,0.4,0,2,0,2.5c0,0.9,0,1.8,0,2.8c0,0.9,0,0.7-0.9,0.7c-0.6,0-0.7,0.1-0.9-0.2c-0.2-0.4,0-1.4,0-1.9
	c0-2,0-3.9,0-5.9c0-1.8,0-3.7,0-5.5c0-0.1-0.1-0.8,0-0.9c0.2-0.2,1.6,0,1.9,0c2.1,0,4.8-0.4,6.6,1c2.5,2,1.5,6.2-1.5,7
	c1.1,2.1,2.2,4.3,3.2,6.4C195.2,14.7,194.5,14.7,193.8,14.7z M190.2,7c1.1,0,2.6-0.1,3.2-1.2c0.5-0.8,0.4-2.2-0.2-2.9
	c-0.7-0.9-2-0.9-3-0.9c-0.6,0-2-0.3-2.5,0c-0.4,0.2-0.3,0.5-0.3,1.1c0,1,0,2,0,3c0,0.8-0.2,0.9,0.4,1C188.5,7.1,189.5,7,190.2,7z"/>
<path class="st0" d="M204.5,14.7c-0.4,0-1.4,0.2-1.7,0c-0.2-0.1,0-0.1-0.1-0.3c-0.3-0.8,0-2.3,0-3.1c0-3,0-6,0-8.9
	c0-0.4-0.2-1.9,0-2.1c0.2-0.3,1.7-0.1,1.8,0.1c0.3,0.5,0,2.1,0,2.6c0,1.5,0,3,0,4.4C204.5,9.9,204.5,12.3,204.5,14.7z"/>
<path class="st0" d="M214.3,9.2c0,1.4,0,2.8,0,4.2c0,0.2,0.1,1.2,0,1.3c-0.1,0.1-1.7,0.1-1.8,0c-0.3-0.3,0-2.2,0-2.6
	c0-1.7,0-3.5,0-5.2c0-1.6,0-3.3,0-4.9c0-0.5-0.2-1.5,0.2-1.8c0.4-0.2,1.8,0,2.3,0c0.7,0,1.4,0,2.1,0c2,0,4.1,0.6,5,2.6
	c1,2.3,0,5-2.4,6C218,9.4,216,9.2,214.3,9.2z M217.1,7.5c1.2,0,2.6-0.3,3.2-1.5c0.5-0.9,0.4-2.4-0.3-3.2c-0.7-0.9-2-1-3-1
	c-0.5,0-2.2-0.3-2.6,0c-0.2,0.2-0.1,1.2-0.1,1.5c0,1,0,2.1,0,3.1c0,0.7-0.2,0.8,0.3,1.1C215.2,7.8,216.4,7.5,217.1,7.5z"/>
<path class="st0" d="M237.9,0.2c0,0.4,0.1,1,0,1.3c-0.2,0.5,0.1,0.1-0.3,0.3c-0.8,0.3-2.4,0-3.3,0c-0.7,0-0.6-0.1-0.8,0.3
	c-0.2,0.6,0,1.7,0,2.3c0,2.3,0,4.7,0,7c0,0.8,0,1.7,0,2.5c0,0.7,0.1,0.5-0.5,0.7c-0.1,0-1.2,0.1-1.3,0c-0.1-0.1,0-0.3,0-0.4
	c-0.2-0.6,0-1.6,0-2.2c0-2.3,0-4.7,0-7c0-0.8,0-1.7,0-2.5c0-0.6,0.1-0.5-0.3-0.7c-0.8-0.3-2.3,0-3.2,0c-0.2,0-0.8,0.1-0.9,0
	c-0.1-0.1-0.1-1.2,0-1.3c0.2-0.4-0.1-0.2,0.2-0.3c0.2-0.1,0.8,0,1,0c1.2,0,2.5,0,3.7,0C234.1,0.2,236,0.2,237.9,0.2z"/>
<path class="st0" d="M248.6,14.9c-3.1,0-4.8-2.2-5.2-5.1c-0.3-2.6-0.4-6.1,1.3-8.1c1.6-1.9,5-2.1,7-0.6c2.2,1.6,2.1,4.8,2.1,7.3
	C253.8,11.7,252.4,14.9,248.6,14.9 M245.1,8.3c0,2.8,1.4,6,4.8,4.8c2.4-0.9,2.2-4.3,2.1-6.4c0-2.7-1.2-5.8-4.5-4.8
	C244.8,2.6,245.1,6.1,245.1,8.3z"/>
<path class="st0" d="M269.1,14.7c-0.7-1.5-1.4-2.9-2.2-4.4c-0.2-0.4-0.5-1.4-0.8-1.7c-0.3-0.2-1.4-0.1-1.9-0.1
	c-0.5,0-1.4-0.2-1.6,0.1c-0.3,0.4,0,2,0,2.5c0,0.9,0,1.8,0,2.8c0,0.9,0,0.7-0.9,0.7c-0.6,0-0.7,0.1-0.9-0.2c-0.2-0.4,0-1.4,0-1.9
	c0-2,0-3.9,0-5.9c0-1.8,0-3.7,0-5.5c0-0.1-0.1-0.8,0-0.9c0.2-0.2,1.6,0,1.9,0c2.1,0,4.8-0.4,6.6,1c2.5,2,1.5,6.2-1.5,7
	c1.1,2.1,2.2,4.3,3.2,6.4C270.4,14.7,269.8,14.7,269.1,14.7z M265.5,7c1.1,0,2.6-0.1,3.2-1.2c0.5-0.8,0.4-2.2-0.2-2.9
	c-0.7-0.9-2-0.9-3-0.9c-0.6,0-2-0.3-2.5,0c-0.4,0.2-0.3,0.5-0.3,1.1c0,1,0,2,0,3c0,0.8-0.2,0.9,0.4,1C263.8,7.1,264.7,7,265.5,7z"/>
<path class="st0" d="M286.5,0.2c0,0.3,0.2,1.4,0,1.6c-0.1,0.1-1.1,0-1.3,0c-1.6,0-3.2,0-4.8,0c-0.2,0-0.7-0.1-0.8,0
	c-0.2,0.2,0,1.6,0,1.8c0,0.7-0.2,1.6,0,2.3c0.2,0.6-0.2,0.2,0.4,0.4c0.6,0.2,1.5,0,2.2,0c0.9,0,1.7,0,2.6,0c0.2,0,1-0.1,1.1,0
	c0.1,0.1,0.1,1.6,0,1.6c-0.1,0.1-1.1,0-1.3,0c-0.9,0-1.8,0-2.7,0c-0.4,0-1.7-0.2-2.1,0c-0.4,0.2-0.2,0-0.2,0.6c-0.1,0.7,0,1.5,0,2.2
	c0,0.4-0.2,1.8,0,2.1c0.3,0.4,2,0.2,2.7,0.2c0.8,0,1.7,0,2.5,0c0.3,0,1.4-0.2,1.7,0c0.1,0.1,0.2,1.2,0.1,1.4
	c-0.2,0.3-0.2,0.2-0.7,0.2c-1.6,0-3.1,0-4.7,0c-0.8,0-1.5,0-2.3,0c-0.1,0-1,0.1-1.1,0c-0.2-0.2,0-1.8,0-2.2c0-1.6,0-3.2,0-4.8
	c0-1.9,0-3.7,0-5.6c0-0.4-0.2-1.7,0.1-2c0.3-0.2,1.4,0,1.8,0c1,0,1.9,0,2.9,0C283.8,0.2,285.1,0.2,286.5,0.2z"/>
<path class="st0" d="M300.8,3.4c-1-1.2-2.2-1.9-3.8-1.7c-1.3,0.1-2.4,0.8-2.4,2.3c0,3.2,4.8,2.4,6.6,3.9c2,1.5,1.7,4.8-0.3,6.2
	c-2.5,1.7-6.7,0.9-8.4-1.5c0.3-0.2,0.9-0.9,1.3-0.9c0.4-0.1,0.9,0.7,1.4,1c1.3,0.8,3.8,1.1,5-0.2c0.8-0.8,0.7-2.4,0-3.2
	c-1.3-1.3-3.6-1-5.2-1.8c-3.1-1.6-2.8-6.2,0.6-7.2c1.7-0.5,4-0.3,5.4,0.8c0.4,0.3,1.3,1,1.1,1.5C301.9,2.8,301.1,3.2,300.8,3.4z"/>
</svg>
