<svg id="Grupo_368" data-name="Grupo 368" xmlns="http://www.w3.org/2000/svg" xmlns:xlink="http://www.w3.org/1999/xlink" width="48" height="48.003" viewBox="0 0 48 48.003">
  <defs>
    <clipPath id="clip-path">
      <rect id="Rectángulo_272" data-name="Rectángulo 272" width="48" height="48.003" fill="#fff"/>
    </clipPath>
  </defs>
  <g id="Grupo_367" data-name="Grupo 367" clip-path="url(#clip-path)">
    <path id="Trazado_10" data-name="Trazado 10" d="M0,28.23a.67.67,0,0,0,.1-.14A2.393,2.393,0,0,1,2.482,26.4c1.28-.023,2.561-.02,3.842,0a2.436,2.436,0,0,1,2.218,1.319.579.579,0,0,0,.41.269,10.151,10.151,0,0,1,4.608.747A10.409,10.409,0,0,1,12.25,20.9c-.9-.539-1.821-1-2.636-1.6a11.5,11.5,0,0,1-4.433-7.4A28.05,28.05,0,0,1,4.8,7.944c-.063-1.387-.018-2.779-.013-4.169a1.623,1.623,0,0,1,1.6-1.707c.958-.105,1.914-.251,2.857-.448a6.134,6.134,0,0,0,2.5-1.212,1.529,1.529,0,0,1,2.06-.017,8.442,8.442,0,0,0,4.422,1.6c.372.043.747.062,1.12.093a1.533,1.533,0,0,1,1.435,1.47c-.031,2.386-.079,4.773-.183,7.156a17.646,17.646,0,0,1-.41,2.328,10.436,10.436,0,0,1,6.984.933v-.565q0-3.444,0-6.888a3.2,3.2,0,0,1,3.307-3.308c.747,0,1.493,0,2.3,0,0-.33-.01-.623,0-.914A2.35,2.35,0,0,1,35.13.025c1.593-.009,3.186,0,4.779,0A2.368,2.368,0,0,1,42.384,2.4c.011.247,0,.495,0,.811.829,0,1.619-.008,2.408,0a3.125,3.125,0,0,1,2.57,1.309A3.038,3.038,0,0,1,47.983,6.4c0,3.748,0,7.5,0,11.245a3.177,3.177,0,0,1-3.191,3.179c-3.889.009-7.778,0-11.667,0h-.554c.859,5.245-1.012,9.157-5.609,11.8a3.9,3.9,0,0,1,.9,4.218,10.121,10.121,0,0,0,1.55-.247c3.551-1.159,7.092-2.345,10.636-3.524,1.314-.437,2.625-.886,3.943-1.311a3,3,0,0,1,2.535,5.4c-1.363.849-2.742,1.673-4.114,2.508-3.529,2.149-7.065,4.286-10.583,6.452a7.408,7.408,0,0,1-4,1.1q-9.558-.012-19.116-.008a1.231,1.231,0,0,0-.892.295A4.537,4.537,0,0,1,6.936,48H1.875A2.81,2.81,0,0,1,0,46.129V28.23M8.825,45.581h.595c6.153,0,12.307-.011,18.46.01a5.924,5.924,0,0,0,3.226-.921c3-1.85,6.018-3.67,9.029-5.5q2.717-1.654,5.432-3.313a1.425,1.425,0,0,0,.785-1.467,1.457,1.457,0,0,0-2.007-1.055c-4.386,1.5-8.8,2.925-13.184,4.425a11.66,11.66,0,0,1-4.256.687c-1.622-.058-3.25.031-4.872-.025a7.2,7.2,0,0,0-4.659,1.366.8.8,0,0,1-1.233-.11c-.289-.406-.155-.881.334-1.235a8.55,8.55,0,0,1,5.209-1.658c1.327.01,2.655.01,3.982-.008a.68.68,0,0,0,.5-.225,2,2,0,0,0,.312-1.516,2.856,2.856,0,0,0-2.2-2.114,5.061,5.061,0,0,0-.927-.094c-1.109-.011-2.219-.039-3.326,0a8.791,8.791,0,0,1-5.957-1.934,7.079,7.079,0,0,0-5.242-1.228ZM22.416,14.4c-.527.051-1.06.069-1.58.158a8.8,8.8,0,0,0-2.978,16.181,3.071,3.071,0,0,0,1.68.466c1.249-.011,2.5-.024,3.747.007.555.014,1.107.139,1.663.2a1.418,1.418,0,0,0,.62-.019A8.792,8.792,0,0,0,22.416,14.4M37.57,4.823q-3.441,0-6.883,0a1.66,1.66,0,0,0-1.895,1.893c0,2.622,0,5.244-.007,7.866a.825.825,0,0,0,.324.719A9.7,9.7,0,0,1,31.8,18.793a.619.619,0,0,0,.661.428c4.011-.014,8.022-.008,12.033-.01a1.667,1.667,0,0,0,1.893-1.9q0-5.291,0-10.582c0-1.3-.614-1.907-1.929-1.908q-3.442,0-6.883,0M6.406,3.7c0,1.479-.011,2.912,0,4.346a17.233,17.233,0,0,0,.529,4.35,9.76,9.76,0,0,0,5.317,6.632c.349.168.535.188.736-.242A10.13,10.13,0,0,1,17.773,13.9a1.109,1.109,0,0,0,.61-.693c1.076-3.085.787-6.279.775-9.451,0-.013-.018-.025-.045-.061a10.9,10.9,0,0,1-6.332-2.056A10.848,10.848,0,0,1,6.406,3.7M1.6,37.179q0,4.1,0,8.2c0,.731.295,1.026,1.023,1.029,1.2.005,2.4.008,3.606,0a.843.843,0,0,0,.962-.945c.012-.421,0-.843,0-1.264q0-7.494,0-14.987c0-.966-.211-1.173-1.187-1.173H2.683c-.831,0-1.082.252-1.083,1.09q0,4.028,0,8.055M40.77,3.187c0-.237,0-.452,0-.665a.806.806,0,0,0-.855-.894q-2.336-.023-4.673,0a.806.806,0,0,0-.847.859c-.009.228,0,.457,0,.7Z" transform="translate(-0.001 0)" fill="#fff"/>
    <path id="Trazado_11" data-name="Trazado 11" d="M159.643,137.917c.009.772-.258,1.121-.73,1.16s-.792-.273-.865-.879a1.593,1.593,0,1,0-3.182.172,1.65,1.65,0,0,0,1.715,1.51,3.191,3.191,0,0,1,1.122,6.128c-.257.108-.442.208-.5.522a.779.779,0,0,1-1.478.032c-.079-.338-.287-.451-.567-.582a3.056,3.056,0,0,1-1.891-2.779.814.814,0,0,1,.757-.939c.46-.025.8.319.845.865a1.59,1.59,0,1,0,1.482-1.654,3.193,3.193,0,0,1-1.122-6.145.639.639,0,0,0,.472-.486.785.785,0,0,1,1.512.007.6.6,0,0,0,.435.466,3.092,3.092,0,0,1,2,2.6" transform="translate(-134.062 -117.462)" fill="#fff"/>
    <path id="Trazado_12" data-name="Trazado 12" d="M266.566,56.757a5.614,5.614,0,1,1-5.584-5.622,5.643,5.643,0,0,1,5.584,5.622m-5.613,3.97a3.976,3.976,0,1,0-3.971-3.989,3.972,3.972,0,0,0,3.971,3.989" transform="translate(-223.37 -44.734)" fill="#fff"/>
    <path id="Trazado_13" data-name="Trazado 13" d="M72.592,50.865c1.435-1.912,2.8-3.736,4.177-5.548a1.259,1.259,0,0,1,.581-.418.691.691,0,0,1,.839.351.819.819,0,0,1-.079.962q-1.221,1.63-2.444,3.258c-.74.986-1.476,1.975-2.221,2.956a.829.829,0,0,1-1.419.1c-.458-.447-.909-.9-1.358-1.358a.848.848,0,0,1-.113-1.274c.355-.347.833-.3,1.273.139.253.253.487.526.764.828" transform="translate(-61.512 -39.246)" fill="#fff"/>
    <path id="Trazado_14" data-name="Trazado 14" d="M284.2,79.931c-.173,1.291-.35,1.6-.884,1.592-.552-.009-.742-.355-.844-1.592-.188,0-.383,0-.578,0-.6-.015-.992-.349-.982-.836s.385-.792.961-.81c.185-.006.371,0,.633,0,0-.252-.012-.479,0-.7a.85.85,0,0,1,.834-.888.86.86,0,0,1,.808.916c.009.2,0,.4,0,.676.22,0,.415,0,.61,0,.6.016.991.347.982.836-.009.473-.386.793-.96.811-.186.006-.372,0-.582,0" transform="translate(-245.741 -67.09)" fill="#fff"/>
  </g>
</svg>
