<svg xmlns="http://www.w3.org/2000/svg" width="16" height="16" viewBox="0 0 16 16">
  <g id="Grupo_136" data-name="Grupo 136" transform="translate(-187 -73)">
    <rect id="Rectángulo_111" data-name="Rectángulo 111" width="16" height="16" transform="translate(187 73)" fill="none"/>
    <path id="Icon_awesome-share" data-name="Icon awesome-share" d="M10.869,5.656l-3.8-3.28a.518.518,0,0,0-.856.392V4.5C2.748,4.535,0,5.23,0,8.515A4.411,4.411,0,0,0,1.8,11.84a.385.385,0,0,0,.606-.4c-.978-3.129.464-3.96,3.81-4.008v1.9a.518.518,0,0,0,.856.392l3.8-3.28A.518.518,0,0,0,10.869,5.656Z" transform="translate(189.476 73.916)" fill="#fff"/>
  </g>
</svg>
