<svg xmlns="http://www.w3.org/2000/svg" width="14.432" height="14.5" viewBox="0 0 14.432 14.5">
  <g id="Grupo_138" data-name="Grupo 138" transform="translate(0.432 0.25)">
    <g id="Image">
      <rect id="Placement_Area" data-name="Placement Area" width="14" height="14" fill="none"/>
    </g>
    <g id="Group-11">
      <g id="Group-Copy-2">
        <path id="Stroke-7" d="M3.588,14c.756-.006,3.655-1.54,1.078-6.473a3.991,3.991,0,0,1,.828-2.864c.7-.694.64-2.779-.257-4.313-.122-.171-.525-.687-.518.022s.043,2.721.043,2.721,0,.246-.4.246S3.935,3.1,3.935,3.1,3.873.638,3.873.412,3.6,0,3.392,0h-.02a.481.481,0,0,0-.463.42c0,.227.017,2.685.017,2.685s-.02.241-.421.247-.4-.242-.4-.242S2.069,1.1,2.057.393,1.655.21,1.541.379C.691,1.931.7,4.01,1.417,4.695a4.077,4.077,0,0,1,.919,2.852c-2.421,4.977.525,6.46,1.284,6.453Z" transform="translate(-0.891)" fill="none" stroke="#fff" stroke-width="0.5" fill-rule="evenodd"/>
        <path id="Stroke-9" d="M16.5,5.1c.65-.664.807-2.52-1.729-4.784-.113-.161-1.5-.645-1.482.031l.117,7.49a9.312,9.312,0,0,1-.292,2.664c-.31.516-1.134,3.509,1.622,3.5.715-.016,3.385-1.484.992-6.16A3.948,3.948,0,0,1,16.5,5.1Z" transform="translate(-3.504 0)" fill="none" stroke="#fff" stroke-width="0.5" fill-rule="evenodd"/>
      </g>
    </g>
  </g>
</svg>
