<svg xmlns="http://www.w3.org/2000/svg" width="14.75" height="14.573" viewBox="0 0 14.75 14.573">
  <path id="Stroke-22-Copy-4" d="M24.7,10.809h.448c.3,0,.139-.883.139-.976s-.277,0-.827,0H23.88l-.624-.919h.624a5.393,5.393,0,0,0,0-.881c0-.122-.239-.122-.624-.122h-.841Q20.959,6,20.576,6a.679.679,0,0,0-.382.144.372.372,0,0,0-.208.3,2.545,2.545,0,0,0,.438.821A20.924,20.924,0,0,1,21.7,9.74a8.951,8.951,0,0,1,.838,2.193c0,.159-.248.249-.747.263a21.454,21.454,0,0,0-3.527.226,6.271,6.271,0,0,1-.612-.766,4.309,4.309,0,0,0-.671-.788,1.22,1.22,0,0,0-.65-.126.586.586,0,0,0-.334.069,11.3,11.3,0,0,0,.737,2.13A7.658,7.658,0,0,0,16,15.066a.565.565,0,0,0,.334.069,1.216,1.216,0,0,0,.646-.121,4.166,4.166,0,0,0,.67-.787,6.657,6.657,0,0,1,.616-.772,15.294,15.294,0,0,0,2.474.2,10.208,10.208,0,0,1,1.6.081c.132.042.2.111.2.208a9.091,9.091,0,0,1-.838,2.188,20.828,20.828,0,0,1-1.277,2.48,2.561,2.561,0,0,0-.438.821.376.376,0,0,0,.208.3.714.714,0,0,0,.382.139q.383,0,1.838-1.9h.841c.385,0,.857.069.857-.213,0-.245.04-.745-.234-.745h-.807l.806-.967h.58c.493,0,1.062.125,1.062-.156,0-.25.062-.752-.235-.752h-.693l1.285-1.486h1.807q2.31,0,2.312-.748c0-.2-.309-.358-.932-.485a7.627,7.627,0,0,0-1.38-.189h-1.81Z" transform="translate(-15.596 -5.65)" fill="none" stroke="#fff" stroke-width="0.7" fill-rule="evenodd"/>
</svg>
