<svg xmlns="http://www.w3.org/2000/svg" width="14.718" height="15.627" viewBox="0 0 14.718 15.627">
  <g id="Page-1" transform="translate(0.358 0.35)">
    <g id="Group-26">
      <g id="Group-12">
        <path id="Stroke-25-Copy-4" d="M29.835,11.505V6.983a.262.262,0,0,0-.262-.262H27.422a.262.262,0,0,0-.262.262V8.772L24.671,6.228a.262.262,0,0,0-.371,0l0,0L17.559,13.11a.262.262,0,0,0,.187.445h.715v7.259a.262.262,0,0,0,.262.262h3.492a.262.262,0,0,0,.262-.262V16.928a2.006,2.006,0,0,1,2.006-2.006h0a2.006,2.006,0,0,1,2.006,2.006v3.886a.262.262,0,0,0,.256.262h3.491a.262.262,0,0,0,.262-.262V13.557h.716a.262.262,0,0,0,.194-.447Z" transform="translate(-17.484 -6.149)" fill="none" stroke="#fff" stroke-width="0.7" fill-rule="evenodd"/>
      </g>
    </g>
  </g>
</svg>
