<svg xmlns="http://www.w3.org/2000/svg" width="14.571" height="13.241" viewBox="0 0 14.571 13.241">
  <g id="Group-14-Copy-3" transform="translate(0.318 0.261)">
    <path id="Stroke-24" d="M11.454,1.414C10.648-.368,8.2-.368,6.368,1.305h0c-5.15-4.731-11.284,4.4,0,11.424h0a15.729,15.729,0,0,0,4.675-4.6Z" transform="translate(0.001 0)" fill="rgba(0,0,0,0)" stroke="#fff" stroke-width="0.5" fill-rule="evenodd"/>
    <path id="Stroke-23" d="M18.045,4.378H16.686A.388.388,0,0,1,16.3,3.99V2.61a.388.388,0,0,0-.388-.388H14.623a.388.388,0,0,0-.388.388V3.99a.388.388,0,0,1-.388.388H12.488a.388.388,0,0,0-.388.389V6.076a.388.388,0,0,0,.388.388h1.361a.388.388,0,0,1,.388.388v1.38a.388.388,0,0,0,.388.388h1.288a.388.388,0,0,0,.388-.388V6.851a.388.388,0,0,1,.388-.388h1.359a.388.388,0,0,0,.388-.388V4.767a.388.388,0,0,0-.388-.389Z" transform="translate(-4.43 -0.801)" fill="#47c7ac" stroke="#fff" stroke-width="0.5" fill-rule="evenodd"/>
  </g>
</svg>
