<svg xmlns="http://www.w3.org/2000/svg" width="14.743" height="16.014" viewBox="0 0 14.743 16.014">
  <g id="Grupo_547" data-name="Grupo 547" transform="translate(2.383 1.014)">
    <g id="Page-1" transform="translate(-1.995 -0.671)">
      <g id="Group-27" transform="translate(-0.003 0.011)">
        <g id="Group-13">
          <g id="Group-9">
            <path id="Stroke-26" d="M14.347,11.4V9.439a.745.745,0,0,0-.687-.8H1.736a.745.745,0,0,0-.687.8V11.4a.95.95,0,0,1,.875,1.011.95.95,0,0,1-.875,1.011v1.955a.745.745,0,0,0,.687.8H13.66a.745.745,0,0,0,.687-.8V13.419a.95.95,0,0,1-.875-1.011A.95.95,0,0,1,14.347,11.4Z" transform="translate(-0.351 -2.849)" fill="none" stroke="#fff" stroke-width="0.7" fill-rule="evenodd"/>
            <path id="Stroke-30" d="M13.81,6.086a.746.746,0,0,0,.126-.776L13.269,3.7a.835.835,0,0,1-1.124-.464.929.929,0,0,1,.436-1.193L11.914.434a.655.655,0,0,0-.883-.364L.4,5.04a.727.727,0,0,0-.343.936L.7,7.169" transform="translate(0.003 -0.011)" fill="none" stroke="#fff" stroke-width="0.7" fill-rule="evenodd"/>
            <path id="Stroke-34" d="M9.263,12.107l.227.5a.179.179,0,0,0,.133.1l.53.083a.179.179,0,0,1,.1.3l-.4.423a.179.179,0,0,0-.047.151l.092.582a.179.179,0,0,1-.265.184l-.448-.255a.179.179,0,0,0-.177,0l-.448.255a.179.179,0,0,1-.265-.184l.092-.582a.179.179,0,0,0-.047-.151l-.4-.423a.179.179,0,0,1,.1-.3l.53-.083a.179.179,0,0,0,.133-.1l.227-.5a.179.179,0,0,1,.326,0Z" transform="translate(-2.627 -4.002)" fill="none" stroke="#fff" stroke-width="0.7" fill-rule="evenodd"/>
            <path id="Path-8" d="M16.8,8.649v7.522" transform="translate(-5.603 -2.851)" fill="none" stroke="#fff" stroke-linecap="round" stroke-linejoin="round" stroke-width="0.7" stroke-dasharray="1.946" fill-rule="evenodd"/>
            <path id="Path-8-Copy" d="M14.109,2.162l1.783,4.3" transform="translate(-4.697 -0.737)" fill="none" stroke="#fff" stroke-linecap="round" stroke-linejoin="round" stroke-width="0.7" stroke-dasharray="1.946" fill-rule="evenodd"/>
          </g>
        </g>
      </g>
    </g>
    <rect id="Rectángulo_357" data-name="Rectángulo 357" width="13" height="16" transform="translate(-1.499 -1)" fill="none"/>
  </g>
</svg>
