<?xml version="1.0" encoding="UTF-8"?>
<svg width="44px" height="15px" viewBox="0 0 44 15" version="1.1" xmlns="http://www.w3.org/2000/svg" xmlns:xlink="http://www.w3.org/1999/xlink">
    <!-- Generator: Sketch 55.1 (78136) - https://sketchapp.com -->
    <title>logo-footer</title>
    <desc>Created with Sketch.</desc>
    <defs>
        <polygon id="path-1" points="0 16.46875 43.9705596 16.46875 43.9705596 0.0731644467 0 0.0731644467"></polygon>
        <polygon id="path-3" points="0 16.46875 43.9705596 16.46875 43.9705596 0.0731644467 0 0.0731644467"></polygon>
        <path d="M3.01222633,0.252732095 C2.99090946,0.2933687 2.01748971,2.12923077 2.01748971,2.12923077 L2.01748971,2.12923077 C2.01748971,2.12923077 1.04620165,0.276710875 1.02290535,0.240954907 L1.02290535,0.240954907 C0.922259259,0.0818037135 0.685794238,-0.0283289125 0.399691358,0.0380901857 L0.399691358,0.0380901857 C0.161703704,0.0941114058 -0.00274074073,0.307055703 0.108259259,0.49071618 L0.108259259,0.49071618 C0.165205761,0.595119363 1.34783539,2.6537931 1.34783539,2.6537931 L1.34783539,2.6537931 C1.34783539,2.6537931 1.55004115,2.9991512 2.01946914,2.9991512 L2.01946914,2.9991512 C2.45874896,2.9991512 2.67252675,2.6537931 2.67252675,2.6537931 L2.67252675,2.6537931 C2.67252675,2.6537931 3.68431687,0.961167108 3.94544856,0.463129973 L3.94544856,0.463129973 C4.0392428,0.285092838 3.89535391,0.0989920425 3.65310287,0.0346949602 L3.65310287,0.0346949602 C3.60285598,0.0216445623 3.54697532,0.0149602122 3.48941976,0.0149602122 L3.48941976,0.0149602122 C3.30183127,0.0149602122 3.09718929,0.0876392573 3.01222633,0.252732095 L3.01222633,0.252732095 Z" id="path-5"></path>
        <path d="M0.089375,0.358877197 C0.089375,0.443979363 0.0903375,0.468114378 0.0903375,0.468114378 L0.0903375,0.468114378 L0.0889625,1.52900574 L0.0889625,1.52932055 C0.0889625,1.55219634 0.0903375,2.53102865 0.0903375,2.62651937 L0.0903375,2.62651937 C0.0903375,2.8431049 0.3276625,2.96703297 0.533775,2.96703297 L0.533775,2.96703297 C0.740025,2.96703297 0.9780375,2.8490862 0.9780375,2.62463055 L0.9780375,2.62463055 C0.9780375,2.52987437 0.9791375,1.53141924 0.9791375,1.53141924 L0.9791375,1.53141924 L0.9801,0.466750227 C0.9801,0.466750227 0.9780375,0.444923777 0.9780375,0.357513043 L0.9780375,0.357513043 C0.9780375,0.183635993 0.8001125,0.0162649022 0.53295,0.0162649022 L0.53295,0.0162649022 C0.3007125,0.0162649022 0.089375,0.163068761 0.089375,0.358877197 L0.089375,0.358877197 Z" id="path-7"></path>
        <path d="M0.089375,1.056825 C0.089375,1.551825 0.288475,1.954425 0.533775,1.954425 L0.533775,1.954425 C0.7805875,1.954425 0.9799625,1.551825 0.9799625,1.056825 L0.9799625,1.056825 C0.9799625,0.56375 0.7805875,0.1617 0.533775,0.1617 L0.533775,0.1617 C0.288475,0.1617 0.089375,0.56375 0.089375,1.056825 L0.089375,1.056825 Z" id="path-9"></path>
        <path d="M0.990666666,0.25464191 C0.893065845,0.298143237 0.841600824,0.35076923 0.818456791,0.40795756 L0.818456791,0.40795756 C0.739736626,0.602122017 0.919864198,0.722546418 1.0537037,0.757771883 L1.0537037,0.757771883 C1.1310535,0.778249337 1.20292181,0.777718833 1.20292181,0.777718833 L1.20292181,0.777718833 C1.5010535,0.761909815 1.73401646,0.590238727 2.06595062,0.586949602 L2.06595062,0.586949602 C2.57740329,0.581962865 2.95410287,0.68933687 2.95410287,0.902493368 L2.95410287,0.902493368 C2.95410287,1.05517241 3.00084774,1.17029178 1.75807407,1.23618037 L1.75807407,1.23618037 C0.506773664,1.30228117 0.0145061728,1.69867373 0.0145061728,2.11172413 L0.0145061728,2.11172413 C0.0145061728,2.11172413 -0.0643662551,2.9991512 1.53272428,2.9991512 L1.53272428,2.9991512 C3.01104939,2.9991512 3.91716873,2.3743236 3.91716873,1.6797878 L3.91716873,1.6797878 L3.91716873,0.79734748 C3.91716873,0.709814323 3.90041976,0.63204244 3.86692181,0.563713528 L3.86692181,0.563713528 C3.68938271,0.226525198 3.07758847,0.0171883003 2.29099588,0.0171883003 L2.29099588,0.0171883003 C2.29099588,0.0171883003 1.52221811,0.0164456233 0.990666666,0.25464191 L0.990666666,0.25464191 Z M1.02583951,2.15448277 C0.968131687,1.7738992 1.6552963,1.73931035 1.6552963,1.73931035 L1.6552963,1.73931035 C2.45087242,1.67692308 2.72448972,1.65718833 2.9145144,1.57761273 L2.9145144,1.57761273 C2.9145144,1.57761273 3.22086831,2.42429708 1.80710288,2.42907162 L1.80710288,2.42907162 C1.80710288,2.42907162 1.77101646,2.43151193 1.71361317,2.43151193 L1.71361317,2.43151193 C1.51506173,2.43151193 1.06466667,2.40371353 1.02583951,2.15448277 L1.02583951,2.15448277 Z" id="path-11"></path>
        <path d="M4.24885713,0.0169994462 C3.69742858,0.0169994462 3.33171429,0.155303582 3.02057142,0.42792433 L3.02057142,0.42792433 L3.00971429,0.42792433 C2.65271429,0.174611595 2.29857142,0.0169994462 1.738,0.0169994462 L1.738,0.0169994462 L1.69242857,0.0169994462 C1.22042857,0.0169994462 0.954285713,0.143970618 0.670428571,0.279021773 L0.670428571,0.279021773 C0.211428571,0.54964876 0.00628571429,0.915346722 0.00628571429,1.2639403 L0.00628571429,1.2639403 L0.00257142858,2.45232752 C0.00257142858,2.4537966 0.00457142858,2.54718862 0.00457142858,2.62463055 L0.00457142858,2.62463055 C0.00457142858,2.84100622 0.249142858,2.96619348 0.465857142,2.96619348 L0.465857142,2.96619348 C0.707428571,2.96619348 0.928714287,2.81666132 0.928714287,2.6242108 L0.928714287,2.6242108 L0.928714287,2.46145685 L0.928714287,1.46205731 C0.928714287,1.46205731 0.926571429,1.48556271 0.926571429,1.31577812 L0.926571429,1.31577812 C0.926571429,0.958160142 1.30242857,0.700859883 1.72528571,0.700859883 L1.72528571,0.700859883 C2.14642857,0.700859883 2.53071429,0.953438073 2.53071429,1.29153817 L2.53071429,1.29153817 C2.53071429,1.32889498 2.53057142,1.31525345 2.53057142,1.30140205 L2.53057142,1.30140205 C2.52942858,1.27842131 2.52871429,1.25502084 2.52871429,1.47632845 L2.52871429,1.47632845 L2.53228571,2.6841286 C2.53228571,2.6841286 2.61614287,2.96703297 2.99142858,2.96703297 L2.99142858,2.96703297 C3.43728571,2.96703297 3.45885713,2.62536508 3.45885713,2.62536508 L3.45885713,2.62536508 L3.45885713,1.24903955 C3.49,0.933080712 3.85914287,0.701279622 4.26085713,0.701279622 L4.26085713,0.701279622 C4.68314287,0.701279622 5.05985713,0.959104557 5.05985713,1.31672253 L5.05985713,1.31672253 C5.05985713,1.48577258 5.05785713,1.46258198 5.05785713,1.46258198 L5.05785713,1.46258198 L5.05785713,2.46219138 L5.05785713,2.62463055 C5.05785713,2.81739587 5.279,2.9665083 5.52,2.9665083 L5.52,2.9665083 C5.73785713,2.9665083 5.982,2.84153088 5.982,2.62536508 L5.982,2.62536508 C5.982,2.54739848 5.98285713,2.45285218 5.98285713,2.45285218 L5.98285713,2.45285218 L5.97985713,1.26467485 C5.97985713,0.915661527 5.77514287,0.550278368 5.31514287,0.279861253 L5.31514287,0.279861253 C5.03242858,0.144600227 4.76614287,0.0169994462 4.29428571,0.0169994462 L4.29428571,0.0169994462 L4.24885713,0.0169994462 Z" id="path-13"></path>
        <path d="M0.0247568524,1.51119363 C0.0247568524,2.48328912 1.09114058,2.9991512 1.99441202,2.9991512 L1.99441202,2.9991512 C3.33580902,2.9991512 3.99009727,2.16732095 3.99009727,1.51511936 L3.99009727,1.51511936 C3.99009727,0.85867374 3.33580902,0.0178249337 2.00657825,0.0178249337 L2.00657825,0.0178249337 C1.04148541,0.0178249337 0.0247568524,0.587267905 0.0247568524,1.51119363 L0.0247568524,1.51119363 Z M0.935667551,1.50801061 C0.935667551,1.00997347 1.48442087,0.703342175 2.00431477,0.703342175 L2.00431477,0.703342175 C2.72141467,0.703342175 3.07381078,1.15618037 3.07381078,1.51023873 L3.07381078,1.51023873 C3.07381078,1.86164457 2.72141467,2.31034483 1.99794872,2.31034483 L1.99794872,2.31034483 C1.51087533,2.31034483 0.935667551,2.03236075 0.935667551,1.50801061 L0.935667551,1.50801061 Z" id="path-15"></path>
        <path d="M0.920127572,0.130503979 C0.654427984,0.208275862 0.454049384,0.312360743 0.316860082,0.443183023 L0.316860082,0.443183023 C0.181193416,0.573474802 0.113283951,0.712679045 0.113283951,0.859098143 L0.113283951,0.859098143 C0.113283951,1.02323607 0.186674897,1.16265252 0.333456791,1.27501326 L0.333456791,1.27501326 C0.481761318,1.38758621 0.679094649,1.47883289 0.924695473,1.54811671 L0.924695473,1.54811671 C1.17090535,1.61612732 1.49004938,1.68222812 1.88258436,1.74503978 L1.88258436,1.74503978 C2.23004938,1.79819628 2.47976132,1.85506632 2.63187242,1.91395225 L2.63187242,1.91395225 C2.78261318,1.9731565 2.85828807,2.0672679 2.85828807,2.19575597 L2.85828807,2.19575597 C2.85828807,2.28 2.78489713,2.35469497 2.64009466,2.42037135 L2.64009466,2.42037135 C2.49346501,2.48530503 2.30572428,2.51809018 2.07885185,2.51809018 L2.07885185,2.51809018 C1.79777366,2.51809018 1.57592593,2.48594165 1.41330864,2.42132627 L1.41330864,2.42132627 C1.24977778,2.35724138 1.11106584,2.25941645 0.993670781,2.12923077 L0.993670781,2.12923077 C0.93489712,2.06100795 0.873382715,2.00795757 0.809584362,1.97039788 L0.809584362,1.97039788 C0.746090534,1.9327321 0.654427984,1.91395225 0.535358024,1.91395225 L0.535358024,1.91395225 C0.39893004,1.91395225 0.28610288,1.94270557 0.197333333,2.0001061 L0.197333333,2.0001061 C0.108106996,2.05718833 0.0627325104,2.12647215 0.0627325104,2.20689655 L0.0627325104,2.20689655 C0.0627325104,2.32870027 0.132621399,2.44976127 0.271637861,2.57050398 L0.271637861,2.57050398 C0.411263374,2.69124668 0.626563786,2.79225465 0.918452675,2.87257295 L0.918452675,2.87257295 C1.21034156,2.95310345 1.56069959,2.99320955 1.96952675,2.99320955 L1.96952675,2.99320955 C2.3983004,2.99320955 2.76175308,2.95554377 3.06079835,2.88222812 L3.06079835,2.88222812 C3.35999588,2.80763925 3.58580247,2.69824933 3.73974073,2.55437665 L3.73974073,2.55437665 C3.89246089,2.40986737 3.96874485,2.23745358 3.96874485,2.03469497 L3.96874485,2.03469497 C3.96874485,1.90079575 3.91027572,1.78111407 3.79486007,1.67649867 L3.79486007,1.67649867 C3.67990122,1.57135278 3.50997532,1.48106101 3.28599588,1.40424403 L3.28599588,1.40424403 C3.06308231,1.32742705 2.77347736,1.26100796 2.42007407,1.20509284 L2.42007407,1.20509284 C2.12255144,1.15904509 1.88852263,1.11936339 1.71920576,1.08753316 L1.71920576,1.08753316 C1.54958436,1.05527851 1.41559259,1.01474801 1.31555556,0.965623342 L1.31555556,0.965623342 C1.2147572,0.915862068 1.16511934,0.852732095 1.16511934,0.77591512 L1.16511934,0.77591512 C1.16511934,0.691777188 1.23272428,0.621750663 1.36869547,0.565092838 L1.36869547,0.565092838 C1.50512346,0.508965517 1.6758107,0.4801061 1.88258436,0.4801061 L1.88258436,0.4801061 C2.0828107,0.4801061 2.2416214,0.501962865 2.35764609,0.544615385 L2.35764609,0.544615385 C2.47458435,0.58801061 2.57614402,0.64530504 2.66308642,0.716604775 L2.66308642,0.716604775 C2.76845268,0.80265252 2.86209466,0.867586207 2.94386007,0.910026525 L2.94386007,0.910026525 C3.02638682,0.953103448 3.12520576,0.974429708 3.24305762,0.974429708 L3.24305762,0.974429708 C3.40415226,0.974429708 3.52839918,0.947586207 3.61595061,0.894005305 L3.61595061,0.894005305 C3.70350205,0.840318302 3.74704939,0.771246685 3.74704939,0.687320955 L3.74704939,0.687320955 C3.74704939,0.610079575 3.705786,0.531458887 3.62402056,0.451246685 L3.62402056,0.451246685 C3.54134155,0.370185677 3.42242386,0.297082228 3.26559259,0.230875332 L3.26559259,0.230875332 C3.10815226,0.164880637 2.91218929,0.111830239 2.67755144,0.0725729443 L2.67755144,0.0725729443 C2.44230452,0.0331034483 2.17660494,0.0136870026 1.88258436,0.0136870026 L1.88258436,0.0136870026 C1.50725514,0.0136870026 1.18613169,0.0523076923 0.920127572,0.130503979 L0.920127572,0.130503979 Z" id="path-17"></path>
        <path d="M2.96251852,0.252732095 C2.94325927,0.2933687 1.99525926,2.12923077 1.99525926,2.12923077 L1.99525926,2.12923077 C1.99525926,2.12923077 1.04933333,0.276710875 1.02740741,0.240954907 L1.02740741,0.240954907 C0.928592593,0.0818037135 0.699111111,-0.0283289125 0.421629631,0.0380901857 L0.421629631,0.0380901857 C0.189925926,0.0941114058 0.0296296296,0.307055703 0.136592593,0.49071618 L0.136592593,0.49071618 C0.192148148,0.595119363 1.34355556,2.6537931 1.34355556,2.6537931 L1.34355556,2.6537931 C1.34355556,2.6537931 1.54014815,2.9991512 1.99733333,2.9991512 L1.99733333,2.9991512 C2.42503704,2.9991512 2.63229631,2.6537931 2.63229631,2.6537931 L2.63229631,2.6537931 C2.63229631,2.6537931 3.61540741,0.961167108 3.87111111,0.463129973 L3.87111111,0.463129973 C3.96192593,0.285092838 3.82133334,0.0989920425 3.58607407,0.0346949602 L3.58607407,0.0346949602 C3.53674073,0.0216445623 3.48266666,0.0149602122 3.42666666,0.0149602122 L3.42666666,0.0149602122 C3.24429631,0.0149602122 3.04533334,0.0876392573 2.96251852,0.252732095 L2.96251852,0.252732095 Z" id="path-19"></path>
        <polygon id="path-21" points="0.0944441898 0.0731644467 1.54689778 0.0731644467 1.54689778 2.07583194 0.0944441898 2.07583194"></polygon>
        <polygon id="path-23" points="0.0172663241 0.0731644467 1.46957531 0.0731644467 1.46957531 2.07583194 0.0172663241 2.07583194"></polygon>
        <polygon id="path-25" points="0 16.46875 43.9705596 16.46875 43.9705596 0.0731644467 0 0.0731644467"></polygon>
        <polygon id="path-27" points="0 16.46875 43.9705596 16.46875 43.9705596 0.0731644467 0 0.0731644467"></polygon>
        <polygon id="path-29" points="0 16.46875 43.9705596 16.46875 43.9705596 0.0731644467 0 0.0731644467"></polygon>
        <polygon id="path-31" points="0 16.46875 43.9705596 16.46875 43.9705596 0.0731644467 0 0.0731644467"></polygon>
        <polygon id="path-33" points="0 16.46875 43.9705596 16.46875 43.9705596 0.0731644467 0 0.0731644467"></polygon>
        <polygon id="path-35" points="0 16.46875 43.9705596 16.46875 43.9705596 0.0731644467 0 0.0731644467"></polygon>
        <polygon id="path-37" points="0 16.46875 43.9705596 16.46875 43.9705596 0.0731644467 0 0.0731644467"></polygon>
    </defs>
    <g id="Symbols" stroke="none" stroke-width="1" fill="none" fill-rule="evenodd">
        <g id="logo-footer" transform="translate(0.000000, -2.000000)">
            <polygon id="Fill-1" fill="#FEFEFE" fill-rule="nonzero" points="21 3 25 3 25 4.05579323 22.5918664 4.05579323 22.5918664 5.44280165 24.3630044 5.44280165 24.3630044 6.35339287 22.5918664 6.35339287 22.5918664 10.043872 25 10.043872 25 11 21 11"></polygon>
            <polygon id="Fill-2" fill="#FEFEFE" fill-rule="nonzero" points="11 3 16 3 16 4.11421769 14.392539 4.10992178 14.392539 11 12.6940767 11 12.6940767 4.0622371 11 4.0622371"></polygon>
            <polygon id="Fill-3" fill="#FEFEFE" fill-rule="nonzero" points="5 3 6.63811931 3 6.63811931 10.043872 9 10.043872 9 11 5 11"></polygon>
            <polygon id="Fill-4" fill="#FEFEFE" fill-rule="nonzero" points="0 3 0 11 4 11 4 10.043746 1.61779196 10.043746 1.61779196 6.35333285 3.37228507 6.35333285 3.37228507 5.39636286 1.61779196 5.39636286 1.61779196 4.05577433 4 4.05577433 4 3"></polygon>
            <g id="Group-14">
                <path d="M43.9209732,6.87220689 C43.9209732,4.77136135 42.4659166,3.06347098 40.6721858,3.06347098 C38.8777317,3.06347098 37.4210845,4.77136135 37.4210845,6.87220689 C37.4210845,8.97399736 38.8777317,10.6767581 40.6721858,10.6767581 C42.4659166,10.6767581 43.9209732,8.97399736 43.9209732,6.87220689 M41.7326041,6.87220689 C41.7326041,8.48803424 41.3343507,9.76814209 40.8189639,10.0000545 C40.7684954,10.0244876 40.7229435,10.0958972 40.6721858,10.0958972 C40.0855068,10.0958972 39.6088752,8.65137186 39.6088752,6.87220689 C39.6088752,5.09196201 40.0855068,3.6494615 40.6721858,3.6494615 C41.2566956,3.6494615 41.7326041,5.09196201 41.7326041,6.87220689" id="Fill-5" fill="#FEFEFE" fill-rule="nonzero"></path>
                <path d="M33.3037891,7.89807502 L33.3037891,10.6356672 L31.4561188,10.6356672 L31.4561188,3.09918926 L34.8686039,3.09918926 C36.0993719,3.09918926 36.9016631,4.26185602 36.9016631,5.61148357 C36.9016631,6.93667799 35.8211441,7.89294541 35.0088748,7.89294541 L33.3037891,7.89807502 Z M33.3037891,6.7996634 L34.4887159,6.7996634 C34.9698303,6.7996634 35.3375713,6.11486037 35.3375713,5.42978736 C35.3375713,4.78993594 34.8849449,4.14967953 34.3461314,4.14967953 L33.3037891,4.14967953 L33.3037891,6.7996634 Z" id="Fill-7" fill="#FEFEFE" fill-rule="nonzero"></path>
                <polygon id="Fill-9" fill="#FEFEFE" fill-rule="nonzero" points="25.7262156 10.6370171 24.5861176 10.6370171 24.5861176 3.09419465 25.7262156 3.09419465 27.6195821 6.7996634 29.0402218 3.09419465 30.7938961 3.09419465 30.7938961 10.6370171 28.9468043 10.6370171 28.9468043 6.66291877 27.477576 10.6370171 27.2414294 10.6370171 25.7262156 6.89253635"></polygon>
                <g id="Fill-11-Clipped">
                    <mask id="mask-2" fill="white">
                        <use xlink:href="#path-1"></use>
                    </mask>
                    <g id="path-1"></g>
                    <polygon id="Fill-11" fill="#FEFEFE" fill-rule="nonzero" mask="url(#mask-2)" points="17.0534595 10.6357077 18.7129933 10.6357077 18.7129933 3.09423514 17.0534595 3.09423514"></polygon>
                </g>
                <g id="Fill-13-Clipped">
                    <mask id="mask-4" fill="white">
                        <use xlink:href="#path-3"></use>
                    </mask>
                    <g id="path-1"></g>
                    <path d="M17.7555655,12.9735008 C17.7353203,13.0252019 16.8108344,15.3609296 16.8108344,15.3609296 C16.8108344,15.3609296 15.8883731,13.0040085 15.8662479,12.9585169 C15.7706613,12.7560323 15.5460834,12.6159129 15.2743629,12.7004165 C15.0483389,12.7716911 14.8920165,13.0426155 14.9974366,13.2761478 C15.0516649,13.4092477 16.1748437,16.0281839 16.1748437,16.0281839 C16.1748437,16.0281839 16.3668845,16.4677106 16.8127143,16.4677106 C17.2299115,16.4677106 17.4329427,16.0281839 17.4329427,16.0281839 C17.4329427,16.0281839 18.39387,13.8748274 18.6418746,13.2410505 C18.7309538,13.0146727 18.5942982,12.7779006 18.3642251,12.6960969 C18.3165041,12.6793581 18.2634326,12.6709887 18.2087704,12.6709887 C18.030612,12.6709887 17.8362574,12.7633217 17.7555655,12.9735008" id="Fill-13" fill="#FEFEFE" fill-rule="nonzero" mask="url(#mask-4)"></path>
                </g>
            </g>
            <g id="Group-17" transform="translate(14.000000, 13.000000)">
                <g id="Fill-15-Clipped">
                    <mask id="mask-6" fill="white">
                        <use xlink:href="#path-5"></use>
                    </mask>
                    <g id="path-3"></g>
                    <polygon id="Fill-15" fill="#FEFEFE" fill-rule="nonzero" mask="url(#mask-6)" points="-0.00289300412 2.9991512 4.0392428 2.9991512 4.0392428 -0.0283289125 -0.00289300412 -0.0283289125"></polygon>
                </g>
            </g>
            <path d="M19.0004629,13.3482343 C19.0004629,13.4348661 19.001543,13.4594047 19.001543,13.4594047 L19,14.5379281 L19,14.5383548 C19,14.5616132 19.001543,15.5567054 19.001543,15.6537928 C19.001543,15.8741065 19.2678599,16 19.4991514,16 C19.7305971,16 19.9976855,15.8800811 19.9976855,15.6518724 C19.9976855,15.5555318 19.9989199,14.5404886 19.9989199,14.5404886 L20,13.4580177 C20,13.4580177 19.9976855,13.4357196 19.9976855,13.3468473 C19.9976855,13.1701696 19.7978707,13 19.4982256,13 C19.2376177,13 19.0004629,13.1492585 19.0004629,13.3482343" id="Fill-18" fill="#FEFEFE" fill-rule="nonzero"></path>
            <g id="Group-22" transform="translate(19.000000, 13.000000)">
                <g id="Fill-20-Clipped">
                    <mask id="mask-8" fill="white">
                        <use xlink:href="#path-7"></use>
                    </mask>
                    <g id="path-5"></g>
                    <polygon id="Fill-20" fill="#FEFEFE" fill-rule="nonzero" mask="url(#mask-8)" points="0.0889625 2.96703297 0.9801 2.96703297 0.9801 0.0163698371 0.0889625 0.0163698371"></polygon>
                </g>
            </g>
            <path d="M19,11.9989262 C19,12.5511582 19.2235603,13 19.4989964,13 C19.7761309,13 20,12.5511582 20,11.9989262 C20,11.448535 19.7761309,11 19.4989964,11 C19.2235603,11 19,11.448535 19,11.9989262" id="Fill-23" fill="#FEFEFE" fill-rule="nonzero"></path>
            <g id="Group-27" transform="translate(19.000000, 11.000000)">
                <g id="Fill-25-Clipped">
                    <mask id="mask-10" fill="white">
                        <use xlink:href="#path-9"></use>
                    </mask>
                    <g id="path-7"></g>
                    <polygon id="Fill-25" fill="#FEFEFE" fill-rule="nonzero" mask="url(#mask-10)" points="0.089375 1.954425 0.9799625 1.954425 0.9799625 0.1617 0.089375 0.1617"></polygon>
                </g>
            </g>
            <path d="M27.0008436,13.2388899 C26.9008248,13.2826544 26.848085,13.3355987 26.8243676,13.3930262 C26.7438533,13.5884718 26.9284432,13.7096246 27.0654422,13.7450632 C27.1448643,13.7656645 27.218513,13.7652375 27.218513,13.7652375 C27.5240302,13.7492261 27.7627646,13.5766234 28.1027655,13.5732076 C28.6268886,13.5681907 29.0130761,13.6762142 29.0130761,13.8905533 C29.0130761,14.0442626 29.0608229,14.1600783 27.787262,14.2263654 C26.5049632,14.292866 26.0006566,14.6916563 26.0006566,15.1072051 C26.0006566,15.1072051 25.9196742,16 27.5564857,16 C29.0714335,16 30,15.3714997 30,14.6727628 L30,13.7848781 C30,13.6968155 29.9825241,13.6185732 29.9485083,13.549831 C29.7665712,13.2106031 29.1394648,13 28.333386,13 C28.333386,13 27.5455632,12.9993596 27.0008436,13.2388899 M27.0368879,15.1502223 C26.9779064,14.7673367 27.6819382,14.7325387 27.6819382,14.7325387 C28.4973792,14.6696673 28.7776187,14.6500267 28.9723509,14.569863 C28.9723509,14.569863 29.2862942,15.4216687 27.8375055,15.4264721 C27.8375055,15.4264721 27.800525,15.4290339 27.7416996,15.4290339 C27.5382295,15.4290339 27.0766768,15.4010674 27.0368879,15.1502223" id="Fill-28" fill="#FEFEFE" fill-rule="nonzero"></path>
            <g id="Group-32" transform="translate(26.000000, 13.000000)">
                <g id="Fill-30-Clipped">
                    <mask id="mask-12" fill="white">
                        <use xlink:href="#path-11"></use>
                    </mask>
                    <g id="path-9"></g>
                    <polygon id="Fill-30" fill="#FEFEFE" fill-rule="nonzero" mask="url(#mask-12)" points="-0.0642139918 2.9991512 3.91732099 2.9991512 3.91732099 0.0165517241 -0.0642139918 0.0165517241"></polygon>
                </g>
            </g>
            <path d="M34.260182,13 C33.7069489,13 33.3400378,13.1406467 33.0278767,13.4179917 L33.0171273,13.4179917 C32.6588156,13.1602817 32.3035138,13 31.741108,13 L31.6953873,13 C31.221986,13 30.9548289,13.1292285 30.6700427,13.2665671 C30.2095407,13.5416711 30.0038698,13.9136698 30.0038698,14.2681677 L30,15.4765767 C30,15.4781774 30.0020064,15.5730445 30.0020064,15.6517981 C30.0020064,15.8719454 30.2473784,15.9991463 30.4649451,15.9991463 C30.7073071,15.9991463 30.9293171,15.8471881 30.9293171,15.651478 L30.9293171,15.4859673 L30.9293171,14.4695337 C30.9293171,14.4695337 30.9270238,14.4934372 30.9270238,14.3208836 C30.9270238,13.9572084 31.3041111,13.6955501 31.7284953,13.6955501 C32.1508731,13.6955501 32.5365598,13.9524064 32.5365598,14.2961264 C32.5365598,14.3341159 32.5364164,14.3202433 32.5364164,14.3061573 C32.5352698,14.2827873 32.5344098,14.2589905 32.5344098,14.4841532 L32.5379929,15.7123039 C32.5379929,15.7123039 32.6221244,16 32.9986384,16 C33.4459547,16 33.46774,15.6525451 33.46774,15.6525451 L33.46774,14.2529079 C33.4988416,13.9315975 33.8691924,13.6958702 34.2723647,13.6958702 C34.6958889,13.6958702 35.0739793,13.9581688 35.0739793,14.3217373 C35.0739793,14.4937573 35.0718296,14.4700672 35.0718296,14.4700672 L35.0718296,15.4867143 L35.0718296,15.6517981 C35.0718296,15.8478284 35.293696,15.9994664 35.5354849,15.9994664 C35.7540549,15.9994664 35.9989967,15.8723722 35.9989967,15.6525451 C35.9989967,15.5732579 36,15.4771102 36,15.4771102 L35.9968469,14.2689147 C35.9968469,13.9138833 35.7914627,13.5423114 35.3301007,13.2674208 C35.0463178,13.129762 34.779304,13 34.3057593,13 L34.260182,13 Z" id="Fill-33" fill="#FEFEFE" fill-rule="nonzero"></path>
            <g id="Group-37" transform="translate(30.000000, 13.000000)">
                <g id="Fill-35-Clipped">
                    <mask id="mask-14" fill="white">
                        <use xlink:href="#path-13"></use>
                    </mask>
                    <g id="path-11"></g>
                    <polygon id="Fill-35" fill="#FEFEFE" fill-rule="nonzero" mask="url(#mask-14)" points="0.00257142858 2.96703297 5.98285713 2.96703297 5.98285713 0.0169994462 0.00257142858 0.0169994462"></polygon>
                </g>
            </g>
            <path d="M36,14.5026692 C36,15.4808883 37.0756002,16 37.9869421,16 C39.3399694,16 40,15.1630365 40,14.5066197 C40,13.8461456 39.3399694,13 37.9990725,13 C37.025652,13 36,13.5729233 36,14.5026692 M36.9187628,14.4995729 C36.9187628,13.9982917 37.4723322,13.6898356 37.9967889,13.6898356 C38.7201826,13.6898356 39.0756715,14.1454196 39.0756715,14.5017083 C39.0756715,14.8554345 38.7201826,15.3068546 37.9903671,15.3068546 C37.4991616,15.3068546 36.9187628,15.0272261 36.9187628,14.4995729" id="Fill-38" fill="#FEFEFE" fill-rule="nonzero"></path>
            <g id="Group-42" transform="translate(36.000000, 13.000000)">
                <g id="Fill-40-Clipped">
                    <mask id="mask-16" fill="white">
                        <use xlink:href="#path-15"></use>
                    </mask>
                    <g id="path-13"></g>
                    <polygon id="Fill-40" fill="#FEFEFE" fill-rule="nonzero" mask="url(#mask-16)" points="0.02489832 2.9991512 3.99009727 2.9991512 3.99009727 0.0179310345 0.02489832 0.0179310345"></polygon>
                </g>
            </g>
            <path d="M40.8779042,13.1176198 C40.6059567,13.1959262 40.4005925,13.3007264 40.2600967,13.432341 C40.1211602,13.5636351 40.0517699,13.703796 40.0517699,13.8512214 C40.0517699,14.0164874 40.1269296,14.1569689 40.2770934,14.2698882 C40.4291282,14.3833416 40.6312179,14.4752154 40.8827381,14.5448686 C41.1347264,14.6134535 41.4615624,14.6800085 41.8637144,14.7432519 C42.2195541,14.7968806 42.4751287,14.8540346 42.6310619,14.9134321 C42.78528,14.9729364 42.8627788,15.0676946 42.8627788,15.1970657 C42.8627788,15.2818887 42.7876188,15.3570971 42.6393264,15.4232248 C42.4893186,15.4886048 42.2970529,15.5216153 42.0645565,15.5216153 C41.7768595,15.5216153 41.5496647,15.4892458 41.382972,15.4241863 C41.2156558,15.359661 41.0736005,15.2610569 40.95322,15.1300833 C40.8931856,15.0613916 40.8300327,15.0079766 40.7646967,14.9701588 C40.6996725,14.9321273 40.6059567,14.9134321 40.4838609,14.9134321 C40.3441447,14.9134321 40.2287541,14.9422762 40.1378449,15.0000712 C40.046468,15.0575458 40,15.1273058 40,15.2082829 C40,15.3309237 40.0715734,15.4528167 40.2137845,15.5743893 C40.3567753,15.6960687 40.5772649,15.797664 40.8761889,15.8786411 C41.1751129,15.9597251 41.5340715,16 41.9527522,16 C42.3918602,16 42.7640729,15.9621822 43.0703259,15.8883627 C43.3765788,15.8131543 43.6079838,15.7030126 43.7656322,15.5581511 C43.9218774,15.4126487 44,15.2389431 44,15.0348978 C44,14.9001852 43.9402776,14.7795741 43.8220802,14.6742397 C43.7041946,14.5683712 43.5303289,14.4774589 43.3009513,14.400114 C43.0725089,14.3226622 42.7760798,14.2558935 42.4141588,14.199594 C42.1093092,14.1532298 41.8696398,14.1131686 41.6962421,14.0812264 C41.5226882,14.0488569 41.3854671,14.007941 41.2830188,13.9584787 C41.1797911,13.9083755 41.1288009,13.8448116 41.1288009,13.7674667 C41.1288009,13.6827505 41.1980353,13.6122427 41.3374395,13.5551955 C41.4771558,13.4985756 41.6519569,13.4696247 41.8637144,13.4696247 C42.0687666,13.4696247 42.2314049,13.4916317 42.3500701,13.5345773 C42.4699828,13.5782708 42.5739904,13.635959 42.6628722,13.7077487 C42.7709341,13.7943879 42.8668329,13.8597678 42.9504132,13.9024998 C43.0349289,13.9459796 43.1362856,13.9673456 43.2568221,13.9673456 C43.4217995,13.9673456 43.5491969,13.9403176 43.6388586,13.8863685 C43.7285202,13.8322057 43.7729612,13.7627662 43.7729612,13.6782637 C43.7729612,13.6004914 43.7308593,13.5213304 43.6469671,13.4405669 C43.5624513,13.3589488 43.4406673,13.2852361 43.2799002,13.218681 C43.1186652,13.1522327 42.9181351,13.0987109 42.6778419,13.0592906 C42.4367692,13.0195499 42.1646654,13 41.8637144,13 C41.4791828,13 41.1503198,13.0388861 40.8779042,13.1176198" id="Fill-43" fill="#FEFEFE" fill-rule="nonzero"></path>
            <g id="Group-47" transform="translate(40.000000, 13.000000)">
                <g id="Fill-45-Clipped">
                    <mask id="mask-18" fill="white">
                        <use xlink:href="#path-17"></use>
                    </mask>
                    <g id="path-15"></g>
                    <polygon id="Fill-45" fill="#FEFEFE" fill-rule="nonzero" mask="url(#mask-18)" points="0.0628847736 2.99320955 3.96874485 2.99320955 3.96874485 0.0136870026 0.0628847736 0.0136870026"></polygon>
                </g>
            </g>
            <path d="M24.0134123,13.2390315 C23.9931193,13.2798834 22.9940748,15.1254711 22.9940748,15.1254711 C22.9940748,15.1254711 21.997372,13.2631373 21.9744252,13.2271919 C21.8701499,13.0671976 21.62835,12.9564815 21.3359734,13.0232525 C21.0918319,13.0795705 20.9230871,13.2936429 21.0356357,13.4781697 C21.0941734,13.5833393 22.307544,15.6527057 22.307544,15.6527057 C22.307544,15.6527057 22.5145335,16 22.9962603,16 C23.4470791,16 23.6654638,15.6527057 23.6654638,15.6527057 C23.6654638,15.6527057 24.701348,13.9512195 24.9706217,13.4504373 C25.0663113,13.2715637 24.918328,13.084477 24.67044,13.0198393 C24.6184586,13.0066131 24.5614817,13 24.5024758,13 C24.3101598,13 24.1006725,13.0729574 24.0134123,13.2390315" id="Fill-48" fill="#FEFEFE" fill-rule="nonzero"></path>
            <g id="Group-52" transform="translate(21.000000, 13.000000)">
                <g id="Fill-50-Clipped">
                    <mask id="mask-20" fill="white">
                        <use xlink:href="#path-19"></use>
                    </mask>
                    <g id="path-17"></g>
                    <polygon id="Fill-50" fill="#FEFEFE" fill-rule="nonzero" mask="url(#mask-20)" points="0.0297777779 2.9991512 3.96192593 2.9991512 3.96192593 -0.0283289125 0.0297777779 -0.0283289125"></polygon>
                </g>
            </g>
            <g id="Group-85">
                <path d="M1.30655749,0.70591542 C1.23352991,0.399488678 1.06650642,0.29446665 0.808379215,0.29446665 C0.486045576,0.29446665 0.310056326,0.48169744 0.310056326,0.966715625 L0.310056326,1.18229426 C0.310056326,1.66717746 0.486045576,1.85454324 0.808379215,1.85454324 C1.08169038,1.85454324 1.23685592,1.72981271 1.30655749,1.44322946 L1.55875573,1.44322946 C1.49194633,1.88302608 1.20648801,2.07579145 0.808379215,2.07579145 C0.343461025,2.07579145 0.0486031116,1.81485625 0.0486031116,1.18229426 L0.0486031116,0.966715625 C0.0486031116,0.334153637 0.343461025,0.0732184426 0.808379215,0.0732184426 C1.22167196,0.0732184426 1.49512773,0.277457941 1.56179252,0.70591542 L1.30655749,0.70591542 Z" id="Fill-53" fill="#FEFEFE" fill-rule="nonzero"></path>
                <polygon id="Fill-55" fill="#FEFEFE" fill-rule="nonzero" points="2.77919851 1.83183796 3.78191788 1.83183796 3.78191788 2.05308617 2.51760069 2.05308617 2.51760069 0.0960047131 2.77919851 0.0960047131"></polygon>
                <path d="M6.16621791,0.0959507172 L6.16621791,1.25605266 C6.16621791,1.83461875 5.8715046,2.07584544 5.40658642,2.07584544 C4.94166823,2.07584544 4.64681032,1.83461875 4.64681032,1.25875246 L4.64681032,0.0959507172 L4.90826353,0.0959507172 L4.90826353,1.25875246 C4.90826353,1.68720994 5.08468661,1.85446224 5.40658642,1.85446224 C5.72877546,1.85446224 5.90476471,1.68720994 5.90476471,1.25875246 L5.90476471,0.0959507172 L6.16621791,0.0959507172 Z" id="Fill-57" fill="#FEFEFE" fill-rule="nonzero"></path>
                <path d="M7.5504594,1.83183796 L7.99715684,1.83183796 C8.31312769,1.83183796 8.45889364,1.70427264 8.45889364,1.49152879 C8.45889364,1.25597167 8.29476235,1.14838484 7.94842359,1.14838484 L7.5504594,1.14838484 L7.5504594,1.83183796 Z M7.5504594,0.927001639 L7.97575471,0.927001639 C8.27046802,0.927001639 8.39208425,0.787962193 8.39208425,0.595196824 C8.39208425,0.422139959 8.29794373,0.314283144 7.93020284,0.314283144 L7.5504594,0.314283144 L7.5504594,0.927001639 Z M7.93020284,0.0960047131 C8.41955998,0.0960047131 8.65339285,0.268926588 8.65339285,0.595196824 C8.65339285,0.79957131 8.5106637,0.986667111 8.30690951,1.03202367 C8.57139951,1.07724524 8.72034685,1.24193274 8.72034685,1.49152879 C8.72034685,1.77514226 8.53510263,2.05308617 7.99715684,2.05308617 L7.2890062,2.05308617 L7.2890062,0.0960047131 L7.93020284,0.0960047131 Z" id="Fill-59" fill="#FEFEFE" fill-rule="nonzero"></path>
                <path d="M12.2400885,1.1765302 L12.2400885,0.972425691 C12.2400885,0.487542494 12.06381,0.317320414 11.7419102,0.317320414 L11.334691,0.317320414 L11.334691,1.83177047 L11.7419102,1.83177047 C12.06381,1.83177047 12.2400885,1.66168338 12.2400885,1.1765302 L12.2400885,1.1765302 Z M11.0733824,2.05301867 L11.0733824,0.0959372182 L11.7419102,0.0959372182 C12.2068284,0.0959372182 12.5015417,0.339863703 12.5015417,0.972425691 L12.5015417,1.1765302 C12.5015417,1.80922718 12.2068284,2.05301867 11.7419102,2.05301867 L11.0733824,2.05301867 Z" id="Fill-61" fill="#FEFEFE" fill-rule="nonzero"></path>
                <polygon id="Fill-63" fill="#FEFEFE" fill-rule="nonzero" points="14.7823161 0.0959507172 14.7823161 0.317333914 13.7795967 0.317333914 13.7795967 0.929917418 14.6912124 0.929917418 14.6912124 1.15089564 13.7795967 1.15089564 13.7795967 1.83178396 14.7823161 1.83178396 14.7823161 2.05303217 13.5181435 2.05303217 13.5181435 0.0959507172"></polygon>
                <g id="Group-67" transform="translate(16.919262, 0.000000)">
                    <g id="Fill-65-Clipped">
                        <mask id="mask-22" fill="white">
                            <use xlink:href="#path-21"></use>
                        </mask>
                        <g id="path-19"></g>
                        <path d="M1.30684671,0.529929277 C1.19463007,0.393724615 1.07315844,0.294507146 0.808668433,0.294507146 C0.56558057,0.294507146 0.401449265,0.3965594 0.401449265,0.600798898 C0.401449265,0.833521234 0.589730286,0.912760221 0.896735363,0.963921338 C1.30091774,1.02912139 1.54689778,1.16519106 1.54689778,1.5283135 C1.54689778,1.78371411 1.36454574,2.07583194 0.841928521,2.07583194 C0.501663358,2.07583194 0.252646522,1.96797513 0.0944441898,1.75523128 L0.310345546,1.61632682 C0.447145735,1.76643543 0.56861736,1.85458373 0.841928521,1.85458373 C1.18537509,1.85458373 1.28573379,1.70703993 1.28573379,1.53951765 C1.28573379,1.35525663 1.18537509,1.23039111 0.790447689,1.1738304 C0.395231075,1.11713471 0.140140659,0.941108068 0.140140659,0.600798898 C0.140140659,0.320020211 0.337532053,0.0731239498 0.817634196,0.0731239498 C1.152115,0.0731239498 1.36165355,0.178280968 1.5106009,0.393724615 L1.30684671,0.529929277 Z" id="Fill-65" fill="#FEFEFE" fill-rule="nonzero" mask="url(#mask-22)"></path>
                    </g>
                </g>
                <path d="M20.9962695,0.0959507172 L20.9962695,1.25605266 C20.9962695,1.83461875 20.7014115,2.07584544 20.2364934,2.07584544 C19.7717198,2.07584544 19.4768618,1.83461875 19.4768618,1.25875246 L19.4768618,0.0959507172 L19.7383151,0.0959507172 L19.7383151,1.25875246 C19.7383151,1.68720994 19.9145935,1.85446224 20.2364934,1.85446224 C20.558827,1.85446224 20.7346716,1.68720994 20.7346716,1.25875246 L20.7346716,0.0959507172 L20.9962695,0.0959507172 Z" id="Fill-68" fill="#FEFEFE" fill-rule="nonzero"></path>
                <g id="Group-72" transform="translate(21.980580, 0.000000)">
                    <g id="Fill-70-Clipped">
                        <mask id="mask-24" fill="white">
                            <use xlink:href="#path-23"></use>
                        </mask>
                        <g id="path-21"></g>
                        <path d="M1.22952424,0.529929277 C1.11730759,0.393724615 0.995835965,0.294507146 0.731345959,0.294507146 C0.488402704,0.294507146 0.324271399,0.3965594 0.324271399,0.600798898 C0.324271399,0.833521234 0.51255242,0.912760221 0.819557498,0.963921338 C1.22359526,1.02912139 1.46957531,1.16519106 1.46957531,1.5283135 C1.46957531,1.78371411 1.28736787,2.07583194 0.764750656,2.07583194 C0.424340884,2.07583194 0.175179439,1.96797513 0.0172663241,1.75523128 L0.23302307,1.61632682 C0.36967865,1.76643543 0.491439495,1.85458373 0.764750656,1.85458373 C1.10805261,1.85458373 1.20841131,1.70703993 1.20841131,1.53951765 C1.20841131,1.35525663 1.10805261,1.23039111 0.713269824,1.1738304 C0.318053209,1.11713471 0.062673575,0.941108068 0.062673575,0.600798898 C0.062673575,0.320020211 0.260209576,0.0731239498 0.740311722,0.0731239498 C1.07479252,0.0731239498 1.28433108,0.178280968 1.43313382,0.393724615 L1.22952424,0.529929277 Z" id="Fill-70" fill="#FEFEFE" fill-rule="nonzero" mask="url(#mask-24)"></path>
                    </g>
                </g>
                <path d="M25.6123938,0.70591542 C25.5395108,0.399488678 25.3724873,0.29446665 25.1142155,0.29446665 C24.792171,0.29446665 24.6160372,0.48169744 24.6160372,0.966715625 L24.6160372,1.18229426 C24.6160372,1.66717746 24.792171,1.85454324 25.1142155,1.85454324 C25.3876711,1.85454324 25.5428367,1.72981271 25.6123938,1.44322946 L25.8647366,1.44322946 C25.7980718,1.88302608 25.5124689,2.07579145 25.1142155,2.07579145 C24.6494419,2.07579145 24.3547285,1.81485625 24.3547285,1.18229426 L24.3547285,0.966715625 C24.3547285,0.334153637 24.6494419,0.0732184426 25.1142155,0.0732184426 C25.5275082,0.0732184426 25.8011087,0.277457941 25.8677733,0.70591542 L25.6123938,0.70591542 Z" id="Fill-73" fill="#FEFEFE" fill-rule="nonzero"></path>
                <path d="M27.4923117,1.00647011 C27.8477609,1.00647011 27.9935269,0.904282863 27.9935269,0.663191162 C27.9935269,0.419264678 27.8477609,0.317347412 27.4923117,0.317347412 L27.0850926,0.317347412 L27.0850926,1.00647011 L27.4923117,1.00647011 Z M28.0178211,2.05304567 L27.580234,1.22771831 L27.0850926,1.22771831 L27.0850926,2.05304567 L26.8237839,2.05304567 L26.8237839,0.0959642162 L27.4923117,0.0959642162 C27.9753061,0.0959642162 28.2548354,0.283195006 28.2548354,0.663191162 C28.2548354,0.938300281 28.1090695,1.11135715 27.8416873,1.18506155 L28.3096422,2.05304567 L28.0178211,2.05304567 Z" id="Fill-75" fill="#FEFEFE" fill-rule="nonzero"></path>
                <g id="Fill-77-Clipped">
                    <mask id="mask-26" fill="white">
                        <use xlink:href="#path-25"></use>
                    </mask>
                    <g id="path-23"></g>
                    <polygon id="Fill-77" fill="#FEFEFE" fill-rule="nonzero" mask="url(#mask-26)" points="29.2956304 2.05305917 29.5572282 2.05305917 29.5572282 0.0959777152 29.2956304 0.0959777152"></polygon>
                </g>
                <g id="Fill-79-Clipped">
                    <mask id="mask-28" fill="white">
                        <use xlink:href="#path-27"></use>
                    </mask>
                    <g id="path-23"></g>
                    <path d="M31.3796785,1.08596557 C31.7351276,1.08596557 31.8808937,0.944091342 31.8808937,0.702864652 C31.8808937,0.458938166 31.7351276,0.317333914 31.3796785,0.317333914 L30.972604,0.317333914 L30.972604,1.08596557 L31.3796785,1.08596557 Z M30.972604,1.30721378 L30.972604,2.05303217 L30.7110061,2.05303217 L30.7110061,0.0959507172 L31.3796785,0.0959507172 C31.8626729,0.0959507172 32.1420577,0.322868494 32.1420577,0.702864652 C32.1420577,1.08016101 31.8655652,1.30721378 31.3796785,1.30721378 L30.972604,1.30721378 Z" id="Fill-79" fill="#FEFEFE" fill-rule="nonzero" mask="url(#mask-28)"></path>
                </g>
                <g id="Fill-80-Clipped">
                    <mask id="mask-30" fill="white">
                        <use xlink:href="#path-29"></use>
                    </mask>
                    <g id="path-23"></g>
                    <polygon id="Fill-80" fill="#FEFEFE" fill-rule="nonzero" mask="url(#mask-30)" points="34.3989571 0.0959507172 34.3989571 0.317333914 33.7607971 0.317333914 33.7607971 2.05303217 33.4994887 2.05303217 33.4994887 0.317333914 32.8613287 0.317333914 32.8613287 0.0959507172"></polygon>
                </g>
                <g id="Fill-81-Clipped">
                    <mask id="mask-32" fill="white">
                        <use xlink:href="#path-31"></use>
                    </mask>
                    <g id="path-23"></g>
                    <path d="M35.4340979,1.18233476 C35.4340979,1.66721795 35.6100871,1.85444874 35.932276,1.85444874 C36.2543204,1.85444874 36.4304543,1.66721795 36.4304543,1.18233476 L36.4304543,0.966621133 C36.4304543,0.481737936 36.2543204,0.294507146 35.932276,0.294507146 C35.6100871,0.294507146 35.4340979,0.481737936 35.4340979,0.966621133 L35.4340979,1.18233476 Z M35.932276,2.07583194 C35.467358,2.07583194 35.1725,1.81489675 35.1725,1.18233476 L35.1725,0.966621133 C35.1725,0.334194135 35.467358,0.0731239498 35.932276,0.0731239498 C36.3971942,0.0731239498 36.6919075,0.334194135 36.6919075,0.966621133 L36.6919075,1.18233476 C36.6919075,1.81489675 36.3971942,2.07583194 35.932276,2.07583194 L35.932276,2.07583194 Z" id="Fill-81" fill="#FEFEFE" fill-rule="nonzero" mask="url(#mask-32)"></path>
                </g>
                <g id="Fill-82-Clipped">
                    <mask id="mask-34" fill="white">
                        <use xlink:href="#path-33"></use>
                    </mask>
                    <g id="path-23"></g>
                    <path d="M38.377254,1.00647011 C38.7327032,1.00647011 38.8784692,0.904282863 38.8784692,0.663191162 C38.8784692,0.419264678 38.7327032,0.317347412 38.377254,0.317347412 L37.9701795,0.317347412 L37.9701795,1.00647011 L38.377254,1.00647011 Z M38.902908,2.05304567 L38.4651763,1.22771831 L37.9701795,1.22771831 L37.9701795,2.05304567 L37.7087262,2.05304567 L37.7087262,0.0959642162 L38.377254,0.0959642162 C38.8602484,0.0959642162 39.1397776,0.283195006 39.1397776,0.663191162 C39.1397776,0.938300281 38.9940118,1.11135715 38.7266296,1.18506155 L39.1945847,2.05304567 L38.902908,2.05304567 Z" id="Fill-82" fill="#FEFEFE" fill-rule="nonzero" mask="url(#mask-34)"></path>
                </g>
                <g id="Fill-83-Clipped">
                    <mask id="mask-36" fill="white">
                        <use xlink:href="#path-35"></use>
                    </mask>
                    <g id="path-23"></g>
                    <polygon id="Fill-83" fill="#FEFEFE" fill-rule="nonzero" mask="url(#mask-36)" points="41.4144642 0.0959507172 41.4144642 0.317333914 40.4117448 0.317333914 40.4117448 0.929917418 41.3233604 0.929917418 41.3233604 1.15089564 40.4117448 1.15089564 40.4117448 1.83178396 41.4144642 1.83178396 41.4144642 2.05303217 40.1504361 2.05303217 40.1504361 0.0959507172"></polygon>
                </g>
                <g id="Fill-84-Clipped">
                    <mask id="mask-38" fill="white">
                        <use xlink:href="#path-37"></use>
                    </mask>
                    <g id="path-23"></g>
                    <path d="M43.4915277,0.529929277 C43.3794556,0.393724615 43.2578394,0.294507146 42.9933494,0.294507146 C42.7504062,0.294507146 42.586275,0.3965594 42.586275,0.600798898 C42.586275,0.833521234 42.774556,0.912760221 43.081561,0.963921338 C43.4857434,1.02912139 43.7317233,1.16519106 43.7317233,1.5283135 C43.7317233,1.78371411 43.5493712,2.07583194 43.0267541,2.07583194 C42.6864889,2.07583194 42.4374722,1.96797513 42.2792698,1.75523128 L42.4951711,1.61632682 C42.6318266,1.76643543 42.7534429,1.85458373 43.0267541,1.85458373 C43.3702007,1.85458373 43.4704149,1.70703993 43.4704149,1.53951765 C43.4704149,1.35525663 43.3702007,1.23039111 42.9752732,1.1738304 C42.5799121,1.11713471 42.3249663,0.941108068 42.3249663,0.600798898 C42.3249663,0.320020211 42.5223576,0.0731239498 43.0023151,0.0731239498 C43.336796,0.0731239498 43.5463346,0.178280968 43.6951373,0.393724615 L43.4915277,0.529929277 Z" id="Fill-84" fill="#FEFEFE" fill-rule="nonzero" mask="url(#mask-38)"></path>
                </g>
            </g>
        </g>
    </g>
</svg>