<?xml version="1.0" encoding="UTF-8"?>
<svg width="70px" height="14px" viewBox="0 0 70 14" version="1.1" xmlns="http://www.w3.org/2000/svg" xmlns:xlink="http://www.w3.org/1999/xlink">
    <!-- Generator: Sketch 51.1 (57501) - http://www.bohemiancoding.com/sketch -->
    <title>vivamosgrispequeño</title>
    <desc>Created with Sketch.</desc>
    <defs>
        <linearGradient x1="3.45678745%" y1="-75.5865029%" x2="94.8494935%" y2="191.61163%" id="linearGradient-1">
            <stop stop-color="#8C8C8C" offset="11%"></stop>
            <stop stop-color="#CCCCCC" offset="53%"></stop>
            <stop stop-color="#8C8C8C" offset="91%"></stop>
        </linearGradient>
    </defs>
    <g id="tarjetasvivamos" stroke="none" stroke-width="1" fill="none" fill-rule="evenodd">
        <g id="detalleresultados-app" transform="translate(-522.000000, -1603.000000)" fill="url(#linearGradient-1)" stroke="#C1C1C1">
            <g id="vivamosgrispequeño" transform="translate(523.000000, 1603.000000)">
                <g id="popcakeAsset-1">
                    <path d="M11.3299656,3.98275862 C10.7244894,3.98805827 10.2364467,4.48146634 10.2364697,5.08827586 L10.2364697,8.89724138 C10.2364697,9.12896552 10.2364697,12.1365517 10.2364697,12.4358621 C10.209347,12.8456174 10.4120913,13.2364299 10.7623519,13.4495595 C11.1126124,13.6626891 11.5521359,13.6626891 11.9023964,13.4495595 C12.252657,13.2364299 12.4554013,12.8456174 12.4282786,12.4358621 L12.4282786,5.44068966 C12.4282786,5.44068966 12.4282786,5.36827586 12.4282786,5.08344828 C12.4295664,4.79113349 12.3142652,4.51041829 12.1080117,4.30371851 C11.9017582,4.09701873 11.6216492,3.98146803 11.3299656,3.98275862 Z M7.95795201,4.04068966 C7.840743,3.99762452 7.71667592,3.9763566 7.59184768,3.97793103 C7.11128618,3.97490906 6.68260236,4.28010816 6.52725483,4.73586207 L4.33544601,10.7510345 C4.33544601,10.7510345 2.167723,4.82758621 2.11955138,4.70206897 C1.90758988,4.14340094 1.29094167,3.85472396 0.727391497,4.05034483 C0.149491013,4.27110036 -0.141324285,4.91875503 0.0770745957,5.49862069 C0.207137976,5.83655172 2.84212572,12.4310345 2.84212572,12.4310345 C2.84212572,12.4310345 3.2901218,13.5172414 4.33544601,13.5172414 C5.38077021,13.5172414 5.78059468,12.4117241 5.78059468,12.4117241 C5.78059468,12.4117241 8.0350266,6.99034483 8.61790323,5.39241379 C8.80282529,4.84242878 8.5194392,4.24453549 7.97722066,4.04068966 L7.95795201,4.04068966 Z M21.9277225,4.04068966 C21.8104044,3.9980362 21.6864127,3.9767812 21.5616182,3.97793103 C21.0810567,3.97490906 20.6523728,4.28010816 20.4970253,4.73586207 C20.4536708,4.8662069 18.2811307,10.7510345 18.2811307,10.7510345 C18.2811307,10.7510345 16.1471278,4.82758621 16.0989562,4.70206897 C15.8890383,4.14405472 15.2738723,3.85507169 14.7116135,4.05034483 C14.1318095,4.26915866 13.838576,4.91739698 14.0564794,5.49862069 C14.1865428,5.83655172 16.8215305,12.4310345 16.8215305,12.4310345 C16.8215305,12.4310345 17.2695266,13.5172414 18.3052165,13.5172414 C19.3409064,13.5172414 19.7503652,12.4117241 19.7503652,12.4117241 C19.7503652,12.4117241 22.0047971,6.99034483 22.5876737,5.39241379 C22.7736313,4.84512082 22.4950311,4.24835078 21.9566255,4.04068966 L21.9277225,4.04068966 Z M11.3299656,2.69862069 C11.7793571,2.7044955 12.187769,2.43772527 12.3638209,2.02331765 C12.5398727,1.60891003 12.4486819,1.1289751 12.13298,0.808408809 C11.8172782,0.487842515 11.339618,0.390161356 10.9238296,0.561138404 C10.5080411,0.732115452 10.236508,1.13787358 10.2364697,1.58827586 C10.2364182,2.19589075 10.7237143,2.69069528 11.3299656,2.69862069 Z M46.3748208,4.82758621 C45.6856936,4.28909485 44.8399984,3.99076599 43.9662397,3.97793103 L43.8361763,3.97793103 C42.7152634,3.93178036 41.6403003,4.4273334 40.945879,5.31034483 C40.1763477,4.45267436 39.0763849,3.96743245 37.9255183,3.97793103 L37.8195407,3.97793103 C36.9457192,3.99041357 36.0999154,4.28878077 35.4109596,4.82758621 C34.4242908,5.59200675 33.8433748,6.76881536 33.8357475,8.01862069 L33.8357475,11.8806897 C33.8357475,11.8806897 33.8357475,12.1896552 33.8357475,12.4406897 C33.8447291,13.0130177 34.2917231,13.48201 34.8618031,13.5172414 C35.466982,13.5093865 35.9549267,13.0182412 35.9601161,12.4117241 L35.9601161,8.68965517 C35.948632,8.52894141 35.948632,8.36761031 35.9601161,8.20689655 C35.8319616,7.45913439 36.152622,6.70545432 36.779751,6.28042696 C37.40688,5.8553996 38.2242525,5.83779479 38.8690237,6.2354276 C39.5137949,6.6330604 39.8664702,7.37223798 39.7704914,8.12482759 L39.7704914,8.15862069 C39.7704914,8.08137931 39.7704914,8.00896552 39.7704914,8.72344828 L39.7704914,12.6386207 C39.8821444,13.1574317 40.3299946,13.5347577 40.8591701,13.5558621 C41.4667548,13.5455395 41.9568171,13.0544168 41.9671174,12.4455172 L41.9671174,7.97517241 C42.1761699,7.05276656 43.0211701,6.41789906 43.9632804,6.47541067 C44.9053907,6.53292228 45.6672515,7.26588145 45.7630412,8.20689655 C45.7752418,8.36758383 45.7752418,8.52896789 45.7630412,8.68965517 L45.7630412,12.4551724 C45.7910425,13.0446752 46.2724996,13.5102444 46.8613542,13.5172414 C47.1534815,13.5172442 47.4335742,13.4006166 47.6396869,13.1931519 C47.8457995,12.9856873 47.9609484,12.7044807 47.9596672,12.4117241 C47.9596672,12.1606897 47.9596672,11.8517241 47.9596672,11.8517241 L47.9596672,7.98965517 C47.9409055,6.74840078 47.357192,5.58378176 46.3748208,4.82758621 Z M67.6522264,9.29310345 C67.3436731,8.92107085 66.954984,8.6239716 66.5153761,8.42413793 C65.8999264,8.1364077 65.253345,7.92095416 64.5885112,7.78206897 C63.9237428,7.63724138 63.4034893,7.50689655 63.0277507,7.40551724 C62.7077374,7.32909569 62.4030914,7.19848382 62.1269413,7.01931034 C61.9176482,6.88815033 61.7902918,6.65841278 61.78974,6.41103448 C61.8023523,6.11710539 61.9794837,5.8555048 62.2473704,5.73517241 C62.5964835,5.54267734 62.9907634,5.44764531 63.3890378,5.46 C63.7536936,5.44440154 64.1168545,5.51553658 64.4488135,5.66758621 C64.7077289,5.8066129 64.9381617,5.99332346 65.1280334,6.21793103 C65.3154217,6.44602722 65.5252206,6.65466281 65.7542645,6.84068966 C65.9478043,6.97923439 66.181292,7.05044965 66.4190329,7.04344828 C66.7188498,7.06449032 67.0157962,6.97332143 67.2524019,6.78758621 C67.4415198,6.62075071 67.5473271,6.37863451 67.5414317,6.1262069 C67.532473,5.85076535 67.4363097,5.58532148 67.2668534,5.36827586 C67.0537645,5.08352154 66.7849442,4.84533075 66.4768388,4.66827586 C66.066821,4.44217585 65.625085,4.27942147 65.1665707,4.18551724 C64.5849777,4.05391134 63.9900542,3.99072595 63.393855,3.99724138 C62.6617609,3.97716978 61.9330179,4.10353976 61.2502178,4.36896552 C60.7191219,4.57438849 60.2543112,4.92166389 59.9062295,5.37310345 C59.615116,5.75628396 59.4561918,6.22392218 59.4534163,6.70551724 C59.4396851,7.19478714 59.6118632,7.67102698 59.9351325,8.03793103 C60.3025421,8.42436724 60.7520032,8.72300638 61.2502178,8.91172414 C61.9455366,9.17342813 62.6587035,9.38477582 63.3842207,9.54413793 C63.9629141,9.6490907 64.5250551,9.83092364 65.055776,10.0848276 C65.3754213,10.2686468 65.5624256,10.6191016 65.5374922,10.9875862 C65.5132933,11.2952133 65.3306818,11.5678932 65.055776,11.7068966 C64.678495,11.9291575 64.2454257,12.038078 63.8081309,12.0206897 C63.2955057,12.04446 62.7851853,11.93819 62.324445,11.7117241 C61.9405146,11.4817053 61.6194377,11.1599336 61.3899155,10.7751724 C61.2835472,10.582445 61.1450635,10.409374 60.9804567,10.2634483 C60.80427,10.1327805 60.5873238,10.069439 60.3686771,10.0848276 C60.0920121,10.0751455 59.8224643,10.1738472 59.6171998,10.36 C59.4266497,10.5266217 59.3176733,10.7679455 59.3185357,11.0213793 C59.3387771,11.4550684 59.5091046,11.8681529 59.800252,12.1896552 C60.190898,12.630919 60.6887112,12.9635127 61.2454006,13.1551724 C61.9965395,13.4206505 62.7904881,13.5434386 63.5865415,13.5172414 C64.4036929,13.5340746 65.2178669,13.4133161 65.9951226,13.16 C66.5923044,12.969834 67.1190775,12.6050025 67.5077115,12.1124138 C67.8553585,11.6282785 68.0347541,11.0431331 68.0183307,10.4468966 C68.0275053,10.0337177 67.898647,9.6293147 67.6522264,9.29793103 L67.6522264,9.29310345 Z M53.7354447,3.98275862 C52.4715559,3.98274233 51.259781,4.48755299 50.3683397,5.38545354 C49.4768984,6.2833541 48.9793136,7.50028903 48.9857227,8.76689655 C48.9857229,11.3984381 51.1144025,13.5317239 53.7402619,13.5317239 C56.3661212,13.5317239 58.4948009,11.3984381 58.494801,8.76689655 C58.5038322,7.49826741 58.0056133,6.27883434 57.1113768,5.38084865 C56.2171402,4.48286295 55.0013502,3.98110091 53.7354447,3.98758621 L53.7354447,3.98275862 Z M53.7354447,11.3255172 C52.3180846,11.3175123 51.1753083,10.1600147 51.1823988,8.73958273 C51.1894892,7.31915076 52.3437639,6.17316914 53.761133,6.17937577 C55.1785021,6.18558239 56.3227397,7.34162914 56.3174437,8.76206897 C56.3255473,9.45242177 56.0528123,10.1163214 55.5620578,10.6008517 C55.0713033,11.0853819 54.4048406,11.3487683 53.7161761,11.3303448 L53.7354447,11.3255172 Z M28.594675,3.98275862 C27.5836693,3.99757353 26.5915415,4.2593992 25.7043777,4.74551724 C25.5201949,4.85128455 25.3838657,5.02422659 25.3238219,5.22827586 C25.1723031,5.68214622 25.4005542,6.17564242 25.8440754,6.35310345 C25.9525643,6.39136065 26.0663155,6.41253159 26.1812767,6.41586207 C26.841228,6.36275862 27.3614815,5.81241379 28.1081416,5.80275862 C29.2449919,5.80275862 30.0831781,6.13103448 30.0831781,6.81655172 C30.0831781,7.29931034 30.1891557,7.67103448 27.4192874,7.88344828 C24.6494191,8.09586207 23.5366547,9.36551724 23.5366547,10.6882759 C23.5366547,10.6882759 23.3584197,13.5317241 26.9086682,13.5317241 C30.2036072,13.5317241 32.2075467,11.5282759 32.2075467,9.30758621 L32.2075467,6.48344828 C32.2117534,6.2292489 32.1726552,5.97619334 32.0919348,5.73517241 C31.7065618,4.6537931 30.3481221,3.98275862 28.594675,3.98275862 Z M27.5156307,11.7068966 L27.3084927,11.7068966 C26.8653138,11.7068966 25.863344,11.62 25.7766351,10.8234483 C25.6465717,9.60206897 27.1784293,9.49103448 27.1784293,9.49103448 C28.951145,9.28827586 29.5581075,9.23034483 29.9820177,8.97448276 C29.9820177,8.98413793 30.6660548,11.6924138 27.5156307,11.7117241 L27.5156307,11.7068966 Z" id="Shape" stroke-width="0.5" fill-rule="nonzero"></path>
                </g>
            </g>
        </g>
    </g>
</svg>