<?xml version="1.0" encoding="UTF-8" standalone="no"?>
<svg
   xmlns:dc="http://purl.org/dc/elements/1.1/"
   xmlns:cc="http://creativecommons.org/ns#"
   xmlns:rdf="http://www.w3.org/1999/02/22-rdf-syntax-ns#"
   xmlns:svg="http://www.w3.org/2000/svg"
   xmlns="http://www.w3.org/2000/svg"
   xmlns:sodipodi="http://sodipodi.sourceforge.net/DTD/sodipodi-0.dtd"
   xmlns:inkscape="http://www.inkscape.org/namespaces/inkscape"
   inkscape:version="1.0 (4035a4fb49, 2020-05-01)"
   sodipodi:docname="homeyfotosvivamoscolormedianosombra.svg"
   id="svg129"
   version="1.1"
   viewBox="0 0 95 24"
   height="24"
   width="95">
  <metadata
     id="metadata133">
    <rdf:RDF>
      <cc:Work
         rdf:about="">
        <dc:format>image/svg+xml</dc:format>
        <dc:type
           rdf:resource="http://purl.org/dc/dcmitype/StillImage" />
        <dc:title>vivamoscolormedianosombra</dc:title>
      </cc:Work>
    </rdf:RDF>
  </metadata>
  <sodipodi:namedview
     inkscape:current-layer="tarjetasvivamos"
     inkscape:window-maximized="0"
     inkscape:window-y="0"
     inkscape:window-x="0"
     inkscape:cy="14"
     inkscape:cx="57.602583"
     inkscape:zoom="9.3486239"
     lock-margins="true"
     showgrid="false"
     id="namedview131"
     inkscape:window-height="824"
     inkscape:window-width="1640"
     inkscape:pageshadow="2"
     inkscape:pageopacity="0"
     guidetolerance="10"
     gridtolerance="10"
     objecttolerance="10"
     borderopacity="1"
     bordercolor="#666666"
     pagecolor="#ffffff" />
  <!-- Generator: Sketch 51.1 (57501) - http://www.bohemiancoding.com/sketch -->
  <title
     id="title2">vivamoscolormedianosombra</title>
  <desc
     id="desc4">Created with Sketch.</desc>
  <defs
     id="defs107">
    <filter
       id="filter-1"
       filterUnits="objectBoundingBox"
       height="1.75"
       width="1.152"
       y="-0.22499999"
       x="-0.074000001">
      <feOffset
         id="feOffset6"
         result="shadowOffsetOuter1"
         in="SourceAlpha"
         dy="3"
         dx="0" />
      <feGaussianBlur
         id="feGaussianBlur8"
         result="shadowBlurOuter1"
         in="shadowOffsetOuter1"
         stdDeviation="2" />
      <feColorMatrix
         id="feColorMatrix10"
         result="shadowMatrixOuter1"
         in="shadowBlurOuter1"
         type="matrix"
         values="0 0 0 0 0   0 0 0 0 0   0 0 0 0 0  0 0 0 0.5 0" />
      <feMerge
         id="feMerge16">
        <feMergeNode
           id="feMergeNode12"
           in="shadowMatrixOuter1" />
        <feMergeNode
           id="feMergeNode14"
           in="SourceGraphic" />
      </feMerge>
    </filter>
    <linearGradient
       gradientUnits="userSpaceOnUse"
       gradientTransform="scale(0.95365501,1.0485972)"
       id="linearGradient-2"
       y2="11.402989"
       x2="24.020367"
       y1="10.401651"
       x1="105.38402">
      <stop
         id="stop19"
         offset="0%"
         stop-color="#4167A2" />
      <stop
         id="stop21"
         offset="34%"
         stop-color="#4167A2" />
      <stop
         id="stop23"
         offset="59%"
         stop-color="#50A04C" />
      <stop
         id="stop25"
         offset="76%"
         stop-color="#E39335" />
      <stop
         id="stop27"
         offset="100%"
         stop-color="#D95330" />
    </linearGradient>
    <linearGradient
       gradientUnits="userSpaceOnUse"
       gradientTransform="scale(0.47787591,2.0925935)"
       id="linearGradient-3"
       y2="5.7959519"
       x2="47.935337"
       y1="5.2941822"
       x1="210.32059">
      <stop
         id="stop30"
         offset="0%"
         stop-color="#4167A2" />
      <stop
         id="stop32"
         offset="34%"
         stop-color="#4167A2" />
      <stop
         id="stop34"
         offset="59%"
         stop-color="#50A04C" />
      <stop
         id="stop36"
         offset="76%"
         stop-color="#E39335" />
      <stop
         id="stop38"
         offset="100%"
         stop-color="#D95330" />
    </linearGradient>
    <linearGradient
       gradientUnits="userSpaceOnUse"
       id="linearGradient-4"
       y2="1.549999"
       x2="22.764302"
       y1="0.49999968"
       x1="100.35722">
      <stop
         id="stop41"
         offset="0%"
         stop-color="#4167A2" />
      <stop
         id="stop43"
         offset="34%"
         stop-color="#4167A2" />
      <stop
         id="stop45"
         offset="59%"
         stop-color="#50A04C" />
      <stop
         id="stop47"
         offset="76%"
         stop-color="#E39335" />
      <stop
         id="stop49"
         offset="100%"
         stop-color="#D95330" />
    </linearGradient>
    <linearGradient
       gradientUnits="userSpaceOnUse"
       gradientTransform="scale(0.95548201,1.0465922)"
       id="linearGradient-5"
       y2="11.902576"
       x2="23.981908"
       y1="10.89932"
       x1="105.19001">
      <stop
         id="stop52"
         offset="0%"
         stop-color="#4167A2" />
      <stop
         id="stop54"
         offset="34%"
         stop-color="#4167A2" />
      <stop
         id="stop56"
         offset="59%"
         stop-color="#50A04C" />
      <stop
         id="stop58"
         offset="76%"
         stop-color="#E39335" />
      <stop
         id="stop60"
         offset="100%"
         stop-color="#D95330" />
    </linearGradient>
    <linearGradient
       gradientUnits="userSpaceOnUse"
       gradientTransform="scale(1.2164301,0.82207767)"
       id="linearGradient-6"
       y2="15.509482"
       x2="18.843196"
       y1="14.223543"
       x1="82.630549">
      <stop
         id="stop63"
         offset="0%"
         stop-color="#4167A2" />
      <stop
         id="stop65"
         offset="34%"
         stop-color="#4167A2" />
      <stop
         id="stop67"
         offset="59%"
         stop-color="#50A04C" />
      <stop
         id="stop69"
         offset="76%"
         stop-color="#E39335" />
      <stop
         id="stop71"
         offset="100%"
         stop-color="#D95330" />
    </linearGradient>
    <linearGradient
       gradientUnits="userSpaceOnUse"
       gradientTransform="scale(0.99874188,1.0012597)"
       id="linearGradient-7"
       y2="12.962243"
       x2="22.964609"
       y1="11.913564"
       x1="100.65521">
      <stop
         id="stop74"
         offset="0%"
         stop-color="#4167A2" />
      <stop
         id="stop76"
         offset="34%"
         stop-color="#4167A2" />
      <stop
         id="stop78"
         offset="59%"
         stop-color="#50A04C" />
      <stop
         id="stop80"
         offset="76%"
         stop-color="#E39335" />
      <stop
         id="stop82"
         offset="100%"
         stop-color="#D95330" />
    </linearGradient>
    <linearGradient
       gradientUnits="userSpaceOnUse"
       gradientTransform="scale(0.95913135,1.0426101)"
       id="linearGradient-8"
       y2="12.612577"
       x2="23.898131"
       y1="11.605489"
       x1="104.80465">
      <stop
         id="stop85"
         offset="0%"
         stop-color="#4167A2" />
      <stop
         id="stop87"
         offset="34%"
         stop-color="#4167A2" />
      <stop
         id="stop89"
         offset="59%"
         stop-color="#50A04C" />
      <stop
         id="stop91"
         offset="76%"
         stop-color="#E39335" />
      <stop
         id="stop93"
         offset="100%"
         stop-color="#D95330" />
    </linearGradient>
    <linearGradient
       gradientUnits="userSpaceOnUse"
       gradientTransform="scale(0.95350987,1.0487568)"
       id="linearGradient-9"
       y2="11.653253"
       x2="24.031514"
       y1="10.645256"
       x1="105.40756">
      <stop
         id="stop96"
         offset="0%"
         stop-color="#4167A2" />
      <stop
         id="stop98"
         offset="34%"
         stop-color="#4167A2" />
      <stop
         id="stop100"
         offset="59%"
         stop-color="#50A04C" />
      <stop
         id="stop102"
         offset="76%"
         stop-color="#E39335" />
      <stop
         id="stop104"
         offset="100%"
         stop-color="#D95330" />
    </linearGradient>
  </defs>
  <g
     fill-rule="evenodd"
     fill="none"
     stroke-width="1"
     stroke="none"
     id="tarjetasvivamos">
    <g
       transform="matrix(0.89113153,0,0,0.89113153,-919.98665,-304.14968)"
       id="tarjetavivamosresultados">
      <g
         transform="translate(-271,5)"
         id="Group">
        <g
           transform="translate(1306,338)"
           id="vivamoscolormedianosombra">
          <g
             filter="url(#filter-1)"
             id="popcakeAsset-3">
            <path
               style="fill:url(#linearGradient-2)"
               fill-rule="nonzero"
               fill="url(#linearGradient-2)"
               id="Shape"
               d="M 11.792857,5.25 C 11.619649,5.1833723 11.43558,5.149465 11.25,5.15 10.538165,5.1496373 9.9056221,5.6039184 9.6785714,6.2785714 l -3.25,8.8642856 c 0,0 -3.2214285,-8.7142856 -3.3,-8.9214284 C 2.8174994,5.3995881 1.9083722,4.9751175 1.0785714,5.2642857 0.66578165,5.419597 0.33193288,5.7330522 0.15094532,6.1352468 -0.03004224,6.5374414 -0.04323588,6.9951915 0.11428571,7.4071429 0.30714286,7.9 4.2,17.635714 4.2,17.635714 c 0,0 0.6642857,1.65 2.2285714,1.65 1.4285715,0 2.1428572,-1.628571 2.1428572,-1.628571 0,0 3.3285714,-8.0000001 4.1928574,-10.357143 C 12.910462,6.8994836 12.889969,6.4570832 12.707394,6.071795 12.524818,5.6865068 12.195401,5.3904956 11.792857,5.25 Z" />
            <path
               style="fill:url(#linearGradient-3)"
               fill-rule="nonzero"
               fill="url(#linearGradient-3)"
               id="path110"
               d="M 16.75,5.1642857 C 15.852204,5.172127 15.128537,5.9021696 15.128571,6.8 c 0,0.4071429 0,0.5214286 0,0.5214286 v 5.0857144 c 0,0.342857 0,4.785714 0,5.228571 -0.04013,0.603662 0.259153,1.179459 0.776272,1.493475 0.517119,0.314017 1.166052,0.314017 1.683171,0 0.51712,-0.314016 0.816404,-0.889813 0.776272,-1.493475 0,-0.457143 0,-5.228571 0,-5.228571 V 7.3142857 c 0,0 0,-0.1071428 0,-0.5214286 0.0038,-0.430605 -0.164582,-0.8448844 -0.467733,-1.1507185 C 17.593402,5.3363045 17.180622,5.1642688 16.75,5.1642857 Z" />
            <path
               style="fill:url(#linearGradient-4)"
               fill-rule="nonzero"
               fill="url(#linearGradient-4)"
               id="path112"
               d="m 16.75,3.2714286 c 0.662202,0.00578 1.262551,-0.3882942 1.520644,-0.9981577 0.258093,-0.6098635 0.123,-1.3151721 -0.342182,-1.78650155 C 17.46328,0.01543989 16.759806,-0.12890099 16.146607,0.12116314 15.533408,0.37122727 15.131489,0.96635021 15.128571,1.6285714 15.124604,2.529185 15.849412,3.2635716 16.75,3.2714286 Z" />
            <path
               style="fill:url(#linearGradient-5)"
               fill-rule="nonzero"
               fill="url(#linearGradient-5)"
               id="path114"
               d="M 42.271429,5.1642857 C 40.772917,5.1840119 39.301833,5.5689458 37.985714,6.2857143 37.715911,6.4460083 37.514924,6.7004229 37.421429,7 37.19815,7.6715821 37.540524,8.4003033 38.2,8.6571429 c 0.155925,0.056627 0.319897,0.087975 0.485714,0.092857 0.985715,-0.071429 1.75,-0.8857143 2.857143,-0.9 1.685714,0 2.928572,0.4857143 2.928572,1.4928571 0,0.714286 0.15,1.264286 -3.942858,1.578572 -4.092857,0.314285 -5.714285,2.178571 -5.714285,4.135714 0,0 -0.257143,4.192857 5,4.192857 4.871428,0 7.857143,-2.95 7.857143,-6.235714 V 8.85 c 0.005,-0.3731301 -0.05052,-0.7446028 -0.164286,-1.1 C 46.878571,6.15 44.864286,5.1642857 42.271429,5.1642857 Z M 40.714286,16.564286 h -0.307143 c -0.657143,0 -2.142857,-0.128572 -2.264286,-1.307143 -0.192857,-1.8 2.071429,-1.964286 2.071429,-1.964286 2.621428,-0.292857 3.521428,-0.385714 4.142857,-0.764286 -0.03571,0.0071 0.978571,4.014286 -3.642857,4.035715 z" />
            <path
               style="fill:url(#linearGradient-6)"
               fill-rule="nonzero"
               fill="url(#linearGradient-6)"
               id="path116"
               d="M 68.571429,6.4285714 C 67.55165,5.6280732 66.296352,5.1862081 65,5.1714286 H 64.842857 C 63.180864,5.0954951 61.584566,5.8271321 60.557143,7.1357143 59.419208,5.8715791 57.793653,5.1563349 56.092857,5.1714286 h -0.164286 c -3.265179,0.042757 -5.895105,2.6917402 -5.914285,5.9571424 v 5.714286 c 0,0 0,0.457143 0,0.828572 0.0024,0.857688 0.672287,1.56517 1.528571,1.614285 0.896171,-0.01168 1.617608,-0.739475 1.621429,-1.635714 v -5.578571 c -0.01703,-0.237791 -0.01703,-0.476495 0,-0.714286 -0.06887,-1.03673 0.437629,-2.0274167 1.318366,-2.5786469 0.880737,-0.5512301 1.993164,-0.5737888 2.895525,-0.058718 0.902359,0.515071 1.448608,1.4844099 1.421823,2.5230789 0,0.178572 0,0.107143 0,0.04286 v 6.607143 c 0.150566,0.779261 0.814393,1.354578 1.607143,1.392857 C 61.30535,19.27056 62.030933,18.548132 62.05,17.65 v -6.6 c 0.150116,-1.5002455 1.45589,-2.615663 2.961162,-2.5294833 1.505272,0.08618 2.675211,1.3433364 2.653124,2.8509123 0.01809,0.237751 0.01809,0.476534 0,0.714285 v 5.557143 c 0.0037,0.897447 0.724108,1.627325 1.621428,1.642857 0.431859,0.0019 0.846484,-0.169265 1.151185,-0.475308 0.304701,-0.306044 0.47407,-0.721417 0.470244,-1.153263 0,-0.371429 0,-0.828572 0,-0.828572 v -5.671428 c -0.0037,-1.8529853 -0.86643,-3.599514 -2.335714,-4.7285716 z" />
            <path
               style="fill:url(#linearGradient-7)"
               fill-rule="nonzero"
               fill="url(#linearGradient-7)"
               id="path118"
               d="m 79.442857,5.1642857 c -1.869648,-3.48e-5 -3.662101,0.7456009 -4.980113,2.0716579 -1.318013,1.3260571 -2.052727,3.1230144 -2.041315,4.9926274 0,3.881773 3.146798,7.028572 7.028571,7.028572 3.881773,0 7.028571,-3.146799 7.028571,-7.028572 C 86.49193,10.355899 85.75588,8.5556432 84.434353,7.2287497 83.112826,5.9018561 81.315568,5.1585169 79.442857,5.1642857 Z m 0,10.8357143 c -1.005101,0.0058 -1.970316,-0.392811 -2.67835,-1.106219 -0.708034,-0.713408 -1.09938,-1.68161 -1.085936,-2.686638 4.4e-5,-1.536658 0.927266,-2.9214449 2.34807,-3.5067936 1.420805,-0.5853487 3.054397,-0.2555768 4.136863,0.8351049 1.082466,1.0906817 1.399876,2.7267207 0.803801,4.1430587 C 82.37123,15.094851 80.979472,16.011576 79.442857,16 Z" />
            <path
               style="fill:url(#linearGradient-8)"
               fill-rule="nonzero"
               fill="url(#linearGradient-8)"
               id="path120"
               d="m 100,13.007143 c -0.450801,-0.554435 -1.02585,-0.994898 -1.678571,-1.285714 -0.912727,-0.423687 -1.871514,-0.740087 -2.857143,-0.942858 -0.978572,-0.221428 -1.75,-0.407142 -2.307143,-0.557142 C 92.685113,10.10759 92.23586,9.9143632 91.828571,9.65 c -0.311362,-0.1930887 -0.50055,-0.5336262 -0.5,-0.9 0.0206,-0.4322008 0.279189,-0.8173269 0.671429,-1 0.518357,-0.2823314 1.102953,-0.4204637 1.692857,-0.4 0.538422,-0.023309 1.074651,0.081978 1.564286,0.3071429 0.385486,0.2033313 0.727593,0.4799281 1.007143,0.8142857 0.275508,0.3350698 0.584225,0.6413929 0.921428,0.9142857 0.28698,0.2049896 0.633194,0.3103592 0.985715,0.3 C 98.613909,9.7178203 99.05233,9.5827255 99.4,9.3071429 99.687281,9.0647755 99.847812,8.7042387 99.835714,8.3285714 99.821421,7.9234001 99.678858,7.5332289 99.428571,7.2142857 99.111255,6.7896435 98.710112,6.4346922 98.25,6.1714286 97.641183,5.8387498 96.986466,5.5980447 96.307143,5.4571429 95.450263,5.25845 94.572366,5.1649035 93.692857,5.1785714 c -1.083222,-0.029704 -2.161463,0.1572884 -3.171428,0.55 -0.769785,0.2969763 -1.443983,0.7983026 -1.95,1.45 -0.443728,0.560582 -0.694287,1.2496208 -0.714286,1.9642857 -0.02363,0.722296 0.23222,1.4258789 0.714286,1.9642859 0.543514,0.573291 1.210344,1.015402 1.95,1.292857 1.024932,0.388958 2.077971,0.699378 3.15,0.928571 0.855555,0.156229 1.686611,0.425241 2.471428,0.8 0.471549,0.270818 0.748455,0.785863 0.714286,1.328572 -0.0345,0.455642 -0.305691,0.859713 -0.714286,1.064286 -0.557055,0.328275 -1.196759,0.489441 -1.842857,0.464285 -0.757825,0.0352 -1.512223,-0.122068 -2.192857,-0.457143 -0.570783,-0.338415 -1.047299,-0.814931 -1.385714,-1.385714 -0.159299,-0.282001 -0.364492,-0.535475 -0.607143,-0.75 -0.258479,-0.193414 -0.577985,-0.287237 -0.9,-0.264286 -0.410237,-0.01433 -0.809921,0.131713 -1.114286,0.407143 -0.282546,0.246532 -0.444136,0.603593 -0.442857,0.978572 0.03032,0.63737 0.283067,1.243955 0.714286,1.714285 0.579674,0.6524 1.31769,1.14441 2.142857,1.428572 1.109141,0.404394 2.284026,0.598189 3.464285,0.571428 1.211132,0.02507 2.418021,-0.151136 3.571429,-0.521428 0.899723,-0.280068 1.693909,-0.825293 2.278571,-1.564286 0.515429,-0.713645 0.781519,-1.577163 0.757139,-2.457143 -7e-4,-0.609505 -0.20708,-1.200937 -0.58571,-1.678571 z" />
            <path
               style="fill:url(#linearGradient-9)"
               fill-rule="nonzero"
               fill="url(#linearGradient-9)"
               id="path122"
               d="M 32.457143,5.2285714 C 32.285803,5.16493 32.104192,5.1334506 31.921429,5.1357143 31.210067,5.1298697 30.575764,5.5825314 30.35,6.2571429 l -3.278571,8.8714281 c 0,0 -3.2,-8.7571424 -3.271429,-8.9214281 -0.311205,-0.8219169 -1.218417,-1.248654 -2.05,-0.9642858 -0.856907,0.3266281 -1.288126,1.2848927 -0.964286,2.1428572 0.185715,0.4928571 4.085715,10.2214287 4.085715,10.2214287 0,0 0.664285,1.635714 2.207142,1.635714 1.542858,0 2.142858,-1.635714 2.142858,-1.635714 0,0 3.328571,-8.0000001 4.192857,-10.3500001 C 33.701965,6.433073 33.276101,5.5304957 32.457143,5.2285714 Z" />
          </g>
        </g>
      </g>
    </g>
  </g>
</svg>
