<?xml version="1.0" encoding="UTF-8"?>
<svg width="71px" height="14px" viewBox="0 0 71 14" version="1.1" xmlns="http://www.w3.org/2000/svg" xmlns:xlink="http://www.w3.org/1999/xlink">
    <!-- Generator: Sketch 51.1 (57501) - http://www.bohemiancoding.com/sketch -->
    <title>vivamoscolorpequeño</title>
    <desc>Created with Sketch.</desc>
    <defs>
        <linearGradient x1="781.706974%" y1="40.7276664%" x2="178.145908%" y2="48.155657%" id="linearGradient-1">
            <stop stop-color="#4167A2" offset="0%"></stop>
            <stop stop-color="#4167A2" offset="34%"></stop>
            <stop stop-color="#50A04C" offset="59%"></stop>
            <stop stop-color="#E39335" offset="76%"></stop>
            <stop stop-color="#D95330" offset="100%"></stop>
        </linearGradient>
        <linearGradient x1="2632.90868%" y1="41.6486797%" x2="239.976441%" y2="49.0428293%" id="linearGradient-2">
            <stop stop-color="#4167A2" offset="0%"></stop>
            <stop stop-color="#4167A2" offset="34%"></stop>
            <stop stop-color="#50A04C" offset="59%"></stop>
            <stop stop-color="#E39335" offset="76%"></stop>
            <stop stop-color="#D95330" offset="100%"></stop>
        </linearGradient>
        <linearGradient x1="2605.20422%" y1="15.2832376%" x2="233.403344%" y2="47.378811%" id="linearGradient-3">
            <stop stop-color="#4167A2" offset="0%"></stop>
            <stop stop-color="#4167A2" offset="34%"></stop>
            <stop stop-color="#50A04C" offset="59%"></stop>
            <stop stop-color="#E39335" offset="76%"></stop>
            <stop stop-color="#D95330" offset="100%"></stop>
        </linearGradient>
        <linearGradient x1="510.867041%" y1="44.3204868%" x2="-92.5227802%" y2="51.7748479%" id="linearGradient-4">
            <stop stop-color="#4167A2" offset="0%"></stop>
            <stop stop-color="#4167A2" offset="34%"></stop>
            <stop stop-color="#50A04C" offset="59%"></stop>
            <stop stop-color="#E39335" offset="76%"></stop>
            <stop stop-color="#D95330" offset="100%"></stop>
        </linearGradient>
        <linearGradient x1="241.708668%" y1="46.2248948%" x2="-129.67482%" y2="53.7119114%" id="linearGradient-5">
            <stop stop-color="#4167A2" offset="0%"></stop>
            <stop stop-color="#4167A2" offset="34%"></stop>
            <stop stop-color="#50A04C" offset="59%"></stop>
            <stop stop-color="#E39335" offset="76%"></stop>
            <stop stop-color="#D95330" offset="100%"></stop>
        </linearGradient>
        <linearGradient x1="199.945714%" y1="47.9980956%" x2="-352.023833%" y2="55.4486609%" id="linearGradient-6">
            <stop stop-color="#4167A2" offset="0%"></stop>
            <stop stop-color="#4167A2" offset="34%"></stop>
            <stop stop-color="#50A04C" offset="59%"></stop>
            <stop stop-color="#E39335" offset="76%"></stop>
            <stop stop-color="#D95330" offset="100%"></stop>
        </linearGradient>
        <linearGradient x1="99.4909364%" y1="49.2653302%" x2="-500.65837%" y2="56.7357182%" id="linearGradient-7">
            <stop stop-color="#4167A2" offset="0%"></stop>
            <stop stop-color="#4167A2" offset="34%"></stop>
            <stop stop-color="#50A04C" offset="59%"></stop>
            <stop stop-color="#E39335" offset="76%"></stop>
            <stop stop-color="#D95330" offset="100%"></stop>
        </linearGradient>
        <linearGradient x1="622.398138%" y1="42.7346398%" x2="17.4351523%" y2="50.2282502%" id="linearGradient-8">
            <stop stop-color="#4167A2" offset="0%"></stop>
            <stop stop-color="#4167A2" offset="34%"></stop>
            <stop stop-color="#50A04C" offset="59%"></stop>
            <stop stop-color="#E39335" offset="76%"></stop>
            <stop stop-color="#D95330" offset="100%"></stop>
        </linearGradient>
    </defs>
    <g id="tarjetasvivamos" stroke="none" stroke-width="1" fill="none" fill-rule="evenodd">
        <g id="detalleresultados-app" transform="translate(-211.000000, -1603.000000)">
            <g id="vivamoscolorpequeño" transform="translate(211.000000, 1603.000000)">
                <g id="popcakeAsset-3-Copy-14">
                    <path d="M8.23566745,3.675 C8.11470557,3.62836062 7.98615943,3.60462548 7.85655738,3.605 C7.35944006,3.60474613 6.91769673,3.92274288 6.75913349,4.395 L4.48946136,10.6 C4.48946136,10.6 2.23974239,4.5 2.18487119,4.355 C1.96763076,3.77971168 1.33273205,3.48258229 0.75323185,3.685 C0.464955711,3.79371788 0.231808866,4.01313656 0.105414272,4.29467278 C-0.0209803217,4.57620899 -0.0301942401,4.89663404 0.0798126464,5.185 C0.214496487,5.53 2.93311475,12.345 2.93311475,12.345 C2.93311475,12.345 3.39702576,13.5 4.48946136,13.5 C5.48711944,13.5 5.98594848,12.36 5.98594848,12.36 C5.98594848,12.36 8.3104918,6.76 8.91407494,5.11 C9.01615864,4.82963851 9.00184747,4.51995826 8.87434385,4.25025649 C8.74684022,3.98055473 8.51678851,3.77334691 8.23566745,3.675 Z" id="Shape" fill="url(#linearGradient-1)" fill-rule="nonzero"></path>
                    <path d="M11.697541,3.615 C11.0705555,3.62048892 10.5651751,4.13151871 10.5651991,4.76 C10.5651991,5.045 10.5651991,5.125 10.5651991,5.125 L10.5651991,8.685 C10.5651991,8.925 10.5651991,12.035 10.5651991,12.345 C10.5371719,12.7675635 10.7461807,13.1706212 11.1073166,13.3904326 C11.4684524,13.6102439 11.9216413,13.6102439 12.2827771,13.3904326 C12.643913,13.1706212 12.8529218,12.7675635 12.8248946,12.345 C12.8248946,12.025 12.8248946,8.685 12.8248946,8.685 L12.8248946,5.12 C12.8248946,5.12 12.8248946,5.045 12.8248946,4.755 C12.8275559,4.45357649 12.7099574,4.16358087 12.4982485,3.94949701 C12.2865395,3.73541316 11.9982704,3.6149882 11.697541,3.615 Z" id="Shape" fill="url(#linearGradient-2)" fill-rule="nonzero"></path>
                    <path d="M11.697541,2.29 C12.1599971,2.29404406 12.5792567,2.01819406 12.7594987,1.59128963 C12.9397407,1.16438519 12.8453972,0.670669161 12.5205326,0.340738543 C12.195668,0.0108079246 11.7043893,-0.0902306921 11.276155,0.0848141988 C10.8479207,0.25985909 10.5672362,0.676445148 10.5651991,1.14 C10.5624286,1.77042947 11.0686058,2.28450013 11.697541,2.29 Z" id="Shape" fill="url(#linearGradient-3)" fill-rule="nonzero"></path>
                    <path d="M29.5207026,3.615 C28.4742014,3.62880835 27.4468536,3.89826206 26.5277283,4.4 C26.3393086,4.51220583 26.1989468,4.69029602 26.1336534,4.9 C25.9777246,5.37010746 26.2168247,5.88021228 26.677377,6.06 C26.7862689,6.09963919 26.9007805,6.1215825 27.0165808,6.125 C27.7049649,6.075 28.2387119,5.505 29.011897,5.495 C30.1891335,5.495 31.057096,5.835 31.057096,6.54 C31.057096,7.04 31.1618501,7.425 28.3035597,7.645 C25.4452693,7.865 24.3129274,9.17 24.3129274,10.54 C24.3129274,10.54 24.1333489,13.475 27.8047307,13.475 C31.2067447,13.475 33.2918501,11.41 33.2918501,9.11 L33.2918501,6.195 C33.2953167,5.93380891 33.2565718,5.67377802 33.1771194,5.425 C32.7381499,4.305 31.331452,3.615 29.5207026,3.615 Z M28.4332553,11.595 L28.2187588,11.595 C27.7598361,11.595 26.7222717,11.505 26.6374707,10.68 C26.5027869,9.42 28.0840749,9.305 28.0840749,9.305 C29.9147775,9.1 30.5433021,9.035 30.9772834,8.77 C30.9523419,8.775 31.6606792,11.58 28.4332553,11.595 Z" id="Shape" fill="url(#linearGradient-4)" fill-rule="nonzero"></path>
                    <path d="M47.8875878,4.5 C47.1754146,3.93965121 46.2987636,3.6303457 45.3934426,3.62 L45.2837002,3.62 C44.12303,3.56684659 43.0082377,4.07899244 42.290726,4.995 C41.496037,4.11010539 40.3608133,3.60943443 39.1730445,3.62 L39.0583138,3.62 C36.7780412,3.64992962 34.9414043,5.50421814 34.9280094,7.79 L34.9280094,11.79 C34.9280094,11.79 34.9280094,12.11 34.9280094,12.37 C34.9296651,12.9703819 35.3975083,13.4656191 35.9955035,13.5 C36.621354,13.4918226 37.1251773,12.9823672 37.1278454,12.355 L37.1278454,8.45 C37.1159534,8.28354646 37.1159534,8.11645354 37.1278454,7.95 C37.0797482,7.22428922 37.4334689,6.53080841 38.0485407,6.1449473 C38.6636125,5.75908619 39.4404882,5.74329508 40.070661,6.1038448 C40.7008337,6.46439452 41.0823121,7.14293136 41.0636066,7.87 C41.0636066,7.995 41.0636066,7.945 41.0636066,7.9 L41.0636066,12.525 C41.1687559,13.0704828 41.6323464,13.4732044 42.1859719,13.5 C42.8132442,13.4893924 43.3199628,12.9836926 43.3332787,12.355 L43.3332787,7.735 C43.438114,6.68482813 44.3500147,5.90403592 45.4012376,5.96436171 C46.4524605,6.02468751 47.2694998,6.90469719 47.2540749,7.96 C47.266709,8.12642611 47.266709,8.29357389 47.2540749,8.46 L47.2540749,12.35 C47.2566943,12.9782128 47.7597637,13.4891272 48.3864169,13.5 C48.68801,13.5013495 48.9775674,13.3815144 49.1903589,13.1672839 C49.4031503,12.9530533 49.5214308,12.6622922 49.5187588,12.36 C49.5187588,12.1 49.5187588,11.78 49.5187588,11.78 L49.5187588,7.81 C49.5161619,6.51291038 48.9136783,5.29034032 47.8875878,4.5 Z" id="Shape" fill="url(#linearGradient-5)" fill-rule="nonzero"></path>
                    <path d="M55.4797658,3.615 C54.1740772,3.61497562 52.9222982,4.13692061 52.0018503,5.06516054 C51.0814025,5.99340047 50.5683067,7.25127081 50.5762763,8.56 C50.5762763,11.277241 52.7738767,13.48 55.4847541,13.48 C58.1956315,13.48 60.3932319,11.277241 60.3932319,8.56 C60.4025607,7.24912939 59.8885328,5.98895026 58.9656303,5.06012477 C58.0427279,4.13129928 56.7875935,3.61096185 55.4797658,3.615 Z M55.4797658,11.2 C54.7778425,11.2040911 54.1037745,10.9250323 53.6093115,10.4256466 C53.1148484,9.92626102 52.8415479,9.24851997 52.8509368,8.545 C52.8509672,7.46933929 53.4985025,6.49998866 54.4907364,6.09024457 C55.4829703,5.68050047 56.6238072,5.91134083 57.3797586,6.67481799 C58.13571,7.43829516 58.3573769,8.58352279 57.9411015,9.57495924 C57.524826,10.5663957 56.552877,11.2081029 55.4797658,11.2 Z" id="Shape" fill="url(#linearGradient-6)" fill-rule="nonzero"></path>
                    <path d="M69.8360656,9.105 C69.5212442,8.71689543 69.1196524,8.40857112 68.6638173,8.205 C68.0264046,7.90841935 67.3568259,7.68693968 66.6685012,7.545 C65.9851054,7.39 65.44637,7.26 65.0572834,7.155 C64.7276359,7.07531304 64.4138957,6.94005424 64.1294614,6.755 C63.9120178,6.6198379 63.7798967,6.38146169 63.780281,6.125 C63.7946697,5.82245945 63.975255,5.55287118 64.2491803,5.425 C64.6111808,5.22736802 65.0194394,5.1306754 65.4314052,5.145 C65.8074178,5.1286839 66.181899,5.20238478 66.5238407,5.36 C66.7930491,5.50233194 67.0319629,5.69594971 67.2271897,5.93 C67.4195941,6.1645489 67.6351894,6.37897505 67.8706792,6.57 C68.0710944,6.71349276 68.3128768,6.78725142 68.5590632,6.78 C68.8680744,6.8024742 69.1742503,6.70790783 69.4170492,6.515 C69.6176749,6.34534283 69.7297834,6.0929671 69.7213349,5.83 C69.7113527,5.54638011 69.6117926,5.27326023 69.4370023,5.05 C69.2154012,4.75275043 68.9352584,4.50428454 68.6139344,4.32 C68.1887609,4.08712483 67.7315317,3.91863127 67.2571194,3.82 C66.6587083,3.68091498 66.0456193,3.61543247 65.4314052,3.625 C64.6749256,3.60420724 63.9219241,3.73510188 63.2166042,4.01 C62.6790168,4.21788339 62.2081838,4.56881184 61.8548009,5.025 C61.5449194,5.41740742 61.3699385,5.89973455 61.3559719,6.4 C61.339471,6.9056072 61.5181452,7.39811485 61.8548009,7.775 C62.2343699,8.17630393 62.7000582,8.48578174 63.2166042,8.68 C63.9323768,8.95227086 64.6677776,9.16956455 65.4164403,9.33 C66.0139267,9.43935988 66.5943033,9.62766846 67.1423888,9.89 C67.4717002,10.0795721 67.6650805,10.4401036 67.6412178,10.82 C67.6171231,11.1389492 67.4277354,11.4217993 67.1423888,11.565 C66.7533634,11.7947929 66.3066192,11.907609 65.8554098,11.89 C65.3261748,11.9146404 64.7993326,11.8045522 64.3240047,11.57 C63.9253927,11.3331094 63.5926122,10.9995477 63.3562763,10.6 C63.2450284,10.4025993 63.1017296,10.2251676 62.9322717,10.075 C62.7517601,9.93960997 62.5286297,9.87393375 62.3037471,9.89 C62.0172536,9.87997212 61.7381302,9.98219894 61.5255738,10.175 C61.3282545,10.3475725 61.2154067,10.597515 61.2162998,10.86 C61.2374765,11.306159 61.4139829,11.7307687 61.7151288,12.06 C62.1199508,12.5166797 62.6353519,12.861087 63.2116159,13.06 C63.9861967,13.3430757 64.8066898,13.4787324 65.6309368,13.46 C66.4767432,13.4775489 67.3195869,13.3542049 68.125082,13.095 C68.7534134,12.8989522 69.3080414,12.517295 69.7163466,12 C70.076303,11.5004483 70.2621256,10.8959858 70.2451054,10.28 C70.2446108,9.85334606 70.1004887,9.43934353 69.8360656,9.105 Z" id="Shape" fill="url(#linearGradient-7)" fill-rule="nonzero"></path>
                    <path d="M22.6667916,3.66 C22.5471349,3.61545098 22.4203043,3.5934154 22.2926698,3.595 C21.7958827,3.59090878 21.3529104,3.90777198 21.1952459,4.38 L18.9056206,10.59 C18.9056206,10.59 16.6708665,4.46 16.6209836,4.345 C16.4036501,3.76965817 15.7700893,3.47094221 15.1893443,3.67 C14.590914,3.89863966 14.2897676,4.56942485 14.5159251,5.17 C14.6456206,5.515 17.3692272,12.325 17.3692272,12.325 C17.3692272,12.325 17.8331382,13.47 18.9106089,13.47 C19.9880796,13.47 20.407096,12.325 20.407096,12.325 C20.407096,12.325 22.7316393,6.725 23.3352225,5.08 C23.5361262,4.50315112 23.2387195,3.87134698 22.6667916,3.66 Z" id="Shape" fill="url(#linearGradient-8)" fill-rule="nonzero"></path>
                </g>
            </g>
        </g>
    </g>
</svg>