<?xml version="1.0" encoding="utf-8"?>
<!-- Generator: Adobe Illustrator 23.0.1, SVG Export Plug-In . SVG Version: 6.00 Build 0)  -->
<svg version="1.1" id="Layer_1" xmlns="http://www.w3.org/2000/svg" xmlns:xlink="http://www.w3.org/1999/xlink" x="0px" y="0px"
	 viewBox="0 0 55 11" style="enable-background:new 0 0 55 11;" xml:space="preserve">
<style type="text/css">
	.st0{fill:#B7B7B7;}
</style>
<title>popcakeAsset 1</title>
<desc>Created with Sketch.</desc>
<g id="tarjetasvivamos">
	<g id="tarjetavivamosresultados" transform="translate(-258.000000, -2048.000000)">
		<g id="popcakeAsset-1" transform="translate(259.000000, 2048.000000)">
			<path id="Shape" class="st0" d="M8.9,3.1C8.4,3.1,8,3.5,8,4v3c0,0.2,0,2.5,0,2.8c0,0.3,0.1,0.6,0.4,0.8c0.3,0.2,0.6,0.2,0.9,0
				c0.3-0.2,0.4-0.5,0.4-0.8V4.3c0,0,0-0.1,0-0.3c0-0.2-0.1-0.5-0.3-0.6C9.3,3.2,9.1,3.1,8.9,3.1z M6.2,3.2c-0.1,0-0.2-0.1-0.3,0
				c-0.4,0-0.7,0.2-0.8,0.6L3.4,8.4c0,0-1.7-4.7-1.7-4.8C1.5,3.3,1,3,0.6,3.2C0.1,3.4-0.1,3.9,0.1,4.3c0.1,0.3,2.2,5.4,2.2,5.4
				s0.4,0.9,1.2,0.9s1.1-0.9,1.1-0.9s1.8-4.3,2.2-5.5C6.9,3.8,6.7,3.3,6.2,3.2L6.2,3.2z M17.2,3.2c-0.1,0-0.2-0.1-0.3,0
				c-0.4,0-0.7,0.2-0.8,0.6c0,0.1-1.7,4.7-1.7,4.7s-1.7-4.7-1.7-4.8C12.4,3.3,12,3,11.5,3.2c-0.5,0.2-0.7,0.7-0.5,1.1
				c0.1,0.3,2.2,5.4,2.2,5.4s0.4,0.9,1.2,0.9c0.8,0,1.1-0.9,1.1-0.9s1.8-4.3,2.2-5.5C17.8,3.8,17.6,3.3,17.2,3.2L17.2,3.2z M8.9,2.1
				c0.4,0,0.7-0.2,0.8-0.5c0.1-0.3,0.1-0.7-0.2-1S8.9,0.3,8.5,0.4C8.2,0.6,8,0.9,8,1.2C8,1.7,8.4,2.1,8.9,2.1z M36.3,3.8
				c-0.5-0.4-1.2-0.7-1.9-0.7h-0.1c-0.9,0-1.7,0.4-2.3,1c-0.6-0.7-1.5-1.1-2.4-1h-0.1c-0.7,0-1.3,0.2-1.9,0.7
				c-0.8,0.6-1.2,1.5-1.2,2.5v3c0,0,0,0.2,0,0.4c0,0.4,0.4,0.8,0.8,0.8c0.5,0,0.9-0.4,0.9-0.9V6.8c0-0.1,0-0.3,0-0.4
				c-0.1-0.6,0.2-1.2,0.6-1.5s1.1-0.3,1.6,0c0.5,0.3,0.8,0.9,0.7,1.5v0c0-0.1,0-0.1,0,0.4v3.1c0.1,0.4,0.4,0.7,0.9,0.7
				c0.5,0,0.9-0.4,0.9-0.9V6.3C33,5.5,33.7,5,34.4,5.1c0.7,0,1.3,0.6,1.4,1.4c0,0.1,0,0.3,0,0.4v3c0,0.5,0.4,0.8,0.9,0.8
				c0.2,0,0.4-0.1,0.6-0.3s0.3-0.4,0.3-0.6c0-0.2,0-0.4,0-0.4v-3C37.5,5.3,37.1,4.4,36.3,3.8z M52.9,7.3c-0.2-0.3-0.5-0.5-0.9-0.7
				c-0.5-0.2-1-0.4-1.5-0.5C50,6,49.6,5.9,49.3,5.8c-0.3-0.1-0.5-0.2-0.7-0.3c-0.2-0.1-0.3-0.3-0.3-0.5c0-0.2,0.1-0.4,0.4-0.5
				c0.3-0.2,0.6-0.2,0.9-0.2c0.3,0,0.6,0,0.8,0.2c0.2,0.1,0.4,0.3,0.5,0.4c0.1,0.2,0.3,0.3,0.5,0.5c0.2,0.1,0.3,0.2,0.5,0.2
				c0.2,0,0.5-0.1,0.7-0.2c0.1-0.1,0.2-0.3,0.2-0.5c0-0.2-0.1-0.4-0.2-0.6C52.5,4,52.3,3.8,52,3.7c-0.3-0.2-0.7-0.3-1-0.4
				c-0.5-0.1-0.9-0.2-1.4-0.1c-0.6,0-1.1,0.1-1.7,0.3c-0.4,0.2-0.8,0.4-1.1,0.8c-0.2,0.3-0.4,0.7-0.4,1c0,0.4,0.1,0.8,0.4,1
				c0.3,0.3,0.6,0.5,1,0.7c0.5,0.2,1.1,0.4,1.7,0.5c0.5,0.1,0.9,0.2,1.3,0.4c0.3,0.1,0.4,0.4,0.4,0.7c0,0.2-0.2,0.5-0.4,0.6
				c-0.3,0.2-0.6,0.3-1,0.2c-0.4,0-0.8-0.1-1.2-0.2C48.5,9,48.2,8.8,48,8.5c-0.1-0.2-0.2-0.3-0.3-0.4c-0.1-0.1-0.3-0.2-0.5-0.1
				c-0.2,0-0.4,0.1-0.6,0.2c-0.1,0.1-0.2,0.3-0.2,0.5c0,0.3,0.1,0.7,0.4,0.9c0.3,0.3,0.7,0.6,1.1,0.8c0.6,0.2,1.2,0.3,1.8,0.3
				c0.6,0,1.3-0.1,1.9-0.3c0.5-0.1,0.9-0.4,1.2-0.8c0.3-0.4,0.4-0.8,0.4-1.3C53.2,7.9,53.1,7.6,52.9,7.3L52.9,7.3z M42.1,3.1
				c-1,0-1.9,0.4-2.6,1.1s-1.1,1.7-1.1,2.7c0,2.1,1.7,3.7,3.7,3.7c2.1,0,3.7-1.7,3.7-3.7c0-1-0.4-2-1.1-2.7C44,3.5,43,3.1,42.1,3.1
				L42.1,3.1z M42.1,8.9c-1.1,0-2-0.9-2-2s0.9-2,2-2s2,0.9,2,2c0,0.5-0.2,1.1-0.6,1.4C43.1,8.7,42.6,8.9,42.1,8.9L42.1,8.9z
				 M22.4,3.1c-0.8,0-1.6,0.2-2.3,0.6c-0.1,0.1-0.3,0.2-0.3,0.4c-0.1,0.4,0.1,0.7,0.4,0.9c0.1,0,0.2,0,0.3,0C21,5,21.4,4.6,22,4.6
				c0.9,0,1.5,0.3,1.5,0.8c0,0.4,0.1,0.7-2.1,0.8c-2.2,0.2-3,1.2-3,2.2c0,0-0.1,2.2,2.6,2.2c2.6,0,4.1-1.6,4.1-3.3V5.1
				c0-0.2,0-0.4-0.1-0.6C24.8,3.7,23.8,3.1,22.4,3.1z M21.5,9.2h-0.2c-0.3,0-1.1-0.1-1.2-0.7c-0.1-1,1.1-1,1.1-1
				c1.4-0.2,1.9-0.2,2.2-0.4C23.5,7.1,24,9.2,21.5,9.2L21.5,9.2z"/>
		</g>
	</g>
</g>
</svg>
