<?xml version="1.0" encoding="UTF-8"?>
<svg width="56px" height="11px" viewBox="0 0 56 11" version="1.1" xmlns="http://www.w3.org/2000/svg" xmlns:xlink="http://www.w3.org/1999/xlink">
    <!-- Generator: Sketch 51.1 (57501) - http://www.bohemiancoding.com/sketch -->
    <title>popcakeAsset 3 Copy 15</title>
    <desc>Created with Sketch.</desc>
    <defs>
        <linearGradient x1="781.706974%" y1="40.7276664%" x2="178.145908%" y2="48.155657%" id="linearGradient-1">
            <stop stop-color="#4167A2" offset="0%"></stop>
            <stop stop-color="#4167A2" offset="34%"></stop>
            <stop stop-color="#50A04C" offset="59%"></stop>
            <stop stop-color="#E39335" offset="76%"></stop>
            <stop stop-color="#D95330" offset="100%"></stop>
        </linearGradient>
        <linearGradient x1="2632.90868%" y1="41.6486797%" x2="239.976441%" y2="49.0428293%" id="linearGradient-2">
            <stop stop-color="#4167A2" offset="0%"></stop>
            <stop stop-color="#4167A2" offset="34%"></stop>
            <stop stop-color="#50A04C" offset="59%"></stop>
            <stop stop-color="#E39335" offset="76%"></stop>
            <stop stop-color="#D95330" offset="100%"></stop>
        </linearGradient>
        <linearGradient x1="2605.20422%" y1="15.2832376%" x2="233.403344%" y2="47.378811%" id="linearGradient-3">
            <stop stop-color="#4167A2" offset="0%"></stop>
            <stop stop-color="#4167A2" offset="34%"></stop>
            <stop stop-color="#50A04C" offset="59%"></stop>
            <stop stop-color="#E39335" offset="76%"></stop>
            <stop stop-color="#D95330" offset="100%"></stop>
        </linearGradient>
        <linearGradient x1="510.867041%" y1="44.3204868%" x2="-92.5227802%" y2="51.7748479%" id="linearGradient-4">
            <stop stop-color="#4167A2" offset="0%"></stop>
            <stop stop-color="#4167A2" offset="34%"></stop>
            <stop stop-color="#50A04C" offset="59%"></stop>
            <stop stop-color="#E39335" offset="76%"></stop>
            <stop stop-color="#D95330" offset="100%"></stop>
        </linearGradient>
        <linearGradient x1="241.708668%" y1="46.2248948%" x2="-129.67482%" y2="53.7119114%" id="linearGradient-5">
            <stop stop-color="#4167A2" offset="0%"></stop>
            <stop stop-color="#4167A2" offset="34%"></stop>
            <stop stop-color="#50A04C" offset="59%"></stop>
            <stop stop-color="#E39335" offset="76%"></stop>
            <stop stop-color="#D95330" offset="100%"></stop>
        </linearGradient>
        <linearGradient x1="199.945714%" y1="47.9980956%" x2="-352.023833%" y2="55.4486609%" id="linearGradient-6">
            <stop stop-color="#4167A2" offset="0%"></stop>
            <stop stop-color="#4167A2" offset="34%"></stop>
            <stop stop-color="#50A04C" offset="59%"></stop>
            <stop stop-color="#E39335" offset="76%"></stop>
            <stop stop-color="#D95330" offset="100%"></stop>
        </linearGradient>
        <linearGradient x1="99.4909364%" y1="49.2653302%" x2="-500.65837%" y2="56.7357182%" id="linearGradient-7">
            <stop stop-color="#4167A2" offset="0%"></stop>
            <stop stop-color="#4167A2" offset="34%"></stop>
            <stop stop-color="#50A04C" offset="59%"></stop>
            <stop stop-color="#E39335" offset="76%"></stop>
            <stop stop-color="#D95330" offset="100%"></stop>
        </linearGradient>
        <linearGradient x1="622.398138%" y1="42.7346398%" x2="17.4351523%" y2="50.2282502%" id="linearGradient-8">
            <stop stop-color="#4167A2" offset="0%"></stop>
            <stop stop-color="#4167A2" offset="34%"></stop>
            <stop stop-color="#50A04C" offset="59%"></stop>
            <stop stop-color="#E39335" offset="76%"></stop>
            <stop stop-color="#D95330" offset="100%"></stop>
        </linearGradient>
    </defs>
    <g id="tarjetasvivamos" stroke="none" stroke-width="1" fill="none" fill-rule="evenodd">
        <g id="tarjetavivamosresultados" transform="translate(-1197.000000, -1070.000000)" fill-rule="nonzero">
            <g id="popcakeAsset-3-Copy-15" transform="translate(1197.000000, 1070.000000)">
                <path d="M6.4957377,2.8875 C6.40033115,2.85085477 6.29894265,2.83220574 6.19672131,2.8325 C5.80462878,2.83230053 5.4562115,3.08215512 5.33114754,3.45321429 L3.54098361,8.32857143 C3.54098361,8.32857143 1.76655738,3.53571429 1.72327869,3.42178571 C1.55193412,2.96977347 1.05116894,2.73631465 0.594098361,2.89535714 C0.366725631,2.98077833 0.182835162,3.15317873 0.0831436513,3.37438575 C-0.0165478594,3.59559277 -0.0238151753,3.84735532 0.0629508197,4.07392857 C0.169180328,4.345 2.31344262,9.69964286 2.31344262,9.69964286 C2.31344262,9.69964286 2.67934426,10.6071429 3.54098361,10.6071429 C4.32786885,10.6071429 4.72131148,9.71142857 4.72131148,9.71142857 C4.72131148,9.71142857 6.5547541,5.31142857 7.03081967,4.015 C7.11133639,3.79471597 7.10004871,3.55139577 6.99948247,3.33948724 C6.89891623,3.12757871 6.71746699,2.96477257 6.4957377,2.8875 Z" id="Shape" fill="url(#linearGradient-1)"></path>
                <path d="M9.22622951,2.84035714 C8.73170571,2.84466987 8.33309589,3.24619327 8.33311475,3.74 C8.33311475,3.96392857 8.33311475,4.02678571 8.33311475,4.02678571 L8.33311475,6.82392857 C8.33311475,7.0125 8.33311475,9.45607143 8.33311475,9.69964286 C8.31100882,10.0316571 8.47586085,10.3483452 8.76070038,10.5210542 C9.04553992,10.6937631 9.40298467,10.6937631 9.68782421,10.5210542 C9.97266374,10.3483452 10.1375158,10.0316571 10.1154098,9.69964286 C10.1154098,9.44821429 10.1154098,6.82392857 10.1154098,6.82392857 L10.1154098,4.02285714 C10.1154098,4.02285714 10.1154098,3.96392857 10.1154098,3.73607143 C10.1175089,3.49923867 10.0247552,3.27138497 9.85777344,3.10317623 C9.69079173,2.93496748 9.46342451,2.84034787 9.22622951,2.84035714 Z" id="Shape" fill="url(#linearGradient-2)"></path>
                <path d="M9.22622951,1.79928571 C9.59098364,1.80246319 9.92166727,1.5857239 10.06383,1.25029899 C10.2059927,0.91487408 10.1315809,0.526954341 9.87534964,0.267723141 C9.61911842,0.00849194076 9.23163096,-0.0708955438 8.89386872,0.0666397276 C8.55610649,0.204174999 8.33472151,0.531492616 8.33311475,0.895714286 C8.33092959,1.39105173 8.73016792,1.79496439 9.22622951,1.79928571 Z" id="Shape" fill="url(#linearGradient-3)"></path>
                <path d="M23.2839344,2.84035714 C22.458525,2.85120656 21.6482226,3.06292019 20.9232787,3.45714286 C20.7746659,3.54530458 20.663958,3.68523258 20.612459,3.85 C20.489473,4.21937015 20.6780589,4.62016679 21.0413115,4.76142857 C21.127198,4.79257365 21.217517,4.80981482 21.3088525,4.8125 C21.8518033,4.77321429 22.2727869,4.32535714 22.882623,4.3175 C23.8111475,4.3175 24.4957377,4.58464286 24.4957377,5.13857143 C24.4957377,5.53142857 24.5783607,5.83392857 22.3239344,6.00678571 C20.0695082,6.17964286 19.1763934,7.205 19.1763934,8.28142857 C19.1763934,8.28142857 19.0347541,10.5875 21.9304918,10.5875 C24.6137705,10.5875 26.2583607,8.965 26.2583607,7.15785714 L26.2583607,4.8675 C26.2610948,4.66227843 26.2305355,4.45796844 26.1678689,4.2625 C25.8216393,3.3825 24.7121311,2.84035714 23.2839344,2.84035714 Z M22.4262295,9.11035714 L22.2570492,9.11035714 C21.895082,9.11035714 21.0767213,9.03964286 21.0098361,8.39142857 C20.9036066,7.40142857 22.1508197,7.31107143 22.1508197,7.31107143 C23.5947541,7.15 24.0904918,7.09892857 24.4327869,6.89071429 C24.4131148,6.89464286 24.9718033,9.09857143 22.4262295,9.11035714 Z" id="Shape" fill="url(#linearGradient-4)"></path>
                <path d="M37.7704918,3.53571429 C37.2087777,3.09544024 36.5173347,2.85241448 35.8032787,2.84428571 L35.7167213,2.84428571 C34.8012631,2.80252232 33.9219903,3.20492263 33.3560656,3.92464286 C32.7292686,3.22936852 31.8338809,2.8359842 30.8970492,2.84428571 L30.8065574,2.84428571 C29.0080325,2.86780184 27.5594175,4.32474282 27.5488525,6.12071429 L27.5488525,9.26357143 C27.5488525,9.26357143 27.5488525,9.515 27.5488525,9.71928571 C27.5501584,10.1910144 27.9191614,10.5801293 28.3908197,10.6071429 C28.8844482,10.6007177 29.28183,10.2004314 29.2839344,9.7075 L29.2839344,6.63928571 C29.2745548,6.50850079 29.2745548,6.37721349 29.2839344,6.24642857 C29.2459986,5.67622724 29.5249895,5.13134946 30.0101166,4.82817288 C30.4952437,4.52499629 31.1079907,4.51258899 31.6050284,4.79587806 C32.102066,5.07916713 32.4029504,5.61230321 32.3881967,6.18357143 C32.3881967,6.28178571 32.3881967,6.2425 32.3881967,6.20714286 L32.3881967,9.84107143 C32.4711314,10.269665 32.8367803,10.5860892 33.2734426,10.6071429 C33.7681926,10.5988083 34.167858,10.2014728 34.1783607,9.7075 L34.1783607,6.0775 C34.2610477,5.25236496 34.9802932,4.63888536 35.8094268,4.6862842 C36.6385604,4.73368304 37.2829857,5.42511922 37.2708197,6.25428571 C37.2807845,6.38504909 37.2807845,6.51637948 37.2708197,6.64714286 L37.2708197,9.70357143 C37.2728856,10.1971672 37.6696728,10.5986 38.1639344,10.6071429 C38.4018107,10.6082032 38.630194,10.5140471 38.7980295,10.3457231 C38.965865,10.177399 39.0591567,9.94894388 39.0570492,9.71142857 C39.0570492,9.50714286 39.0570492,9.25571429 39.0570492,9.25571429 L39.0570492,6.13642857 C39.0550009,5.11728673 38.5798026,4.15669597 37.7704918,3.53571429 Z" id="Shape" fill="url(#linearGradient-5)"></path>
                <path d="M43.7586885,2.84035714 C42.7288497,2.84033799 41.741531,3.25043762 41.0155439,3.97976899 C40.2895569,4.70910037 39.8848616,5.69742707 39.8911475,6.72571429 C39.8911475,8.86068933 41.6244661,10.5914286 43.762623,10.5914286 C45.9007798,10.5914286 47.6340984,8.86068933 47.6340984,6.72571429 C47.6414563,5.69574452 47.2360258,4.70560378 46.5081028,3.97581232 C45.7801798,3.24602086 44.7902146,2.83718431 43.7586885,2.84035714 Z M43.7586885,8.8 C43.2050589,8.80321443 42.6733996,8.58395391 42.2834006,8.1915795 C41.8934016,7.79920509 41.6778406,7.26669426 41.6852459,6.71392857 C41.6852699,5.86876658 42.196002,5.10713395 42.978609,4.78519216 C43.761216,4.46325037 44.661031,4.64462494 45.2572744,5.24449985 C45.8535177,5.84437477 46.0283536,6.74419647 45.7000237,7.52318226 C45.3716938,8.30216804 44.6050861,8.80636657 43.7586885,8.8 Z" id="Shape" fill="url(#linearGradient-6)"></path>
                <path d="M55.0819672,7.15392857 C54.8336574,6.84898926 54.516909,6.60673445 54.157377,6.44678571 C53.654629,6.21375806 53.1265106,6.03973832 52.5836066,5.92821429 C52.0445902,5.80642857 51.6196721,5.70428571 51.3127869,5.62178571 C51.0527833,5.55917453 50.8053262,5.45289976 50.5809836,5.3075 C50.4094788,5.2013012 50.3052706,5.01400561 50.3055738,4.8125 C50.3169226,4.57478957 50.4593561,4.36297021 50.6754098,4.2625 C50.9609313,4.10721773 51.2829381,4.03124496 51.6078689,4.0425 C51.9044422,4.02968021 52.1998077,4.08758804 52.4695082,4.21142857 C52.6818416,4.32326081 52.8702806,4.47538906 53.0242623,4.65928571 C53.1760179,4.84357413 53.3460648,5.01205183 53.5318033,5.16214286 C53.6898773,5.27488717 53.8805788,5.3328404 54.0747541,5.32714286 C54.3184812,5.34480116 54.5599721,5.27049901 54.7514754,5.11892857 C54.9097154,4.98562651 54.998139,4.78733129 54.9914754,4.58071429 C54.9836021,4.35787008 54.9050758,4.14327589 54.7672131,3.96785714 C54.5924292,3.73430391 54.3714714,3.53908071 54.1180328,3.39428571 C53.7826847,3.21131237 53.4220532,3.07892457 53.0478689,3.00142857 C52.5758826,2.89214748 52.0923194,2.84069694 51.6078689,2.84821429 C51.0112089,2.83187712 50.4172923,2.93472291 49.8609836,3.15071429 C49.436971,3.31405123 49.0656098,3.58978073 48.7868852,3.94821429 C48.5424716,4.2565344 48.4044585,4.63550572 48.3934426,5.02857143 C48.3804278,5.42583423 48.521354,5.81280452 48.7868852,6.10892857 C49.0862636,6.4242388 49.453567,6.66739994 49.8609836,6.82 C50.4255366,7.0339271 51.005571,7.20465786 51.5960656,7.33071429 C52.0673224,7.41663991 52.5250843,7.56459664 52.957377,7.77071429 C53.2171157,7.91966377 53.3696409,8.20293857 53.3508197,8.50142857 C53.3318154,8.75203149 53.1824392,8.97427089 52.957377,9.08678571 C52.6505401,9.26733729 52.2981785,9.35597847 51.9422951,9.34214286 C51.5248703,9.36150313 51.1093328,9.27500533 50.7344262,9.09071429 C50.420028,8.90458594 50.1575533,8.64250176 49.9711475,8.32857143 C49.8834027,8.17347089 49.7703783,8.0340603 49.6367213,7.91607143 C49.494346,7.80969355 49.3183558,7.7580908 49.1409836,7.77071429 C48.9150169,7.76283524 48.6948633,7.84315631 48.5272131,7.99464286 C48.371581,8.13023552 48.2825743,8.32661894 48.2832787,8.53285714 C48.2999815,8.88341061 48.4391978,9.21703254 48.6767213,9.47571429 C48.9960175,9.83453407 49.4025311,10.1051398 49.8570492,10.2614286 C50.4679861,10.4838452 51.1151356,10.5904326 51.7652459,10.5757143 C52.4323608,10.5895027 53.097139,10.4925895 53.732459,10.2889286 C54.2280444,10.134891 54.6654975,9.83501749 54.987541,9.42857143 C55.2714503,9.03606654 55.4180146,8.56113168 55.4045902,8.07714286 C55.4042001,7.74191476 55.2905263,7.41662706 55.0819672,7.15392857 Z" id="Shape" fill="url(#linearGradient-7)"></path>
                <path d="M17.8780328,2.87571429 C17.7836557,2.84071148 17.6836203,2.82339782 17.5829508,2.82464286 C17.1911187,2.82142833 16.8417321,3.07039227 16.717377,3.44142857 L14.9114754,8.32071429 C14.9114754,8.32071429 13.1488525,3.50428571 13.1095082,3.41392857 C12.9380902,2.96187428 12.4383803,2.72716888 11.9803279,2.88357143 C11.5083266,3.06321688 11.2708026,3.59026238 11.4491803,4.06214286 C11.5514754,4.33321429 13.6996721,9.68392857 13.6996721,9.68392857 C13.6996721,9.68392857 14.0655738,10.5835714 14.9154098,10.5835714 C15.7652459,10.5835714 16.0957377,9.68392857 16.0957377,9.68392857 C16.0957377,9.68392857 17.9291803,5.28392857 18.4052459,3.99142857 C18.5637051,3.53819017 18.3291309,3.04177263 17.8780328,2.87571429 Z" id="Shape" fill="url(#linearGradient-8)"></path>
            </g>
        </g>
    </g>
</svg>