<?xml version="1.0" encoding="utf-8"?>
<!-- Generator: Adobe Illustrator 22.1.0, SVG Export Plug-In . SVG Version: 6.00 Build 0)  -->
<svg version="1.1" id="Capa_1" xmlns="http://www.w3.org/2000/svg" xmlns:xlink="http://www.w3.org/1999/xlink" x="0px" y="0px"
	 width="621px" height="335px" viewBox="0 0 621 335" style="enable-background:new 0 0 621 335;" xml:space="preserve">
<style type="text/css">
	.st0{fill:none;stroke:#979797;stroke-width:1.8;}
	.st1{fill:none;stroke:#979797;stroke-width:1.8;stroke-linecap:round;stroke-linejoin:round;}
	.st2{fill:none;}
	.st3{fill:#8E8E8E;}
	.st4{fill:#054249;}
	.st5{fill:#F0F0F0;fill-opacity:0.1;stroke:#FFFFFF;stroke-width:1.2;}
	.st6{fill:#13032C;stroke:#FFFFFF;stroke-width:1.2;}
	.st7{fill:#FFFFFF;}
	.st8{fill:#000325;}
	.st9{fill:#FEFEFE;}
	.st10{filter:url(#Adobe_OpacityMaskFilter);}
	.st11{mask:url(#mask-2_1_);fill:#FEFEFE;}
	.st12{filter:url(#Adobe_OpacityMaskFilter_1_);}
	.st13{mask:url(#mask-4_1_);fill:#FEFEFE;}
	.st14{filter:url(#Adobe_OpacityMaskFilter_2_);}
	.st15{mask:url(#mask-10_1_);fill:#FEFEFE;}
	.st16{filter:url(#Adobe_OpacityMaskFilter_3_);}
	.st17{mask:url(#mask-22_1_);fill:#FEFEFE;}
	.st18{filter:url(#Adobe_OpacityMaskFilter_4_);}
	.st19{mask:url(#mask-24_1_);fill:#FEFEFE;}
	.st20{filter:url(#Adobe_OpacityMaskFilter_5_);}
	.st21{mask:url(#mask-26_1_);fill:#FEFEFE;}
	.st22{filter:url(#Adobe_OpacityMaskFilter_6_);}
	.st23{mask:url(#mask-28_1_);fill:#FEFEFE;}
	.st24{filter:url(#Adobe_OpacityMaskFilter_7_);}
	.st25{mask:url(#mask-30_1_);fill:#FEFEFE;}
	.st26{filter:url(#Adobe_OpacityMaskFilter_8_);}
	.st27{mask:url(#mask-32_1_);fill:#FEFEFE;}
	.st28{filter:url(#Adobe_OpacityMaskFilter_9_);}
	.st29{mask:url(#mask-34_1_);fill:#FEFEFE;}
	.st30{filter:url(#Adobe_OpacityMaskFilter_10_);}
	.st31{mask:url(#mask-36_1_);fill:#FEFEFE;}
	.st32{filter:url(#Adobe_OpacityMaskFilter_11_);}
	.st33{mask:url(#mask-38_1_);fill:#FEFEFE;}
	.st34{fill:#13032C;}
	.st35{fill:none;stroke:#13032C;}
	.st36{fill:none;stroke:#13032C;stroke-linecap:round;stroke-linejoin:round;}
	.st37{fill:none;stroke:#000325;stroke-width:0.825;}
	.st38{fill:none;stroke:#000325;stroke-width:0.825;stroke-linecap:round;stroke-linejoin:round;stroke-dasharray:1.8333;}
	.st39{fill:#F3F3F3;stroke:#13032C;stroke-width:0.9;}
	.st40{fill:#FFFFFF;stroke:#13032C;stroke-width:0.9;}
	.st41{fill:none;stroke:#000325;stroke-width:0.9;}
	.st42{fill:#5A5A5F;}
	.st43{fill:#FFFFFF;stroke:#000325;stroke-width:0.9;}
	.st44{fill:none;stroke:#000325;stroke-width:0.896;}
	.st45{fill:none;stroke:#13032C;stroke-width:1.8;}
	.st46{fill:#3978B2;}
	.st47{fill:#C2733D;}
	.st48{clip-path:url(#SVGID_2_);fill:url(#SVGID_3_);}
	.st49{clip-path:url(#SVGID_5_);fill:url(#SVGID_6_);}
	.st50{clip-path:url(#SVGID_8_);fill:url(#SVGID_9_);}
	.st51{clip-path:url(#SVGID_11_);fill:url(#SVGID_12_);}
	.st52{clip-path:url(#SVGID_14_);fill:url(#SVGID_15_);}
	.st53{clip-path:url(#SVGID_17_);fill:url(#SVGID_18_);}
	.st54{fill:url(#SVGID_19_);}
	.st55{clip-path:url(#SVGID_21_);fill:url(#SVGID_22_);}
	.st56{clip-path:url(#SVGID_24_);fill:url(#SVGID_25_);}
	.st57{clip-path:url(#SVGID_27_);fill:url(#SVGID_28_);}
	.st58{clip-path:url(#SVGID_30_);fill:url(#SVGID_31_);}
	.st59{clip-path:url(#SVGID_33_);fill:url(#SVGID_34_);}
	.st60{clip-path:url(#SVGID_36_);fill:url(#SVGID_37_);}
	.st61{fill:url(#SVGID_38_);}
	.st62{fill:#A6A6A6;}
	.st63{fill:url(#SVGID_39_);}
	.st64{fill:url(#SVGID_40_);}
	.st65{fill:url(#SVGID_41_);}
	.st66{fill:url(#SVGID_42_);}
	.st67{opacity:0.2;enable-background:new    ;}
	.st68{opacity:0.12;enable-background:new    ;}
	.st69{opacity:0.25;fill:#FFFFFF;enable-background:new    ;}
	.st70{fill:#FFFFFF;stroke:#FFFFFF;stroke-width:0.2;stroke-miterlimit:10;}
	.st71{fill:#AFAFAF;}
</style>
<title>Group 12</title>
<desc>Created with Sketch.</desc>
<g id="Group-7" transform="translate(0.000000, 1.000000)">
	<g id="Group-6">
		<path id="Rectangle" class="st0" d="M36.9,1.9h17.2c0.6,0,1,0.4,1,1v13.2c0,0.6-0.4,1-1,1H36.9c-0.6,0-1-0.4-1-1V2.9
			C35.9,2.3,36.3,1.9,36.9,1.9z"/>
		<polygon id="Path-4" class="st1" points="36,2 45,10 54,2 		"/>
		<g id="Group-3-Copy-9">
			<polygon id="Clip-2" class="st2" points="1,0 17,0 17,18 1,18 			"/>
			<path id="Fill-1" class="st3" d="M7.3,10.4c-2-0.2-3.6-1.7-3.8-3.7C3.4,5.5,3.9,4.4,4.7,3.6c0.8-0.8,1.8-1.2,2.9-1.2
				c0.1,0,0.2,0,0.3,0c2,0.2,3.6,1.7,3.8,3.6c0.1,1.2-0.3,2.3-1.2,3.1C9.7,10,8.5,10.5,7.3,10.4 M16.8,16.1l-4.2-5.4
				c0.9-1,1.6-2.2,1.7-3.6c0.2-1.9-0.5-3.8-1.9-5.2C10.9,0.5,9-0.2,6.9,0C3.8,0.4,1.4,2.7,1,5.7C0.8,7.6,1.5,9.5,3,10.9
				c0.4,0.4,0.9,0.7,1.4,1c1,0.6,2.2,0.9,3.3,0.9c0.2,0,0.5,0,0.7,0c0.8-0.1,1.5-0.3,2.2-0.6l4.2,5.4c0.2,0.3,0.6,0.5,1,0.5
				c0.3,0,0.5-0.1,0.7-0.2c0.3-0.2,0.4-0.5,0.5-0.8C17,16.7,17,16.3,16.8,16.1"/>
		</g>
		<path id="Shape" class="st4" d="M78.3,9.2c0,0.9-0.6,1-0.7,1h-8.5L71,8.5L70.5,8l-2.4,2.3c-0.1,0.1-0.1,0.3,0,0.5l2.4,2.3l0.5-0.5
			l-1.8-1.7h8.5c0.5,0,1.4-0.3,1.4-1.6v-1h-0.7V9.2z"/>
		<path id="Shape_1_" class="st4" d="M68.7,4.8c0-0.9,0.6-1,0.7-1h8.5L76,5.5L76.5,6l2.4-2.3c0.1-0.1,0.1-0.3,0-0.5L76.5,1L76,1.5
			l1.8,1.7h-8.5c-0.5,0-1.4,0.3-1.4,1.6v1h0.7V4.8z"/>
	</g>
	<path id="Path-17" class="st5" d="M18.7,72.9c0.7,0-0.7-4.8,3.6-7.7c2.9-1.9,6.4-1.6,10.5,1c2.7-0.7,4.3-1.3,4.9-1.9
		c0.9-0.8-1.4,3.1-2.9,4.2c-1.4,1.1,4.6-1.9,4-0.8c-0.7,1.1-3.2,3.7-4,4.2s1.1,9.6-6.7,16.2s-16.1,6.2-20.8,5.2
		c-4.7-1-6.6-2.8-6.6-3.3c0-0.2,1.2,0.2,5.2,0c4-0.2,8.7-3,6-2.5s-6-1.6-6.7-4.2c-0.4-1.5,0.7-1.1,2.1-0.9c1.2,0.1,2.3,0.2,0.5-0.4
		c-2.8-1-4.3-2.5-5.1-5.7c-0.4-1.4,0.1-1.2,1.2-0.8c1.4,0.5,4,1.1,1.4-0.5c-3.7-2.4-2.5-9.8-1.4-8.7c1.2,1.1,4.9,5.3,9.3,6.1
		C17.7,73.3,18.1,72.9,18.7,72.9z"/>
	<path id="Combined-Shape" class="st5" d="M76,64h26c1.1,0,2,0.9,2,2v26c0,1.1-0.9,2-2,2h-7c-0.3,0-0.5-0.2-0.5-0.5V82.8
		c0-0.3,0.2-0.5,0.5-0.5h3c0.3,0,0.5-0.2,0.5-0.4l0.4-3.3c0-0.3-0.2-0.5-0.4-0.6c0,0,0,0-0.1,0H95c-0.3,0-0.5-0.2-0.5-0.5v-4.2
		c0-0.3,0.2-0.5,0.5-0.5h3.4c0.3,0,0.5-0.2,0.5-0.5v-3c0-0.3-0.2-0.5-0.5-0.5h-3.8c-2.4,0-4.3,1.9-4.3,4.3V74v3.4
		c0,0.3-0.2,0.5-0.5,0.5h-3.4c-0.3,0-0.5,0.2-0.5,0.5v3.3c0,0.3,0.2,0.5,0.5,0.5h3.4c0.3,0,0.5,0.2,0.5,0.5v10.7
		c0,0.3-0.2,0.5-0.5,0.5H76c-1.1,0-2-0.9-2-2V66C74,64.9,74.9,64,76,64z"/>
	<path id="Rectangle_1_" class="st5" d="M147,64h14c4.4,0,8,3.6,8,8v14c0,4.4-3.6,8-8,8h-14c-4.4,0-8-3.6-8-8V72
		C139,67.6,142.6,64,147,64z"/>
	<circle id="Oval" class="st5" cx="154" cy="79" r="6.3"/>
	<circle id="Oval-Copy" class="st5" cx="162.2" cy="70.8" r="1.9"/>
	<path id="Rectangle_2_" class="st5" d="M210.7,60c-3.4,0.2-6.1,3-6.1,6.4v18.8c0,4,3.1,7.2,7.1,7.4c5.3,0.2,10.5,0.3,15.8,0.3
		c5.6,0,11.2-0.1,16.8-0.4c3.4-0.2,6.1-3,6.1-6.4V67.3c0-4-3.1-7.2-7.1-7.4c-5.3-0.2-10.5-0.3-15.8-0.3
		C221.9,59.6,216.3,59.7,210.7,60z"/>
	<path id="Path-3" class="st6" d="M223,71.2v10.2c0,0.6,0.4,1,1,1c0.2,0,0.4-0.1,0.5-0.1l9.2-5.6c0.5-0.3,0.6-0.9,0.3-1.4
		c-0.1-0.2-0.2-0.3-0.4-0.4l-9.2-4.6c-0.5-0.2-1.1,0-1.3,0.4C223,70.9,223,71.1,223,71.2z"/>
</g>
<path id="Oval-2-Copy-2" class="st7" d="M241.5,114.1c0,0-50.3,0-150.9,0L36.5,334c174,0,261.6,0,262.7,0
	C342.7,262.1,315.2,146.8,241.5,114.1z"/>
<path id="Oval-2-Copy-3" class="st8" d="M242.9,113.3c-10.6,0-65.8,0-165.4,0c-20.1,10.8-37.1,27.7-50.9,50.6
	c-32.8,54.3-30.1,121,6.1,169.3c0.7,1,252.5,1,253.1,0C329.3,261.2,316.2,157.2,242.9,113.3z"/>
<polygon id="Fill-1_1_" class="st9" points="167.1,215 185.1,215 185.1,219.6 174.3,219.6 174.3,225.7 182.3,225.7 182.3,229.7 
	174.3,229.7 174.3,245.8 185.1,245.8 185.1,250 167.1,250 "/>
<polygon id="Fill-2" class="st9" points="131.1,215 154.1,215 154.1,219.9 146.8,219.8 146.8,250 138.9,250 138.9,219.6 
	131.1,219.6 "/>
<polygon id="Fill-3" class="st9" points="102.1,215 109.5,215 109.5,245.8 120.1,245.8 120.1,250 102.1,250 "/>
<polygon id="Fill-4" class="st9" points="81.1,215 81.1,250 99.1,250 99.1,245.8 88.4,245.8 88.4,229.7 96.3,229.7 96.3,225.5 
	88.4,225.5 88.4,219.6 99.1,219.6 99.1,215 "/>
<path id="Fill-5" class="st9" d="M272.8,233.1c0-9.8-6.3-17.8-14.2-17.8c-7.8,0-14.2,8-14.2,17.8c0,9.8,6.4,17.8,14.2,17.8
	C266.5,250.9,272.8,242.9,272.8,233.1 M263.3,233.1c0,7.6-1.7,13.5-4,14.6c-0.2,0.1-0.4,0.4-0.6,0.4c-2.6,0-4.6-6.8-4.6-15.1
	c0-8.3,2.1-15.1,4.6-15.1C261.2,218,263.3,224.8,263.3,233.1"/>
<path id="Fill-7" class="st9" d="M226.5,237.9v12.8h-8.1v-35.2h14.9c5.4,0,8.9,5.4,8.9,11.7c0,6.2-4.7,10.7-8.3,10.7L226.5,237.9z
	 M226.5,232.8h5.2c2.1,0,3.7-3.2,3.7-6.4c0-3-2-6-4.3-6h-4.5V232.8z"/>
<polygon id="Fill-9" class="st9" points="193.4,250.7 188.4,250.7 188.4,215.5 193.4,215.5 201.7,232.8 207.9,215.5 215.5,215.5 
	215.5,250.7 207.5,250.7 207.5,232.1 201,250.7 200,250.7 193.4,233.2 "/>
<g id="Fill-11-Clipped">
	<g id="path-1_1_">
	</g>
	<defs>
		<filter id="Adobe_OpacityMaskFilter" filterUnits="userSpaceOnUse" x="155.6" y="215.5" width="7.2" height="35.3">
			<feColorMatrix  type="matrix" values="1 0 0 0 0  0 1 0 0 0  0 0 1 0 0  0 0 0 1 0"/>
		</filter>
	</defs>
	<mask maskUnits="userSpaceOnUse" x="155.6" y="215.5" width="7.2" height="35.3" id="mask-2_1_">
		<g class="st10">
			<polygon id="path-1_2_" class="st7" points="81.1,278 273,278 273,201.3 81.1,201.3 			"/>
		</g>
	</mask>
	<polygon id="Fill-11" class="st11" points="155.6,250.7 162.8,250.7 162.8,215.5 155.6,215.5 	"/>
</g>
<g id="Fill-13-Clipped">
	<g id="path-1_3_">
	</g>
	<defs>
		<filter id="Adobe_OpacityMaskFilter_1_" filterUnits="userSpaceOnUse" x="147.4" y="260.2" width="16.2" height="17.8">
			<feColorMatrix  type="matrix" values="1 0 0 0 0  0 1 0 0 0  0 0 1 0 0  0 0 0 1 0"/>
		</filter>
	</defs>
	<mask maskUnits="userSpaceOnUse" x="147.4" y="260.2" width="16.2" height="17.8" id="mask-4_1_">
		<g class="st12">
			<polygon id="path-3_1_" class="st7" points="82.1,278 274,278 274,201.3 82.1,201.3 			"/>
		</g>
	</mask>
	<path id="Fill-13" class="st13" d="M159.6,261.6c-0.1,0.2-4.1,11.2-4.1,11.2s-4-11-4.1-11.2c-0.4-0.9-1.4-1.6-2.6-1.2
		c-1,0.3-1.7,1.6-1.2,2.7c0.2,0.6,5.1,12.9,5.1,12.9s0.8,2.1,2.8,2.1c1.8,0,2.7-2.1,2.7-2.1s4.2-10.1,5.3-13
		c0.4-1.1-0.2-2.2-1.2-2.5c-0.2-0.1-0.4-0.1-0.7-0.1C160.8,260.2,160,260.7,159.6,261.6"/>
</g>
<path id="Fill-18" class="st9" d="M166.1,263c0,0.5,0,0.6,0,0.6l0,6.1v0c0,0.1,0,5.8,0,6.3c0,1.2,1.3,2,2.5,2c1.2,0,2.5-0.7,2.5-2
	c0-0.5,0-6.3,0-6.3l0-6.1c0,0,0-0.1,0-0.6c0-1-1-2-2.5-2C167.3,261,166.1,261.8,166.1,263"/>
<path id="Fill-23" class="st9" d="M166.1,255.5c0,1.4,1.1,2.5,2.5,2.5c1.4,0,2.5-1.1,2.5-2.5c0-1.4-1.1-2.5-2.5-2.5
	C167.3,253,166.1,254.1,166.1,255.5"/>
<g id="Group-27" transform="translate(165.147395, 142.986167)">
	<g id="Fill-25-Clipped">
		<g id="path-7_2_">
		</g>
		<defs>
			<filter id="Adobe_OpacityMaskFilter_2_" filterUnits="userSpaceOnUse" x="1.4" y="110.4" width="4.5" height="4.5">
				<feColorMatrix  type="matrix" values="1 0 0 0 0  0 1 0 0 0  0 0 1 0 0  0 0 0 1 0"/>
			</filter>
		</defs>
		<mask maskUnits="userSpaceOnUse" x="1.4" y="110.4" width="4.5" height="4.5" id="mask-10_1_">
			<g class="st14">
				<path id="path-9_1_" class="st7" d="M1.4,112.6c0,1.2,1,2.2,2.2,2.2l0,0c1.2,0,2.2-1,2.2-2.2l0,0c0-1.2-1-2.2-2.2-2.2l0,0
					C2.4,110.4,1.4,111.4,1.4,112.6L1.4,112.6z"/>
			</g>
		</mask>
		<polygon id="Fill-25" class="st15" points="1.4,114.9 5.9,114.9 5.9,110.4 1.4,110.4 		"/>
	</g>
</g>
<path id="Fill-28" class="st9" d="M194.4,262.3c-0.4,0.2-0.6,0.5-0.8,0.9c-0.3,1.1,0.4,1.8,1,2c0.3,0.1,0.7,0.1,0.7,0.1
	c1.3-0.1,2.3-1.1,3.8-1.1c2.2,0,3.9,0.6,3.9,1.8c0,0.9,0.2,1.5-5.2,1.9c-5.4,0.4-7.6,2.6-7.6,5c0,0-0.3,5.1,6.6,5.1
	c6.4,0,10.4-3.6,10.4-7.5v-5c0-0.5-0.1-0.9-0.2-1.3c-0.8-1.9-3.4-3.1-6.9-3.1C200.1,261,196.7,261,194.4,262.3 M194.6,273.2
	c-0.3-2.2,2.7-2.4,2.7-2.4c3.5-0.4,4.7-0.5,5.5-0.9c0,0,1.3,4.8-4.8,4.9c0,0-0.2,0-0.4,0C196.7,274.8,194.7,274.6,194.6,273.2"/>
<path id="Fill-33" class="st9" d="M229.3,261c-2.5,0-4.1,0.8-5.5,2.4h0c-1.6-1.5-3.2-2.4-5.7-2.4h-0.2c-2.1,0-3.3,0.7-4.6,1.5
	c-2.1,1.6-3,3.7-3,5.7l0,6.8c0,0,0,0.5,0,1c0,1.2,1.1,2,2.1,2c1.1,0,2.1-0.9,2.1-2v-0.9v-5.8c0,0,0,0.1,0-0.8c0-2.1,1.7-3.5,3.6-3.5
	c1.9,0,3.6,1.5,3.6,3.4c0,0.2,0,0.1,0,0.1c0-0.1,0-0.3,0,1l0,7c0,0,0.4,1.6,2.1,1.6c2,0,2.1-2,2.1-2v-7.9c0.1-1.8,1.8-3.2,3.6-3.2
	c1.9,0,3.6,1.5,3.6,3.5c0,1,0,0.8,0,0.8v5.8v0.9c0,1.1,1,2,2.1,2c1,0,2.1-0.7,2.1-2c0-0.4,0-1,0-1l0-6.8c0-2-0.9-4.1-3-5.7
	c-1.3-0.8-2.5-1.5-4.6-1.5H229.3z"/>
<path id="Fill-38" class="st9" d="M238.1,269.5c0,5.5,4.6,8.5,8.4,8.5c5.8,0,8.6-4.7,8.6-8.5c0-3.7-2.8-8.5-8.5-8.5
	C242.5,261,238.1,264.2,238.1,269.5 M242.1,269.5c0-2.8,2.4-4.6,4.6-4.6c3.1,0,4.6,2.6,4.6,4.6c0,2-1.5,4.6-4.6,4.6
	C244.5,274.1,242.1,272.5,242.1,269.5"/>
<path id="Fill-43" class="st9" d="M259.9,261.7c-1.2,0.4-2,1-2.6,1.8c-0.6,0.7-0.9,1.5-0.9,2.4c0,0.9,0.3,1.7,1,2.4
	c0.6,0.6,1.5,1.2,2.6,1.6c1.1,0.4,2.5,0.8,4.2,1.1c1.5,0.3,2.6,0.6,3.3,1c0.7,0.3,1,0.9,1,1.6c0,0.5-0.3,0.9-0.9,1.3
	c-0.6,0.4-1.5,0.6-2.4,0.6c-1.2,0-2.2-0.2-2.9-0.6c-0.7-0.4-1.3-0.9-1.8-1.7c-0.3-0.4-0.5-0.7-0.8-0.9c-0.3-0.2-0.7-0.3-1.2-0.3
	c-0.6,0-1.1,0.2-1.5,0.5c-0.4,0.3-0.6,0.7-0.6,1.2c0,0.7,0.3,1.4,0.9,2.1c0.6,0.7,1.5,1.3,2.8,1.7c1.3,0.5,2.8,0.7,4.6,0.7
	c1.9,0,3.4-0.2,4.7-0.6c1.3-0.4,2.3-1.1,3-1.9c0.7-0.8,1-1.8,1-3c0-0.8-0.3-1.4-0.8-2c-0.5-0.6-1.2-1.1-2.2-1.6
	c-1-0.4-2.2-0.8-3.8-1.1c-1.3-0.3-2.3-0.5-3.1-0.7c-0.7-0.2-1.3-0.4-1.8-0.7c-0.4-0.3-0.7-0.6-0.7-1.1c0-0.5,0.3-0.9,0.9-1.2
	c0.6-0.3,1.3-0.5,2.2-0.5c0.9,0,1.6,0.1,2.1,0.4c0.5,0.2,1,0.6,1.3,1c0.5,0.5,0.9,0.9,1.2,1.1c0.4,0.2,0.8,0.4,1.3,0.4
	c0.7,0,1.2-0.2,1.6-0.5c0.4-0.3,0.6-0.7,0.6-1.2c0-0.4-0.2-0.9-0.5-1.3c-0.4-0.5-0.9-0.9-1.6-1.3c-0.7-0.4-1.5-0.7-2.6-0.9
	c-1-0.2-2.2-0.3-3.5-0.3C262.4,261,261,261.2,259.9,261.7"/>
<path id="Fill-48" class="st9" d="M186,262.3c-0.1,0.2-4.3,10.7-4.3,10.7s-4.2-10.6-4.3-10.8c-0.4-0.9-1.5-1.5-2.7-1.2
	c-1,0.3-1.8,1.5-1.3,2.6c0.2,0.6,5.4,12.3,5.4,12.3s0.9,2,2.9,2c1.9,0,2.8-2,2.8-2s4.4-9.6,5.5-12.5c0.4-1-0.2-2.1-1.3-2.4
	c-0.2-0.1-0.5-0.1-0.7-0.1C187.2,261,186.3,261.4,186,262.3"/>
<path id="Fill-53" class="st9" d="M86.8,204.3c-0.3-1.4-1-1.9-2.2-1.9c-1.4,0-2.2,0.9-2.2,3.1v1c0,2.3,0.8,3.1,2.2,3.1
	c1.2,0,1.9-0.6,2.2-1.9h1.1c-0.3,2.1-1.5,3-3.3,3c-2,0-3.3-1.2-3.3-4.2v-1c0-3,1.3-4.2,3.3-4.2c1.8,0,3,1,3.3,3H86.8z"/>
<polygon id="Fill-55" class="st9" points="93.3,209.6 97.7,209.6 97.7,210.6 92.1,210.6 92.1,201.4 93.3,201.4 "/>
<path id="Fill-57" class="st9" d="M108.1,201.4v5.4c0,2.7-1.3,3.8-3.3,3.8s-3.3-1.1-3.3-3.8v-5.4h1.1v5.4c0,2,0.8,2.8,2.2,2.8
	c1.4,0,2.2-0.8,2.2-2.8v-5.4H108.1z"/>
<path id="Fill-59" class="st9" d="M114.1,209.6h1.9c1.4,0,2-0.6,2-1.6c0-1.1-0.7-1.6-2.2-1.6h-1.7V209.6z M114.1,205.3h1.9
	c1.3,0,1.8-0.7,1.8-1.6c0-0.8-0.4-1.3-2-1.3h-1.7V205.3z M115.8,201.4c2.1,0,3.2,0.8,3.2,2.3c0,1-0.6,1.8-1.5,2
	c1.2,0.2,1.8,1,1.8,2.1c0,1.3-0.8,2.6-3.2,2.6H113v-9.2H115.8z"/>
<path id="Fill-61" class="st9" d="M134.6,206.5v-1c0-2.3-0.8-3.1-2.2-3.1h-1.8v7.1h1.8C133.8,209.6,134.6,208.8,134.6,206.5
	L134.6,206.5z M129.5,210.6v-9.2h2.9c2,0,3.3,1.1,3.3,4.1v1c0,3-1.3,4.1-3.3,4.1H129.5z"/>
<polygon id="Fill-63" class="st9" points="145.7,201.4 145.7,202.5 141.3,202.5 141.3,205.3 145.3,205.3 145.3,206.4 141.3,206.4 
	141.3,209.6 145.7,209.6 145.7,210.6 140.1,210.6 140.1,201.4 "/>
<g id="Group-67" transform="translate(73.829508, 0.000000)">
	<g id="Fill-65-Clipped">
		<g id="path-19_2_">
		</g>
		<defs>
			<filter id="Adobe_OpacityMaskFilter_3_" filterUnits="userSpaceOnUse" x="81.6" y="201.3" width="6.3" height="9.4">
				<feColorMatrix  type="matrix" values="1 0 0 0 0  0 1 0 0 0  0 0 1 0 0  0 0 0 1 0"/>
			</filter>
		</defs>
		<mask maskUnits="userSpaceOnUse" x="81.6" y="201.3" width="6.3" height="9.4" id="mask-22_1_">
			<g class="st16">
				<polygon id="path-21_1_" class="st7" points="81.6,201.3 87.9,201.3 87.9,210.7 81.6,210.7 				"/>
			</g>
		</mask>
		<path id="Fill-65" class="st17" d="M86.8,203.5c-0.5-0.6-1-1.1-2.2-1.1c-1.1,0-1.8,0.5-1.8,1.4c0,1.1,0.8,1.5,2.2,1.7
			c1.8,0.3,2.8,0.9,2.8,2.6c0,1.2-0.8,2.6-3.1,2.6c-1.5,0-2.6-0.5-3.3-1.5l0.9-0.6c0.6,0.7,1.1,1.1,2.3,1.1c1.5,0,1.9-0.7,1.9-1.5
			c0-0.9-0.4-1.4-2.2-1.7c-1.7-0.3-2.8-1.1-2.8-2.7c0-1.3,0.9-2.5,3-2.5c1.5,0,2.4,0.5,3,1.5L86.8,203.5z"/>
	</g>
</g>
<path id="Fill-68" class="st9" d="M172.8,201.4v5.4c0,2.7-1.3,3.8-3.3,3.8c-2,0-3.3-1.1-3.3-3.8v-5.4h1.1v5.4c0,2,0.8,2.8,2.2,2.8
	c1.4,0,2.2-0.8,2.2-2.8v-5.4H172.8z"/>
<g id="Group-72" transform="translate(95.915259, 0.000000)">
	<g id="Fill-70-Clipped">
		<g id="path-21_2_">
		</g>
		<defs>
			<filter id="Adobe_OpacityMaskFilter_4_" filterUnits="userSpaceOnUse" x="81.2" y="201.3" width="6.3" height="9.4">
				<feColorMatrix  type="matrix" values="1 0 0 0 0  0 1 0 0 0  0 0 1 0 0  0 0 0 1 0"/>
			</filter>
		</defs>
		<mask maskUnits="userSpaceOnUse" x="81.2" y="201.3" width="6.3" height="9.4" id="mask-24_1_">
			<g class="st18">
				<polygon id="path-23_1_" class="st7" points="81.2,201.3 87.6,201.3 87.6,210.7 81.2,210.7 				"/>
			</g>
		</mask>
		<path id="Fill-70" class="st19" d="M86.5,203.5c-0.5-0.6-1-1.1-2.2-1.1c-1.1,0-1.8,0.5-1.8,1.4c0,1.1,0.8,1.5,2.2,1.7
			c1.8,0.3,2.8,0.9,2.8,2.6c0,1.2-0.8,2.6-3.1,2.6c-1.5,0-2.6-0.5-3.3-1.5l0.9-0.6c0.6,0.7,1.1,1.1,2.3,1.1c1.5,0,1.9-0.7,1.9-1.5
			c0-0.9-0.4-1.4-2.2-1.7c-1.7-0.3-2.8-1.1-2.8-2.7c0-1.3,0.9-2.5,3-2.5c1.5,0,2.4,0.5,3,1.5L86.5,203.5z"/>
	</g>
</g>
<path id="Fill-73" class="st9" d="M192.9,204.3c-0.3-1.4-1-1.9-2.2-1.9c-1.4,0-2.2,0.9-2.2,3.1v1c0,2.3,0.8,3.1,2.2,3.1
	c1.2,0,1.9-0.6,2.2-1.9h1.1c-0.3,2.1-1.5,3-3.3,3c-2,0-3.3-1.2-3.3-4.2v-1c0-3,1.3-4.2,3.3-4.2c1.8,0,3,1,3.3,3H192.9z"/>
<path id="Fill-75" class="st9" d="M201.1,205.7c1.6,0,2.2-0.5,2.2-1.6c0-1.1-0.6-1.6-2.2-1.6h-1.8v3.2H201.1z M203.4,210.6l-1.9-3.9
	h-2.2v3.9h-1.1v-9.2h2.9c2.1,0,3.3,0.9,3.3,2.7c0,1.3-0.6,2.1-1.8,2.4l2,4.1H203.4z"/>
<g id="Fill-77-Clipped">
	<g id="path-23_2_">
	</g>
	<defs>
		<filter id="Adobe_OpacityMaskFilter_5_" filterUnits="userSpaceOnUse" x="209" y="201.4" width="1.1" height="9.2">
			<feColorMatrix  type="matrix" values="1 0 0 0 0  0 1 0 0 0  0 0 1 0 0  0 0 0 1 0"/>
		</filter>
	</defs>
	<mask maskUnits="userSpaceOnUse" x="209" y="201.4" width="1.1" height="9.2" id="mask-26_1_">
		<g class="st20">
			<polygon id="path-25_1_" class="st7" points="81.1,278 273,278 273,201.3 81.1,201.3 			"/>
		</g>
	</mask>
	<polygon id="Fill-77" class="st21" points="209,210.6 210.1,210.6 210.1,201.4 209,201.4 	"/>
</g>
<g id="Fill-79-Clipped">
	<g id="path-23_3_">
	</g>
	<defs>
		<filter id="Adobe_OpacityMaskFilter_6_" filterUnits="userSpaceOnUse" x="215.2" y="201.4" width="6.2" height="9.2">
			<feColorMatrix  type="matrix" values="1 0 0 0 0  0 1 0 0 0  0 0 1 0 0  0 0 0 1 0"/>
		</filter>
	</defs>
	<mask maskUnits="userSpaceOnUse" x="215.2" y="201.4" width="6.2" height="9.2" id="mask-28_1_">
		<g class="st22">
			<polygon id="path-27_1_" class="st7" points="81.1,278 273,278 273,201.3 81.1,201.3 			"/>
		</g>
	</mask>
	<path id="Fill-79" class="st23" d="M218.1,206.1c1.6,0,2.2-0.7,2.2-1.8c0-1.1-0.6-1.8-2.2-1.8h-1.8v3.6H218.1z M216.3,207.1v3.5
		h-1.1v-9.2h2.9c2.1,0,3.3,1.1,3.3,2.8c0,1.8-1.2,2.8-3.3,2.8H216.3z"/>
</g>
<g id="Fill-80-Clipped">
	<g id="path-23_4_">
	</g>
	<defs>
		<filter id="Adobe_OpacityMaskFilter_7_" filterUnits="userSpaceOnUse" x="224.5" y="201.4" width="6.7" height="9.2">
			<feColorMatrix  type="matrix" values="1 0 0 0 0  0 1 0 0 0  0 0 1 0 0  0 0 0 1 0"/>
		</filter>
	</defs>
	<mask maskUnits="userSpaceOnUse" x="224.5" y="201.4" width="6.7" height="9.2" id="mask-30_1_">
		<g class="st24">
			<polygon id="path-29_1_" class="st7" points="81.1,278 273,278 273,201.3 81.1,201.3 			"/>
		</g>
	</mask>
	<polygon id="Fill-80" class="st25" points="231.3,201.4 231.3,202.5 228.5,202.5 228.5,210.6 227.3,210.6 227.3,202.5 224.5,202.5 
		224.5,201.4 	"/>
</g>
<g id="Fill-81-Clipped">
	<g id="path-23_5_">
	</g>
	<defs>
		<filter id="Adobe_OpacityMaskFilter_8_" filterUnits="userSpaceOnUse" x="234.6" y="201.3" width="6.6" height="9.4">
			<feColorMatrix  type="matrix" values="1 0 0 0 0  0 1 0 0 0  0 0 1 0 0  0 0 0 1 0"/>
		</filter>
	</defs>
	<mask maskUnits="userSpaceOnUse" x="234.6" y="201.3" width="6.6" height="9.4" id="mask-32_1_">
		<g class="st26">
			<polygon id="path-31_1_" class="st7" points="81.1,278 273,278 273,201.3 81.1,201.3 			"/>
		</g>
	</mask>
	<path id="Fill-81" class="st27" d="M235.8,206.5c0,2.3,0.8,3.1,2.2,3.1c1.4,0,2.2-0.9,2.2-3.1v-1c0-2.3-0.8-3.1-2.2-3.1
		c-1.4,0-2.2,0.9-2.2,3.1V206.5z M237.9,210.7c-2,0-3.3-1.2-3.3-4.2v-1c0-3,1.3-4.2,3.3-4.2s3.3,1.2,3.3,4.2v1
		C241.3,209.5,240,210.7,237.9,210.7L237.9,210.7z"/>
</g>
<g id="Fill-82-Clipped">
	<g id="path-23_6_">
	</g>
	<defs>
		<filter id="Adobe_OpacityMaskFilter_9_" filterUnits="userSpaceOnUse" x="245.7" y="201.4" width="6.5" height="9.2">
			<feColorMatrix  type="matrix" values="1 0 0 0 0  0 1 0 0 0  0 0 1 0 0  0 0 0 1 0"/>
		</filter>
	</defs>
	<mask maskUnits="userSpaceOnUse" x="245.7" y="201.4" width="6.5" height="9.2" id="mask-34_1_">
		<g class="st28">
			<polygon id="path-33_1_" class="st7" points="81.1,278 273,278 273,201.3 81.1,201.3 			"/>
		</g>
	</mask>
	<path id="Fill-82" class="st29" d="M248.6,205.7c1.6,0,2.2-0.5,2.2-1.6c0-1.1-0.6-1.6-2.2-1.6h-1.8v3.2H248.6z M250.9,210.6
		l-1.9-3.9h-2.2v3.9h-1.1v-9.2h2.9c2.1,0,3.3,0.9,3.3,2.7c0,1.3-0.6,2.1-1.8,2.4l2,4.1H250.9z"/>
</g>
<g id="Fill-83-Clipped">
	<g id="path-23_7_">
	</g>
	<defs>
		<filter id="Adobe_OpacityMaskFilter_10_" filterUnits="userSpaceOnUse" x="256.3" y="201.4" width="5.5" height="9.2">
			<feColorMatrix  type="matrix" values="1 0 0 0 0  0 1 0 0 0  0 0 1 0 0  0 0 0 1 0"/>
		</filter>
	</defs>
	<mask maskUnits="userSpaceOnUse" x="256.3" y="201.4" width="5.5" height="9.2" id="mask-36_1_">
		<g class="st30">
			<polygon id="path-35_1_" class="st7" points="81.1,278 273,278 273,201.3 81.1,201.3 			"/>
		</g>
	</mask>
	<polygon id="Fill-83" class="st31" points="261.9,201.4 261.9,202.5 257.5,202.5 257.5,205.3 261.5,205.3 261.5,206.4 257.5,206.4 
		257.5,209.6 261.9,209.6 261.9,210.6 256.3,210.6 256.3,201.4 	"/>
</g>
<g id="Fill-84-Clipped">
	<g id="path-23_8_">
	</g>
	<defs>
		<filter id="Adobe_OpacityMaskFilter_11_" filterUnits="userSpaceOnUse" x="265.6" y="201.3" width="6.3" height="9.4">
			<feColorMatrix  type="matrix" values="1 0 0 0 0  0 1 0 0 0  0 0 1 0 0  0 0 0 1 0"/>
		</filter>
	</defs>
	<mask maskUnits="userSpaceOnUse" x="265.6" y="201.3" width="6.3" height="9.4" id="mask-38_1_">
		<g class="st32">
			<polygon id="path-37_1_" class="st7" points="81.1,278 273,278 273,201.3 81.1,201.3 			"/>
		</g>
	</mask>
	<path id="Fill-84" class="st33" d="M270.9,203.5c-0.5-0.6-1-1.1-2.2-1.1c-1.1,0-1.8,0.5-1.8,1.4c0,1.1,0.8,1.5,2.2,1.7
		c1.8,0.3,2.8,0.9,2.8,2.6c0,1.2-0.8,2.6-3.1,2.6c-1.5,0-2.6-0.5-3.3-1.5l0.9-0.6c0.6,0.7,1.1,1.1,2.3,1.1c1.5,0,1.9-0.7,1.9-1.5
		c0-0.9-0.4-1.4-2.2-1.7c-1.7-0.3-2.8-1.1-2.8-2.7c0-1.3,0.9-2.5,3-2.5c1.5,0,2.4,0.5,3,1.5L270.9,203.5z"/>
</g>
<g id="icono-hamburguesa" transform="translate(95.000000, 1.000000)">
	<path id="Rectangle-3" class="st34" d="M2,0h14c0.6,0,1,0.4,1,1l0,0c0,0.6-0.4,1-1,1H2C1.4,2,1,1.6,1,1l0,0C1,0.4,1.4,0,2,0z"/>
	<path id="Rectangle-3-Copy" class="st34" d="M2,8h14c0.6,0,1,0.4,1,1l0,0c0,0.6-0.4,1-1,1H2c-0.6,0-1-0.4-1-1l0,0C1,8.4,1.4,8,2,8z
		"/>
	<path id="Rectangle-3-Copy-2" class="st34" d="M2,16h14c0.6,0,1,0.4,1,1l0,0c0,0.6-0.4,1-1,1H2c-0.6,0-1-0.4-1-1l0,0
		C1,16.4,1.4,16,2,16z"/>
</g>
<g id="icono-user" transform="translate(133.000000, 1.000000)">
	<circle id="Oval_1_" class="st35" cx="7.5" cy="2.5" r="2.5"/>
	<path id="path2385" class="st36" d="M1,13.4h13 M1,13.4c0-0.2,0-0.3,0-0.5C1,9.7,3.9,7,7.5,7c1.7,0,3.4,0.6,4.6,1.7
		s1.9,2.6,1.9,4.2l0,0c0,0.2,0,0.3,0,0.5"/>
</g>
<g id="flechas-boton-socio" transform="translate(67.000000, 20.000000)">
	<path id="Shape_2_" d="M11.3,8.2c0,0.9-0.6,1-0.7,1H2.2L4,7.5L3.5,7L1.1,9.3C1,9.4,1,9.6,1.1,9.7L3.5,12L4,11.5L2.2,9.8h8.5
		c0.5,0,1.4-0.3,1.4-1.6v-1h-0.7V8.2z"/>
	<path id="Shape_3_" d="M1.7,3.8c0-0.9,0.6-1,0.7-1h8.5L9,4.5L9.5,5l2.4-2.3c0.1-0.1,0.1-0.3,0-0.5L9.5,0L9,0.5l1.8,1.7H2.4
		C1.9,2.2,1,2.5,1,3.8v1h0.7V3.8z"/>
</g>
<g id="entretenimiento" transform="translate(229.000000, 1.000000)">
	<path id="Stroke-26" class="st37" d="M21.5,12.1V9.5c0-0.6-0.4-1.1-1-1.1H3.2c-0.5,0-1,0.5-1,1.1v2.6c0.7,0,1.3,0.6,1.3,1.4
		c0,0.7-0.6,1.4-1.3,1.4v2.6c0,0.6,0.4,1.1,1,1.1h17.3c0.5,0,1-0.5,1-1.1v-2.6c-0.7,0-1.3-0.6-1.3-1.4
		C20.2,12.7,20.8,12.1,21.5,12.1z"/>
	<path id="Stroke-30" class="st37" d="M20.9,8.5c0.3-0.3,0.3-0.7,0.2-1.1l-1-2.2c-0.6,0.3-1.3,0-1.6-0.7c-0.3-0.6,0-1.4,0.6-1.7
		l-1-2.2c-0.2-0.5-0.8-0.7-1.3-0.5L1.6,7C1.1,7.2,0.9,7.8,1.1,8.3L2.2,11"/>
	<polygon id="Stroke-34" class="st37" points="10.5,10.2 11.3,12 13.2,12.3 11.9,13.7 12.2,15.7 10.5,14.8 8.8,15.7 9.1,13.7 
		7.7,12.3 9.6,12 	"/>
	<path id="Path-8" class="st38" d="M17.4,8.4v10.1"/>
	<path id="Path-8-Copy" class="st38" d="M14.6,2l2.8,6.4"/>
</g>
<g id="Group-9" transform="translate(596.000000, 1.000000)">
	<g id="facebook">
		<path id="Combined-Shape_1_" class="st39" d="M2.2,0h15.6C18.5,0,19,0.5,19,1.2v15.6c0,0.7-0.5,1.2-1.2,1.2h-4.2
			c-0.2,0-0.3-0.1-0.3-0.3v-6.4c0-0.2,0.1-0.3,0.3-0.3h1.8c0.2,0,0.3-0.1,0.3-0.3l0.2-2c0-0.2-0.1-0.3-0.3-0.3c0,0,0,0,0,0h-2
			c-0.2,0-0.3-0.1-0.3-0.3V5.6c0-0.2,0.1-0.3,0.3-0.3h2.1C15.8,5.3,16,5.1,16,5V3.2c0-0.2-0.1-0.3-0.3-0.3h-2.3
			c-1.4,0-2.6,1.2-2.6,2.6V6v2.1c0,0.2-0.1,0.3-0.3,0.3h-2c-0.2,0-0.3,0.1-0.3,0.3v2c0,0.2,0.1,0.3,0.3,0.3h2c0.2,0,0.3,0.1,0.3,0.3
			v6.4c0,0.2-0.1,0.3-0.3,0.3H2.2C1.5,18,1,17.5,1,16.8V1.2C1,0.5,1.5,0,2.2,0z"/>
	</g>
	<g id="twiter" transform="translate(0.000000, 36.000000)">
		<path id="Path-17_1_" class="st39" d="M11.7,5.3c0.4,0-0.4-2.9,2.2-4.6c1.7-1.2,3.9-0.9,6.4,0.6c1.6-0.4,2.6-0.8,3-1.1
			c0.6-0.5-0.9,1.9-1.7,2.5c-0.9,0.6,2.8-1.1,2.4-0.5c-0.4,0.6-2,2.2-2.4,2.5s0.7,5.7-4,9.7S7.8,18.2,5,17.7s-4-1.7-4-2
			c0-0.1,0.7,0.1,3.1,0s5.3-1.8,3.7-1.5s-3.7-0.9-4.1-2.5C3.5,10.7,4.1,11,5,11.1c0.7,0.1,1.4,0.1,0.3-0.3c-1.7-0.6-2.6-1.5-3.1-3.4
			C2,6.5,2.2,6.7,2.9,6.9c0.8,0.3,2.4,0.7,0.8-0.3C1.4,5.1,2.2,0.7,2.9,1.3s3,3.2,5.6,3.7S11.3,5.3,11.7,5.3z"/>
	</g>
	<g id="instagram" transform="translate(0.000000, 72.000000)">
		<path id="Rectangle_3_" class="st39" d="M6.2,0.4h7.5c2.7,0,4.8,2.1,4.8,4.8v7.5c0,2.7-2.1,4.8-4.8,4.8H6.2
			c-2.7,0-4.8-2.1-4.8-4.8V5.2C1.5,2.6,3.6,0.4,6.2,0.4z"/>
		<circle id="Oval_3_" class="st40" cx="10" cy="9" r="3.8"/>
		<circle id="Oval-Copy_1_" class="st40" cx="14.9" cy="4.1" r="1.2"/>
	</g>
</g>
<g id="gastronomia" transform="translate(272.000000, 1.000000)">
	<path id="Stroke-7" class="st41" d="M5.2,18c1.2,0,5.8-2,1.7-8.3C6.6,9.3,7.2,6.9,8.3,6c1.1-0.9,1-3.6-0.4-5.5C7.7,0.2,7-0.4,7,0.5
		C7.1,1.4,7.1,4,7.1,4s0,0.3-0.6,0.3C5.8,4.3,5.8,4,5.8,4S5.7,0.8,5.7,0.5C5.7,0.2,5.3,0,4.9,0l0,0C4.6,0,4.2,0.3,4.2,0.5
		c0,0.3,0,3.5,0,3.5s0,0.3-0.7,0.3C2.9,4.3,2.9,4,2.9,4S2.9,1.4,2.8,0.5c0-0.9-0.6-0.2-0.8,0C0.7,2.5,0.7,5.2,1.8,6
		C3,6.9,3.6,9.3,3.3,9.7C-0.5,16.1,4.1,18,5.2,18L5.2,18z"/>
	<path id="Stroke-9" class="st41" d="M18.3,6.6c1.1-0.9,1.4-3.2-2.9-6.2c-0.2-0.2-2.5-0.8-2.5,0l0.2,9.6c0,0,0,2.8-0.5,3.4
		c-0.5,0.7-1.9,4.5,2.7,4.5c1.2,0,5.7-1.9,1.7-7.9C16.7,9.7,17.2,7.4,18.3,6.6z"/>
</g>
<g id="hogar-y-servicios" transform="translate(303.000000, 1.000000)">
	<polygon id="Stroke-25-Copy-3" class="st41" points="16.5,6.5 16.5,0.8 13.3,0.8 13.3,3.3 10,0 1,9 2.6,9 2.6,18 7.5,18 7.5,10.6 
		12.5,10.6 12.5,18 17.4,18 17.4,9 19,9 	"/>
</g>
<g id="ICONO_BUSCADOR" transform="translate(494.000000, 0.000000)">
	<polygon id="Clip-2_1_" class="st2" points="1,0 20,0 20,17.3 1,18 	"/>
	<path id="Fill-1_2_" class="st34" d="M9.3,9.8c-2-0.1-3.6-1.6-3.8-3.4c-0.1-1.1,0.3-2.2,1.2-3c0.8-0.7,1.8-1.1,2.9-1.1
		c0.1,0,0.2,0,0.3,0c2,0.1,3.6,1.6,3.8,3.4c0.1,1.1-0.3,2.2-1.2,3C11.7,9.5,10.5,9.9,9.3,9.8L9.3,9.8z M14.6,10.1
		c0.9-0.9,1.6-2.1,1.7-3.4c0.2-1.8-0.5-3.6-1.9-4.9C12.9,0.5,11-0.2,8.9,0C5.8,0.3,3.4,2.6,3,5.4C2.8,7.2,3.5,9,5,10.3
		c1.3,1.1,2.9,1.8,4.7,1.8c0.2,0,0.5,0,0.7,0c0.8-0.1,1.5-0.3,2.2-0.6l4.2,5.1c0.2,0.3,0.6,0.5,1,0.5c0.3,0,0.5-0.1,0.7-0.2
		c0.3-0.2,0.4-0.4,0.5-0.7c0-0.3,0-0.6-0.2-0.8L14.6,10.1z"/>
</g>
<g id="FLECHA_ACERCA_DEL_CLUB" transform="translate(535.000000, 1.000000)">
	
		<g id="Group-3-Copy-22" transform="translate(6.500000, 5.000000) rotate(92.000000) translate(-6.500000, -5.000000) translate(2.000000, -1.000000)">
		<polygon id="Clip-2_2_" class="st2" points="1,0 8,0 8,10 1,10 		"/>
		<path id="Fill-1_3_" class="st42" d="M1.4,9.1l4.5-3.8c0.2-0.2,0.2-0.5,0-0.6L1,1.3C0.7,1.1,0.7,0.7,0.9,0.4
			c0.2-0.3,0.6-0.3,0.9-0.1l5.9,4.1C8,4.6,8.1,5,7.7,5.3L2.3,10c-0.3,0.2-0.7,0.2-0.9,0C1.1,9.7,1.1,9.3,1.4,9.1z"/>
	</g>
</g>
<g id="salud-y-bienestar" transform="translate(338.000000, 1.000000)">
	<path id="Stroke-24" class="st41" d="M17,1.1c-1.7-1.5-4.3-1.6-6.9,0.7h0C2.7-4.8-6,8.1,10.1,18h0c3.2-2.1,5.3-4.3,6.7-6.5L17,1.1z
		"/>
	<polygon id="Stroke-23" class="st43" points="21,5 18,5 18,2 15,2 15,5 12,5 12,8 15,8 15,11 18,11 18,8 21,8 	"/>
</g>
<g id="turismo" transform="translate(372.000000, 1.000000)">
	<path id="Stroke-22-Copy-3" class="st44" d="M12.5,6.3H13c0.4,0,0.6-0.2,0.6-0.5c0-0.4-0.4-0.6-1.1-0.6h-0.8l-1.2-1.5h0.6
		c0.4,0,0.6-0.2,0.6-0.5c0-0.4-0.3-0.6-0.8-0.6H9.7C8.4,0.9,7.6,0,7.2,0C7.1,0,6.9,0.1,6.7,0.2C6.5,0.3,6.4,0.5,6.4,0.6
		c0,0.1,0.2,0.5,0.6,1.1c0.4,0.6,1,1.7,1.7,3.4c0.8,1.7,1.1,2.7,1.1,3c0,0.2-0.3,0.3-1,0.4C6.6,8.5,5,8.6,4.1,8.8
		C4,8.7,3.7,8.4,3.2,7.7c-0.4-0.6-0.7-1-0.9-1.1C2.2,6.6,1.9,6.5,1.5,6.5c-0.2,0-0.4,0-0.5,0.1c0,0.3,0.3,1.2,1,2.9
		C1.3,11,1,12,1,12.4c0.1,0.1,0.2,0.1,0.5,0.1c0.4,0,0.7-0.1,0.9-0.2c0.2-0.1,0.5-0.5,0.9-1.1c0.4-0.6,0.7-1,0.8-1.1
		c1,0.2,2.1,0.3,3.4,0.3c1.3,0,2,0.1,2.2,0.1c0.2,0.1,0.3,0.2,0.3,0.3c0,0.3-0.4,1.3-1.1,3C8,15.5,7.4,16.7,7,17.3
		c-0.4,0.6-0.6,1-0.6,1.1c0,0.1,0.1,0.3,0.3,0.4C6.9,18.9,7.1,19,7.2,19c0.3,0,1.2-0.9,2.5-2.6h1.1c0.5,0,0.8-0.2,0.8-0.6
		c0-0.3-0.2-0.5-0.6-0.5h-0.6l1.2-1.5h0.8c0.7,0,1.1-0.2,1.1-0.6c0-0.3-0.2-0.5-0.6-0.5h-0.5l1.9-2.2h2.5c2.1,0,3.1-0.3,3.1-1
		c0-0.3-0.4-0.5-1.3-0.7c-0.8-0.2-1.5-0.3-1.9-0.3h-2.5L12.5,6.3z"/>
</g>
<g id="ropa-y-accesorios" transform="translate(408.000000, 1.000000)">
	<polyline id="Stroke-20" class="st41" points="12.3,7 1,17 23,17 12.6,7.1 	"/>
	<path id="Stroke-21" class="st41" d="M9.2,2.5c0-1.4,1.3-2.5,2.4-2.5C12.7,0,14,1.1,14,2.5c0,0-0.1,2.5-1.8,4.5"/>
</g>
<g id="HAMBURGUESA_HEADER" transform="translate(596.000000, 134.000000)">
	<path id="Path-11" class="st45" d="M1,1.5h16"/>
	<path id="Path-11-Copy" class="st45" d="M1,9h16"/>
	<path id="Path-11-Copy-3" class="st45" d="M1,16.5h16"/>
</g>
<path class="st46" d="M487.2,135.6c3.6,0,7.2,0,10.8,0c0.3,0,0.7,0,1,0c0.1,0,0.4-0.1,0.5,0c0.1,0.1,0,0.5,0,0.6c0,0.6,0,1.2,0,1.7
	c0,0.1,0.1,0.7,0,0.8c-0.1,0.1-0.5,0-0.6,0c-1,0-2.1,0-3.1,0c-1,0-2,0-3.1,0c-0.1,0-0.6-0.1-0.6,0c-0.1,0.1,0,0.5,0,0.6
	c0,1.1,0,2.1,0,3.2c0,0.3-0.1,0.2,0.1,0.3c0.3,0.1,0.8,0,1.1,0c1.1,0,2.2,0,3.4,0c0.1,0,0.7-0.1,0.8,0c0.1,0.1,0,0.7,0,0.8
	c0,0.5,0,1.1,0,1.6c0,0.3,0,0.2-0.2,0.3c-0.4,0.1-0.9,0-1.3,0c-0.6,0-1.2,0-1.7,0c-0.5,0-1,0-1.6,0c-0.1,0-0.6-0.1-0.7,0
	c-0.1,0.1,0,1.1,0,1.3c0,2.2,0,4.4,0,6.5c0,0.9,0,1.7,0,2.6c0,0.4-0.1,0.5,0.3,0.5c2,0,4,0,6.1,0c0.2,0,0.7-0.1,0.9,0
	c0.2,0.1,0.1,0.1,0.1,0.4c0,0.6,0,1.1,0,1.7c0,0.1,0.1,0.7,0,0.8c0,0-0.4,0-0.4,0c-0.3,0-0.7,0-1,0c-1,0-2,0-3,0c-2.2,0-4.4,0-6.6,0
	c-0.2,0-1.2,0.1-1.3,0c-0.1-0.1,0-0.5,0-0.6c0-3.7,0-7.5,0-11.2c0-3.8,0-7.5,0-11.3C487.2,136,487.2,135.8,487.2,135.6z"/>
<path class="st46" d="M462.8,135.6c2.4,0,4.8,0,7.2,0c1.7,0,3.5,0,5.2,0c0.7,0,1.3,0,2,0c0.3,0,0.8-0.1,1.1,0
	c0.3,0.1,0.1,0.8,0.1,1.1c0,0.7,0,1.5,0,2.2c-1.7,0-3.3,0-5,0c0,3.7,0,7.3,0,11c0,2.4,0,4.8,0,7.1c0,0.7,0,1.3,0,2
	c0,0.5,0,0.4-0.4,0.4c-1.2,0-2.4,0-3.6,0c-0.2,0-1,0.1-1.2,0c-0.1-0.1,0,0-0.1-0.1c-0.1-0.4,0-1.2,0-1.6c0-1,0-1.9,0-2.9
	c0-4.8,0-9.6,0-14.3c0-0.3,0-0.6,0-1c0-0.1,0.1-0.4,0-0.6c-0.1-0.3-1.1-0.1-1.4-0.1c-1.2,0-2.3,0-3.5,0c-0.3,0-0.3,0.1-0.3-0.2
	c-0.1-0.5,0-1.2,0-1.7C462.8,136.4,462.8,136,462.8,135.6z"/>
<path class="st46" d="M444.4,135.6c1.3,0,2.7,0,4,0c0.2,0,0.9-0.1,1,0c0.1,0.1,0,0.5,0,0.6c0,2.6,0,5.2,0,7.8c0,3.3,0,6.5,0,9.8
	c0,0.9-0.1,1.7,0,2.6c0,0.2,0,0.2,0.1,0.2c0.1,0.1,0.4,0,0.5,0c0.3,0,0.6,0,0.9,0c1.6,0,3.2,0,4.8,0c0.2,0,0.7-0.1,0.8,0.1
	c0.1,0.1,0,0.6,0,0.8c0,0.5,0,0.9,0,1.4c0,0.1,0.1,0.6,0,0.6c0,0-0.1,0-0.2,0c-0.4,0.1-0.9,0-1.3,0c-1.6,0-3.1,0-4.7,0
	c-1.6,0-3.1,0-4.7,0c-0.3,0-0.9,0.1-1.2,0c-0.2-0.1,0,0.1-0.1-0.1c-0.1-0.2,0-0.6,0-0.8c0-0.5,0-0.9,0-1.4c0-1.3,0-2.7,0-4
	c0-5.7,0-11.4,0-17.2C444.4,135.8,444.4,135.7,444.4,135.6z"/>
<path class="st46" d="M429.7,135.6c3.6,0,7.2,0,10.7,0c0.3,0,0.7,0,1,0c0.1,0,0.4-0.1,0.5,0c0.1,0.1,0,0.4,0,0.5c0,0.6,0,1.1,0,1.7
	c0,0.1,0.1,0.8,0,0.9c-0.1,0.1-0.5,0-0.6,0c-1,0-2,0-3,0c-1,0-2.1,0-3.1,0c-0.1,0-0.6-0.1-0.6,0c-0.1,0.1,0,0.6,0,0.7
	c0,0.6,0,1.1,0,1.7c0,0.4-0.1,1,0,1.4c0,0.3-0.1,0.2,0.2,0.2c0.4,0.1,0.8,0,1.2,0c1.1,0,2.2,0,3.3,0c0.1,0,0.6-0.1,0.7,0
	c0.1,0.1,0,0.9,0,1.1c0,0.5,0.1,1.1,0,1.6c-0.1,0.3,0,0.2-0.3,0.2c-1,0.1-2,0-3,0c-0.5,0-1,0-1.5,0c-0.1,0-0.5-0.1-0.6,0
	c-0.1,0.1,0,1.2,0,1.4c0,2.2,0,4.4,0,6.6c0,0.8,0,1.7,0,2.5c0,0.5-0.1,0.5,0.4,0.5c2,0,4.1,0,6.1,0c0.2,0,0.7-0.1,0.8,0
	c0.1,0.1,0.1,0.4,0.1,0.6c0,0.6,0,1.1,0,1.7c0,0.1,0.1,0.5,0,0.5c-0.1,0.1-0.4,0-0.5,0c-0.3,0-0.7,0-1,0c-1,0-2,0-3.1,0
	c-2.1,0-4.3,0-6.4,0c-0.2,0-1.1,0.1-1.2,0c-0.1-0.1,0-0.6,0-0.7c0-3.8,0-7.5,0-11.3c0-3.7,0-7.5,0-11.2
	C429.7,136,429.7,135.8,429.7,135.6z"/>
<path class="st46" d="M535.8,136.8c-2-1.7-4.8-1.2-7.2-1.2c-1.5,0-3,0-4.4,0c-0.5,0-1,0-1.4,0c-0.1,0-0.3,0-0.3,0c0,0.1,0,0.4,0,0.4
	c0,0.3,0,0.7,0,1c0,1,0,2.1,0,3.1c0,3,0,5.9,0,8.9c0,2.7,0,5.3,0,8c0,0.7,0,1.4,0,2.1c0,0,0,0.2,0,0.3c0.1,0.1,1,0,1.1,0
	c1.4,0,2.7,0.1,4.1,0c0.3,0,0.2,0.1,0.3-0.2c0.1-0.4,0-1,0-1.4c0-2.3,0-4.7,0-7c0.4,0,0.7,0,1.1,0c1.3,0,2.5,0,3.8,0
	c1.5,0,2.9-1,3.8-2.1C539.4,145.4,539.1,139.6,535.8,136.8z M533.9,143.3c-0.1,1.3-0.5,3.1-1.8,3.7c-0.6,0.3-1.5,0.2-2.1,0.2
	c-0.7,0-1.4,0-2.1,0c0-1.5,0-3,0-4.5c0-0.9,0-1.8,0-2.7c0-0.2-0.1-1,0-1.2c0.1-0.1,0.7,0,0.8,0c0.4,0,0.8,0,1.3,0
	c0.9,0,1.6-0.1,2.4,0.5C533.5,140.3,534,141.9,533.9,143.3z"/>
<path class="st46" d="M505.6,159.4c-0.8,0-1.5,0-2.3,0c-0.3,0-0.9,0.1-1-0.1c-0.1-0.2,0-0.7,0-0.9c0-0.6,0-1.2,0-1.8
	c0-3.9,0-7.8,0-11.7c0-3,0-6,0-9c0-0.3-0.1-0.3,0.1-0.3c0.3-0.1,0.9,0,1.2,0c0.5,0,1,0,1.5,0c0.5,0,0.5-0.1,0.7,0.3
	c0.3,0.6,0.5,1.1,0.8,1.7c0.9,1.8,1.7,3.6,2.6,5.4c0.6,1.4,1.2,2.8,1.9,4.1c0,0.1,0.1,0.2,0.1,0.2c0.6-1.7,1.2-3.5,1.9-5.2
	c0.5-1.3,0.9-2.6,1.4-3.9c0.2-0.5,0.4-1,0.5-1.5c0.1-0.3,0.2-0.7,0.3-0.9c0.1-0.2,0-0.1,0.3-0.2c0.5-0.1,1.1,0,1.6,0
	c0.7,0,1.4,0,2.1,0c0.2,0,1.1-0.1,1.2,0c0.1,0.1,0,0.7,0,0.8c0,0.8,0,1.7,0,2.5c0,5.3,0,10.7,0,16c0,1,0,1.9,0,2.9c0,0.3,0,0.6,0,1
	c0,0.1,0.1,0.4,0,0.5c-0.1,0.2-1.4,0.1-1.7,0.1c-0.7,0-1.4,0-2.1,0c-0.3,0-0.6,0-0.8,0c-0.2,0-0.5,0.1-0.6,0c-0.2-0.1-0.1,0-0.1-0.2
	c-0.1-0.3,0-0.7,0-1c0-1.2,0-2.4,0-3.7c0-2.4,0-4.8,0-7.2c0-0.2,0-0.3,0-0.5c-1.3,3.7-2.5,7.4-3.8,11.1c-0.1,0.3-0.2,0.7-0.3,1
	c0,0.1-0.1,0.4-0.2,0.5c-0.1,0.1-0.6,0.1-0.7,0c-0.1-0.1-0.1-0.4-0.2-0.5c-0.8-2-1.5-4-2.3-6.1c-0.7-1.7-1.3-3.5-2-5.2
	c0,3.4,0,6.9,0,10.3C505.6,158.4,505.6,158.9,505.6,159.4z"/>
<path class="st46" d="M480,135.6c1,0,2,0,3,0c0.3,0,1.8-0.2,1.9,0.1c0.1,0.3,0,1,0,1.3c0,0.9,0,1.8,0,2.7c0,5.2,0,10.4,0,15.6
	c0,0.9,0,1.8,0,2.7c0,0.3,0.1,1.1,0,1.3c-0.2,0.2-1.7,0.1-2,0.1c-0.6,0-1.3,0-1.9,0c-0.1,0-0.9,0.1-1,0c-0.1-0.1,0-0.8,0-0.9
	c0-0.8,0-1.6,0-2.4c0-2.5,0-5,0-7.5c0-4.2,0-8.5,0-12.7C480,135.7,480,135.6,480,135.6z"/>
<path class="st47" d="M482.1,166.8c-0.9,2.5-1.9,5-2.8,7.5c-0.8-2.2-1.6-4.5-2.5-6.7c-0.1-0.3-0.2-0.6-0.3-0.8
	c-0.5-1.1-2-1.2-2.5-0.1c-0.4,0.9,0.4,2.3,0.8,3.1c0.9,2.2,1.7,4.5,2.7,6.7c0.7,1.5,2.5,1.9,3.5,0.4c0.5-0.7,0.7-1.5,1-2.3
	c0.7-1.8,1.5-3.6,2.2-5.5c0.3-0.7,0.8-1.6,0.6-2.3C484.3,165.5,482.5,165.5,482.1,166.8"/>
<g>
	<defs>
		<path id="SVGID_1_" d="M486.7,167.2c0,3-0.1,6.1,0,9.1c0,1.3,1.8,2.1,2.6,0.8c0.4-0.7,0.2-2,0.2-2.8c0-1.5,0-3,0-4.4
			c0-0.8,0-1.6,0-2.3c0-0.8-0.2-1.5-1-1.7C487.5,165.6,486.7,166.3,486.7,167.2"/>
	</defs>
	<clipPath id="SVGID_2_">
		<use xlink:href="#SVGID_1_"  style="overflow:visible;"/>
	</clipPath>
	
		<linearGradient id="SVGID_3_" gradientUnits="userSpaceOnUse" x1="3.9359" y1="565.2841" x2="4.3747" y2="565.2841" gradientTransform="matrix(-115.4212 0 0 -115.4212 996.4838 65417.5664)">
		<stop  offset="0" style="stop-color:#6980B4"/>
		<stop  offset="1.838240e-03" style="stop-color:#6980B4"/>
		<stop  offset="0.35" style="stop-color:#8CB358"/>
		<stop  offset="0.6895" style="stop-color:#E6BA53"/>
		<stop  offset="1" style="stop-color:#CD763C"/>
	</linearGradient>
	<path class="st48" d="M489.5,165.8c-0.5,0-1,0-1.4,0c-0.2,0-1.2-0.1-1.3,0c-0.1,0.1,0,0.5,0,0.5c0,0.4,0,0.9,0,1.3
		c0,2.6,0,5.3,0,7.9c0,0.5,0,1,0,1.5c0,0.1-0.1,0.6,0,0.7c0.1,0.1,0.8,0,1,0c0.3,0,0.6,0,0.9,0c0.2,0,0.7,0.1,0.8,0
		c0.2-0.1,0.1-1.2,0.1-1.5c0-1.3,0-2.5,0-3.8C489.5,170.3,489.5,168.1,489.5,165.8z"/>
</g>
<g>
	<defs>
		<path id="SVGID_4_" d="M486.7,162.8c0,1.8,2.8,1.8,2.8,0C489.5,161,486.7,161,486.7,162.8"/>
	</defs>
	<clipPath id="SVGID_5_">
		<use xlink:href="#SVGID_4_"  style="overflow:visible;"/>
	</clipPath>
	
		<linearGradient id="SVGID_6_" gradientUnits="userSpaceOnUse" x1="3.93" y1="565.1744" x2="4.3692" y2="565.1744" gradientTransform="matrix(-115.3439 0 0 -115.3439 995.4971 65352.2578)">
		<stop  offset="0" style="stop-color:#6980B4"/>
		<stop  offset="1.838240e-03" style="stop-color:#6980B4"/>
		<stop  offset="0.35" style="stop-color:#8CB358"/>
		<stop  offset="0.6895" style="stop-color:#E6BA53"/>
		<stop  offset="1" style="stop-color:#CD763C"/>
	</linearGradient>
	<path class="st49" d="M489.5,161.4c-0.8,0-1.6,0-2.4,0c-0.3,0-0.3-0.1-0.3,0.2c-0.1,0.4,0,1,0,1.4c0,0.2-0.1,1,0,1.1
		c0.1,0.1,0.6,0,0.8,0c0.4,0,1.9,0.2,2-0.1c0.1-0.1,0-0.5,0-0.6c0-0.3,0-0.6,0-0.9C489.5,162.2,489.5,161.8,489.5,161.4z"/>
</g>
<g>
	<defs>
		<path id="SVGID_7_" d="M506.2,174.4c-0.1-1.1,0.9-1.5,1.8-1.7c1.1-0.2,2.5-0.1,3.5-0.7c0.2,0.9,0.1,1.9-0.6,2.6
			C510.1,175.5,506.4,176.3,506.2,174.4 M506.1,166.8c-0.9,0.6-0.5,2.1,0.6,2.1c0.5,0,1-0.3,1.4-0.5c0.6-0.3,1.2-0.3,1.8-0.2
			c0.8,0.1,1.7,0.4,1.7,1.3c0,0.3-0.1,0.5-0.3,0.7c-0.6,0.4-1.5,0.4-2.2,0.5c-1.2,0.1-2.5,0.2-3.6,0.7c-1.2,0.5-2.1,1.6-2.1,2.9
			c0,0.8,0.3,1.7,0.9,2.3c1.3,1.4,3.7,1.4,5.4,1c1.9-0.4,3.6-1.6,4.3-3.4c0.5-1.2,0.3-2.5,0.3-3.8c0-0.6,0.1-1.2,0-1.8
			c-0.1-1.1-1-1.9-2-2.3C510.4,165.5,507.8,165.7,506.1,166.8"/>
	</defs>
	<clipPath id="SVGID_8_">
		<use xlink:href="#SVGID_7_"  style="overflow:visible;"/>
	</clipPath>
	
		<linearGradient id="SVGID_9_" gradientUnits="userSpaceOnUse" x1="3.9509" y1="565.275" x2="4.3802" y2="565.275" gradientTransform="matrix(-115.9166 0 0 -115.9166 999.0484 65696.5469)">
		<stop  offset="0" style="stop-color:#6980B4"/>
		<stop  offset="1.838240e-03" style="stop-color:#6980B4"/>
		<stop  offset="0.35" style="stop-color:#8CB358"/>
		<stop  offset="0.6895" style="stop-color:#E6BA53"/>
		<stop  offset="1" style="stop-color:#CD763C"/>
	</linearGradient>
	<path class="st50" d="M514.3,165.8c-3.4,0-6.7,0-10.1,0c-0.2,0-1-0.1-1.1,0c-0.1,0.1,0,1.1,0,1.2c0,2,0,4.1,0,6.1c0,1,0,2,0,3
		c0,0.3,0,0.7,0,1c0,0.1-0.1,0.5,0,0.6c0.1,0.2,0.5,0.1,0.7,0.1c0.8,0,1.7,0,2.5,0c2.1,0,4.2,0,6.3,0c0.3,0,0.7,0,1,0
		c0.1,0,0.5,0.1,0.6,0c0.1-0.1,0-0.6,0-0.7c0-3.6,0-7.3,0-10.9C514.3,166,514.3,165.9,514.3,165.8z"/>
</g>
<g>
	<defs>
		<path id="SVGID_10_" d="M528.9,165.8c-0.9,0-1.8,0.2-2.5,0.6c-0.3,0.2-0.6,0.4-0.9,0.7c-0.2,0.2-0.2,0.3-0.4,0.3
			c-0.2,0-0.4-0.4-0.5-0.5c-1.3-1.1-3.2-1.5-4.9-0.9c-1.7,0.6-3,2-3.4,3.8c-0.2,0.9-0.1,1.8-0.1,2.7c0,1,0,2,0,3
			c0,0.5-0.1,1,0.1,1.5c0.3,0.7,1.2,1,1.8,0.6c1-0.5,0.8-1.5,0.8-2.4c0-1.1,0-2.1,0-3.2c0-1.1,0-2.3,1.1-3.1
			c1.6-1.1,3.7,0.2,3.7,2.1c0,0,0-0.1,0-0.1c-0.1,0.4,0,1,0,1.4c0,0.8,0,1.6,0,2.4c0,1-0.3,2.5,0.9,2.9c0.8,0.3,1.7-0.2,1.8-1
			c0.1-0.3,0-0.6,0-0.9c0-1.5,0-3,0-4.5c0-0.6,0.1-1.2,0.5-1.7c0.7-0.9,2-1.2,3-0.6c1.5,0.8,1.2,2.5,1.2,3.9c0,1.2-0.1,2.4,0,3.6
			c0.1,1.2,1.5,1.9,2.4,1c0.5-0.5,0.4-1.3,0.4-2c0-1.5,0-3,0-4.5C534.1,168.1,531.7,165.8,528.9,165.8z"/>
	</defs>
	<clipPath id="SVGID_11_">
		<use xlink:href="#SVGID_10_"  style="overflow:visible;"/>
	</clipPath>
	
		<linearGradient id="SVGID_12_" gradientUnits="userSpaceOnUse" x1="3.9514" y1="565.2746" x2="4.3798" y2="565.2746" gradientTransform="matrix(-115.8559 0 0 -115.8559 998.6751 65662.2188)">
		<stop  offset="0" style="stop-color:#6980B4"/>
		<stop  offset="1.838240e-03" style="stop-color:#6980B4"/>
		<stop  offset="0.35" style="stop-color:#8CB358"/>
		<stop  offset="0.6895" style="stop-color:#E6BA53"/>
		<stop  offset="1" style="stop-color:#CD763C"/>
	</linearGradient>
	<path class="st51" d="M534.1,165.8c-4.3,0-8.6,0-12.9,0c-1.1,0-2.3,0-3.4,0c-0.3,0-0.7,0-1,0c-0.1,0-0.4-0.1-0.5,0
		c-0.2,0.1,0,1.2,0,1.4c0,1.3,0,2.6,0,3.8c0,1.4,0,2.8,0,4.2c0,0.5,0,1.1,0,1.6c0,0.2-0.1,0.7,0,0.9c0.1,0.2,0.5,0.1,0.8,0.1
		c0.9,0,1.9,0,2.8,0c2.8,0,5.6,0,8.3,0c1.2,0,2.4,0,3.6,0c0.6,0,1.5,0.1,2.1,0c0.1,0,0.2,0,0.2,0c0.1-0.1,0-0.6,0-0.7
		c0-1.1,0-2.2,0-3.4c0-2.5,0-4.9,0-7.4C534.1,166.1,534.1,166,534.1,165.8z"/>
</g>
<g>
	<defs>
		<path id="SVGID_13_" d="M538.1,171.8c0-3.1,4.2-4.4,5.9-1.8c1.4,2.3-0.5,5.4-3.2,4.9C539.3,174.7,538.1,173.4,538.1,171.8
			 M535.4,171.8c0,2.6,1.6,4.9,4.1,5.7c2.4,0.8,5.1,0,6.6-2c3.1-4.1-0.2-10.2-5.4-9.6C537.7,166.2,535.4,168.8,535.4,171.8"/>
	</defs>
	<clipPath id="SVGID_14_">
		<use xlink:href="#SVGID_13_"  style="overflow:visible;"/>
	</clipPath>
	
		<linearGradient id="SVGID_15_" gradientUnits="userSpaceOnUse" x1="3.9579" y1="565.2786" x2="4.3862" y2="565.2786" gradientTransform="matrix(-115.9637 0 0 -115.9637 999.7913 65723.6172)">
		<stop  offset="0" style="stop-color:#6980B4"/>
		<stop  offset="1.838240e-03" style="stop-color:#6980B4"/>
		<stop  offset="0.35" style="stop-color:#8CB358"/>
		<stop  offset="0.6895" style="stop-color:#E6BA53"/>
		<stop  offset="1" style="stop-color:#CD763C"/>
	</linearGradient>
	<path class="st52" d="M547.3,165.8c-3.5,0-7,0-10.5,0c-0.3,0-0.6,0-1,0c-0.1,0-0.4-0.1-0.5,0c-0.1,0.1,0,0.8,0,0.9
		c0,2.1,0,4.1,0,6.2c0,1,0,2,0,3.1c0,0.4,0,0.7,0,1.1c0,0.1-0.1,0.5,0,0.6c0.1,0.2,0.5,0.1,0.7,0.1c0.8,0,1.7,0,2.5,0
		c2.2,0,4.4,0,6.6,0c0.6,0,1.4,0.1,1.9,0c0.3-0.1,0.2-0.1,0.2-0.5c0-3.7,0-7.4,0-11.2C547.3,166,547.3,165.9,547.3,165.8z"/>
</g>
<g>
	<defs>
		<path id="SVGID_16_" d="M550.8,166.3c-1,0.4-1.9,1.2-2.2,2.3c-0.3,1.2,0.3,2.2,1.2,2.8c0.9,0.6,2,0.9,3.1,1.2c0.9,0.2,2.3,0.3,3,1
			c0.9,0.8,0.1,1.9-0.8,2.1c-1,0.3-2.3,0.2-3.1-0.5c-0.8-0.6-1.1-2-2.3-1.8c-1.3,0.2-1.3,1.6-0.7,2.4c1.3,1.9,4.4,2.1,6.5,1.8
			c2.1-0.3,4.5-1.7,4-4.2c-0.5-2.3-3.7-2.7-5.5-3.1c-0.7-0.2-2.3-0.4-2.3-1.4c0-1.1,1.8-1.3,2.6-1.2c0.6,0.1,1.1,0.4,1.5,0.8
			c0.4,0.4,0.8,1,1.4,1.1c1.4,0.3,2.2-0.9,1.4-2.1c-0.8-1.1-2.3-1.5-3.5-1.7C553.5,165.7,552.1,165.7,550.8,166.3"/>
	</defs>
	<clipPath id="SVGID_17_">
		<use xlink:href="#SVGID_16_"  style="overflow:visible;"/>
	</clipPath>
	
		<linearGradient id="SVGID_18_" gradientUnits="userSpaceOnUse" x1="3.955" y1="565.2744" x2="4.3848" y2="565.2744" gradientTransform="matrix(-115.9737 0 0 -115.9737 999.4283 65728.7422)">
		<stop  offset="0" style="stop-color:#6980B4"/>
		<stop  offset="1.838240e-03" style="stop-color:#6980B4"/>
		<stop  offset="0.35" style="stop-color:#8CB358"/>
		<stop  offset="0.6895" style="stop-color:#E6BA53"/>
		<stop  offset="1" style="stop-color:#CD763C"/>
	</linearGradient>
	<path class="st53" d="M559.3,165.8c-3.3,0-6.7,0-10,0c-0.2,0-0.8-0.1-0.9,0c-0.1,0.2,0,1.1,0,1.3c0,2,0,4.1,0,6.1c0,1,0,2,0,2.9
		c0,0.3,0,0.7,0,1c0,0.1-0.1,0.5,0,0.6c0.1,0.2,0.5,0.1,0.7,0.1c0.8,0,1.7,0,2.5,0c2.1,0,4.2,0,6.2,0c0.3,0,0.7,0,1,0
		c0.1,0,0.4,0.1,0.5,0c0.1-0.1,0-0.7,0-0.8c0-3.6,0-7.2,0-10.9C559.3,166,559.3,165.9,559.3,165.8z"/>
</g>
<path class="st46" d="M552.9,136.2c-4-1.8-8.3,0.2-10.6,3.6c-2.7,4-2.9,9.6-0.8,13.9c1.8,3.7,5.8,6.6,10.1,5.5
	c5.1-1.3,7.7-6.9,7.7-11.8C559.2,143,557.1,138.1,552.9,136.2z M552.2,153.3c-0.3,1.2-0.6,2.6-1.5,3.6c-0.2,0.3-0.8,0.8-1.1,0.8
	c-0.4,0.1-0.7-0.3-1-0.5c-0.8-0.9-1.2-2.3-1.5-3.5c-0.9-3.7-0.9-7.9-0.1-11.6c0.2-1.1,1.3-5.8,3.3-4.5c1,0.7,1.5,2.3,1.8,3.5
	c0.5,2.1,0.7,4.3,0.7,6.5C552.7,149.4,552.6,151.4,552.2,153.3z"/>
<g>
	<path class="st46" d="M422.4,74.2c3,0,6,0,9,0c0.3,0,0.6,0,0.8,0c0.1,0,0.3,0,0.4,0c0.1,0.1,0,0.4,0,0.5c0,0.5,0,1,0,1.4
		c0,0.1,0.1,0.6,0,0.7c0,0.1-0.4,0-0.5,0c-0.9,0-1.7,0-2.6,0c-0.8,0-1.7,0-2.5,0c-0.1,0-0.5-0.1-0.5,0c-0.1,0.1,0,0.4,0,0.5
		c0,0.9,0,1.8,0,2.6c0,0.2,0,0.2,0.1,0.2c0.2,0.1,0.7,0,0.9,0c0.9,0,1.9,0,2.8,0c0.1,0,0.6-0.1,0.7,0c0.1,0.1,0,0.6,0,0.7
		c0,0.4,0,0.9,0,1.3c0,0.3,0,0.2-0.2,0.2c-0.3,0.1-0.7,0-1,0c-0.5,0-1,0-1.4,0c-0.4,0-0.9,0-1.3,0c-0.1,0-0.5-0.1-0.6,0
		c-0.1,0.1,0,0.9,0,1.1c0,1.8,0,3.6,0,5.4c0,0.7,0,1.4,0,2.2c0,0.4-0.1,0.4,0.3,0.4c1.7,0,3.3,0,5,0c0.2,0,0.6-0.1,0.8,0
		c0.2,0.1,0.1,0.1,0.1,0.3c0,0.5,0,0.9,0,1.4c0,0.1,0.1,0.6,0,0.7c0,0-0.3,0-0.4,0c-0.3,0-0.6,0-0.8,0c-0.8,0-1.7,0-2.5,0
		c-1.8,0-3.6,0-5.4,0c-0.2,0-1,0.1-1.1,0c-0.1-0.1,0-0.4,0-0.5c0-3.1,0-6.2,0-9.3c0-3.1,0-6.3,0-9.4
		C422.4,74.5,422.4,74.3,422.4,74.2z"/>
	<path class="st46" d="M402.2,74.2c2,0,4,0,5.9,0c1.4,0,2.9,0,4.3,0c0.5,0,1.1,0,1.6,0c0.2,0,0.7-0.1,0.9,0c0.2,0.1,0.1,0.6,0.1,0.9
		c0,0.6,0,1.2,0,1.9c-1.4,0-2.8,0-4.1,0c0,3,0,6.1,0,9.1c0,2,0,3.9,0,5.9c0,0.6,0,1.1,0,1.7c0,0.4,0,0.3-0.4,0.3c-1,0-2,0-3,0
		c-0.2,0-0.8,0.1-1,0c-0.1,0,0,0,0-0.1c-0.1-0.4,0-1,0-1.3c0-0.8,0-1.6,0-2.4c0-4,0-7.9,0-11.9c0-0.3,0-0.5,0-0.8c0-0.1,0-0.4,0-0.5
		c-0.1-0.2-0.9-0.1-1.2-0.1c-1,0-1.9,0-2.9,0c-0.3,0-0.3,0.1-0.3-0.2c-0.1-0.5,0-1,0-1.4C402.2,74.8,402.2,74.5,402.2,74.2z"/>
	<path class="st46" d="M386.9,74.2c1.1,0,2.2,0,3.3,0c0.1,0,0.7-0.1,0.8,0c0.1,0.1,0,0.4,0,0.5c0,2.1,0,4.3,0,6.4c0,2.7,0,5.4,0,8.1
		c0,0.7-0.1,1.4,0,2.1c0,0.1,0,0.2,0.1,0.2c0.1,0,0.4,0,0.4,0c0.3,0,0.5,0,0.8,0c1.3,0,2.7,0,4,0c0.2,0,0.6-0.1,0.7,0
		c0.1,0.1,0,0.5,0,0.7c0,0.4,0,0.8,0,1.1c0,0.1,0.1,0.5,0,0.5c0,0-0.1,0-0.1,0c-0.3,0.1-0.7,0-1.1,0c-1.3,0-2.6,0-3.9,0
		c-1.3,0-2.6,0-3.9,0c-0.3,0-0.8,0.1-1,0c-0.2-0.1,0,0-0.1-0.1c-0.1-0.2,0-0.5,0-0.6c0-0.4,0-0.7,0-1.1c0-1.1,0-2.2,0-3.3
		c0-4.7,0-9.5,0-14.2C386.9,74.4,386.9,74.3,386.9,74.2z"/>
	<path class="st46" d="M374.8,74.2c3,0,5.9,0,8.9,0c0.3,0,0.6,0,0.8,0c0.1,0,0.4,0,0.4,0c0.1,0.1,0,0.3,0,0.4c0,0.5,0,0.9,0,1.4
		c0,0.1,0.1,0.7,0,0.8c0,0-0.4,0-0.5,0c-0.8,0-1.7,0-2.5,0c-0.9,0-1.7,0-2.6,0c-0.1,0-0.5-0.1-0.5,0c-0.1,0.1,0,0.5,0,0.6
		c0,0.5,0,0.9,0,1.4c0,0.4-0.1,0.8,0,1.1c0,0.2,0,0.1,0.2,0.2c0.3,0.1,0.7,0,1,0c0.9,0,1.8,0,2.7,0c0.1,0,0.5-0.1,0.6,0
		c0.1,0.1,0,0.8,0,0.9c0,0.4,0.1,0.9,0,1.3c0,0.2,0,0.2-0.2,0.2c-0.8,0.1-1.7,0-2.5,0c-0.4,0-0.8,0-1.3,0c-0.1,0-0.4-0.1-0.5,0
		c-0.1,0.1,0,1,0,1.2c0,1.8,0,3.7,0,5.5c0,0.7,0,1.4,0,2.1c0,0.4-0.1,0.4,0.3,0.4c1.7,0,3.4,0,5.1,0c0.1,0,0.6-0.1,0.7,0
		c0.1,0.1,0,0.3,0,0.5c0,0.5,0,1,0,1.4c0,0.1,0,0.4,0,0.4c-0.1,0-0.4,0-0.4,0c-0.3,0-0.6,0-0.9,0c-0.8,0-1.7,0-2.5,0
		c-1.8,0-3.5,0-5.3,0c-0.1,0-0.9,0.1-1,0c-0.1-0.1,0-0.5,0-0.6c0-3.1,0-6.2,0-9.4c0-3.1,0-6.2,0-9.3
		C374.8,74.5,374.8,74.3,374.8,74.2z"/>
	<path class="st46" d="M462.7,75.2c-1.6-1.4-4-1-5.9-1c-1.2,0-2.4,0-3.7,0c-0.4,0-0.8,0-1.2,0c-0.1,0-0.2,0-0.3,0c0,0,0,0.3,0,0.4
		c0,0.3,0,0.5,0,0.8c0,0.9,0,1.7,0,2.6c0,2.5,0,4.9,0,7.4c0,2.2,0,4.4,0,6.6c0,0.6,0,1.2,0,1.7c0,0,0,0.2,0,0.2c0.1,0.1,0.8,0,0.9,0
		c1.1,0,2.3,0.1,3.4,0c0.2,0,0.2,0,0.2-0.2c0.1-0.4,0-0.8,0-1.2c0-1.9,0-3.9,0-5.8c0.3,0,0.6,0,0.9,0c1.1,0,2.1,0,3.2,0
		c1.3,0,2.4-0.8,3.2-1.7C465.6,82.3,465.4,77.5,462.7,75.2z M461,80.6c-0.1,1.1-0.4,2.5-1.5,3.1c-0.5,0.3-1.2,0.2-1.8,0.2
		c-0.6,0-1.2,0-1.7,0c0-1.3,0-2.5,0-3.8c0-0.7,0-1.5,0-2.2c0-0.1-0.1-0.9,0-1c0.1-0.1,0.6,0,0.7,0c0.3,0,0.7,0,1,0
		c0.7,0,1.4,0,2,0.4C460.7,78.1,461.1,79.4,461,80.6z"/>
	<path class="st46" d="M437.6,93.9c-0.6,0-1.3,0-1.9,0c-0.2,0-0.8,0.1-0.9-0.1c-0.1-0.2,0-0.6,0-0.8c0-0.5,0-1,0-1.5
		c0-3.2,0-6.4,0-9.7c0-2.5,0-5,0-7.5c0-0.2,0-0.2,0.1-0.3c0.2-0.1,0.7,0,1,0c0.4,0,0.8,0,1.2,0c0.4,0,0.4-0.1,0.6,0.3
		c0.2,0.5,0.4,0.9,0.7,1.4c0.7,1.5,1.4,3,2.1,4.5c0.5,1.1,1,2.3,1.6,3.4c0,0.1,0.1,0.1,0.1,0.2c0.5-1.4,1-2.9,1.6-4.3
		c0.4-1.1,0.8-2.2,1.2-3.3c0.1-0.4,0.3-0.8,0.4-1.2c0.1-0.2,0.1-0.5,0.3-0.7c0.1-0.2,0-0.1,0.2-0.1c0.4-0.1,0.9,0,1.3,0
		c0.6,0,1.1,0,1.7,0c0.2,0,0.9-0.1,1,0c0.1,0.1,0,0.6,0,0.7c0,0.7,0,1.4,0,2.1c0,4.4,0,8.9,0,13.3c0,0.8,0,1.6,0,2.4
		c0,0.3,0,0.5,0,0.8c0,0.1,0,0.3,0,0.4c-0.1,0.2-1.2,0.1-1.4,0.1c-0.6,0-1.2,0-1.8,0c-0.2,0-0.5,0-0.7,0c-0.1,0-0.4,0.1-0.5,0
		c-0.1-0.1-0.1,0-0.1-0.2c0-0.3,0-0.6,0-0.8c0-1,0-2,0-3c0-2,0-4,0-6c0-0.1,0-0.2,0-0.4c-1.1,3.1-2.1,6.1-3.2,9.2
		c-0.1,0.3-0.2,0.6-0.3,0.8c0,0.1-0.1,0.3-0.1,0.4c-0.1,0.1-0.5,0-0.6,0c-0.1-0.1-0.1-0.3-0.2-0.4c-0.6-1.7-1.3-3.3-1.9-5
		c-0.5-1.4-1.1-2.9-1.6-4.3c0,2.9,0,5.7,0,8.6C437.6,93.1,437.6,93.5,437.6,93.9z"/>
	<path class="st46" d="M416.4,74.2c0.8,0,1.6,0,2.5,0c0.3,0,1.5-0.1,1.6,0.1c0.1,0.2,0,0.9,0,1.1c0,0.8,0,1.5,0,2.3
		c0,4.3,0,8.6,0,12.9c0,0.7,0,1.5,0,2.2c0,0.2,0.1,0.9,0,1.1c-0.1,0.2-1.4,0-1.6,0c-0.5,0-1.1,0-1.6,0c-0.1,0-0.7,0.1-0.8,0
		c-0.1-0.1,0-0.6,0-0.7c0-0.7,0-1.3,0-2c0-2.1,0-4.1,0-6.2c0-3.5,0-7,0-10.6C416.4,74.3,416.4,74.2,416.4,74.2z"/>
	<path class="st46" d="M476.8,74.7c-3.3-1.5-6.9,0.1-8.8,3c-2.2,3.3-2.4,8-0.7,11.5c1.5,3.1,4.8,5.5,8.3,4.6
		c4.2-1.1,6.4-5.7,6.4-9.8C482,80.4,480.3,76.3,476.8,74.7z M476.2,88.8c-0.2,1-0.5,2.2-1.2,3c-0.2,0.2-0.6,0.7-0.9,0.7
		c-0.3,0-0.6-0.2-0.8-0.4c-0.7-0.8-1-1.9-1.2-2.9c-0.7-3.1-0.7-6.5-0.1-9.6c0.2-0.9,1-4.8,2.7-3.7c0.9,0.6,1.2,1.9,1.5,2.9
		c0.4,1.7,0.6,3.6,0.6,5.4C476.7,85.6,476.5,87.3,476.2,88.8z"/>
</g>
<linearGradient id="SVGID_19_" gradientUnits="userSpaceOnUse" x1="491.4238" y1="171.7833" x2="502.3181" y2="171.7833">
	<stop  offset="0" style="stop-color:#CD763C"/>
	<stop  offset="0.2274" style="stop-color:#CF7B3E"/>
	<stop  offset="0.4839" style="stop-color:#D48842"/>
	<stop  offset="0.7535" style="stop-color:#DC9F4A"/>
	<stop  offset="1" style="stop-color:#E6BA53"/>
</linearGradient>
<path class="st54" d="M502.3,166.8c-0.4-1.3-2.2-1.3-2.6,0c-0.9,2.5-1.9,5-2.8,7.5c-0.8-2.2-1.6-4.5-2.5-6.7
	c-0.1-0.3-0.2-0.6-0.3-0.8c-0.5-1.1-2-1.2-2.5-0.1c-0.4,0.9,0.4,2.3,0.8,3.1c0.9,2.2,1.7,4.5,2.7,6.7c0.7,1.5,2.5,1.9,3.5,0.4
	c0.5-0.7,0.7-1.5,1-2.3c0.7-1.8,1.5-3.6,2.2-5.5C501.9,168.5,502.5,167.5,502.3,166.8z"/>
<path class="st46" d="M433.6,128c-0.2-1-1.3-1.8-2.3-1.1c-0.8,0.6-0.7,1.8-0.6,2.7c0,1.1,0.4,2.2,1.7,2c0.6-0.1,0.9-0.4,1.1-0.9
	c0.1-0.4,0-0.3,0.3-0.4c0.2,0,0.4,0,0.5,0c-0.2,1.5-1.5,2.3-2.9,1.9c-1.4-0.4-1.5-1.9-1.5-3.1c0-1.2,0.1-2.6,1.4-3
	c1.5-0.5,2.8,0.4,3,1.9C434.1,128,433.8,128,433.6,128z"/>
<path class="st46" d="M437.9,131.6c0.7,0,1.4,0,2.2,0c0.1,0,0.7-0.1,0.8,0c0.1,0.1,0,0.7,0,0.7c-0.1,0.1-0.7,0-0.8,0
	c-0.5,0-1,0-1.5,0c-0.2,0-1.3,0.1-1.5,0c-0.1-0.1,0-0.5,0-0.6c0-0.4,0-0.8,0-1.3c0-0.9,0-1.8,0-2.8c0-0.3,0-0.7,0-1
	c0-0.1-0.1-0.4,0-0.5c0,0,0.7,0,0.8,0c0.1,0.1,0,0.5,0,0.6C437.9,128.3,437.9,129.9,437.9,131.6z"/>
<path class="st46" d="M447.9,126.1c0,0.9,0,1.7,0,2.6c0,1,0.1,2.1-0.5,2.9c-0.7,1-2.5,1-3.3,0.2c-0.8-0.8-0.6-1.9-0.6-2.9
	c0-0.6,0-1.1,0-1.7c0-0.2-0.1-0.9,0-1.1c0.1-0.1,0.7,0,0.8,0c0.1,0.2,0,0.9,0,1.2c0,0.9,0,1.8,0,2.7c0,0.6,0.2,1.4,0.9,1.6
	c0.5,0.2,1.3,0.1,1.7-0.3c0.7-0.7,0.4-2.3,0.4-3.3c0-0.5,0-1.1,0-1.6c0-0.1,0-0.2,0-0.3C447.2,126,447.8,126.1,447.9,126.1z"/>
<path class="st46" d="M453.1,126.1c0.7,0,1.7,0.1,2,0.9c0.3,0.8,0,1.8-0.9,2c1.8,0.3,1.4,2.7-0.1,3.1c-0.5,0.1-1.1,0.1-1.6,0.1
	c-0.2,0-1.1,0.1-1.3,0c-0.1-0.1,0-0.6,0-0.7c0-0.5,0-1.1,0-1.6c0-1.1,0-2.2,0-3.4c0-0.4-0.1-0.4,0.3-0.4
	C452,126.1,452.6,126.1,453.1,126.1z M452,128.7c0.6,0,1.5,0.2,2-0.2c0.8-0.5,0.4-1.6-0.4-1.7c-0.3-0.1-1.5-0.2-1.6,0
	c-0.1,0.2,0,0.8,0,1.1C452,128.2,452,128.4,452,128.7z M452,131.6c0.6,0,1.6,0.2,2.2-0.2c0.4-0.2,0.6-0.7,0.5-1.1
	c-0.1-0.5-0.6-0.7-1-0.8c-0.4-0.1-0.8,0-1.1,0c-0.4,0-0.4-0.1-0.5,0.2C451.8,130.2,452,131,452,131.6z"/>
<path class="st46" d="M462.4,132.3c0-1,0-2.1,0-3.1c0-0.7,0-1.4,0-2.1c0-0.2-0.1-0.9,0-1c0.1-0.1,0.5,0,0.6,0c0.4,0,0.7,0,1.1,0
	c0.6,0,1.3,0,1.8,0.5c0.7,0.6,0.8,1.5,0.8,2.4c0,0.8,0,1.6-0.4,2.4C465.5,132.6,463.6,132.3,462.4,132.3z M465.8,129.5
	c0-1,0.1-2.5-1.1-2.7c-0.4-0.1-0.9,0-1.3,0c-0.3,0-0.3,0-0.3,0.3c0,1,0,2,0,3c0,0.4-0.1,0.9,0,1.2c0.1,0.3,0,0.2,0.4,0.2
	c0.5,0,1.1,0.1,1.5-0.1C465.7,131.1,465.8,130.2,465.8,129.5"/>
<path class="st46" d="M473.3,126.1c0,0.1,0.1,0.6,0,0.7c-0.1,0.1-0.5,0-0.6,0c-0.7,0-1.4,0-2.1,0c-0.1,0-0.3,0-0.3,0
	c-0.1,0.1,0,0.7,0,0.8c0,0.3-0.1,0.7,0,1c0.1,0.3-0.1,0.1,0.2,0.2c0.3,0.1,0.7,0,0.9,0c0.4,0,0.7,0,1.1,0c0.1,0,0.4-0.1,0.5,0
	c0,0,0,0.7,0,0.7c-0.1,0.1-0.5,0-0.6,0c-0.4,0-0.8,0-1.1,0c-0.2,0-0.7-0.1-0.9,0c-0.1,0.1-0.1,0-0.1,0.3c0,0.3,0,0.6,0,0.9
	c0,0.2-0.1,0.7,0,0.9c0.1,0.2,0.9,0.1,1.1,0.1c0.4,0,0.7,0,1.1,0c0.1,0,0.6-0.1,0.7,0c0.1,0,0.1,0.5,0,0.6c-0.1,0.1-0.1,0.1-0.3,0.1
	c-0.7,0-1.3,0-2,0c-0.3,0-0.6,0-1,0c-0.1,0-0.4,0-0.5,0c-0.1-0.1,0-0.8,0-0.9c0-0.7,0-1.4,0-2c0-0.8,0-1.6,0-2.4
	c0-0.2-0.1-0.7,0-0.8c0.1-0.1,0.6,0,0.8,0c0.4,0,0.8,0,1.2,0C472.2,126.1,472.7,126.1,473.3,126.1z"/>
<path class="st46" d="M483.4,127.5c-0.4-0.5-0.9-0.8-1.6-0.7c-0.6,0-1,0.4-1,1c0,1.3,2,1,2.8,1.6c0.8,0.7,0.7,2.1-0.1,2.7
	c-1.1,0.7-2.9,0.4-3.6-0.7c0.1-0.1,0.4-0.4,0.6-0.4c0.2,0,0.4,0.3,0.6,0.4c0.5,0.4,1.6,0.4,2.1-0.1c0.3-0.4,0.3-1,0-1.4
	c-0.5-0.6-1.5-0.4-2.2-0.8c-1.3-0.7-1.2-2.7,0.3-3.1c0.7-0.2,1.7-0.1,2.3,0.3c0.2,0.1,0.6,0.4,0.5,0.6
	C483.9,127.2,483.6,127.4,483.4,127.5z"/>
<path class="st46" d="M491.6,126.1c0,0.9,0,1.7,0,2.6c0,1,0.1,2.1-0.5,2.9c-0.7,1-2.5,1-3.3,0.2c-0.7-0.8-0.6-1.9-0.6-2.9
	c0-0.6,0-1.1,0-1.7c0-0.2-0.1-0.9,0-1.1c0.1-0.1,0.7,0,0.8,0c0.1,0.2,0,0.9,0,1.2c0,0.9,0,1.8,0,2.7c0,0.6,0.2,1.4,0.9,1.6
	c0.5,0.2,1.3,0.1,1.7-0.3c0.7-0.7,0.4-2.3,0.4-3.3c0-0.5,0-1.1,0-1.6c0-0.1,0-0.2,0-0.3C491,126,491.5,126.1,491.6,126.1z"/>
<path class="st46" d="M498.1,127.5c-0.4-0.5-0.9-0.8-1.6-0.7c-0.6,0-1,0.4-1,1c0,1.3,2,1,2.8,1.6c0.8,0.7,0.7,2.1-0.1,2.7
	c-1.1,0.7-2.9,0.4-3.6-0.7c0.1-0.1,0.4-0.4,0.6-0.4c0.2,0,0.4,0.3,0.6,0.4c0.5,0.4,1.6,0.4,2.1-0.1c0.3-0.4,0.3-1,0-1.4
	c-0.5-0.6-1.5-0.4-2.2-0.8c-1.3-0.7-1.2-2.7,0.3-3.1c0.7-0.2,1.7-0.1,2.3,0.3c0.2,0.1,0.6,0.4,0.5,0.6
	C498.6,127.2,498.3,127.4,498.1,127.5z"/>
<path class="st46" d="M505.2,128c-0.2-1-1.3-1.8-2.3-1.1c-0.8,0.6-0.7,1.8-0.6,2.7c0,1.1,0.4,2.2,1.7,2c0.6-0.1,0.9-0.4,1.1-0.9
	c0.1-0.4,0-0.3,0.3-0.4c0.2,0,0.4,0,0.5,0c-0.2,1.5-1.5,2.3-2.9,1.9c-1.4-0.4-1.5-1.9-1.5-3.1c0-1.2,0.1-2.6,1.4-3
	c1.5-0.5,2.8,0.4,3,1.9C505.7,128,505.5,128,505.2,128z"/>
<path class="st46" d="M512.3,132.3c-0.3-0.6-0.6-1.2-0.9-1.9c-0.1-0.2-0.2-0.6-0.4-0.7c-0.1-0.1-0.6,0-0.8,0c-0.2,0-0.6-0.1-0.7,0.1
	c-0.1,0.2,0,0.9,0,1.1c0,0.4,0,0.8,0,1.2c0,0.4,0,0.3-0.4,0.3c-0.3,0-0.3,0.1-0.4-0.1c-0.1-0.2,0-0.6,0-0.8c0-0.8,0-1.7,0-2.5
	c0-0.8,0-1.6,0-2.3c0-0.1,0-0.4,0-0.4c0.1-0.1,0.7,0,0.8,0c0.9,0,2.1-0.2,2.8,0.4c1.1,0.8,0.6,2.6-0.6,3c0.5,0.9,0.9,1.8,1.4,2.7
	C512.9,132.3,512.6,132.3,512.3,132.3z M510.8,129c0.5,0,1.1,0,1.4-0.5c0.2-0.4,0.2-0.9-0.1-1.3c-0.3-0.4-0.9-0.4-1.3-0.4
	c-0.3,0-0.9-0.1-1.1,0c-0.2,0.1-0.1,0.2-0.1,0.5c0,0.4,0,0.8,0,1.3c0,0.3-0.1,0.4,0.2,0.4C510.1,129,510.5,129,510.8,129z"/>
<path class="st46" d="M516.9,132.3c-0.2,0-0.6,0.1-0.7,0c-0.1-0.1,0,0-0.1-0.1c-0.1-0.3,0-1,0-1.3c0-1.3,0-2.5,0-3.8
	c0-0.1-0.1-0.8,0-0.9c0.1-0.1,0.7,0,0.8,0.1c0.1,0.2,0,0.9,0,1.1c0,0.6,0,1.3,0,1.9C516.9,130.2,516.9,131.2,516.9,132.3z"/>
<path class="st46" d="M521,129.9c0,0.6,0,1.2,0,1.8c0,0.1,0.1,0.5,0,0.6c0,0-0.7,0-0.8,0c-0.1-0.1,0-0.9,0-1.1c0-0.7,0-1.5,0-2.2
	c0-0.7,0-1.4,0-2.1c0-0.2-0.1-0.7,0.1-0.8c0.2-0.1,0.8,0,1,0c0.3,0,0.6,0,0.9,0c0.9,0,1.8,0.3,2.1,1.1c0.4,1,0,2.2-1,2.5
	C522.6,130,521.8,129.9,521,129.9z M522.2,129.2c0.5,0,1.1-0.1,1.4-0.6c0.2-0.4,0.2-1-0.1-1.4c-0.3-0.4-0.8-0.4-1.3-0.4
	c-0.2,0-0.9-0.1-1.1,0c-0.1,0.1,0,0.5,0,0.6c0,0.4,0,0.9,0,1.3c0,0.3-0.1,0.4,0.1,0.4C521.4,129.3,521.9,129.2,522.2,129.2z"/>
<path class="st46" d="M531.1,126.1c0,0.2,0.1,0.4,0,0.6c-0.1,0.2,0.1,0.1-0.1,0.1c-0.4,0.1-1,0-1.4,0c-0.3,0-0.3-0.1-0.3,0.1
	c-0.1,0.2,0,0.7,0,1c0,1,0,2,0,3c0,0.4,0,0.7,0,1.1c0,0.3,0.1,0.2-0.2,0.3c0,0-0.5,0-0.6,0c0,0,0-0.1,0-0.2c-0.1-0.3,0-0.7,0-1
	c0-1,0-2,0-3c0-0.4,0-0.7,0-1.1c0-0.3,0.1-0.2-0.1-0.3c-0.4-0.1-1,0-1.4,0c-0.1,0-0.3,0-0.4,0c0,0,0-0.5,0-0.6
	c0.1-0.2,0-0.1,0.1-0.1c0.1,0,0.3,0,0.4,0c0.5,0,1,0,1.6,0C529.5,126.1,530.3,126.1,531.1,126.1z"/>
<path class="st46" d="M535.6,132.3c-1.3,0-2.1-0.9-2.2-2.2c-0.1-1.1-0.2-2.6,0.6-3.5c0.7-0.8,2.1-0.9,3-0.3c0.9,0.7,0.9,2,0.9,3.1
	C537.9,131,537.3,132.3,535.6,132.3 M534.2,129.5c0,1.2,0.6,2.6,2,2c1-0.4,0.9-1.8,0.9-2.7c0-1.2-0.5-2.5-1.9-2.1
	C534,127.1,534.2,128.6,534.2,129.5z"/>
<path class="st46" d="M544.4,132.3c-0.3-0.6-0.6-1.2-0.9-1.9c-0.1-0.2-0.2-0.6-0.4-0.7c-0.1-0.1-0.6,0-0.8,0c-0.2,0-0.6-0.1-0.7,0.1
	c-0.1,0.2,0,0.9,0,1.1c0,0.4,0,0.8,0,1.2c0,0.4,0,0.3-0.4,0.3c-0.3,0-0.3,0.1-0.4-0.1c-0.1-0.2,0-0.6,0-0.8c0-0.8,0-1.7,0-2.5
	c0-0.8,0-1.6,0-2.3c0-0.1,0-0.4,0-0.4c0.1-0.1,0.7,0,0.8,0c0.9,0,2.1-0.2,2.8,0.4c1.1,0.8,0.6,2.6-0.6,3c0.5,0.9,0.9,1.8,1.4,2.7
	C545,132.3,544.7,132.3,544.4,132.3z M542.9,129c0.5,0,1.1,0,1.4-0.5c0.2-0.4,0.2-0.9-0.1-1.3c-0.3-0.4-0.9-0.4-1.3-0.4
	c-0.3,0-0.9-0.1-1.1,0c-0.2,0.1-0.1,0.2-0.1,0.5c0,0.4,0,0.8,0,1.3c0,0.3-0.1,0.4,0.2,0.4C542.1,129,542.5,129,542.9,129z"/>
<path class="st46" d="M551.8,126.1c0,0.1,0.1,0.6,0,0.7c-0.1,0.1-0.5,0-0.5,0c-0.7,0-1.4,0-2.1,0c-0.1,0-0.3,0-0.3,0
	c-0.1,0.1,0,0.7,0,0.8c0,0.3-0.1,0.7,0,1c0.1,0.3-0.1,0.1,0.2,0.2c0.3,0.1,0.7,0,0.9,0c0.4,0,0.7,0,1.1,0c0.1,0,0.4-0.1,0.5,0
	c0,0,0,0.7,0,0.7c-0.1,0.1-0.5,0-0.6,0c-0.4,0-0.8,0-1.1,0c-0.2,0-0.7-0.1-0.9,0c-0.1,0.1-0.1,0-0.1,0.3c0,0.3,0,0.6,0,0.9
	c0,0.2-0.1,0.7,0,0.9c0.1,0.2,0.9,0.1,1.1,0.1c0.4,0,0.7,0,1.1,0c0.1,0,0.6-0.1,0.7,0c0.1,0,0.1,0.5,0,0.6c-0.1,0.1-0.1,0.1-0.3,0.1
	c-0.7,0-1.3,0-2,0c-0.3,0-0.6,0-1,0c-0.1,0-0.4,0-0.5,0c-0.1-0.1,0-0.8,0-0.9c0-0.7,0-1.4,0-2c0-0.8,0-1.6,0-2.4
	c0-0.2-0.1-0.7,0-0.8c0.1-0.1,0.6,0,0.8,0c0.4,0,0.8,0,1.2,0C550.7,126.1,551.2,126.1,551.8,126.1z"/>
<path class="st46" d="M557.9,127.5c-0.4-0.5-0.9-0.8-1.6-0.7c-0.6,0-1,0.4-1,1c0,1.3,2,1,2.8,1.6c0.8,0.7,0.7,2.1-0.1,2.7
	c-1.1,0.7-2.9,0.4-3.6-0.7c0.1-0.1,0.4-0.4,0.6-0.4c0.2,0,0.4,0.3,0.6,0.4c0.5,0.4,1.6,0.4,2.1-0.1c0.3-0.4,0.3-1,0-1.4
	c-0.5-0.6-1.5-0.4-2.2-0.8c-1.3-0.7-1.2-2.7,0.3-3.1c0.7-0.2,1.7-0.1,2.3,0.3c0.2,0.1,0.6,0.4,0.5,0.6
	C558.4,127.2,558.1,127.4,557.9,127.5z"/>
<path class="st47" d="M495.2,85.5c-0.8,2.1-1.5,4.2-2.3,6.2c-0.7-1.9-1.4-3.7-2-5.6c-0.1-0.2-0.2-0.5-0.3-0.7
	c-0.4-0.9-1.6-1-2.1-0.1c-0.4,0.7,0.3,1.9,0.6,2.6c0.7,1.8,1.4,3.7,2.2,5.5c0.6,1.2,2,1.5,2.9,0.4c0.4-0.6,0.6-1.3,0.8-1.9
	c0.6-1.5,1.2-3,1.8-4.5c0.2-0.5,0.7-1.3,0.5-1.9C497,84.4,495.5,84.5,495.2,85.5"/>
<g>
	<defs>
		<path id="SVGID_20_" d="M499,85.8c0,2.5-0.1,5,0,7.6c0,1.1,1.5,1.7,2.1,0.6c0.3-0.6,0.1-1.6,0.1-2.3c0-1.2,0-2.4,0-3.7
			c0-0.6,0-1.3,0-1.9c0-0.6-0.2-1.3-0.9-1.4C499.7,84.5,499,85.1,499,85.8"/>
	</defs>
	<clipPath id="SVGID_21_">
		<use xlink:href="#SVGID_20_"  style="overflow:visible;"/>
	</clipPath>
	
		<linearGradient id="SVGID_22_" gradientUnits="userSpaceOnUse" x1="3.913" y1="565.996" x2="4.2754" y2="565.996" gradientTransform="matrix(-115.4212 0 0 -115.4212 996.4838 65417.5664)">
		<stop  offset="0" style="stop-color:#6980B4"/>
		<stop  offset="1.838240e-03" style="stop-color:#6980B4"/>
		<stop  offset="0.35" style="stop-color:#8CB358"/>
		<stop  offset="0.6895" style="stop-color:#E6BA53"/>
		<stop  offset="1" style="stop-color:#CD763C"/>
	</linearGradient>
	<path class="st55" d="M501.3,84.7c-0.4,0-0.8,0-1.2,0c-0.2,0-1-0.1-1.1,0c0,0,0,0.4,0,0.4c0,0.4,0,0.7,0,1.1c0,2.2,0,4.4,0,6.5
		c0,0.4,0,0.8,0,1.2c0,0.1-0.1,0.5,0,0.6c0.1,0.1,0.7,0,0.8,0c0.3,0,0.5,0,0.8,0c0.1,0,0.6,0.1,0.7,0c0.2-0.1,0-1,0-1.2
		c0-1,0-2.1,0-3.1C501.3,88.4,501.3,86.6,501.3,84.7z"/>
</g>
<g>
	<defs>
		<path id="SVGID_23_" d="M499,82.2c0,1.5,2.3,1.5,2.3,0C501.3,80.7,499,80.7,499,82.2"/>
	</defs>
	<clipPath id="SVGID_24_">
		<use xlink:href="#SVGID_23_"  style="overflow:visible;"/>
	</clipPath>
	
		<linearGradient id="SVGID_25_" gradientUnits="userSpaceOnUse" x1="3.9071" y1="565.8732" x2="4.2698" y2="565.8732" gradientTransform="matrix(-115.3439 0 0 -115.3439 995.4971 65352.2578)">
		<stop  offset="0" style="stop-color:#6980B4"/>
		<stop  offset="1.838240e-03" style="stop-color:#6980B4"/>
		<stop  offset="0.35" style="stop-color:#8CB358"/>
		<stop  offset="0.6895" style="stop-color:#E6BA53"/>
		<stop  offset="1" style="stop-color:#CD763C"/>
	</linearGradient>
	<path class="st56" d="M501.3,81.1c-0.7,0-1.3,0-2,0c-0.3,0-0.2-0.1-0.3,0.2c-0.1,0.4,0,0.8,0,1.2c0,0.2-0.1,0.8,0,0.9
		c0.1,0.1,0.5,0,0.6,0c0.3,0,1.5,0.2,1.7-0.1c0.1-0.1,0-0.4,0-0.5c0-0.2,0-0.5,0-0.7C501.3,81.7,501.3,81.4,501.3,81.1z"/>
</g>
<g>
	<defs>
		<path id="SVGID_26_" d="M515.1,91.8c-0.1-0.9,0.7-1.3,1.5-1.4c0.9-0.1,2.1,0,2.9-0.5c0.2,0.7,0,1.6-0.5,2.1
			C518.3,92.7,515.3,93.3,515.1,91.8 M515,85.5c-0.8,0.5-0.4,1.7,0.5,1.7c0.4,0,0.8-0.3,1.2-0.4c0.5-0.2,1-0.2,1.5-0.2
			c0.6,0.1,1.4,0.3,1.4,1.1c0,0.3-0.1,0.4-0.3,0.6c-0.5,0.3-1.2,0.3-1.8,0.4c-1,0.1-2,0.2-3,0.6c-1,0.5-1.7,1.3-1.7,2.4
			c0,0.7,0.3,1.4,0.7,1.9c1.1,1.2,3,1.1,4.5,0.8c1.5-0.4,3-1.3,3.6-2.8c0.4-1,0.3-2.1,0.3-3.1c0-0.5,0-1,0-1.5
			c-0.1-0.9-0.9-1.6-1.7-1.9C518.6,84.4,516.4,84.6,515,85.5"/>
	</defs>
	<clipPath id="SVGID_27_">
		<use xlink:href="#SVGID_26_"  style="overflow:visible;"/>
	</clipPath>
	
		<linearGradient id="SVGID_28_" gradientUnits="userSpaceOnUse" x1="3.9264" y1="565.9838" x2="4.281" y2="565.9838" gradientTransform="matrix(-115.9166 0 0 -115.9166 999.0484 65696.5469)">
		<stop  offset="0" style="stop-color:#6980B4"/>
		<stop  offset="1.838240e-03" style="stop-color:#6980B4"/>
		<stop  offset="0.35" style="stop-color:#8CB358"/>
		<stop  offset="0.6895" style="stop-color:#E6BA53"/>
		<stop  offset="1" style="stop-color:#CD763C"/>
	</linearGradient>
	<path class="st57" d="M521.8,84.7c-2.8,0-5.5,0-8.3,0c-0.1,0-0.8-0.1-0.9,0c-0.1,0.1,0,0.9,0,1c0,1.7,0,3.4,0,5.1
		c0,0.8,0,1.6,0,2.4c0,0.3,0,0.6,0,0.8c0,0.1-0.1,0.4,0,0.5c0.1,0.1,0.4,0.1,0.6,0.1c0.7,0,1.4,0,2.1,0c1.7,0,3.5,0,5.2,0
		c0.3,0,0.6,0,0.8,0c0.1,0,0.4,0.1,0.5,0c0.1-0.1,0-0.5,0-0.6c0-3,0-6,0-9C521.8,84.9,521.8,84.8,521.8,84.7z"/>
</g>
<g>
	<defs>
		<path id="SVGID_29_" d="M533.9,84.7c-0.7,0-1.5,0.1-2.1,0.5c-0.3,0.2-0.5,0.4-0.7,0.6c-0.1,0.2-0.2,0.2-0.3,0.2
			c-0.1,0-0.3-0.3-0.4-0.4c-1.1-0.9-2.6-1.2-4-0.8c-1.4,0.5-2.5,1.7-2.8,3.1c-0.2,0.7-0.1,1.5-0.1,2.2c0,0.8,0,1.7,0,2.5
			c0,0.4-0.1,0.9,0.1,1.2c0.3,0.5,1,0.8,1.5,0.5c0.8-0.4,0.7-1.3,0.7-2c0-0.9,0-1.7,0-2.6c0-0.9,0-1.9,0.9-2.5
			c1.3-0.9,3.1,0.2,3.1,1.7c0,0,0-0.1,0-0.1c-0.1,0.4,0,0.8,0,1.2c0,0.7,0,1.3,0,2c0,0.8-0.3,2,0.7,2.4c0.7,0.3,1.4-0.2,1.5-0.9
			c0.1-0.2,0-0.5,0-0.8c0-1.2,0-2.5,0-3.7c0-0.5,0.1-1,0.4-1.4c0.6-0.7,1.7-1,2.5-0.5c1.2,0.7,1,2.1,1,3.2c0,1-0.1,2,0,3
			c0.1,1,1.2,1.5,2,0.8c0.4-0.4,0.3-1.1,0.3-1.7c0-1.2,0-2.5,0-3.7C538.1,86.6,536.2,84.7,533.9,84.7z"/>
	</defs>
	<clipPath id="SVGID_30_">
		<use xlink:href="#SVGID_29_"  style="overflow:visible;"/>
	</clipPath>
	
		<linearGradient id="SVGID_31_" gradientUnits="userSpaceOnUse" x1="3.9266" y1="565.9838" x2="4.2804" y2="565.9838" gradientTransform="matrix(-115.8559 0 0 -115.8559 998.6751 65662.2188)">
		<stop  offset="0" style="stop-color:#6980B4"/>
		<stop  offset="1.838240e-03" style="stop-color:#6980B4"/>
		<stop  offset="0.35" style="stop-color:#8CB358"/>
		<stop  offset="0.6895" style="stop-color:#E6BA53"/>
		<stop  offset="1" style="stop-color:#CD763C"/>
	</linearGradient>
	<path class="st58" d="M538.2,84.7c-3.6,0-7.1,0-10.7,0c-0.9,0-1.9,0-2.8,0c-0.3,0-0.6,0-0.9,0c-0.1,0-0.4,0-0.4,0
		c-0.1,0.1,0,1,0,1.1c0,1.1,0,2.1,0,3.2c0,1.1,0,2.3,0,3.4c0,0.4,0,0.9,0,1.3c0,0.2-0.1,0.6,0,0.7c0.1,0.2,0.4,0.1,0.6,0.1
		c0.8,0,1.5,0,2.3,0c2.3,0,4.6,0,6.9,0c1,0,2,0,3,0c0.5,0,1.2,0.1,1.7,0c0.1,0,0.1,0,0.2,0c0.1-0.1,0-0.5,0-0.6c0-0.9,0-1.9,0-2.8
		c0-2,0-4.1,0-6.1C538.2,85,538.2,84.8,538.2,84.7z"/>
</g>
<g>
	<defs>
		<path id="SVGID_32_" d="M541.5,89.6c0-2.6,3.5-3.7,4.9-1.5c1.2,1.9-0.4,4.5-2.7,4.1C542.4,92.1,541.5,90.9,541.5,89.6 M539.2,89.7
			c0,2.2,1.3,4,3.4,4.7c2,0.6,4.2,0,5.5-1.7c2.5-3.4-0.2-8.4-4.5-7.9C541.1,85,539.2,87.1,539.2,89.7"/>
	</defs>
	<clipPath id="SVGID_33_">
		<use xlink:href="#SVGID_32_"  style="overflow:visible;"/>
	</clipPath>
	
		<linearGradient id="SVGID_34_" gradientUnits="userSpaceOnUse" x1="3.933" y1="565.9871" x2="4.2868" y2="565.9871" gradientTransform="matrix(-115.9637 0 0 -115.9637 999.7913 65723.6172)">
		<stop  offset="0" style="stop-color:#6980B4"/>
		<stop  offset="1.838240e-03" style="stop-color:#6980B4"/>
		<stop  offset="0.35" style="stop-color:#8CB358"/>
		<stop  offset="0.6895" style="stop-color:#E6BA53"/>
		<stop  offset="1" style="stop-color:#CD763C"/>
	</linearGradient>
	<path class="st59" d="M549.1,84.7c-2.9,0-5.8,0-8.7,0c-0.3,0-0.5,0-0.8,0c-0.1,0-0.3,0-0.4,0c-0.1,0.1,0,0.6,0,0.8
		c0,1.7,0,3.4,0,5.1c0,0.8,0,1.7,0,2.5c0,0.3,0,0.6,0,0.9c0,0.1-0.1,0.4,0,0.5c0.1,0.1,0.4,0.1,0.6,0.1c0.7,0,1.4,0,2.1,0
		c1.8,0,3.6,0,5.5,0c0.5,0,1.1,0.1,1.6,0c0.2-0.1,0.1-0.1,0.1-0.4c0-3.1,0-6.2,0-9.2C549.1,84.9,549.1,84.8,549.1,84.7z"/>
</g>
<g>
	<defs>
		<path id="SVGID_35_" d="M552,85.1c-0.8,0.4-1.6,1-1.8,1.9c-0.2,1,0.2,1.8,1,2.3c0.7,0.5,1.7,0.8,2.5,1c0.8,0.2,1.9,0.3,2.5,0.8
			c0.7,0.7,0.1,1.5-0.7,1.8c-0.8,0.2-1.9,0.1-2.6-0.4c-0.7-0.5-0.9-1.6-1.9-1.5c-1.1,0.1-1.1,1.3-0.6,2c1.1,1.6,3.6,1.7,5.3,1.5
			c1.8-0.2,3.7-1.4,3.3-3.5c-0.4-1.9-3-2.2-4.5-2.6c-0.6-0.1-1.9-0.3-1.9-1.2c0-0.9,1.5-1,2.1-1c0.5,0.1,0.9,0.3,1.2,0.6
			c0.3,0.3,0.6,0.8,1.1,0.9c1.1,0.3,1.9-0.8,1.2-1.7c-0.6-0.9-1.9-1.3-2.9-1.4C554.2,84.6,553,84.6,552,85.1"/>
	</defs>
	<clipPath id="SVGID_36_">
		<use xlink:href="#SVGID_35_"  style="overflow:visible;"/>
	</clipPath>
	
		<linearGradient id="SVGID_37_" gradientUnits="userSpaceOnUse" x1="3.93" y1="565.9828" x2="4.2851" y2="565.9828" gradientTransform="matrix(-115.9737 0 0 -115.9737 999.4283 65728.7422)">
		<stop  offset="0" style="stop-color:#6980B4"/>
		<stop  offset="1.838240e-03" style="stop-color:#6980B4"/>
		<stop  offset="0.35" style="stop-color:#8CB358"/>
		<stop  offset="0.6895" style="stop-color:#E6BA53"/>
		<stop  offset="1" style="stop-color:#CD763C"/>
	</linearGradient>
	<path class="st60" d="M559,84.7c-2.8,0-5.5,0-8.3,0c-0.1,0-0.7-0.1-0.8,0c-0.1,0.1,0,0.9,0,1.1c0,1.7,0,3.4,0,5c0,0.8,0,1.6,0,2.4
		c0,0.3,0,0.6,0,0.8c0,0.1-0.1,0.4,0,0.5c0.1,0.1,0.4,0.1,0.6,0.1c0.7,0,1.4,0,2.1,0c1.7,0,3.4,0,5.1,0c0.3,0,0.5,0,0.8,0
		c0.1,0,0.3,0,0.4,0c0.1-0.1,0-0.5,0-0.7c0-3,0-6,0-9C559,84.8,559,84.8,559,84.7z"/>
</g>
<linearGradient id="SVGID_38_" gradientUnits="userSpaceOnUse" x1="502.9045" y1="89.6261" x2="511.9029" y2="89.6261">
	<stop  offset="0" style="stop-color:#CD763C"/>
	<stop  offset="0.2274" style="stop-color:#CF7B3E"/>
	<stop  offset="0.4839" style="stop-color:#D48842"/>
	<stop  offset="0.7535" style="stop-color:#DC9F4A"/>
	<stop  offset="1" style="stop-color:#E6BA53"/>
</linearGradient>
<path class="st61" d="M511.9,85.5c-0.3-1.1-1.8-1-2.2,0c-0.7,2.1-1.5,4.2-2.3,6.2c-0.7-1.9-1.4-3.7-2-5.6c-0.1-0.2-0.2-0.5-0.3-0.7
	c-0.4-0.9-1.6-1-2.1-0.1c-0.4,0.7,0.3,1.9,0.6,2.6c0.7,1.8,1.4,3.7,2.2,5.5c0.6,1.2,2,1.5,2.9,0.4c0.4-0.6,0.6-1.3,0.8-1.9
	c0.6-1.5,1.2-3,1.8-4.5C511.6,86.9,512,86.1,511.9,85.5z"/>
<g>
	<g>
		<g>
			<path d="M472,305.2H347c-2.8,0-5-2.2-5-5v-30c0-2.8,2.2-5,5-5h125c2.8,0,5,2.2,5,5v30C477,303,474.8,305.2,472,305.2z"/>
		</g>
		<g>
			<g>
				<path class="st62" d="M472,266c2.3,0,4.2,1.9,4.2,4.2v30c0,2.3-1.9,4.2-4.2,4.2H347c-2.3,0-4.2-1.9-4.2-4.2v-30
					c0-2.3,1.9-4.2,4.2-4.2H472 M472,265.2H347c-2.8,0-5,2.2-5,5v30c0,2.8,2.2,5,5,5h125c2.8,0,5-2.2,5-5v-30
					C477,267.5,474.8,265.2,472,265.2L472,265.2z"/>
			</g>
		</g>
		<path class="st7" d="M410.1,287c-2.4,0-4.3,1.8-4.3,4.3c0,2.4,1.9,4.3,4.3,4.3c2.4,0,4.3-1.8,4.3-4.3
			C414.4,288.8,412.5,287,410.1,287z M410.1,293.8c-1.3,0-2.4-1.1-2.4-2.6c0-1.5,1.1-2.6,2.4-2.6c1.3,0,2.4,1,2.4,2.6
			C412.6,292.8,411.4,293.8,410.1,293.8z M400.8,287c-2.4,0-4.3,1.8-4.3,4.3c0,2.4,1.9,4.3,4.3,4.3c2.4,0,4.3-1.8,4.3-4.3
			C405.1,288.8,403.2,287,400.8,287z M400.8,293.8c-1.3,0-2.4-1.1-2.4-2.6c0-1.5,1.1-2.6,2.4-2.6c1.3,0,2.4,1,2.4,2.6
			C403.2,292.8,402.1,293.8,400.8,293.8z M389.8,288.3v1.8h4.3c-0.1,1-0.5,1.8-1,2.3c-0.6,0.6-1.6,1.3-3.3,1.3
			c-2.7,0-4.7-2.1-4.7-4.8s2.1-4.8,4.7-4.8c1.4,0,2.5,0.6,3.3,1.3l1.3-1.3c-1.1-1-2.5-1.8-4.5-1.8c-3.6,0-6.7,3-6.7,6.6
			c0,3.6,3.1,6.6,6.7,6.6c2,0,3.4-0.6,4.6-1.9c1.2-1.2,1.6-2.9,1.6-4.2c0-0.4,0-0.8-0.1-1.1H389.8z M435.1,289.7
			c-0.4-1-1.4-2.7-3.6-2.7c-2.2,0-4,1.7-4,4.3c0,2.4,1.8,4.3,4.2,4.3c1.9,0,3.1-1.2,3.5-1.9l-1.4-1c-0.5,0.7-1.1,1.2-2.1,1.2
			c-1,0-1.6-0.4-2.1-1.3l5.7-2.4L435.1,289.7z M429.3,291.1c0-1.6,1.3-2.5,2.2-2.5c0.7,0,1.4,0.4,1.6,0.9L429.3,291.1z M424.6,295.2
			h1.9v-12.5h-1.9V295.2z M421.6,287.9L421.6,287.9c-0.5-0.5-1.3-1-2.3-1c-2.1,0-4.1,1.9-4.1,4.3c0,2.4,1.9,4.2,4.1,4.2
			c1,0,1.8-0.5,2.2-1h0.1v0.6c0,1.6-0.9,2.5-2.3,2.5c-1.1,0-1.9-0.8-2.1-1.5l-1.6,0.7c0.5,1.1,1.7,2.5,3.8,2.5c2.2,0,4-1.3,4-4.4
			v-7.6h-1.8V287.9z M419.4,293.8c-1.3,0-2.4-1.1-2.4-2.6c0-1.5,1.1-2.6,2.4-2.6c1.3,0,2.3,1.1,2.3,2.6
			C421.7,292.7,420.7,293.8,419.4,293.8z M443.8,282.7h-4.5v12.5h1.9v-4.7h2.6c2.1,0,4.1-1.5,4.1-3.9S445.9,282.7,443.8,282.7z
			 M443.9,288.8h-2.7v-4.3h2.7c1.4,0,2.2,1.2,2.2,2.1C446.1,287.6,445.3,288.8,443.9,288.8z M455.4,287c-1.4,0-2.8,0.6-3.3,1.9
			l1.7,0.7c0.4-0.7,1-0.9,1.7-0.9c1,0,1.9,0.6,2,1.6v0.1c-0.3-0.2-1.1-0.5-1.9-0.5c-1.8,0-3.6,1-3.6,2.8c0,1.7,1.5,2.8,3.1,2.8
			c1.3,0,1.9-0.6,2.4-1.2h0.1v1h1.8v-4.8C459.2,288.2,457.5,287,455.4,287z M455.2,293.8c-0.6,0-1.5-0.3-1.5-1.1c0-1,1.1-1.3,2-1.3
			c0.8,0,1.2,0.2,1.7,0.4C457.2,293,456.3,293.8,455.2,293.8z M465.8,287.2l-2.1,5.4h-0.1l-2.2-5.4h-2l3.3,7.6l-1.9,4.2h1.9
			l5.1-11.8H465.8z M449,295.2h1.9v-12.5H449V295.2z"/>
		<g>
			
				<linearGradient id="SVGID_39_" gradientUnits="userSpaceOnUse" x1="363.8137" y1="62.0538" x2="347.0313" y2="45.2714" gradientTransform="matrix(1 0 0 -1 0 336)">
				<stop  offset="0" style="stop-color:#00A0FF"/>
				<stop  offset="6.574450e-03" style="stop-color:#00A1FF"/>
				<stop  offset="0.2601" style="stop-color:#00BEFF"/>
				<stop  offset="0.5122" style="stop-color:#00D2FF"/>
				<stop  offset="0.7604" style="stop-color:#00DFFF"/>
				<stop  offset="1" style="stop-color:#00E3FF"/>
			</linearGradient>
			<path class="st63" d="M352.4,272.8c-0.3,0.3-0.5,0.8-0.5,1.4v22.1c0,0.6,0.2,1.1,0.5,1.4l0.1,0.1l12.4-12.4v-0.1v-0.1
				L352.4,272.8L352.4,272.8z"/>
			
				<linearGradient id="SVGID_40_" gradientUnits="userSpaceOnUse" x1="375.8483" y1="50.762" x2="351.6514" y2="50.762" gradientTransform="matrix(1 0 0 -1 0 336)">
				<stop  offset="0" style="stop-color:#FFE000"/>
				<stop  offset="0.4087" style="stop-color:#FFBD00"/>
				<stop  offset="0.7754" style="stop-color:#FFA500"/>
				<stop  offset="1" style="stop-color:#FF9C00"/>
			</linearGradient>
			<path class="st64" d="M369,289.5l-4.1-4.1v-0.1v-0.1l4.1-4.1l0.1,0.1l4.9,2.8c1.4,0.8,1.4,2.1,0,2.9L369,289.5L369,289.5z"/>
			
				<linearGradient id="SVGID_41_" gradientUnits="userSpaceOnUse" x1="366.8409" y1="48.4674" x2="344.0826" y2="25.7091" gradientTransform="matrix(1 0 0 -1 0 336)">
				<stop  offset="0" style="stop-color:#FF3A44"/>
				<stop  offset="1" style="stop-color:#C31162"/>
			</linearGradient>
			<path class="st65" d="M369.1,289.5l-4.2-4.2l-12.5,12.5c0.5,0.5,1.2,0.5,2.1,0.1L369.1,289.5"/>
			
				<linearGradient id="SVGID_42_" gradientUnits="userSpaceOnUse" x1="349.3113" y1="70.5873" x2="359.4738" y2="60.4248" gradientTransform="matrix(1 0 0 -1 0 336)">
				<stop  offset="0" style="stop-color:#32A071"/>
				<stop  offset="6.850000e-02" style="stop-color:#2DA771"/>
				<stop  offset="0.4762" style="stop-color:#15CF74"/>
				<stop  offset="0.8009" style="stop-color:#06E775"/>
				<stop  offset="1" style="stop-color:#00F076"/>
			</linearGradient>
			<path class="st66" d="M369.1,281l-14.6-8.3c-0.9-0.5-1.6-0.4-2.1,0.1l12.5,12.5L369.1,281z"/>
			<g>
				<path class="st67" d="M369,289.4l-14.5,8.2c-0.8,0.5-1.5,0.4-2,0l0,0l-0.1,0.1l0,0l0.1,0.1l0,0c0.5,0.4,1.2,0.5,2,0L369,289.4
					L369,289.4z"/>
				<path class="st68" d="M352.4,297.6c-0.3-0.3-0.5-0.8-0.5-1.4v0.1c0,0.6,0.2,1.1,0.5,1.4V297.6L352.4,297.6z"/>
			</g>
			<path class="st68" d="M374,286.5l-5,2.8l0.1,0.1l4.9-2.8c0.7-0.4,1-0.9,1-1.4l0,0C375,285.7,374.7,286.2,374,286.5z"/>
			<path class="st69" d="M354.5,272.9l19.5,11.1c0.6,0.4,1,0.8,1,1.3l0,0c0-0.5-0.3-1-1-1.4l-19.5-11.1c-1.4-0.8-2.5-0.1-2.5,1.5
				v0.1C352,272.7,353.1,272.1,354.5,272.9z"/>
		</g>
	</g>
	<g>
		<path class="st70" d="M383.3,278.2v-6h1.8c0.9,0,1.7,0.3,2.2,0.8c0.6,0.6,0.8,1.3,0.8,2.2c0,0.9-0.3,1.6-0.8,2.2
			c-0.6,0.6-1.3,0.8-2.2,0.8H383.3z M384.1,277.5h1.1c0.7,0,1.2-0.2,1.6-0.6c0.4-0.4,0.6-1,0.6-1.7c0-0.7-0.2-1.3-0.6-1.7
			c-0.4-0.4-1-0.6-1.6-0.6h-1.1V277.5z"/>
		<path class="st70" d="M389.3,278.2v-6h0.8v6H389.3z"/>
		<path class="st70" d="M393.1,278.4c-0.4,0-0.9-0.1-1.3-0.4c-0.4-0.3-0.7-0.7-0.8-1.2l0.7-0.3c0.1,0.3,0.3,0.6,0.5,0.8
			c0.3,0.2,0.6,0.3,0.9,0.3c0.3,0,0.6-0.1,0.9-0.3c0.2-0.2,0.4-0.4,0.4-0.7c0-0.3-0.1-0.6-0.4-0.8c-0.2-0.2-0.6-0.4-1.1-0.5
			c-0.5-0.2-0.9-0.4-1.2-0.6c-0.3-0.3-0.4-0.6-0.4-1c0-0.4,0.2-0.8,0.5-1.1c0.3-0.3,0.8-0.5,1.3-0.5c0.5,0,0.9,0.1,1.2,0.4
			c0.3,0.3,0.5,0.5,0.6,0.8l-0.7,0.3c-0.1-0.2-0.2-0.4-0.4-0.5c-0.2-0.2-0.5-0.2-0.8-0.2c-0.3,0-0.5,0.1-0.8,0.2
			c-0.2,0.2-0.3,0.4-0.3,0.6c0,0.2,0.1,0.4,0.3,0.6c0.2,0.2,0.5,0.3,0.9,0.4c0.3,0.1,0.5,0.2,0.7,0.3c0.2,0.1,0.4,0.2,0.6,0.4
			c0.2,0.1,0.4,0.3,0.5,0.6c0.1,0.2,0.2,0.5,0.2,0.8s-0.1,0.6-0.2,0.8c-0.1,0.2-0.3,0.4-0.5,0.5c-0.2,0.1-0.4,0.2-0.6,0.3
			C393.6,278.3,393.3,278.4,393.1,278.4z"/>
		<path class="st70" d="M397,278.2h-0.8v-6h2c0.5,0,0.9,0.2,1.3,0.5c0.4,0.3,0.6,0.8,0.6,1.3c0,0.5-0.2,0.9-0.6,1.3
			c-0.4,0.3-0.8,0.5-1.3,0.5H397V278.2z M397,275.1h1.3c0.3,0,0.6-0.1,0.8-0.3c0.2-0.2,0.3-0.5,0.3-0.7s-0.1-0.5-0.3-0.7
			c-0.2-0.2-0.5-0.3-0.8-0.3H397V275.1z"/>
		<path class="st70" d="M406,277.5c-0.6,0.6-1.3,0.9-2.2,0.9c-0.9,0-1.6-0.3-2.2-0.9c-0.6-0.6-0.9-1.3-0.9-2.2
			c0-0.9,0.3-1.6,0.9-2.2c0.6-0.6,1.3-0.9,2.2-0.9c0.9,0,1.6,0.3,2.2,0.9c0.6,0.6,0.9,1.3,0.9,2.2
			C406.9,276.1,406.6,276.9,406,277.5z M402.2,277c0.4,0.4,1,0.7,1.6,0.7c0.6,0,1.2-0.2,1.6-0.7c0.4-0.4,0.7-1,0.7-1.7
			c0-0.7-0.2-1.3-0.7-1.7c-0.4-0.4-1-0.7-1.6-0.7c-0.6,0-1.2,0.2-1.6,0.7c-0.4,0.4-0.7,1-0.7,1.7C401.5,275.9,401.7,276.5,402.2,277
			z"/>
		<path class="st70" d="M408,278.2v-6h0.9l2.9,4.7h0l0-1.2v-3.5h0.8v6h-0.8l-3.1-4.9h0l0,1.2v3.7H408z"/>
		<path class="st70" d="M414,278.2v-6h0.8v6H414z"/>
		<path class="st70" d="M416.1,278.2v-6h2.2c0.5,0,0.9,0.2,1.2,0.5c0.3,0.3,0.5,0.7,0.5,1.2c0,0.3-0.1,0.5-0.2,0.8
			c-0.1,0.2-0.3,0.4-0.6,0.5v0c0.3,0.1,0.5,0.3,0.7,0.5c0.2,0.2,0.3,0.5,0.3,0.9c0,0.5-0.2,0.9-0.5,1.2c-0.4,0.3-0.8,0.5-1.3,0.5
			H416.1z M416.9,274.8h1.4c0.3,0,0.5-0.1,0.7-0.3c0.2-0.2,0.3-0.4,0.3-0.6c0-0.2-0.1-0.4-0.3-0.6c-0.2-0.2-0.4-0.3-0.7-0.3h-1.4
			V274.8z M416.9,277.5h1.6c0.3,0,0.5-0.1,0.7-0.3c0.2-0.2,0.3-0.4,0.3-0.7c0-0.2-0.1-0.5-0.3-0.7c-0.2-0.2-0.4-0.3-0.7-0.3h-1.5
			V277.5z"/>
		<path class="st70" d="M421.3,278.2v-6h0.8v5.3h2.6v0.7H421.3z"/>
		<path class="st70" d="M429.1,273h-2.7v1.9h2.5v0.7h-2.5v1.9h2.7v0.7h-3.5v-6h3.5V273z"/>
		<path class="st70" d="M435.8,273h-2.7v1.9h2.5v0.7h-2.5v1.9h2.7v0.7h-3.5v-6h3.5V273z"/>
		<path class="st70" d="M437,278.2v-6h0.9l2.9,4.7h0l0-1.2v-3.5h0.8v6h-0.8l-3.1-4.9h0l0,1.2v3.7H437z"/>
	</g>
</g>
<g>
	<g>
		<g>
			<g>
				<path class="st71" d="M604.8,265.2H504.2c-0.4,0-0.7,0-1.1,0c-0.3,0-0.6,0-0.9,0c-0.7,0-1.3,0.1-2,0.2c-0.7,0.1-1.3,0.3-1.9,0.6
					c-0.6,0.3-1.1,0.7-1.6,1.2c-0.5,0.5-0.9,1-1.2,1.6c-0.3,0.6-0.5,1.2-0.6,1.9c-0.1,0.7-0.2,1.3-0.2,2c0,0.3,0,0.6,0,0.9
					c0,0.4,0,0.7,0,1.1v20.9c0,0.4,0,0.7,0,1.1c0,0.3,0,0.6,0,0.9c0,0.7,0.1,1.3,0.2,2c0.1,0.7,0.3,1.3,0.6,1.9
					c0.3,0.6,0.7,1.1,1.2,1.6c0.5,0.5,1,0.9,1.6,1.2c0.6,0.3,1.2,0.5,1.9,0.6c0.7,0.1,1.3,0.2,2,0.2c0.3,0,0.6,0,0.9,0
					c0.4,0,0.7,0,1.1,0h100.6c0.4,0,0.7,0,1.1,0c0.3,0,0.6,0,0.9,0c0.7,0,1.3-0.1,2-0.2c0.7-0.1,1.3-0.3,1.9-0.6
					c0.6-0.3,1.1-0.7,1.6-1.2c0.5-0.5,0.9-1,1.2-1.6c0.3-0.6,0.5-1.2,0.6-1.9c0.1-0.7,0.2-1.3,0.2-2c0-0.3,0-0.6,0-0.9
					c0-0.4,0-0.7,0-1.1v-20.9c0-0.4,0-0.7,0-1.1c0-0.3,0-0.6,0-0.9c0-0.7-0.1-1.3-0.2-2c-0.1-0.7-0.3-1.3-0.6-1.9
					c-0.3-0.6-0.7-1.1-1.2-1.6c-0.5-0.5-1-0.9-1.6-1.2c-0.6-0.3-1.2-0.5-1.9-0.6c-0.7-0.1-1.3-0.2-2-0.2c-0.3,0-0.6,0-0.9,0
					C605.5,265.2,605.2,265.2,604.8,265.2L604.8,265.2z"/>
				<path d="M503.1,304.4c-0.3,0-0.6,0-0.9,0c-0.6,0-1.2,0-1.9-0.2c-0.6-0.1-1.2-0.3-1.7-0.5c-0.5-0.3-1-0.6-1.4-1
					c-0.4-0.4-0.8-0.9-1-1.4c-0.3-0.5-0.4-1-0.5-1.7c-0.1-0.7-0.2-1.4-0.2-1.9c0-0.2,0-0.9,0-0.9v-23.1c0,0,0-0.7,0-0.9
					c0-0.5,0-1.2,0.2-1.9c0.1-0.6,0.3-1.2,0.5-1.7c0.3-0.5,0.6-1,1-1.4c0.4-0.4,0.9-0.8,1.4-1c0.5-0.3,1.1-0.4,1.7-0.5
					c0.7-0.1,1.4-0.2,1.9-0.2l0.9,0h102.8l0.9,0c0.5,0,1.2,0,1.9,0.2c0.6,0.1,1.1,0.3,1.7,0.5c0.5,0.3,1,0.6,1.4,1
					c0.4,0.4,0.8,0.9,1,1.4c0.3,0.5,0.4,1.1,0.5,1.6c0.1,0.6,0.2,1.3,0.2,1.9c0,0.3,0,0.6,0,0.9c0,0.4,0,0.7,0,1.1v20.9
					c0,0.4,0,0.7,0,1.1c0,0.3,0,0.6,0,0.9c0,0.6-0.1,1.2-0.2,1.9c-0.1,0.6-0.3,1.2-0.5,1.7c-0.3,0.5-0.6,1-1,1.4
					c-0.4,0.4-0.9,0.8-1.4,1c-0.5,0.3-1,0.4-1.7,0.5c-0.6,0.1-1.3,0.1-1.9,0.2c-0.3,0-0.6,0-0.9,0l-1.1,0L503.1,304.4z"/>
			</g>
		</g>
		<g id="XMLID_20_">
			<g id="XMLID_22_">
				<g id="XMLID_23_">
					<path id="XMLID_25_" class="st7" d="M519.4,285.5c0-2.8,2.3-4.1,2.4-4.2c-1.3-1.9-3.3-2.1-4-2.2c-1.7-0.2-3.3,1-4.2,1
						c-0.9,0-2.2-1-3.6-1c-1.8,0-3.5,1.1-4.5,2.7c-1.9,3.3-0.5,8.3,1.4,11c0.9,1.3,2,2.8,3.4,2.8c1.4-0.1,1.9-0.9,3.6-0.9
						c1.7,0,2.1,0.9,3.6,0.9c1.5,0,2.4-1.3,3.3-2.7c1.1-1.5,1.5-3,1.5-3.1C522.3,289.9,519.5,288.8,519.4,285.5z"/>
					<path id="XMLID_24_" class="st7" d="M516.7,277.4c0.7-0.9,1.3-2.2,1.1-3.5c-1.1,0-2.4,0.7-3.2,1.7c-0.7,0.8-1.3,2.1-1.1,3.4
						C514.7,279.1,515.9,278.4,516.7,277.4z"/>
				</g>
			</g>
			<g>
				<path class="st7" d="M537,292.4h-4.7l-1.1,3.4h-2l4.5-12.4h2.1l4.5,12.4h-2L537,292.4z M532.7,290.8h3.8l-1.8-5.4h-0.1
					L532.7,290.8z"/>
				<path class="st7" d="M549.8,291.2c0,2.8-1.5,4.6-3.8,4.6c-1.3,0-2.3-0.6-2.8-1.6h0v4.5h-1.9v-12h1.8v1.5h0
					c0.5-1,1.6-1.6,2.9-1.6C548.3,286.6,549.8,288.4,549.8,291.2z M547.9,291.2c0-1.8-0.9-3-2.4-3c-1.4,0-2.4,1.2-2.4,3
					c0,1.8,1,3,2.4,3C547,294.3,547.9,293.1,547.9,291.2z"/>
				<path class="st7" d="M559.8,291.2c0,2.8-1.5,4.6-3.8,4.6c-1.3,0-2.3-0.6-2.8-1.6h0v4.5h-1.9v-12h1.8v1.5h0
					c0.5-1,1.6-1.6,2.9-1.6C558.3,286.6,559.8,288.4,559.8,291.2z M557.9,291.2c0-1.8-0.9-3-2.4-3c-1.4,0-2.4,1.2-2.4,3
					c0,1.8,1,3,2.4,3C556.9,294.3,557.9,293.1,557.9,291.2z"/>
				<path class="st7" d="M566.4,292.3c0.1,1.2,1.3,2,3,2c1.6,0,2.7-0.8,2.7-1.9c0-1-0.7-1.5-2.3-1.9l-1.6-0.4
					c-2.3-0.6-3.3-1.6-3.3-3.3c0-2.1,1.9-3.6,4.5-3.6c2.6,0,4.4,1.5,4.5,3.6h-1.9c-0.1-1.2-1.1-2-2.6-2s-2.5,0.8-2.5,1.9
					c0,0.9,0.7,1.4,2.3,1.8l1.4,0.3c2.5,0.6,3.6,1.6,3.6,3.4c0,2.3-1.9,3.8-4.8,3.8c-2.8,0-4.6-1.4-4.7-3.7H566.4z"/>
				<path class="st7" d="M578,284.5v2.1h1.7v1.5H578v5c0,0.8,0.3,1.1,1.1,1.1c0.2,0,0.5,0,0.6,0v1.5c-0.2,0.1-0.6,0.1-1,0.1
					c-1.8,0-2.5-0.7-2.5-2.4v-5.2h-1.3v-1.5h1.3v-2.1H578z"/>
				<path class="st7" d="M580.7,291.2c0-2.8,1.7-4.6,4.3-4.6c2.6,0,4.3,1.8,4.3,4.6c0,2.9-1.7,4.6-4.3,4.6
					C582.4,295.8,580.7,294.1,580.7,291.2z M587.4,291.2c0-2-0.9-3.1-2.4-3.1s-2.4,1.2-2.4,3.1c0,2,0.9,3.1,2.4,3.1
					S587.4,293.2,587.4,291.2z"/>
				<path class="st7" d="M590.9,286.7h1.8v1.5h0c0.3-1,1.1-1.6,2.2-1.6c0.3,0,0.5,0,0.6,0.1v1.7c-0.1-0.1-0.5-0.1-0.8-0.1
					c-1.2,0-1.9,0.8-1.9,2.1v5.4h-1.9V286.7z"/>
				<path class="st7" d="M604.1,293.1c-0.2,1.6-1.9,2.8-3.9,2.8c-2.6,0-4.3-1.8-4.3-4.6c0-2.8,1.6-4.7,4.2-4.7
					c2.5,0,4.1,1.7,4.1,4.5v0.6h-6.4v0.1c0,1.5,1,2.6,2.4,2.6c1,0,1.8-0.5,2.1-1.3H604.1z M597.8,290.4h4.5c0-1.4-0.9-2.3-2.2-2.3
					C598.8,288.1,597.9,289,597.8,290.4z"/>
			</g>
		</g>
	</g>
	<g id="XMLID_1_">
		<g>
			<path class="st7" d="M532.5,274c1.8,0,2.8,1.1,2.8,3c0,1.9-1,3-2.8,3h-2.2v-6H532.5z M531.3,279.1h1.1c1.2,0,2-0.8,2-2.1
				c0-1.3-0.7-2.1-2-2.1h-1.1V279.1z"/>
			<path class="st7" d="M540.4,278.7c-0.2,0.8-0.9,1.3-2,1.3c-1.3,0-2.1-0.9-2.1-2.3c0-1.4,0.8-2.4,2.1-2.4c1.3,0,2,0.9,2,2.3v0.3
				h-3.2v0c0,0.8,0.5,1.3,1.2,1.3c0.5,0,0.9-0.2,1.1-0.5H540.4z M537.3,277.3h2.3c0-0.7-0.5-1.2-1.1-1.2
				C537.8,276.1,537.3,276.6,537.3,277.3z"/>
			<path class="st7" d="M543.3,275.3c1,0,1.7,0.5,1.8,1.3h-0.9c-0.1-0.3-0.4-0.5-0.9-0.5c-0.5,0-0.9,0.2-0.9,0.6
				c0,0.3,0.2,0.4,0.7,0.6l0.7,0.2c0.9,0.2,1.3,0.6,1.3,1.2c0,0.8-0.8,1.4-1.9,1.4c-1.1,0-1.8-0.5-1.8-1.3h0.9
				c0.1,0.3,0.4,0.6,1,0.6c0.6,0,0.9-0.2,0.9-0.6c0-0.3-0.2-0.4-0.7-0.5l-0.8-0.2c-0.9-0.2-1.3-0.6-1.3-1.3
				C541.5,275.9,542.3,275.3,543.3,275.3z"/>
			<path class="st7" d="M549.3,276.9c-0.1-0.4-0.5-0.8-1.1-0.8c-0.7,0-1.2,0.6-1.2,1.5c0,1,0.5,1.6,1.2,1.6c0.6,0,0.9-0.3,1.1-0.7
				h0.9c-0.1,0.9-0.8,1.5-1.9,1.5c-1.3,0-2.1-0.9-2.1-2.4c0-1.4,0.8-2.3,2.1-2.3c1.1,0,1.8,0.7,1.9,1.6H549.3z"/>
			<path class="st7" d="M551,278.7c0-0.8,0.6-1.3,1.7-1.3l1.2-0.1v-0.4c0-0.5-0.3-0.7-0.9-0.7c-0.5,0-0.8,0.2-0.9,0.5h-0.9
				c0.1-0.8,0.8-1.3,1.8-1.3c1.1,0,1.8,0.6,1.8,1.5v3.1h-0.9v-0.6h-0.1c-0.3,0.5-0.8,0.7-1.4,0.7C551.6,280,551,279.5,551,278.7z
				 M553.9,278.3v-0.4l-1.1,0.1c-0.6,0-0.9,0.3-0.9,0.6c0,0.4,0.4,0.6,0.8,0.6C553.4,279.3,553.9,278.8,553.9,278.3z M552.5,274.7
				l1-1.4h1l-1.2,1.4H552.5z"/>
			<path class="st7" d="M556.2,275.4h0.9v0.7h0.1c0.1-0.4,0.6-0.8,1.2-0.8c0.1,0,0.3,0,0.4,0v0.9c-0.1,0-0.3-0.1-0.5-0.1
				c-0.7,0-1.1,0.4-1.1,1.1v2.7h-0.9V275.4z"/>
			<path class="st7" d="M559.5,280.4h0.9c0.1,0.3,0.5,0.5,1.1,0.5c0.7,0,1.2-0.4,1.2-0.9v-0.9h-0.1c-0.3,0.5-0.8,0.8-1.4,0.8
				c-1.1,0-1.9-0.9-1.9-2.2c0-1.4,0.7-2.3,1.9-2.3c0.6,0,1.2,0.3,1.4,0.8h0.1v-0.7h0.9v4.5c0,1-0.8,1.7-2.1,1.7
				C560.4,281.7,559.6,281.2,559.5,280.4z M562.7,277.6c0-0.9-0.5-1.5-1.2-1.5c-0.8,0-1.2,0.6-1.2,1.5c0,0.9,0.4,1.5,1.2,1.5
				C562.2,279.1,562.7,278.5,562.7,277.6z"/>
			<path class="st7" d="M564.7,278.7c0-0.8,0.6-1.3,1.7-1.3l1.2-0.1v-0.4c0-0.5-0.3-0.7-0.9-0.7c-0.5,0-0.8,0.2-0.9,0.5h-0.9
				c0.1-0.8,0.8-1.3,1.8-1.3c1.1,0,1.8,0.6,1.8,1.5v3.1h-0.9v-0.6h-0.1c-0.3,0.5-0.8,0.7-1.4,0.7C565.4,280,564.7,279.5,564.7,278.7
				z M567.6,278.3v-0.4l-1.1,0.1c-0.6,0-0.9,0.3-0.9,0.6c0,0.4,0.4,0.6,0.8,0.6C567.1,279.3,567.6,278.8,567.6,278.3z"/>
			<path class="st7" d="M569.9,273.7h0.9v6.3h-0.9V273.7z"/>
			<path class="st7" d="M572.1,277.7c0-1.5,0.8-2.3,2.1-2.3c1.3,0,2.1,0.9,2.1,2.3c0,1.5-0.8,2.3-2.1,2.3
				C572.9,280,572.1,279.1,572.1,277.7z M575.4,277.7c0-1-0.4-1.5-1.2-1.5c-0.8,0-1.2,0.6-1.2,1.5c0,1,0.4,1.6,1.2,1.6
				C575,279.2,575.4,278.7,575.4,277.7z"/>
			<path class="st7" d="M583.7,278.7c-0.2,0.8-0.9,1.3-2,1.3c-1.3,0-2.1-0.9-2.1-2.3c0-1.4,0.8-2.4,2.1-2.4c1.3,0,2,0.9,2,2.3v0.3
				h-3.2v0c0,0.8,0.5,1.3,1.2,1.3c0.5,0,0.9-0.2,1.1-0.5H583.7z M580.6,277.3h2.3c0-0.7-0.5-1.2-1.1-1.2
				C581.1,276.1,580.7,276.6,580.6,277.3z"/>
			<path class="st7" d="M585,275.4h0.9v0.7h0.1c0.2-0.5,0.7-0.8,1.3-0.8c1,0,1.6,0.6,1.6,1.7v2.9h-0.9v-2.7c0-0.7-0.3-1.1-1-1.1
				s-1.1,0.4-1.1,1.1v2.6H585V275.4z"/>
			<path class="st7" d="M596.4,278.7c-0.2,0.8-0.9,1.3-2,1.3c-1.3,0-2.1-0.9-2.1-2.3c0-1.4,0.8-2.4,2.1-2.4c1.3,0,2,0.9,2,2.3v0.3
				h-3.2v0c0,0.8,0.5,1.3,1.2,1.3c0.5,0,0.9-0.2,1.1-0.5H596.4z M593.3,277.3h2.3c0-0.7-0.5-1.2-1.1-1.2
				C593.8,276.1,593.4,276.6,593.3,277.3z"/>
			<path class="st7" d="M597.7,273.7h0.9v6.3h-0.9V273.7z"/>
		</g>
	</g>
</g>
</svg>
