<?xml version="1.0" encoding="UTF-8"?>
<svg width="15px" height="15px" viewBox="0 0 15 15" version="1.1" xmlns="http://www.w3.org/2000/svg" xmlns:xlink="http://www.w3.org/1999/xlink">
    <!-- Generator: Sketch 54.1 (76490) - https://sketchapp.com -->
    <title>Combined Shape</title>
    <desc>Created with Sketch.</desc>
    <g id="Page-1" stroke="none" stroke-width="1" fill="none" fill-rule="evenodd">
        <g id="redessociales/mobile" transform="translate(-101.000000, -35.000000)" fill="#000325">
            <path d="M102.024,35 L114.976,35 C115.54154,35 116,35.4584604 116,36.024 L116,48.976 C116,49.5415396 115.54154,50 114.976,50 L111.504057,50 C111.362672,50 111.248057,49.8853849 111.248057,49.744 L111.248057,44.4159025 C111.248057,44.2745176 111.362672,44.1599025 111.504057,44.1599025 L112.970067,44.1599025 C113.099343,44.1599025 113.208332,44.0635203 113.224145,43.9352151 L113.428256,42.2790092 C113.445549,42.138686 113.345814,42.0109123 113.205491,41.9936189 C113.195102,41.9923386 113.184645,41.9916966 113.174178,41.9916966 L111.504057,41.9916966 C111.362672,41.9916966 111.248057,41.8770815 111.248057,41.7356966 L111.248057,39.6523813 C111.248057,39.5109964 111.362672,39.3963813 111.504057,39.3963813 L113.207664,39.3963813 C113.349049,39.3963813 113.463664,39.2817662 113.463664,39.1403813 L113.463664,37.6660924 C113.463664,37.5247075 113.349049,37.4100924 113.207664,37.4100924 L111.317847,37.4100924 C110.132745,37.4100924 109.17203,38.3708075 109.17203,39.5559097 L109.17203,40.0177822 L109.17203,41.7356966 C109.17203,41.8770815 109.057415,41.9916966 108.91603,41.9916966 L107.245347,41.9916966 C107.103962,41.9916966 106.989347,42.1063117 106.989347,42.2476966 L106.989347,43.9039025 C106.989347,44.0452874 107.103962,44.1599025 107.245347,44.1599025 L108.91603,44.1599025 C109.057415,44.1599025 109.17203,44.2745176 109.17203,44.4159025 L109.17203,49.744 C109.17203,49.8853849 109.057415,50 108.91603,50 L102.024,50 C101.45846,50 101,49.5415396 101,48.976 L101,36.024 C101,35.4584604 101.45846,35 102.024,35 Z" id="Combined-Shape"></path>
        </g>
    </g>
</svg>