<?xml version="1.0" encoding="UTF-8"?>
<svg width="16px" height="16px" viewBox="0 0 16 16" version="1.1" xmlns="http://www.w3.org/2000/svg" xmlns:xlink="http://www.w3.org/1999/xlink">
    <!-- Generator: Sketch 54.1 (76490) - https://sketchapp.com -->
    <title>Group 5</title>
    <desc>Created with Sketch.</desc>
    <g id="Page-1" stroke="none" stroke-width="1" fill="none" fill-rule="evenodd">
        <g id="redessociales/mobile" transform="translate(-147.000000, -35.000000)">
            <g id="Group-5" transform="translate(147.000000, 35.000000)">
                <path d="M4.18511302,14.4940074 C1.55884546,15.4980025 0.17115396,16 0.0220385194,16 C-0.121195103,16 0.433753519,14.6827503 1.68688439,12.048251 C0.903096162,10.8283246 0.448184619,9.37495139 0.448184619,7.81479652 C0.448184619,3.49880358 3.92957708,0 8.22409231,0 C12.5186075,0 16,3.49880358 16,7.81479652 C16,12.1307895 12.5186075,15.629593 8.22409231,15.629593 C6.74496866,15.629593 5.36230269,15.2145432 4.18511302,14.4940074 Z" id="Combined-Shape" fill="#000325"></path>
                <path d="M5.65444221,4.48 C4.89580276,4.48 3.6028057,4.66430901 3.87770744,6.43088587 C4.15260918,8.19746273 4.87253849,9.61532855 6.30942666,10.6912544 C7.74631484,11.7671803 9.26097482,12.3308057 10.3655775,12.1141309 C11.4701803,11.897456 12.16,11.2272538 12.16,10.6912544 C12.16,10.1552551 11.8849632,9.8558376 11.1908228,9.56806636 C10.4966824,9.28029512 10.2346077,9.05563042 9.90272726,9.35125612 C9.57084687,9.64688182 9.47052664,10.6754101 8.7807069,10.3917015 C8.09088716,10.1079929 7.84623001,9.89917256 7.26118618,9.35125612 C6.67614234,8.80333968 5.76785943,7.84672037 6.02993423,7.46740402 C6.29200902,7.08808767 6.95117911,7.46347679 6.68923933,6.43088587 C6.42729956,5.39829495 6.41308166,4.48 5.65444221,4.48 Z" id="Path-10" fill="#FFFFFF"></path>
            </g>
        </g>
    </g>
</svg>