<?xml version="1.0" encoding="UTF-8"?>
<svg width="20px" height="15px" viewBox="0 0 20 15" version="1.1" xmlns="http://www.w3.org/2000/svg" xmlns:xlink="http://www.w3.org/1999/xlink">
    <!-- Generator: Sketch 54.1 (76490) - https://sketchapp.com -->
    <title>Path 17</title>
    <desc>Created with Sketch.</desc>
    <g id="Page-1" stroke="none" stroke-width="1" fill="none" fill-rule="evenodd">
        <g id="redessociales/mobile" transform="translate(-49.000000, -35.000000)" fill="#000325">
            <path d="M58.3351677,39.454604 C58.6857859,39.454604 57.9845494,37.0496776 60.2532078,35.6110716 C61.7656468,34.652001 63.6110394,34.821869 65.7893856,36.1206756 C67.1984629,35.7636934 68.0659684,35.4548026 68.391902,35.1940034 C68.8808025,34.8028046 67.6342613,36.7421073 66.8881196,37.2758915 C66.1419779,37.8096756 69.3298592,36.3323349 68.9718403,36.8717179 C68.6138215,37.4111008 67.2623729,38.7008338 66.8881196,38.993717 C66.5138663,39.2866002 67.4776685,43.7831477 63.3828686,47.1057786 C59.2880687,50.4284096 54.897267,50.2048604 52.4486301,49.7268994 C49.9999933,49.2489383 49,48.3191769 49,48.0646646 C49,47.9398207 49.6366462,48.1895085 51.7178632,48.0646646 C53.7990801,47.9398207 56.3137088,46.5684724 54.897267,46.791095 C53.4808251,47.0137176 51.7178632,46.0043337 51.3498961,44.6844997 C51.14079,43.9344727 51.7363976,44.1500023 52.4486301,44.2143567 C53.0816976,44.2715581 53.6606743,44.3205063 52.7164659,43.9917341 C51.2294392,43.4739533 50.4343398,42.7585301 50.012366,41.1428206 C49.8267539,40.4321245 50.0495909,40.5447387 50.6273983,40.7363188 C51.3631887,40.9802804 52.7122023,41.3053242 51.3498961,40.4641435 C49.3900943,39.2540284 50.0090374,35.5586453 50.6273983,36.1206756 C51.2457592,36.6827059 53.2177698,38.7486169 55.5030953,39.1881626 C57.7884207,39.6277082 57.9845494,39.454604 58.3351677,39.454604 Z" id="Path-17"></path>
        </g>
    </g>
</svg>