<?xml version="1.0" encoding="UTF-8"?>
<svg width="53px" height="38px" viewBox="0 0 53 38" version="1.1" xmlns="http://www.w3.org/2000/svg" xmlns:xlink="http://www.w3.org/1999/xlink">
    <!-- Generator: Sketch 54.1 (76490) - https://sketchapp.com -->
    <title>Group 26</title>
    <desc>Created with Sketch.</desc>
    <defs>
        <path d="M0.443090056,31.8173077 L37.6861403,31.8173077 C38.002927,31.8173077 38.2818684,31.6086561 38.371343,31.3047679 L47.2649823,1.09872391 C47.3764035,0.720296937 47.1599525,0.323196547 46.7815255,0.211775368 C46.716013,0.192486358 46.6480728,0.182692308 46.5797796,0.182692308 L-0.271195658,0.182692308 L-0.271195658,31.103022 C-0.271195658,31.4975111 0.0486009492,31.8173077 0.443090056,31.8173077 Z" id="path-1"></path>
        <filter x="-9.1%" y="-11.9%" width="122.6%" height="130.1%" filterUnits="objectBoundingBox" id="filter-2">
            <feOffset dx="1" dy="1" in="SourceAlpha" result="shadowOffsetOuter1"></feOffset>
            <feGaussianBlur stdDeviation="1.5" in="shadowOffsetOuter1" result="shadowBlurOuter1"></feGaussianBlur>
            <feColorMatrix values="0 0 0 0 0   0 0 0 0 0   0 0 0 0 0  0 0 0 0.5 0" type="matrix" in="shadowBlurOuter1"></feColorMatrix>
        </filter>
    </defs>
    <g id="Page-1" stroke="none" stroke-width="1" fill="none" fill-rule="evenodd">
        <g id="Group-26" transform="translate(4.000000, 2.000000)">
            <g id="Group-12">
                <g id="Combined-Shape" transform="translate(23.479835, 16.000000) scale(-1, 1) translate(-23.479835, -16.000000) ">
                    <use fill="black" fill-opacity="1" filter="url(#filter-2)" xlink:href="#path-1"></use>
                    <use fill="#7D12FF" fill-rule="evenodd" xlink:href="#path-1"></use>
                </g>
                <path d="M33.908564,13.2717517 L33.908564,7.2578032 C33.908564,7.06539432 33.7525858,6.9094161 33.5601769,6.9094161 L30.6962045,6.9094161 C30.5037956,6.9094161 30.3478174,7.06539432 30.3478174,7.2578032 L30.3478174,9.63711408 L27.0376286,6.25439641 C26.9030572,6.11687649 26.6824837,6.11448621 26.5449638,6.24905756 C26.5431849,6.25079829 26.5414247,6.25255803 26.5396836,6.25433648 L17.5796937,15.406239 C17.4450892,15.5437265 17.4474264,15.7643007 17.5849139,15.8989051 C17.6500242,15.9626501 17.7375173,15.998349 17.8286368,15.998349 L18.7795654,15.998349 L18.7795654,25.6516129 C18.7795654,25.8440218 18.9355436,26 19.1279525,26 L23.7714902,26 C23.9638991,26 24.1198773,25.8440218 24.1198773,25.6516129 L24.1198773,20.4838069 C24.1198773,19.0103104 25.3143822,17.8158054 26.7878788,17.8158054 L26.7878788,17.8158054 C28.2613753,17.8158054 29.4558803,19.0103104 29.4558803,20.4838069 L29.4558803,25.6516129 C29.4558803,25.8440218 29.6118585,26 29.8042674,26 L34.4467279,26 C34.6391368,26 34.795115,25.8440218 34.795115,25.6516129 L34.795115,15.998349 L35.7476045,15.998349 C35.9400134,15.998349 36.0959916,15.8423708 36.0959916,15.6499619 C36.0959916,15.5588927 36.060332,15.4714438 35.9966494,15.4063429 L33.908564,13.2717517 Z" id="Stroke-25-Copy-4" stroke="#FFFFFF"></path>
            </g>
        </g>
    </g>
</svg>