<?xml version="1.0" encoding="UTF-8"?>
<svg width="55px" height="40px" viewBox="0 0 55 40" version="1.1" xmlns="http://www.w3.org/2000/svg" xmlns:xlink="http://www.w3.org/1999/xlink">
    <!-- Generator: Sketch 54.1 (76490) - https://sketchapp.com -->
    <title>Group 22</title>
    <desc>Created with Sketch.</desc>
    <defs>
        <linearGradient x1="50%" y1="4.12075506%" x2="50%" y2="97.4598085%" id="linearGradient-1">
            <stop stop-color="#ECD891" offset="0%"></stop>
            <stop stop-color="#C88D25" offset="100%"></stop>
        </linearGradient>
        <path d="M0,0 L47,0 L47,32 L8,32 C3.581722,32 5.41083001e-16,28.418278 0,24 L0,0 Z" id="path-2"></path>
        <filter x="-14.9%" y="-15.6%" width="129.8%" height="143.8%" filterUnits="objectBoundingBox" id="filter-3">
            <feOffset dx="0" dy="2" in="SourceAlpha" result="shadowOffsetOuter1"></feOffset>
            <feGaussianBlur stdDeviation="2" in="shadowOffsetOuter1" result="shadowBlurOuter1"></feGaussianBlur>
            <feComposite in="shadowBlurOuter1" in2="SourceAlpha" operator="out" result="shadowBlurOuter1"></feComposite>
            <feColorMatrix values="0 0 0 0 0   0 0 0 0 0   0 0 0 0 0  0 0 0 0.5 0" type="matrix" in="shadowBlurOuter1"></feColorMatrix>
        </filter>
        <linearGradient x1="50%" y1="100%" x2="50%" y2="0%" id="linearGradient-4">
            <stop stop-color="#F2AD24" offset="0%"></stop>
            <stop stop-color="#FFDA90" offset="100%"></stop>
        </linearGradient>
    </defs>
    <g id="Page-1" stroke="none" stroke-width="1" fill="none" fill-rule="evenodd">
        <g id="Group-22" transform="translate(4.000000, 2.000000)">
            <g id="Rectangle-3-Copy-6">
                <use fill="black" fill-opacity="1" filter="url(#filter-3)" xlink:href="#path-2"></use>
                <path stroke="url(#linearGradient-1)" stroke-width="1" d="M0.5,0.5 L0.5,24 C0.5,28.1421356 3.85786438,31.5 8,31.5 L46.5,31.5 L46.5,0.5 L0.5,0.5 Z" stroke-linejoin="square" fill="#24383C" fill-rule="evenodd"></path>
            </g>
            <path d="M26.5431305,12.9350222 L27.1886684,12.9350222 C27.6165883,12.9350222 27.3885368,11.6606378 27.3885368,11.527069 C27.3885368,11.3935002 26.9887273,11.527069 26.1967623,11.527069 L25.3647189,11.527069 L24.4657391,10.2013554 L25.3656038,10.2013554 C25.4333357,10.2013554 25.3664886,9.10639329 25.3656038,8.93015975 C25.3647189,8.75392621 25.0211305,8.75392621 24.4657391,8.75392621 L23.2522556,8.75392621 C21.852018,6.9194189 20.9691809,6 20.6008218,6 C20.4311846,6 20.2452655,6.0694233 20.0497444,6.20705195 C19.8486568,6.33737288 19.7504092,6.48230924 19.7504092,6.63360602 C19.7504092,6.78706805 19.9610989,7.18317331 20.3824783,7.81772662 C20.8071975,8.45552781 21.4208973,9.64722679 22.2248302,11.3935002 C23.0298764,13.1346311 23.4327473,14.1895134 23.4327473,14.5553052 C23.4327473,14.7853629 23.0751037,14.9146012 22.3543891,14.9355771 C19.991436,14.9503278 18.2949247,15.0617028 17.2674993,15.2613117 C17.1462901,15.1636049 16.8525214,14.7917233 16.3857755,14.1559521 C15.9134632,13.5201808 15.5958979,13.1388263 15.4186068,13.019061 C15.2414549,12.8991603 14.9312651,12.8382627 14.4819144,12.8382627 C14.2420009,12.8382627 14.082105,12.8719593 14,12.9350222 C14,13.2186699 14.3543038,14.2443213 15.0631897,16.0073754 C14.3543038,17.609795 14,18.6321986 14,19.0744507 C14.082105,19.1406262 14.2420009,19.1743229 14.4819144,19.1743229 C14.9312651,19.1743229 15.2414549,19.1154551 15.4131795,18.9978551 C15.5850433,18.8810669 15.9092884,18.5039076 16.3792349,17.8629939 C16.8504339,17.2230274 17.1462901,16.8500633 17.2674993,16.7492439 C18.2949247,16.9299068 19.481411,17.0286963 20.8351689,17.0423645 C22.1826644,17.0581978 22.9573735,17.097037 23.1464932,17.1590172 C23.3377004,17.2188323 23.4327473,17.3187044 23.4327473,17.4584983 C23.4327473,17.815629 23.0298764,18.869564 22.2248302,20.6148901 C21.4208973,22.3623815 20.8071975,23.5548924 20.3824783,24.1917463 C19.9610989,24.8284649 19.7504092,25.2225402 19.7504092,25.3758669 C19.7504092,25.5302763 19.8486568,25.6691229 20.0497444,25.8045863 C20.2452655,25.9327419 20.4311846,26 20.6008218,26 C20.9691809,26 21.852018,25.0847763 23.2522556,23.2597419 L24.4657391,23.2597419 C25.0211305,23.2597419 25.7015175,23.3599974 25.7015175,22.9523892 C25.7015175,22.598371 25.7591011,21.8779737 25.3647189,21.8779737 L24.202082,21.8779737 L25.3647189,20.4834866 L26.1967623,20.4834866 C26.9078607,20.4834866 27.7273013,20.6631133 27.7273013,20.2586177 C27.7273013,19.898239 27.8164567,19.1743229 27.3885368,19.1743229 L26.3875717,19.1743229 L28.2410368,17.0308616 L30.8473824,17.0308616 C33.0686697,17.0308616 34.1818182,16.6725128 34.1818182,15.9517555 C34.1818182,15.66689 33.7353898,15.4357496 32.8375233,15.254004 C31.9439708,15.0711758 31.2817038,14.9807766 30.8473824,14.9807766 L28.2410368,14.9807766 L26.5431305,12.9350222 Z" id="Stroke-22-Copy-5" stroke="url(#linearGradient-4)"></path>
        </g>
    </g>
</svg>