<?xml version="1.0" encoding="UTF-8"?>
<svg width="53px" height="38px" viewBox="0 0 53 38" version="1.1" xmlns="http://www.w3.org/2000/svg" xmlns:xlink="http://www.w3.org/1999/xlink">
    <!-- Generator: Sketch 54.1 (76490) - https://sketchapp.com -->
    <title>Group 28</title>
    <desc>Created with Sketch.</desc>
    <defs>
        <path d="M0.443090056,31.8173077 L37.6861403,31.8173077 C38.002927,31.8173077 38.2818684,31.6086561 38.371343,31.3047679 L47.2649823,1.09872391 C47.3764035,0.720296937 47.1599525,0.323196547 46.7815255,0.211775368 C46.716013,0.192486358 46.6480728,0.182692308 46.5797796,0.182692308 L-0.271195658,0.182692308 L-0.271195658,31.103022 C-0.271195658,31.4975111 0.0486009492,31.8173077 0.443090056,31.8173077 Z" id="path-1"></path>
        <filter x="-9.1%" y="-11.9%" width="122.6%" height="130.1%" filterUnits="objectBoundingBox" id="filter-2">
            <feOffset dx="1" dy="1" in="SourceAlpha" result="shadowOffsetOuter1"></feOffset>
            <feGaussianBlur stdDeviation="1.5" in="shadowOffsetOuter1" result="shadowBlurOuter1"></feGaussianBlur>
            <feColorMatrix values="0 0 0 0 0   0 0 0 0 0   0 0 0 0 0  0 0 0 0.5 0" type="matrix" in="shadowBlurOuter1"></feColorMatrix>
        </filter>
    </defs>
    <g id="Page-1" stroke="none" stroke-width="1" fill="none" fill-rule="evenodd">
        <g id="Group-28" transform="translate(4.000000, 2.000000)">
            <g id="Group-14">
                <g id="Combined-Shape" transform="translate(23.479835, 16.000000) scale(-1, 1) translate(-23.479835, -16.000000) ">
                    <use fill="black" fill-opacity="1" filter="url(#filter-2)" xlink:href="#path-1"></use>
                    <use fill="#F0CD34" fill-rule="evenodd" xlink:href="#path-1"></use>
                </g>
                <path d="M28.5431305,12.9350222 L29.1886684,12.9350222 C29.6165883,12.9350222 29.3885368,11.6606378 29.3885368,11.527069 C29.3885368,11.3935002 28.9887273,11.527069 28.1967623,11.527069 L27.3647189,11.527069 L26.4657391,10.2013554 L27.3656038,10.2013554 C27.4333357,10.2013554 27.3664886,9.10639329 27.3656038,8.93015975 C27.3647189,8.75392621 27.0211305,8.75392621 26.4657391,8.75392621 L25.2522556,8.75392621 C23.852018,6.9194189 22.9691809,6 22.6008218,6 C22.4311846,6 22.2452655,6.0694233 22.0497444,6.20705195 C21.8486568,6.33737288 21.7504092,6.48230924 21.7504092,6.63360602 C21.7504092,6.78706805 21.9610989,7.18317331 22.3824783,7.81772662 C22.8071975,8.45552781 23.4208973,9.64722679 24.2248302,11.3935002 C25.0298764,13.1346311 25.4327473,14.1895134 25.4327473,14.5553052 C25.4327473,14.7853629 25.0751037,14.9146012 24.3543891,14.9355771 C21.991436,14.9503278 20.2949247,15.0617028 19.2674993,15.2613117 C19.1462901,15.1636049 18.8525214,14.7917233 18.3857755,14.1559521 C17.9134632,13.5201808 17.5958979,13.1388263 17.4186068,13.019061 C17.2414549,12.8991603 16.9312651,12.8382627 16.4819144,12.8382627 C16.2420009,12.8382627 16.082105,12.8719593 16,12.9350222 C16,13.2186699 16.3543038,14.2443213 17.0631897,16.0073754 C16.3543038,17.609795 16,18.6321986 16,19.0744507 C16.082105,19.1406262 16.2420009,19.1743229 16.4819144,19.1743229 C16.9312651,19.1743229 17.2414549,19.1154551 17.4131795,18.9978551 C17.5850433,18.8810669 17.9092884,18.5039076 18.3792349,17.8629939 C18.8504339,17.2230274 19.1462901,16.8500633 19.2674993,16.7492439 C20.2949247,16.9299068 21.481411,17.0286963 22.8351689,17.0423645 C24.1826644,17.0581978 24.9573735,17.097037 25.1464932,17.1590172 C25.3377004,17.2188323 25.4327473,17.3187044 25.4327473,17.4584983 C25.4327473,17.815629 25.0298764,18.869564 24.2248302,20.6148901 C23.4208973,22.3623815 22.8071975,23.5548924 22.3824783,24.1917463 C21.9610989,24.8284649 21.7504092,25.2225402 21.7504092,25.3758669 C21.7504092,25.5302763 21.8486568,25.6691229 22.0497444,25.8045863 C22.2452655,25.9327419 22.4311846,26 22.6008218,26 C22.9691809,26 23.852018,25.0847763 25.2522556,23.2597419 L26.4657391,23.2597419 C27.0211305,23.2597419 27.7015175,23.3599974 27.7015175,22.9523892 C27.7015175,22.598371 27.7591011,21.8779737 27.3647189,21.8779737 L26.202082,21.8779737 L27.3647189,20.4834866 L28.1967623,20.4834866 C28.9078607,20.4834866 29.7273013,20.6631133 29.7273013,20.2586177 C29.7273013,19.898239 29.8164567,19.1743229 29.3885368,19.1743229 L28.3875717,19.1743229 L30.2410368,17.0308616 L32.8473824,17.0308616 C35.0686697,17.0308616 36.1818182,16.6725128 36.1818182,15.9517555 C36.1818182,15.66689 35.7353898,15.4357496 34.8375233,15.254004 C33.9439708,15.0711758 33.2817038,14.9807766 32.8473824,14.9807766 L30.2410368,14.9807766 L28.5431305,12.9350222 Z" id="Stroke-22-Copy-4" stroke="#FFFFFF"></path>
            </g>
        </g>
    </g>
</svg>