<?xml version="1.0" encoding="UTF-8"?>
<svg width="55px" height="40px" viewBox="0 0 55 40" version="1.1" xmlns="http://www.w3.org/2000/svg" xmlns:xlink="http://www.w3.org/1999/xlink">
    <!-- Generator: Sketch 54.1 (76490) - https://sketchapp.com -->
    <title>Group 25</title>
    <desc>Created with Sketch.</desc>
    <defs>
        <linearGradient x1="50%" y1="4.12075506%" x2="50%" y2="97.4598085%" id="linearGradient-1">
            <stop stop-color="#ECD891" offset="0%"></stop>
            <stop stop-color="#C88D25" offset="100%"></stop>
        </linearGradient>
        <path d="M0,0 L47,0 L47,32 L8,32 C3.581722,32 5.41083001e-16,28.418278 0,24 L0,0 Z" id="path-2"></path>
        <filter x="-14.9%" y="-15.6%" width="129.8%" height="143.8%" filterUnits="objectBoundingBox" id="filter-3">
            <feOffset dx="0" dy="2" in="SourceAlpha" result="shadowOffsetOuter1"></feOffset>
            <feGaussianBlur stdDeviation="2" in="shadowOffsetOuter1" result="shadowBlurOuter1"></feGaussianBlur>
            <feComposite in="shadowBlurOuter1" in2="SourceAlpha" operator="out" result="shadowBlurOuter1"></feComposite>
            <feColorMatrix values="0 0 0 0 0   0 0 0 0 0   0 0 0 0 0  0 0 0 0.5 0" type="matrix" in="shadowBlurOuter1"></feColorMatrix>
        </filter>
        <linearGradient x1="50%" y1="100%" x2="50%" y2="0%" id="linearGradient-4">
            <stop stop-color="#F2AD24" offset="0%"></stop>
            <stop stop-color="#FFDA90" offset="100%"></stop>
        </linearGradient>
        <linearGradient x1="50%" y1="100%" x2="50%" y2="0%" id="linearGradient-5">
            <stop stop-color="#F2AD24" offset="0%"></stop>
            <stop stop-color="#FFDA90" offset="100%"></stop>
        </linearGradient>
    </defs>
    <g id="Page-1" stroke="none" stroke-width="1" fill="none" fill-rule="evenodd">
        <g id="Group-25" transform="translate(4.000000, 2.000000)">
            <g id="Group-21">
                <g id="Rectangle-3-Copy-5">
                    <use fill="black" fill-opacity="1" filter="url(#filter-3)" xlink:href="#path-2"></use>
                    <path stroke="url(#linearGradient-1)" stroke-width="1" d="M0.5,0.5 L0.5,24 C0.5,28.1421356 3.85786438,31.5 8,31.5 L46.5,31.5 L46.5,0.5 L0.5,0.5 Z" stroke-linejoin="square" fill="#24383C" fill-rule="evenodd"></path>
                </g>
                <g id="Group-Copy-16" transform="translate(14.000000, 6.000000)">
                    <path d="M5.5124132,19.9999708 C6.80725469,19.990865 11.7754924,17.8002833 7.35925489,10.7525823 C7.02380861,10.308858 7.58029086,7.65662952 8.77770668,6.66020101 C9.97064044,5.65842468 9.87321476,2.69139763 8.33634242,0.496768899 C8.12780901,0.252214643 7.43167543,-0.48520605 7.44842415,0.528133127 C7.47413698,1.54523023 7.52108059,4.41484027 7.52108059,4.41484027 C7.52108059,4.41484027 7.529337,4.76620634 6.84169573,4.76620634 C6.15358266,4.76996427 6.10711085,4.42799301 6.10711085,4.42799301 C6.10711085,4.42799301 5.99647491,0.910574356 5.99647491,0.58797087 C5.9882185,0.266668204 5.52916192,0 5.17696693,0 L5.14299768,0.00260164102 C4.79056679,0.00260164102 4.34047432,0.278375589 4.34896663,0.600979075 C4.35321279,0.923582561 4.37845382,4.43695422 4.37845382,4.43695422 C4.37845382,4.43695422 4.34472047,4.78167166 3.65684331,4.78962111 C2.96896614,4.79207822 2.96896614,4.44345832 2.96896614,4.44345832 C2.96896614,4.44345832 2.90975586,1.57659446 2.88828918,0.560653639 C2.87531482,-0.452830073 2.20041202,0.296587076 2.00508887,0.540996796 C0.548657578,2.75773948 0.565406302,5.7275127 1.7927811,6.70688601 C3.02841231,7.68900549 3.68208434,10.3335736 3.36810474,10.7810558 C-0.780389051,17.8913407 4.27253583,20.0090765 5.56737732,19.9999708 L5.5124132,19.9999708 Z" id="Stroke-7" stroke="url(#linearGradient-4)"></path>
                    <path d="M19.1735156,7.28992926 C20.2868255,6.34164635 20.5561098,3.69187615 16.2113878,0.45463449 C16.0184677,0.224341204 13.6473811,-0.465979689 13.6712729,0.499910597 L13.8682122,11.2012819 C13.8682122,11.2012819 13.9003655,14.2699958 13.365816,15.0068505 C12.8395281,15.7427269 11.4285764,20.018664 16.1513236,19.9999387 C17.3769469,19.9773006 21.9547807,17.8795077 17.8552281,11.1949935 C17.5497712,10.7686435 18.0682441,8.24450052 19.1735156,7.28992926 Z" id="Stroke-9" stroke="url(#linearGradient-5)"></path>
                </g>
            </g>
        </g>
    </g>
</svg>