<?xml version="1.0" encoding="UTF-8"?>
<svg width="53px" height="38px" viewBox="0 0 53 38" version="1.1" xmlns="http://www.w3.org/2000/svg" xmlns:xlink="http://www.w3.org/1999/xlink">
    <!-- Generator: Sketch 54.1 (76490) - https://sketchapp.com -->
    <title>Group 27</title>
    <desc>Created with Sketch.</desc>
    <defs>
        <path d="M0.443090056,31.8173077 L37.6861403,31.8173077 C38.002927,31.8173077 38.2818684,31.6086561 38.371343,31.3047679 L47.2649823,1.09872391 C47.3764035,0.720296937 47.1599525,0.323196547 46.7815255,0.211775368 C46.716013,0.192486358 46.6480728,0.182692308 46.5797796,0.182692308 L-0.271195658,0.182692308 L-0.271195658,31.103022 C-0.271195658,31.4975111 0.0486009492,31.8173077 0.443090056,31.8173077 Z" id="path-1"></path>
        <filter x="-9.1%" y="-11.9%" width="122.6%" height="130.1%" filterUnits="objectBoundingBox" id="filter-2">
            <feOffset dx="1" dy="1" in="SourceAlpha" result="shadowOffsetOuter1"></feOffset>
            <feGaussianBlur stdDeviation="1.5" in="shadowOffsetOuter1" result="shadowBlurOuter1"></feGaussianBlur>
            <feColorMatrix values="0 0 0 0 0   0 0 0 0 0   0 0 0 0 0  0 0 0 0.5 0" type="matrix" in="shadowBlurOuter1"></feColorMatrix>
        </filter>
    </defs>
    <g id="Page-1" stroke="none" stroke-width="1" fill="none" fill-rule="evenodd">
        <g id="Group-27" transform="translate(4.000000, 2.000000)">
            <g id="Group-13">
                <g id="Combined-Shape" transform="translate(23.479835, 16.000000) scale(-1, 1) translate(-23.479835, -16.000000) ">
                    <use fill="black" fill-opacity="1" filter="url(#filter-2)" xlink:href="#path-1"></use>
                    <use fill="#3A9CFF" fill-rule="evenodd" xlink:href="#path-1"></use>
                </g>
                <g id="Group-9" transform="translate(15.000000, 6.000000)" stroke="#FFFFFF">
                    <path d="M21,12.7989242 L21,9.84373045 C21,9.18354687 20.5385057,8.64864865 19.968919,8.64864865 L2.08108099,8.64864865 C1.51168972,8.64864865 1.05,9.18354687 1.05,9.84373045 L1.05,12.7989242 C1.77478641,12.7989242 2.36216051,13.4817633 2.36216051,14.3240978 C2.36216051,15.1666588 1.77478641,15.8497245 1.05,15.8497245 L1.05,18.8049182 C1.05,19.4648752 1.51168972,20 2.08108099,20 L19.968919,20 C20.5385057,20 21,19.4648752 21,18.8049182 L21,15.8497245 C20.2752136,15.8497245 19.687644,15.1666588 19.687644,14.3240978 C19.687644,13.4817633 20.2752136,12.7989242 21,12.7989242 Z" id="Stroke-26"></path>
                    <path d="M20.7253059,9.17821441 C20.9944569,8.87377785 21.0824596,8.415088 20.9144545,8.00768025 L19.9130908,5.57849629 C19.2667855,5.88252585 18.511334,5.56771077 18.225992,4.8749955 C17.9404596,4.18248373 18.2330399,3.37438374 18.8795357,3.07035418 L17.878172,0.64117022 C17.6545461,0.0984347225 17.0615758,-0.14759723 16.5535604,0.0913122094 L0.600124543,7.596406 C0.0922996292,7.83511194 -0.138183546,8.4690156 0.0854422785,9.0115476 L1.05,10.8108108" id="Stroke-30"></path>
                    <path d="M9.95847041,12.1609997 L10.3012532,12.9129153 C10.3389047,12.9955063 10.4155003,13.053682 10.5051655,13.0677904 L11.3048117,13.1936109 C11.4522637,13.2168118 11.5529892,13.3551533 11.5297883,13.5026054 C11.5212869,13.5566356 11.4965926,13.6068151 11.4589683,13.6465134 L10.8542243,14.2845938 C10.796469,14.3455329 10.7703146,14.4298525 10.7834453,14.5127792 L10.9224595,15.3907166 C10.9458037,15.538146 10.8452128,15.6765854 10.6977834,15.6999297 C10.6371914,15.7095239 10.575138,15.698219 10.5218223,15.6678729 L9.8462636,15.2833608 C9.76338232,15.2361867 9.66177437,15.2361841 9.57889062,15.2833538 L8.9031595,15.6679172 C8.77343066,15.7417468 8.60841394,15.6964315 8.53458433,15.5667027 C8.50424348,15.5133896 8.49294112,15.4513411 8.50253461,15.3907539 L8.64155466,14.5127792 C8.65468542,14.4298525 8.62853099,14.3455329 8.57077566,14.2845938 L7.96603168,13.6465134 C7.86335261,13.5381741 7.86794108,13.36711 7.97628033,13.2644309 C8.01597863,13.2268066 8.06615808,13.2021124 8.12018832,13.1936109 L8.91985029,13.0677879 C9.00950685,13.0536809 9.08609687,12.9955149 9.12375234,12.9129354 L9.46663818,12.1609771 C9.52856755,12.0251642 9.68886931,11.9652698 9.82468218,12.0271991 C9.88394353,12.0542218 9.93145325,12.1017358 9.95847041,12.1609997 Z" id="Stroke-34"></path>
                    <path d="M16.8,8.64864865 L16.8,20" id="Path-8" stroke-linecap="round" stroke-linejoin="round" stroke-dasharray="1.945945783094926"></path>
                    <path d="M14.109375,2.16216216 L16.8,8.64864865" id="Path-8-Copy" stroke-linecap="round" stroke-linejoin="round" stroke-dasharray="1.945945783094926"></path>
                </g>
            </g>
        </g>
    </g>
</svg>