<?xml version="1.0" encoding="UTF-8"?>
<svg width="55px" height="40px" viewBox="0 0 55 40" version="1.1" xmlns="http://www.w3.org/2000/svg" xmlns:xlink="http://www.w3.org/1999/xlink">
    <!-- Generator: Sketch 54.1 (76490) - https://sketchapp.com -->
    <title>Group 23</title>
    <desc>Created with Sketch.</desc>
    <defs>
        <linearGradient x1="50%" y1="4.12075506%" x2="50%" y2="97.4598085%" id="linearGradient-1">
            <stop stop-color="#ECD891" offset="0%"></stop>
            <stop stop-color="#C88D25" offset="100%"></stop>
        </linearGradient>
        <path d="M0,0 L47,0 L47,32 L8,32 C3.581722,32 5.41083001e-16,28.418278 0,24 L0,0 Z" id="path-2"></path>
        <filter x="-14.9%" y="-15.6%" width="129.8%" height="143.8%" filterUnits="objectBoundingBox" id="filter-3">
            <feOffset dx="0" dy="2" in="SourceAlpha" result="shadowOffsetOuter1"></feOffset>
            <feGaussianBlur stdDeviation="2" in="shadowOffsetOuter1" result="shadowBlurOuter1"></feGaussianBlur>
            <feComposite in="shadowBlurOuter1" in2="SourceAlpha" operator="out" result="shadowBlurOuter1"></feComposite>
            <feColorMatrix values="0 0 0 0 0   0 0 0 0 0   0 0 0 0 0  0 0 0 0.5 0" type="matrix" in="shadowBlurOuter1"></feColorMatrix>
        </filter>
        <linearGradient x1="50%" y1="100%" x2="50%" y2="0%" id="linearGradient-4">
            <stop stop-color="#F2AD24" offset="0%"></stop>
            <stop stop-color="#FFDA90" offset="100%"></stop>
        </linearGradient>
        <linearGradient x1="50%" y1="100%" x2="50%" y2="0%" id="linearGradient-5">
            <stop stop-color="#F2AD24" offset="0%"></stop>
            <stop stop-color="#FFDA90" offset="100%"></stop>
        </linearGradient>
    </defs>
    <g id="Page-1" stroke="none" stroke-width="1" fill="none" fill-rule="evenodd">
        <g id="Group-23" transform="translate(4.000000, 2.000000)">
            <g id="Rectangle-3-Copy-7">
                <use fill="black" fill-opacity="1" filter="url(#filter-3)" xlink:href="#path-2"></use>
                <path stroke="url(#linearGradient-1)" stroke-width="1" d="M0.5,0.5 L0.5,24 C0.5,28.1421356 3.85786438,31.5 8,31.5 L46.5,31.5 L46.5,0.5 L0.5,0.5 Z" stroke-linejoin="square" fill="#24383C" fill-rule="evenodd"></path>
            </g>
            <g id="Group-10-Copy-3" transform="translate(11.000000, 6.000000)" stroke-linecap="round" stroke-linejoin="round">
                <g id="Group-2">
                    <polyline id="Stroke-20" stroke="url(#linearGradient-4)" points="13.3157171 8.23529412 0 20 25.8823529 20 13.640974 8.40966113"></polyline>
                    <path d="M9.69037224,2.98911899 C9.69037224,1.33790795 11.1942945,8.8817842e-16 12.4922449,8.8817842e-16 C13.7914946,8.8817842e-16 15.2941176,1.33790795 15.2941176,2.98911899 C15.2941176,2.98911899 15.1775564,5.92657128 13.1312381,8.23529412" id="Stroke-21" stroke="url(#linearGradient-5)"></path>
                </g>
            </g>
        </g>
    </g>
</svg>