<?xml version="1.0" encoding="UTF-8"?>
<svg width="53px" height="38px" viewBox="0 0 53 38" version="1.1" xmlns="http://www.w3.org/2000/svg" xmlns:xlink="http://www.w3.org/1999/xlink">
    <!-- Generator: Sketch 54.1 (76490) - https://sketchapp.com -->
    <title>Group 11</title>
    <desc>Created with Sketch.</desc>
    <defs>
        <path d="M0.443090056,31.8173077 L37.6861403,31.8173077 C38.002927,31.8173077 38.2818684,31.6086561 38.371343,31.3047679 L47.2649823,1.09872391 C47.3764035,0.720296937 47.1599525,0.323196547 46.7815255,0.211775368 C46.716013,0.192486358 46.6480728,0.182692308 46.5797796,0.182692308 L-0.271195658,0.182692308 L-0.271195658,31.103022 C-0.271195658,31.4975111 0.0486009492,31.8173077 0.443090056,31.8173077 Z" id="path-1"></path>
        <filter x="-9.1%" y="-11.9%" width="122.6%" height="130.1%" filterUnits="objectBoundingBox" id="filter-2">
            <feOffset dx="1" dy="1" in="SourceAlpha" result="shadowOffsetOuter1"></feOffset>
            <feGaussianBlur stdDeviation="1.5" in="shadowOffsetOuter1" result="shadowBlurOuter1"></feGaussianBlur>
            <feColorMatrix values="0 0 0 0 0   0 0 0 0 0   0 0 0 0 0  0 0 0 0.5 0" type="matrix" in="shadowBlurOuter1"></feColorMatrix>
        </filter>
    </defs>
    <g id="Page-1" stroke="none" stroke-width="1" fill="none" fill-rule="evenodd">
        <g id="Group-11" transform="translate(4.000000, 2.000000)">
            <g id="Combined-Shape" transform="translate(23.479835, 16.000000) scale(-1, 1) translate(-23.479835, -16.000000) ">
                <use fill="black" fill-opacity="1" filter="url(#filter-2)" xlink:href="#path-1"></use>
                <use fill="#D43131" fill-rule="evenodd" xlink:href="#path-1"></use>
            </g>
            <g id="Group-Copy-2" transform="translate(16.269231, 5.485714)" stroke="#FFFFFF">
                <path d="M5.5124132,19.9999708 C6.80725469,19.990865 11.7754924,17.8002833 7.35925489,10.7525823 C7.02380861,10.308858 7.58029086,7.65662952 8.77770668,6.66020101 C9.97064044,5.65842468 9.87321476,2.69139763 8.33634242,0.496768899 C8.12780901,0.252214643 7.43167543,-0.48520605 7.44842415,0.528133127 C7.47413698,1.54523023 7.52108059,4.41484027 7.52108059,4.41484027 C7.52108059,4.41484027 7.529337,4.76620634 6.84169573,4.76620634 C6.15358266,4.76996427 6.10711085,4.42799301 6.10711085,4.42799301 C6.10711085,4.42799301 5.99647491,0.910574356 5.99647491,0.58797087 C5.9882185,0.266668204 5.52916192,0 5.17696693,0 L5.14299768,0.00260164102 C4.79056679,0.00260164102 4.34047432,0.278375589 4.34896663,0.600979075 C4.35321279,0.923582561 4.37845382,4.43695422 4.37845382,4.43695422 C4.37845382,4.43695422 4.34472047,4.78167166 3.65684331,4.78962111 C2.96896614,4.79207822 2.96896614,4.44345832 2.96896614,4.44345832 C2.96896614,4.44345832 2.90975586,1.57659446 2.88828918,0.560653639 C2.87531482,-0.452830073 2.20041202,0.296587076 2.00508887,0.540996796 C0.548657578,2.75773948 0.565406302,5.7275127 1.7927811,6.70688601 C3.02841231,7.68900549 3.68208434,10.3335736 3.36810474,10.7810558 C-0.780389051,17.8913407 4.27253583,20.0090765 5.56737732,19.9999708 L5.5124132,19.9999708 Z" id="Stroke-7"></path>
                <path d="M19.1735156,7.28992926 C20.2868255,6.34164635 20.5561098,3.69187615 16.2113878,0.45463449 C16.0184677,0.224341204 13.6473811,-0.465979689 13.6712729,0.499910597 L13.8682122,11.2012819 C13.8682122,11.2012819 13.9003655,14.2699958 13.365816,15.0068505 C12.8395281,15.7427269 11.4285764,20.018664 16.1513236,19.9999387 C17.3769469,19.9773006 21.9547807,17.8795077 17.8552281,11.1949935 C17.5497712,10.7686435 18.0682441,8.24450052 19.1735156,7.28992926 Z" id="Stroke-9"></path>
            </g>
        </g>
    </g>
</svg>