<?xml version="1.0" encoding="UTF-8"?>
<svg width="98px" height="20px" viewBox="0 0 98 20" version="1.1" xmlns="http://www.w3.org/2000/svg" xmlns:xlink="http://www.w3.org/1999/xlink">
    <!-- Generator: Sketch 51.1 (57501) - http://www.bohemiancoding.com/sketch -->
    <title>vivamosgrisgrande</title>
    <desc>Created with Sketch.</desc>
    <defs>
        <linearGradient x1="3.45678745%" y1="-75.5865029%" x2="94.8494935%" y2="191.61163%" id="linearGradient-1">
            <stop stop-color="#8C8C8C" offset="11%"></stop>
            <stop stop-color="#CCCCCC" offset="53%"></stop>
            <stop stop-color="#8C8C8C" offset="91%"></stop>
        </linearGradient>
    </defs>
    <g id="tarjetasvivamos" stroke="none" stroke-width="1" fill="none" fill-rule="evenodd">
        <g id="tarjetavivamospreferente" transform="translate(-1348.000000, -268.000000)" fill="url(#linearGradient-1)">
            <g id="vivamosgrisgrande" transform="translate(1348.000000, 268.000000)">
                <g id="popcakeAsset-1">
                    <path d="M16.2206897,5.68965517 C15.353852,5.6972261 14.6551394,6.40209477 14.6551724,7.26896552 L14.6551724,12.7103448 C14.6551724,13.0413793 14.6551724,17.337931 14.6551724,17.7655172 C14.6163418,18.3508819 14.9066032,18.9091856 15.4080582,19.2136564 C15.9095133,19.5181273 16.5387626,19.5181273 17.0402176,19.2136564 C17.5416727,18.9091856 17.8319341,18.3508819 17.7931034,17.7655172 L17.7931034,7.77241379 C17.7931034,7.77241379 17.7931034,7.66896552 17.7931034,7.26206897 C17.7949472,6.84447642 17.6298747,6.4434547 17.3345893,6.1481693 C17.0393039,5.8528839 16.6382822,5.68781147 16.2206897,5.68965517 Z M11.3931034,5.77241379 C11.2252997,5.71089217 11.0476775,5.68050943 10.8689655,5.68275862 C10.1809635,5.67844152 9.56723286,6.11444023 9.34482759,6.76551724 L6.20689655,15.3586207 C6.20689655,15.3586207 3.10344828,6.89655172 3.03448276,6.71724138 C2.73102537,5.9191442 1.8481931,5.50674851 1.04137931,5.7862069 C0.214020714,6.10157195 -0.202328715,7.0267929 0.110344828,7.85517241 C0.296551724,8.33793103 4.06896552,17.7586207 4.06896552,17.7586207 C4.06896552,17.7586207 4.71034483,19.3103448 6.20689655,19.3103448 C7.70344828,19.3103448 8.27586207,17.7310345 8.27586207,17.7310345 C8.27586207,17.7310345 11.5034483,9.9862069 12.337931,7.70344828 C12.6026771,6.91775539 12.1969637,6.06362212 11.4206897,5.77241379 L11.3931034,5.77241379 Z M31.3931034,5.77241379 C31.2251435,5.71148028 31.0476293,5.68111601 30.8689655,5.68275862 C30.1809635,5.67844152 29.5672329,6.11444023 29.3448276,6.76551724 C29.2827586,6.95172414 26.1724138,15.3586207 26.1724138,15.3586207 C26.1724138,15.3586207 23.1172414,6.89655172 23.0482759,6.71724138 C22.7477443,5.92007818 21.8670341,5.50724527 21.062069,5.7862069 C20.2319852,6.09879808 19.8121737,7.02485283 20.1241379,7.85517241 C20.3103448,8.33793103 24.0827586,17.7586207 24.0827586,17.7586207 C24.0827586,17.7586207 24.7241379,19.3103448 26.2068966,19.3103448 C27.6896552,19.3103448 28.2758621,17.7310345 28.2758621,17.7310345 C28.2758621,17.7310345 31.5034483,9.9862069 32.337931,7.70344828 C32.6041596,6.92160117 32.205298,6.06907254 31.4344828,5.77241379 L31.3931034,5.77241379 Z M16.2206897,3.85517241 C16.8640667,3.863565 17.4487749,3.48246466 17.7008218,2.89045378 C17.9528687,2.2984429 17.8223141,1.61282157 17.3703355,1.15486973 C16.918357,0.696917879 16.2345087,0.557373366 15.6392399,0.801626291 C15.043971,1.04587922 14.6552272,1.62553369 14.6551724,2.26896552 C14.6550986,3.13698678 15.3527422,3.8438504 16.2206897,3.85517241 Z M66.3931034,6.89655172 C65.4065057,6.12727836 64.1957554,5.70109428 62.9448276,5.68275862 L62.7586207,5.68275862 C61.1538514,5.61682908 59.6148667,6.324762 58.6206897,7.5862069 C57.5189804,6.36096337 55.9442046,5.66776065 54.2965517,5.68275862 L54.1448276,5.68275862 C52.89381,5.70059082 51.6829041,6.12682967 50.6965517,6.89655172 C49.2839748,7.98858108 48.452299,9.66973623 48.4413793,11.4551724 L48.4413793,16.9724138 C48.4413793,16.9724138 48.4413793,17.4137931 48.4413793,17.7724138 C48.4542379,18.5900253 49.0941826,19.2600143 49.9103448,19.3103448 C50.776757,19.2991236 51.4753292,18.5974874 51.4827586,17.7310345 L51.4827586,12.4137931 C51.4663173,12.184202 51.4663173,11.953729 51.4827586,11.7241379 C51.2992847,10.6559063 51.7583622,9.57922045 52.6561994,8.97203851 C53.5540366,8.36485657 54.7242383,8.33970685 55.6473333,8.90775371 C56.5704283,9.47580057 57.0753404,10.5317685 56.937931,11.6068966 L56.937931,11.6551724 C56.937931,11.5448276 56.937931,11.4413793 56.937931,12.462069 L56.937931,18.0551724 C57.0977804,18.796331 57.7389509,19.3353682 58.4965517,19.3655172 C59.3664082,19.3507708 60.0680121,18.6491668 60.0827586,17.7793103 L60.0827586,11.3931034 C60.3820513,10.0753808 61.5918067,9.16842723 62.9405909,9.25058667 C64.2893751,9.33274612 65.3801028,10.3798306 65.5172414,11.7241379 C65.5347085,11.9536912 65.5347085,12.1842398 65.5172414,12.4137931 L65.5172414,17.7931034 C65.5573298,18.6352503 66.246614,19.3003491 67.0896552,19.3103448 C67.5078829,19.3103489 67.9088812,19.1437379 68.203965,18.8473599 C68.4990489,18.5509818 68.6639033,18.1492582 68.662069,17.7310345 C68.662069,17.3724138 68.662069,16.9310345 68.662069,16.9310345 L68.662069,11.4137931 C68.6352085,9.64057255 67.7995277,7.97683108 66.3931034,6.89655172 Z M96.8551724,13.2758621 C96.4134281,12.7443869 95.8569565,12.3199594 95.2275862,12.0344828 C94.3464698,11.6234396 93.4207833,11.3156488 92.4689655,11.1172414 C91.5172414,10.9103448 90.7724138,10.7241379 90.2344828,10.5793103 C89.7763317,10.4701367 89.3401814,10.2835483 88.9448276,10.0275862 C88.6451905,9.84021475 88.4628591,9.51201826 88.462069,9.15862069 C88.4801256,8.73872199 88.733718,8.36500685 89.1172414,8.19310345 C89.6170536,7.91811048 90.1815295,7.78235045 90.7517241,7.8 C91.2737883,7.77771648 91.7937122,7.87933797 92.2689655,8.09655172 C92.639645,8.29516129 92.9695471,8.56189066 93.2413793,8.88275862 C93.5096561,9.20861031 93.8100175,9.50666116 94.137931,9.77241379 C94.4150148,9.97033484 94.7492905,10.0720709 95.0896552,10.062069 C95.5188919,10.092129 95.944019,9.96188776 96.2827586,9.69655172 C96.5535116,9.4582153 96.704992,9.11233502 96.6965517,8.75172414 C96.6837259,8.35823621 96.5460526,7.97903068 96.3034483,7.66896552 C95.9983768,7.26217363 95.6135168,6.92190108 95.1724138,6.66896552 C94.5854065,6.34596551 93.9529895,6.11345925 93.2965517,5.97931034 C92.4639067,5.79130191 91.6121769,5.70103707 90.7586207,5.71034483 C89.7105089,5.68167111 88.6671946,5.86219965 87.6896552,6.24137931 C86.929305,6.5348407 86.2638528,7.03094841 85.7655172,7.67586207 C85.3487409,8.2232628 85.1212151,8.8913174 85.1172414,9.57931034 C85.097583,10.2782673 85.3440839,10.95861 85.8068966,11.4827586 C86.3329032,12.0348103 86.9763798,12.4614377 87.6896552,12.7310345 C88.6851173,13.1048973 89.7061317,13.4068226 90.7448276,13.6344828 C91.5733215,13.7844153 92.3781178,14.0441766 93.137931,14.4068966 C93.5955553,14.6694954 93.8632824,15.1701451 93.8275862,15.6965517 C93.7929415,16.136019 93.5315035,16.5255618 93.137931,16.7241379 C92.5977919,17.0416535 91.9777828,17.1972543 91.3517241,17.1724138 C90.6178177,17.2063715 89.887211,17.0545571 89.2275862,16.7310345 C88.6779273,16.4024362 88.2182535,15.9427623 87.8896552,15.3931034 C87.7373716,15.1177786 87.5391097,14.8705343 87.3034483,14.662069 C87.0512083,14.4754008 86.7406145,14.3849128 86.4275862,14.4068966 C86.0314952,14.393065 85.6455936,14.5340675 85.3517241,14.8 C85.0789207,15.038031 84.9229032,15.3827793 84.9241379,15.7448276 C84.9531167,16.3643835 85.1969682,16.9545042 85.6137931,17.4137931 C86.1730665,18.04417 86.8857671,18.5193038 87.6827586,18.7931034 C88.7581362,19.1723579 89.8948028,19.3477694 91.0344828,19.3103448 C92.2043681,19.3343923 93.3699906,19.1618801 94.4827586,18.8 C95.3377216,18.5283343 96.091883,18.0071464 96.6482759,17.3034483 C97.145989,16.6118265 97.4028231,15.7759045 97.3793103,14.9241379 C97.3924452,14.3338824 97.2079636,13.7561639 96.8551724,13.2827586 L96.8551724,13.2758621 Z M76.9310345,5.68965517 C75.1215719,5.68963191 73.386719,6.41078998 72.1104757,7.69350506 C70.8342324,8.97622014 70.1218587,10.7146986 70.1310345,12.5241379 C70.1310346,16.283483 73.178586,19.3310342 76.937931,19.3310342 C80.6972761,19.3310342 83.7448274,16.283483 83.7448276,12.5241379 C83.7577573,10.7118106 83.0444758,8.96976334 81.7642306,7.68692664 C80.4839855,6.40408993 78.7433843,5.68728702 76.9310345,5.69655172 L76.9310345,5.68965517 Z M76.9310345,16.1793103 C74.9018528,16.1678747 73.2657826,14.5143067 73.2759337,12.4851182 C73.2860848,10.4559297 74.9386169,8.81881306 76.9678114,8.82767967 C78.9970059,8.83654627 80.6351683,10.4880416 80.6275862,12.5172414 C80.6391879,13.5034597 80.2487233,14.4518878 79.5461284,15.1440738 C78.8435335,15.8362599 77.8893836,16.2125261 76.9034483,16.1862069 L76.9310345,16.1793103 Z M40.937931,5.68965517 C39.4905119,5.71081933 38.0701194,6.084856 36.8,6.77931034 C36.5363124,6.9304065 36.341135,7.17746656 36.2551724,7.46896552 C36.0382487,8.11735174 36.3650273,8.82234632 37,9.07586207 C37.1553195,9.13051521 37.3181729,9.16075941 37.4827586,9.16551724 C38.4275862,9.08965517 39.1724138,8.30344828 40.2413793,8.28965517 C41.8689655,8.28965517 43.0689655,8.75862069 43.0689655,9.73793103 C43.0689655,10.4275862 43.2206897,10.9586207 39.2551724,11.262069 C35.2896552,11.5655172 33.6965517,13.3793103 33.6965517,15.2689655 C33.6965517,15.2689655 33.4413793,19.3310345 38.5241379,19.3310345 C43.2413793,19.3310345 46.1103448,16.4689655 46.1103448,13.2965517 L46.1103448,9.26206897 C46.1163674,8.898927 46.060392,8.53741905 45.9448276,8.19310345 C45.3931034,6.64827586 43.4482759,5.68965517 40.937931,5.68965517 Z M39.3931034,16.7241379 L39.0965517,16.7241379 C38.462069,16.7241379 37.0275862,16.6 36.9034483,15.462069 C36.7172414,13.7172414 38.9103448,13.5586207 38.9103448,13.5586207 C41.4482759,13.2689655 42.3172414,13.1862069 42.9241379,12.8206897 C42.9241379,12.8344828 43.9034483,16.7034483 39.3931034,16.7310345 L39.3931034,16.7241379 Z" id="Shape" fill-rule="nonzero"></path>
                </g>
            </g>
        </g>
    </g>
</svg>