<?xml version="1.0" encoding="UTF-8"?>
<svg width="101px" height="20px" viewBox="0 0 101 20" version="1.1" xmlns="http://www.w3.org/2000/svg" xmlns:xlink="http://www.w3.org/1999/xlink">
    <!-- Generator: Sketch 51.1 (57501) - http://www.bohemiancoding.com/sketch -->
    <title>vivamoscolorgrande</title>
    <desc>Created with Sketch.</desc>
    <defs>
        <linearGradient x1="781.706974%" y1="40.7276664%" x2="178.145908%" y2="48.155657%" id="linearGradient-1">
            <stop stop-color="#4167A2" offset="0%"></stop>
            <stop stop-color="#4167A2" offset="34%"></stop>
            <stop stop-color="#50A04C" offset="59%"></stop>
            <stop stop-color="#E39335" offset="76%"></stop>
            <stop stop-color="#D95330" offset="100%"></stop>
        </linearGradient>
        <linearGradient x1="2632.90868%" y1="41.6486797%" x2="239.976441%" y2="49.0428293%" id="linearGradient-2">
            <stop stop-color="#4167A2" offset="0%"></stop>
            <stop stop-color="#4167A2" offset="34%"></stop>
            <stop stop-color="#50A04C" offset="59%"></stop>
            <stop stop-color="#E39335" offset="76%"></stop>
            <stop stop-color="#D95330" offset="100%"></stop>
        </linearGradient>
        <linearGradient x1="2605.20422%" y1="15.2832376%" x2="233.403344%" y2="47.378811%" id="linearGradient-3">
            <stop stop-color="#4167A2" offset="0%"></stop>
            <stop stop-color="#4167A2" offset="34%"></stop>
            <stop stop-color="#50A04C" offset="59%"></stop>
            <stop stop-color="#E39335" offset="76%"></stop>
            <stop stop-color="#D95330" offset="100%"></stop>
        </linearGradient>
        <linearGradient x1="510.867041%" y1="44.3204868%" x2="-92.5227802%" y2="51.7748479%" id="linearGradient-4">
            <stop stop-color="#4167A2" offset="0%"></stop>
            <stop stop-color="#4167A2" offset="34%"></stop>
            <stop stop-color="#50A04C" offset="59%"></stop>
            <stop stop-color="#E39335" offset="76%"></stop>
            <stop stop-color="#D95330" offset="100%"></stop>
        </linearGradient>
        <linearGradient x1="241.708668%" y1="46.2248948%" x2="-129.67482%" y2="53.7119114%" id="linearGradient-5">
            <stop stop-color="#4167A2" offset="0%"></stop>
            <stop stop-color="#4167A2" offset="34%"></stop>
            <stop stop-color="#50A04C" offset="59%"></stop>
            <stop stop-color="#E39335" offset="76%"></stop>
            <stop stop-color="#D95330" offset="100%"></stop>
        </linearGradient>
        <linearGradient x1="199.945714%" y1="47.9980956%" x2="-352.023833%" y2="55.4486609%" id="linearGradient-6">
            <stop stop-color="#4167A2" offset="0%"></stop>
            <stop stop-color="#4167A2" offset="34%"></stop>
            <stop stop-color="#50A04C" offset="59%"></stop>
            <stop stop-color="#E39335" offset="76%"></stop>
            <stop stop-color="#D95330" offset="100%"></stop>
        </linearGradient>
        <linearGradient x1="99.4909364%" y1="49.2653302%" x2="-500.65837%" y2="56.7357182%" id="linearGradient-7">
            <stop stop-color="#4167A2" offset="0%"></stop>
            <stop stop-color="#4167A2" offset="34%"></stop>
            <stop stop-color="#50A04C" offset="59%"></stop>
            <stop stop-color="#E39335" offset="76%"></stop>
            <stop stop-color="#D95330" offset="100%"></stop>
        </linearGradient>
        <linearGradient x1="622.398138%" y1="42.7346398%" x2="17.4351523%" y2="50.2282502%" id="linearGradient-8">
            <stop stop-color="#4167A2" offset="0%"></stop>
            <stop stop-color="#4167A2" offset="34%"></stop>
            <stop stop-color="#50A04C" offset="59%"></stop>
            <stop stop-color="#E39335" offset="76%"></stop>
            <stop stop-color="#D95330" offset="100%"></stop>
        </linearGradient>
    </defs>
    <g id="tarjetasvivamos" stroke="none" stroke-width="1" fill="none" fill-rule="evenodd">
        <g id="tarjetavivamostodoslossocios" transform="translate(-1346.000000, -268.000000)">
            <g id="vivamoscolorgrande" transform="translate(1346.000000, 268.000000)">
                <g id="popcakeAsset-3">
                    <path d="M11.7928571,5.25 C11.6196488,5.18337231 11.4355804,5.14946497 11.25,5.15 C10.5381653,5.14963732 9.90562207,5.6039184 9.67857143,6.27857143 L6.42857143,15.1428571 C6.42857143,15.1428571 3.20714286,6.42857143 3.12857143,6.22142857 C2.81749944,5.39958812 1.90837218,4.97511755 1.07857143,5.26428571 C0.665781652,5.41959696 0.331932883,5.73305224 0.150945319,6.13524682 C-0.0300422448,6.53744141 -0.0432358837,6.99519149 0.114285714,7.40714286 C0.307142857,7.9 4.2,17.6357143 4.2,17.6357143 C4.2,17.6357143 4.86428571,19.2857143 6.42857143,19.2857143 C7.85714286,19.2857143 8.57142857,17.6571429 8.57142857,17.6571429 C8.57142857,17.6571429 11.9,9.65714286 12.7642857,7.3 C12.9104619,6.89948358 12.8899694,6.45708322 12.7073938,6.07179499 C12.5248182,5.68650675 12.1954014,5.39049558 11.7928571,5.25 Z" id="Shape" fill="url(#linearGradient-1)" fill-rule="nonzero"></path>
                    <path d="M16.75,5.16428571 C15.8522038,5.17212703 15.1285372,5.90216958 15.1285714,6.8 C15.1285714,7.20714286 15.1285714,7.32142857 15.1285714,7.32142857 L15.1285714,12.4071429 C15.1285714,12.75 15.1285714,17.1928571 15.1285714,17.6357143 C15.0884386,18.2393765 15.3877236,18.8151732 15.904843,19.1291894 C16.4219623,19.4432056 17.0708948,19.4432056 17.5880142,19.1291894 C18.1051336,18.8151732 18.4044185,18.2393765 18.3642857,17.6357143 C18.3642857,17.1785714 18.3642857,12.4071429 18.3642857,12.4071429 L18.3642857,7.31428571 C18.3642857,7.31428571 18.3642857,7.20714286 18.3642857,6.79285714 C18.3680965,6.36225212 18.1997043,5.94797267 17.896553,5.64213859 C17.5934017,5.33630451 17.1806219,5.16426885 16.75,5.16428571 Z" id="Shape" fill="url(#linearGradient-2)" fill-rule="nonzero"></path>
                    <path d="M16.75,3.27142857 C17.4122024,3.27720579 18.0125507,2.88313437 18.2706437,2.27327089 C18.5287367,1.66340742 18.3936438,0.958098802 17.9284621,0.486769347 C17.4632805,0.0154398923 16.7598062,-0.128900989 16.1466069,0.121163141 C15.5334076,0.371227271 15.1314885,0.966350211 15.1285714,1.62857143 C15.1246043,2.52918496 15.849412,3.26357161 16.75,3.27142857 Z" id="Shape" fill="url(#linearGradient-3)" fill-rule="nonzero"></path>
                    <path d="M42.2714286,5.16428571 C40.7729175,5.18401192 39.3018326,5.5689458 37.9857143,6.28571429 C37.7159113,6.44600833 37.5149238,6.70042288 37.4214286,7 C37.1981503,7.67158209 37.5405236,8.40030326 38.2,8.65714286 C38.3559249,8.71377027 38.5198969,8.74511786 38.6857143,8.75 C39.6714286,8.67857143 40.4357143,7.86428571 41.5428571,7.85 C43.2285714,7.85 44.4714286,8.33571429 44.4714286,9.34285714 C44.4714286,10.0571429 44.6214286,10.6071429 40.5285714,10.9214286 C36.4357143,11.2357143 34.8142857,13.1 34.8142857,15.0571429 C34.8142857,15.0571429 34.5571429,19.25 39.8142857,19.25 C44.6857143,19.25 47.6714286,16.3 47.6714286,13.0142857 L47.6714286,8.85 C47.6763924,8.47686987 47.6209127,8.10539717 47.5071429,7.75 C46.8785714,6.15 44.8642857,5.16428571 42.2714286,5.16428571 Z M40.7142857,16.5642857 L40.4071429,16.5642857 C39.75,16.5642857 38.2642857,16.4357143 38.1428571,15.2571429 C37.95,13.4571429 40.2142857,13.2928571 40.2142857,13.2928571 C42.8357143,13 43.7357143,12.9071429 44.3571429,12.5285714 C44.3214286,12.5357143 45.3357143,16.5428571 40.7142857,16.5642857 Z" id="Shape" fill="url(#linearGradient-4)" fill-rule="nonzero"></path>
                    <path d="M68.5714286,6.42857143 C67.5516499,5.62807316 66.2963516,5.18620814 65,5.17142857 L64.8428571,5.17142857 C63.1808645,5.09549513 61.5845658,5.82713205 60.5571429,7.13571429 C59.4192079,5.87157913 57.7936528,5.1563349 56.0928571,5.17142857 L55.9285714,5.17142857 C52.6633924,5.21418517 50.0334662,7.86316877 50.0142857,11.1285714 L50.0142857,16.8428571 C50.0142857,16.8428571 50.0142857,17.3 50.0142857,17.6714286 C50.0166566,18.529117 50.6865729,19.2365987 51.5428571,19.2857143 C52.439028,19.2740323 53.1604651,18.5462388 53.1642857,17.65 L53.1642857,12.0714286 C53.1472572,11.8336378 53.1472572,11.5949336 53.1642857,11.3571429 C53.095414,10.3204132 53.6019155,9.3297263 54.4826522,8.77849614 C55.3633888,8.22726599 56.4758165,8.20470725 57.3781765,8.71977829 C58.2805365,9.23484932 58.826785,10.2041877 58.8,11.2428571 C58.8,11.4214286 58.8,11.35 58.8,11.2857143 L58.8,17.8928571 C58.9505659,18.6721183 59.6143928,19.2474349 60.4071429,19.2857143 C61.3053497,19.2705605 62.0309326,18.5481323 62.05,17.65 L62.05,11.05 C62.2001163,9.54975447 63.5058895,8.43433702 65.0111618,8.52051673 C66.5164341,8.60669644 67.6863729,9.86385313 67.6642857,11.3714286 C67.6823767,11.6091802 67.6823767,11.8479627 67.6642857,12.0857143 L67.6642857,17.6428571 C67.6680364,18.540304 68.388394,19.2701818 69.2857143,19.2857143 C69.7175729,19.2876421 70.1321975,19.1164492 70.4368988,18.8104055 C70.7416002,18.5043619 70.910969,18.0889889 70.9071429,17.6571429 C70.9071429,17.2857143 70.9071429,16.8285714 70.9071429,16.8285714 L70.9071429,11.1571429 C70.9034243,9.30415769 70.040713,7.55762903 68.5714286,6.42857143 Z" id="Shape" fill="url(#linearGradient-5)" fill-rule="nonzero"></path>
                    <path d="M79.4428571,5.16428571 C77.5732092,5.16425089 75.7807557,5.90988658 74.4627435,7.23594362 C73.1447312,8.56200067 72.4100167,10.3589583 72.4214286,12.2285714 C72.4214286,16.1103442 75.5682272,19.2571429 79.45,19.2571429 C83.3317728,19.2571429 86.4785714,16.1103442 86.4785714,12.2285714 C86.4919296,10.3558991 85.7558803,8.55564323 84.4343533,7.22874967 C83.1128264,5.90185611 81.3155682,5.15851693 79.4428571,5.16428571 Z M79.4428571,16 C78.4377557,16.0058444 77.472541,15.6071889 76.764507,14.8937809 C76.0564731,14.1803729 75.6651273,13.2121714 75.6785714,12.2071429 C75.678615,10.6704847 76.605837,9.28569809 78.0266414,8.70034938 C79.4474458,8.11500067 81.0810384,8.44477261 82.1635041,9.53545428 C83.2459697,10.6261359 83.56338,12.2621754 82.9673049,13.6785132 C82.3712298,15.094851 80.9794717,16.0115756 79.4428571,16 Z" id="Shape" fill="url(#linearGradient-6)" fill-rule="nonzero"></path>
                    <path d="M100,13.0071429 C99.5491995,12.4527078 98.9741502,12.0122445 98.3214286,11.7214286 C97.4087015,11.2977419 96.449915,10.9813424 95.4642857,10.7785714 C94.4857143,10.5571429 93.7142857,10.3714286 93.1571429,10.2214286 C92.6851125,10.1075901 92.23586,9.91436319 91.8285714,9.65 C91.5172086,9.45691128 91.3280211,9.11637384 91.3285714,8.75 C91.3491749,8.31779921 91.6077596,7.93267312 92,7.75 C92.5183575,7.46766859 93.1029531,7.32953629 93.6928571,7.35 C94.231279,7.32669128 94.767508,7.43197826 95.2571429,7.65714286 C95.642629,7.8604742 95.9847356,8.13707101 96.2642857,8.47142857 C96.5397943,8.80649843 96.8485106,9.1128215 97.1857143,9.38571429 C97.4726939,9.59070394 97.818908,9.69607346 98.1714286,9.68571429 C98.6139094,9.71782028 99.0523302,9.58272548 99.4,9.30714286 C99.6872809,9.06477548 99.8478119,8.70423871 99.8357143,8.32857143 C99.8214205,7.92340015 99.6788579,7.5332289 99.4285714,7.21428571 C99.1112553,6.78964348 98.7101117,6.4346922 98.25,6.17142857 C97.6411835,5.83874976 96.9864656,5.59804467 96.3071429,5.45714286 C95.450263,5.25844997 94.5723656,5.16490352 93.6928571,5.17857143 C92.6096353,5.14886748 91.5313937,5.33585983 90.5214286,5.72857143 C89.7516438,6.0255477 89.0774463,6.52687405 88.5714286,7.17857143 C88.1277015,7.73915345 87.8771419,8.42819221 87.8571429,9.14285714 C87.8335148,9.86515314 88.0893629,10.5687355 88.5714286,11.1071429 C89.1149428,11.6804342 89.7817735,12.1225453 90.5214286,12.4 C91.5463611,12.7889584 92.5993998,13.0993779 93.6714286,13.3285714 C94.5269842,13.4847998 95.3580399,13.7538121 96.1428571,14.1285714 C96.6144064,14.3993887 96.8913124,14.9144338 96.8571429,15.4571429 C96.8226411,15.9127845 96.5514521,16.3168562 96.1428571,16.5214286 C95.585802,16.8497042 94.9460979,17.0108699 94.3,16.9857143 C93.5421752,17.0209148 92.7877768,16.8636461 92.1071429,16.5285714 C91.5363604,16.1901562 91.0598438,15.7136396 90.7214286,15.1428571 C90.5621299,14.8608562 90.3569368,14.6073824 90.1142857,14.3928571 C89.8558067,14.1994428 89.5363008,14.1056196 89.2142857,14.1285714 C88.8040486,14.1142459 88.4043648,14.2602842 88.1,14.5357143 C87.8174536,14.7822464 87.6558641,15.1393072 87.6571429,15.5142857 C87.6874664,16.1516557 87.9402103,16.758241 88.3714286,17.2285714 C88.9511033,17.880971 89.6891189,18.3729814 90.5142857,18.6571429 C91.6234272,19.0615367 92.7983117,19.2553321 93.9785714,19.2285714 C95.1897027,19.2536413 96.3965916,19.0774355 97.55,18.7071429 C98.4497234,18.4270746 99.2439091,17.88185 99.8285714,17.1428571 C100.344002,16.4292119 100.610086,15.565694 100.585714,14.6857143 C100.585006,14.0762087 100.378634,13.4847765 100,13.0071429 Z" id="Shape" fill="url(#linearGradient-7)" fill-rule="nonzero"></path>
                    <path d="M32.4571429,5.22857143 C32.2858034,5.16492997 32.1041916,5.13345058 31.9214286,5.13571429 C31.2100667,5.12986969 30.5757637,5.5825314 30.35,6.25714286 L27.0714286,15.1285714 C27.0714286,15.1285714 23.8714286,6.37142857 23.8,6.20714286 C23.4887947,5.38522596 22.5815833,4.95848888 21.75,5.24285714 C20.8930929,5.56948523 20.4618738,6.52774979 20.7857143,7.38571429 C20.9714286,7.87857143 24.8714286,17.6071429 24.8714286,17.6071429 C24.8714286,17.6071429 25.5357143,19.2428571 27.0785714,19.2428571 C28.6214286,19.2428571 29.2214286,17.6071429 29.2214286,17.6071429 C29.2214286,17.6071429 32.55,9.60714286 33.4142857,7.25714286 C33.7019647,6.43307303 33.2761007,5.53049569 32.4571429,5.22857143 Z" id="Shape" fill="url(#linearGradient-8)" fill-rule="nonzero"></path>
                </g>
            </g>
        </g>
    </g>
</svg>