<svg xmlns="http://www.w3.org/2000/svg" width="19.667" height="20.85" viewBox="0 0 19.667 20.85">
  <g id="Page-1" transform="translate(0.551 0.5)">
    <g id="Group-26">
      <g id="Group-12">
        <path id="Stroke-25-Copy-4" d="M33.909,13.272V7.258a.348.348,0,0,0-.348-.348H30.7a.348.348,0,0,0-.348.348V9.637l-3.31-3.383a.348.348,0,0,0-.493-.005l-.005.005-8.96,9.152a.348.348,0,0,0,.249.592h.951v9.653a.348.348,0,0,0,.348.348h4.644a.348.348,0,0,0,.348-.348V20.484a2.668,2.668,0,0,1,2.668-2.668h0a2.668,2.668,0,0,1,2.668,2.668v5.168A.348.348,0,0,0,29.8,26h4.642a.348.348,0,0,0,.348-.348V16h.952A.348.348,0,0,0,36,15.406Z" transform="translate(-17.48 -6.15)" fill="none" stroke="#7d1dff" stroke-width="1" fill-rule="evenodd"/>
      </g>
    </g>
  </g>
</svg>
