<svg xmlns="http://www.w3.org/2000/svg" width="21.182" height="21" viewBox="0 0 21.182 21">
  <g id="Page-1" transform="translate(0.5 0.5)">
    <g id="Group-28">
      <g id="Group-14">
        <path id="Stroke-22-Copy-4" d="M28.543,12.935h.646c.428,0,.2-1.274.2-1.408s-.4,0-1.192,0h-.832l-.9-1.326h.9a7.778,7.778,0,0,0,0-1.271c0-.176-.344-.176-.9-.176H25.252Q23.152,6,22.6,6a.979.979,0,0,0-.551.207.537.537,0,0,0-.3.427,3.67,3.67,0,0,0,.632,1.184,30.175,30.175,0,0,1,1.842,3.576,12.908,12.908,0,0,1,1.208,3.162c0,.23-.358.359-1.078.38a30.94,30.94,0,0,0-5.087.326,9.044,9.044,0,0,1-.882-1.105,6.214,6.214,0,0,0-.967-1.137,1.76,1.76,0,0,0-.937-.181.845.845,0,0,0-.482.1,16.3,16.3,0,0,0,1.063,3.072A11.044,11.044,0,0,0,16,19.074a.815.815,0,0,0,.482.1A1.754,1.754,0,0,0,17.413,19a6.008,6.008,0,0,0,.966-1.135,9.6,9.6,0,0,1,.888-1.114,22.056,22.056,0,0,0,3.568.293,14.721,14.721,0,0,1,2.311.117c.191.06.286.16.286.3a13.11,13.11,0,0,1-1.208,3.156,30.036,30.036,0,0,1-1.842,3.577,3.694,3.694,0,0,0-.632,1.184.542.542,0,0,0,.3.429,1.03,1.03,0,0,0,.551.2q.553,0,2.651-2.74h1.213c.555,0,1.236.1,1.236-.307,0-.354.058-1.074-.337-1.074H26.2l1.163-1.394H28.2c.711,0,1.531.18,1.531-.225,0-.36.089-1.084-.339-1.084h-1l1.853-2.143h2.606q3.332,0,3.334-1.079c0-.285-.446-.516-1.344-.7a11,11,0,0,0-1.99-.273H30.241Z" transform="translate(-16 -6)" fill="none" stroke="#ffda3a" stroke-width="1" fill-rule="evenodd"/>
      </g>
    </g>
  </g>
</svg>
