<svg xmlns="http://www.w3.org/2000/svg" width="22.074" height="21.005" viewBox="0 0 22.074 21.005">
  <g id="Page-1" transform="translate(0.554 0.505)">
    <g id="Group-27">
      <g id="Group-13">
        <g id="Group-9">
          <path id="Stroke-26" d="M21,12.8V9.844a1.122,1.122,0,0,0-1.031-1.2H2.081a1.122,1.122,0,0,0-1.031,1.2V12.8a1.431,1.431,0,0,1,1.312,1.525A1.431,1.431,0,0,1,1.05,15.85V18.8A1.122,1.122,0,0,0,2.081,20H19.969A1.122,1.122,0,0,0,21,18.8V15.85a1.431,1.431,0,0,1-1.312-1.526A1.431,1.431,0,0,1,21,12.8Z" fill="none" stroke="#3a9cff" stroke-width="1" fill-rule="evenodd"/>
          <path id="Stroke-30" d="M20.725,9.178a1.13,1.13,0,0,0,.189-1.171l-1-2.429a1.25,1.25,0,0,1-1.687-.7,1.406,1.406,0,0,1,.654-1.8l-1-2.429a.981.981,0,0,0-1.325-.55L.6,7.6A1.1,1.1,0,0,0,.085,9.012l.965,1.8" fill="none" stroke="#3a9cff" stroke-width="1" fill-rule="evenodd"/>
          <path id="Stroke-34" d="M9.958,12.161l.343.752a.27.27,0,0,0,.2.155l.8.126a.27.27,0,0,1,.154.453l-.6.638a.27.27,0,0,0-.071.228l.139.878a.27.27,0,0,1-.4.277l-.676-.385a.27.27,0,0,0-.267,0l-.676.385a.27.27,0,0,1-.4-.277l.139-.878a.27.27,0,0,0-.071-.228l-.6-.638a.27.27,0,0,1,.154-.453l.8-.126a.27.27,0,0,0,.2-.155l.343-.752a.27.27,0,0,1,.492,0Z" fill="none" stroke="#3a9cff" stroke-width="1" fill-rule="evenodd"/>
          <path id="Path-8" d="M16.8,8.649V20" fill="none" stroke="#3a9cff" stroke-linecap="round" stroke-linejoin="round" stroke-width="1" stroke-dasharray="1.946" fill-rule="evenodd"/>
          <path id="Path-8-Copy" d="M14.109,2.162,16.8,8.649" fill="none" stroke="#3a9cff" stroke-linecap="round" stroke-linejoin="round" stroke-width="1" stroke-dasharray="1.946" fill-rule="evenodd"/>
        </g>
      </g>
    </g>
  </g>
</svg>
