<svg xmlns="http://www.w3.org/2000/svg" width="23.02" height="21.018" viewBox="0 0 23.02 21.018">
  <g id="Page-1" transform="translate(0.52 0.518)">
    <g id="Group-30">
      <g id="Group-18">
        <g id="Group-17">
          <g id="Group-7">
            <g id="Group-14-Copy-5">
              <g id="Group-14-Copy-3">
                <path id="Stroke-24" d="M18.016,2.222c-1.267-2.8-5.125-2.8-8-.171h-.006c-8.1-7.433-17.749,6.907,0,17.949h.006a24.728,24.728,0,0,0,7.354-7.226Z" transform="translate(0)" fill="none" stroke="#47c7ac" stroke-width="1" fill-rule="evenodd"/>
                <path id="Stroke-23" d="M21.394,5.592H19.27a.606.606,0,0,1-.606-.606V2.828a.606.606,0,0,0-.606-.606H16.045a.606.606,0,0,0-.606.606V4.986a.606.606,0,0,1-.606.606H12.706A.606.606,0,0,0,12.1,6.2V8.247a.606.606,0,0,0,.606.606h2.127a.606.606,0,0,1,.606.606v2.157a.606.606,0,0,0,.606.606h2.013a.606.606,0,0,0,.606-.606V9.459a.606.606,0,0,1,.606-.606h2.124A.606.606,0,0,0,22,8.247V6.2A.606.606,0,0,0,21.394,5.592Z" transform="translate(0)" fill="#fff" stroke="#47c7ac" stroke-width="1" fill-rule="evenodd"/>
              </g>
            </g>
          </g>
        </g>
      </g>
    </g>
  </g>
</svg>
