<?xml version="1.0" encoding="UTF-8"?>
<svg width="498px" height="404px" viewBox="0 0 498 404" version="1.1" xmlns="http://www.w3.org/2000/svg" xmlns:xlink="http://www.w3.org/1999/xlink">
    <!-- Generator: Sketch 55.1 (78136) - https://sketchapp.com -->
    <title>Group</title>
    <desc>Created with Sketch.</desc>
    <defs>
        <radialGradient cx="79.6247026%" cy="87.1721481%" fx="79.6247026%" fy="87.1721481%" r="97.0439789%" gradientTransform="translate(0.796247,0.871721),rotate(-124.012275),scale(1.000000,1.018693),translate(-0.796247,-0.871721)" id="radialGradient-1">
            <stop stop-color="#6F77D6" stop-opacity="0.13043597" offset="0%"></stop>
            <stop stop-color="#6F77D6" stop-opacity="0.280594406" offset="45.2481409%"></stop>
            <stop stop-color="#6F77D6" stop-opacity="0.482872596" offset="66.9763514%"></stop>
            <stop stop-color="#6F77D6" stop-opacity="0.482872596" offset="100%"></stop>
        </radialGradient>
        <radialGradient cx="26.2902998%" cy="90.9802743%" fx="26.2902998%" fy="90.9802743%" r="92.9696129%" gradientTransform="translate(0.262903,0.909803),rotate(-51.073271),scale(1.000000,1.018693),translate(-0.262903,-0.909803)" id="radialGradient-2">
            <stop stop-color="#6F77D6" stop-opacity="0.13043597" offset="0%"></stop>
            <stop stop-color="#6F77D6" stop-opacity="0.280594406" offset="45.2481409%"></stop>
            <stop stop-color="#6F77D6" stop-opacity="0.482872596" offset="66.9763514%"></stop>
            <stop stop-color="#6F77D6" stop-opacity="0.482872596" offset="100%"></stop>
        </radialGradient>
        <filter x="-1.4%" y="-1.4%" width="102.7%" height="102.7%" filterUnits="objectBoundingBox" id="filter-3">
            <feGaussianBlur stdDeviation="1" in="SourceGraphic"></feGaussianBlur>
        </filter>
        <path d="M2.74186604,1.01800382 C2.47173645,1.19191281 2.32929682,1.40230026 2.26524113,1.63092696 L2.26524113,1.63092696 C2.0473675,2.40715487 2.5459062,2.88858584 2.91633352,3.02940971 L2.91633352,3.02940971 C3.13041438,3.11127418 3.32932416,3.10915334 3.32932416,3.10915334 L3.32932416,3.10915334 C4.1544626,3.04595227 4.7992337,2.35964803 5.71792717,2.34649881 L5.71792717,2.34649881 C7.13347365,2.3265629 8.17606431,2.75582118 8.17606431,3.60797521 L8.17606431,3.60797521 C8.17606431,4.21835334 8.30543995,4.6785759 4.86581791,4.94198439 L4.86581791,4.94198439 C1.4025964,5.20624121 0.040148704,6.79093383 0.040148704,8.44222086 L0.040148704,8.44222086 C0.040148704,8.44222086 -0.178146349,11.9899642 4.24211776,11.9899642 L4.24211776,11.9899642 C8.33367502,11.9899642 10.8415396,9.4920373 10.8415396,6.71543188 L10.8415396,6.71543188 L10.8415396,3.18762447 C10.8415396,2.83768565 10.7951835,2.52677032 10.7024713,2.25360596 L10.7024713,2.25360596 C10.2110968,0.905599233 8.51783514,0.0687151439 6.34078448,0.0687151439 L6.34078448,0.0687151439 C6.34078448,0.0687151439 4.21303984,0.0657460802 2.74186604,1.01800382 L2.74186604,1.01800382 Z M2.83921384,8.61316067 C2.67949603,7.09166912 4.58136007,6.95339027 4.58136007,6.95339027 L4.58136007,6.95339027 C6.78327445,6.70397933 7.54056443,6.62508404 8.06649537,6.30695784 L8.06649537,6.30695784 C8.06649537,6.30695784 8.91439043,9.69182055 5.00151483,9.71090812 L5.00151483,9.71090812 C5.00151483,9.71090812 4.90163852,9.72066399 4.74276355,9.72066399 L4.74276355,9.72066399 C4.19323315,9.72066399 2.94667569,9.60953191 2.83921384,8.61316067 L2.83921384,8.61316067 Z" id="path-4"></path>
        <path d="M0.0742294453,6.04142851 C0.0742294453,9.9276581 3.27160978,11.9899642 5.97992412,11.9899642 L5.97992412,11.9899642 C10.0018875,11.9899642 11.9636657,8.66448503 11.9636657,6.05712274 L11.9636657,6.05712274 C11.9636657,3.43279372 10.0018875,0.0712602675 6.01640259,0.0712602675 L6.01640259,0.0712602675 C3.12272672,0.0712602675 0.0742294453,2.34777131 0.0742294453,6.04142851 L0.0742294453,6.04142851 Z M2.80544887,6.02870347 C2.80544887,4.03765766 4.45079754,2.81181139 6.00961589,2.81181139 L6.00961589,2.81181139 C8.1597248,2.81181139 9.21632793,4.62216152 9.21632793,6.037611 L9.21632793,6.037611 C9.21632793,7.44245627 8.1597248,9.23626384 5.99052832,9.23626384 L5.99052832,9.23626384 C4.53011701,9.23626384 2.80544887,8.124943 2.80544887,6.02870347 L2.80544887,6.02870347 Z" id="path-6"></path>
        <path d="M0.692772809,3.91602741 C0.692772809,1.9249816 2.33812149,0.699135333 3.89693984,0.699135333 L3.89693984,0.699135333 C6.04704874,0.699135333 7.10365188,2.50948546 7.10365188,3.92493494 L7.10365188,3.92493494 C7.10365188,5.32978022 6.04704874,7.12358778 3.87785227,7.12358778 L3.87785227,7.12358778 C2.41744095,7.12358778 0.692772809,6.01226695 0.692772809,3.91602741 L0.692772809,3.91602741 Z" id="path-8"></path>
        <radialGradient cx="54.487949%" cy="45.2463445%" fx="54.487949%" fy="45.2463445%" r="47.5542854%" gradientTransform="translate(0.544879,0.452463),scale(1.000000,0.420863),rotate(180.000000),scale(1.000000,1.454892),translate(-0.544879,-0.452463)" id="radialGradient-10">
            <stop stop-color="#FFFFFF" offset="0%"></stop>
            <stop stop-color="#FFFFFF" offset="28.9959882%"></stop>
            <stop stop-color="#FFFFFF" offset="72.4371833%"></stop>
            <stop stop-color="#FFFFFF" stop-opacity="0.547581285" offset="83.0210093%"></stop>
            <stop stop-color="#FFFFFF" stop-opacity="0" offset="100%"></stop>
        </radialGradient>
        <filter x="-20.5%" y="-8.6%" width="141.0%" height="117.3%" filterUnits="objectBoundingBox" id="filter-11">
            <feGaussianBlur stdDeviation="8" in="SourceGraphic"></feGaussianBlur>
        </filter>
        <radialGradient cx="54.487949%" cy="45.2463445%" fx="54.487949%" fy="45.2463445%" r="47.5542854%" gradientTransform="translate(0.544879,0.452463),scale(1.000000,0.422078),rotate(180.000000),scale(1.000000,1.454892),translate(-0.544879,-0.452463)" id="radialGradient-12">
            <stop stop-color="#FFFFFF" offset="0%"></stop>
            <stop stop-color="#FFFFFF" offset="28.9959882%"></stop>
            <stop stop-color="#FFFFFF" offset="72.4371833%"></stop>
            <stop stop-color="#FFFFFF" stop-opacity="0.547581285" offset="83.0210093%"></stop>
            <stop stop-color="#FFFFFF" stop-opacity="0" offset="100%"></stop>
        </radialGradient>
        <filter x="-18.5%" y="-7.8%" width="136.9%" height="115.6%" filterUnits="objectBoundingBox" id="filter-13">
            <feGaussianBlur stdDeviation="8" in="SourceGraphic"></feGaussianBlur>
        </filter>
        <radialGradient cx="58.04946%" cy="52.7444278%" fx="58.04946%" fy="52.7444278%" r="97.8370953%" gradientTransform="translate(0.580495,0.527444),scale(0.486056,1.000000),rotate(180.000000),scale(1.000000,1.024117),translate(-0.580495,-0.527444)" id="radialGradient-14">
            <stop stop-color="#FFFFFF" offset="0%"></stop>
            <stop stop-color="#FFFFFF" offset="28.9959882%"></stop>
            <stop stop-color="#FFFFFF" offset="72.4371833%"></stop>
            <stop stop-color="#FFFFFF" stop-opacity="0.547581285" offset="83.0210093%"></stop>
            <stop stop-color="#FFFFFF" stop-opacity="0" offset="100%"></stop>
        </radialGradient>
        <filter x="-9.6%" y="-19.7%" width="119.1%" height="139.3%" filterUnits="objectBoundingBox" id="filter-15">
            <feGaussianBlur stdDeviation="8" in="SourceGraphic"></feGaussianBlur>
        </filter>
        <filter x="-9.6%" y="-19.7%" width="119.1%" height="139.3%" filterUnits="objectBoundingBox" id="filter-16">
            <feGaussianBlur stdDeviation="8" in="SourceGraphic"></feGaussianBlur>
        </filter>
    </defs>
    <g id="-" stroke="none" stroke-width="1" fill="none" fill-rule="evenodd">
        <g id="1_Quienes-somos" transform="translate(-1065.000000, -809.000000)">
            <rect fill="#FFFFFF" x="0" y="0" width="1920" height="1726"></rect>
            <g id="Group" transform="translate(1065.000000, 770.000000)">
                <path d="M226,386 C314.36556,386 386,314.36556 386,226 C386,149.368634 332.127276,85.3199175 260.188933,69.6609538 C249.173359,67.2631716 237.734194,66 226,66 C137.63444,66 66,137.63444 66,226 C66,314.36556 137.63444,386 226,386 Z" id="Oval-Copy-3" stroke="#000325" stroke-dasharray="2"></path>
                <path d="M226,379 C311.051851,379 380,310.051851 380,225 C380,151.242311 328.147503,89.5954206 258.906848,74.523668 C248.304358,72.2158027 237.294162,71 226,71 C140.948149,71 72,139.948149 72,225 C72,310.051851 140.948149,379 226,379 Z" id="Oval-Copy-3" fill="url(#radialGradient-1)" opacity="0.157273065"></path>
                <circle id="Oval-Copy-3" fill="url(#radialGradient-2)" opacity="0.39188058" filter="url(#filter-3)" cx="224.5" cy="239.5" r="110.5"></circle>
                <circle id="Oval" fill="url(#radialGradient-1)" cx="225.5" cy="241.5" r="82.5"></circle>
                <g id="Group-8" transform="translate(129.000000, 163.000000)">
                    <g id="Group-2" transform="translate(95.726204, 75.152450) rotate(-17.000000) translate(-95.726204, -75.152450) translate(12.726204, 22.152450)">
                        <path d="M1.32042254,104.31338 L142.536441,104.31338 C154.29041,104.31338 163.818885,94.7849057 163.818885,83.0309367 L163.818885,1.32042254 L18.9126023,1.32042254 C9.19670968,1.32042254 1.32042254,9.19670968 1.32042254,18.9126023 L1.32042254,104.31338 Z" id="Rectangle" stroke="#4E538F" stroke-width="2.64084507" fill="#FFFFFF"></path>
                        <text id="89103022000900768137" font-family="MavenPro-Medium, Maven Pro Medium" font-size="7.38052771" font-weight="normal" fill="#4E538F">
                            <tspan x="15.9751522" y="86.3406729">89103022000900768137</tspan>
                        </text>
                        <text id="MARÍA-A.-GRANADOS" font-family="MavenPro-Medium, Maven Pro Medium" font-size="7.38052771" font-weight="normal" fill="#4E538F">
                            <tspan x="14.9308076" y="96.9501814">MARÍA A. GRANADOS</tspan>
                        </text>
                        <g id="Group-86" transform="translate(18.912602, 14.299772)">
                            <polygon id="Fill-1" fill="#FEFEFE" points="57.6603727 9.22565963 69.6537302 9.22565963 69.6537302 12.2695312 62.4333284 12.2695312 62.4333284 16.2683023 67.7438014 16.2683023 67.7438014 18.8935538 62.4333284 18.8935538 62.4333284 29.533274 69.6537302 29.533274 69.6537302 32.2898087 57.6603727 32.2898087"></polygon>
                            <polygon id="Fill-2" fill="#FEFEFE" points="33.2123747 9.22565963 48.4347131 9.22565963 48.4347131 12.43797 43.54085 12.4255848 43.54085 32.2898087 38.3699364 32.2898087 38.3699364 12.288109 33.2123747 12.288109"></polygon>
                            <polygon id="Fill-3" fill="#FEFEFE" points="13.8384895 9.22565963 18.7501271 9.22565963 18.7501271 29.533274 25.831847 29.533274 25.831847 32.2898087 13.8384895 32.2898087"></polygon>
                            <polygon id="Fill-4" fill="#FEFEFE" points="0 9.22565963 0 32.2898087 11.9933575 32.2898087 11.9933575 29.5329105 4.85068936 29.5329105 4.85068936 18.8933808 10.1112551 18.8933808 10.1112551 16.1344184 4.85068936 16.1344184 4.85068936 12.2694767 11.9933575 12.2694767 11.9933575 9.22565963"></polygon>
                            <g id="Group-14">
                                <path d="M127.545893,21.3661366 C127.545893,14.8344716 123.32043,9.52452979 118.11146,9.52452979 C112.90039,9.52452979 108.670307,14.8344716 108.670307,21.3661366 C108.670307,27.9007393 112.90039,33.1947329 118.11146,33.1947329 C123.32043,33.1947329 127.545893,27.9007393 127.545893,21.3661366 M121.1909,21.3661366 C121.1909,26.3898485 120.034378,30.3697867 118.537702,31.0908174 C118.391142,31.1667817 118.25886,31.3887987 118.11146,31.3887987 C116.407752,31.3887987 115.023621,26.8976757 115.023621,21.3661366 C115.023621,15.8312399 116.407752,11.3464123 118.11146,11.3464123 C119.808868,11.3464123 121.1909,15.8312399 121.1909,21.3661366" id="Fill-5" fill="#FEFEFE"></path>
                                <path d="M96.7137389,24.5556271 L96.7137389,33.0669787 L91.3481304,33.0669787 L91.3481304,9.63558027 L101.257939,9.63558027 C104.832072,9.63558027 107.161914,13.2503865 107.161914,17.4464661 C107.161914,21.5665814 104.024102,24.5396788 101.665284,24.5396788 L96.7137389,24.5556271 Z M96.7137389,21.1405941 L100.15475,21.1405941 C101.551899,21.1405941 102.619814,19.0114972 102.619814,16.8815608 C102.619814,14.8922212 101.305393,12.9016226 99.7406862,12.9016226 L96.7137389,12.9016226 L96.7137389,21.1405941 Z" id="Fill-7" fill="#FEFEFE"></path>
                                <polygon id="Fill-9" fill="#FEFEFE" points="74.7085709 33.0711756 71.3977422 33.0711756 71.3977422 9.62005167 74.7085709 9.62005167 80.2068813 21.1405941 84.3323988 9.62005167 89.4250445 9.62005167 89.4250445 33.0711756 84.0611158 33.0711756 84.0611158 20.7154462 79.7944975 33.0711756 79.108731 33.0711756 74.7085709 21.4293422"></polygon>
                                <polygon id="Clip-12" points="0 51.202411 127.689892 51.202411 127.689892 0.227473006 0 0.227473006"></polygon>
                                <polygon id="Fill-11" fill="#FEFEFE" points="49.5230085 33.0671046 54.3422714 33.0671046 54.3422714 9.62017758 49.5230085 9.62017758"></polygon>
                                <path d="M51.5619145,40.3354547 C51.5031225,40.4961967 48.8184285,47.7581255 48.8184285,47.7581255 C48.8184285,47.7581255 46.1396137,40.4303051 46.0753625,40.2888689 C45.7977803,39.659331 45.1456092,39.2236909 44.3565368,39.486418 C43.7001663,39.7080153 43.2462082,40.5503369 43.5523464,41.2764039 C43.709825,41.6902201 46.9715203,49.8326625 46.9715203,49.8326625 C46.9715203,49.8326625 47.5292043,51.1991793 48.8238878,51.1991793 C50.0354226,51.1991793 50.6250222,49.8326625 50.6250222,49.8326625 C50.6250222,49.8326625 53.4155418,43.1377375 54.1357436,41.167284 C54.3944283,40.4634607 53.9975824,39.7273211 53.3294535,39.4729878 C53.1908724,39.4209461 53.0367534,39.3949252 52.8780151,39.3949252 C52.3606456,39.3949252 51.7962425,39.6819944 51.5619145,40.3354547" id="Fill-13" fill="#FEFEFE"></path>
                            </g>
                            <g id="Group-17" transform="translate(42.899317, 39.209053)">
                                <path d="M8.33693248,1.01036879 C8.27793382,1.17282524 5.58380202,8.51220862 5.58380202,8.51220862 L5.58380202,8.51220862 C5.58380202,8.51220862 2.89557009,1.10623082 2.83109298,0.963286116 L2.83109298,0.963286116 C2.55253501,0.327033728 1.89807127,-0.113252925 1.10622493,0.152276405 L1.10622493,0.152276405 C0.447547,0.376237246 -0.00758554237,1.22754294 0.299628923,1.9617782 L0.299628923,1.9617782 C0.457239637,2.37915977 3.73040117,10.6092965 3.73040117,10.6092965 L3.73040117,10.6092965 C3.73040117,10.6092965 4.29004563,11.9899642 5.58928047,11.9899642 L5.58928047,11.9899642 C6.80507434,11.9899642 7.39674665,10.6092965 7.39674665,10.6092965 L7.39674665,10.6092965 C7.39674665,10.6092965 10.197076,3.84254026 10.9198097,1.85149445 L10.9198097,1.85149445 C11.1794038,1.13974011 10.7811628,0.395748986 10.1106851,0.138703021 L10.1106851,0.138703021 C9.97161686,0.0865303248 9.81695608,0.0598077245 9.65765969,0.0598077245 L9.65765969,0.0598077245 C9.13847146,0.0598077245 8.57208429,0.350362982 8.33693248,1.01036879 L8.33693248,1.01036879 Z" id="Clip-16"></path>
                                <polygon id="Fill-15" fill="#FEFEFE" points="-0.00800696139 11.9899642 11.1794038 11.9899642 11.1794038 -0.113252925 -0.00800696139 -0.113252925"></polygon>
                            </g>
                            <path d="M56.2780184,40.4941299 C56.2780184,40.8138241 56.281506,40.9043779 56.281506,40.9043779 L56.2765238,44.8844139 L56.2765238,44.8859887 C56.2765238,44.971818 56.281506,48.6439711 56.281506,49.0022491 C56.281506,49.8152647 57.1414383,50.279845 57.888274,50.279845 C58.6356079,50.279845 59.4980313,49.8373126 59.4980313,48.9951623 C59.4980313,48.6396402 59.5020171,44.893863 59.5020171,44.893863 L59.5055046,40.8992596 C59.5055046,40.8992596 59.4980313,40.8169738 59.4980313,40.4890116 C59.4980313,39.8370243 58.852833,39.2090534 57.8852846,39.2090534 C57.0437866,39.2090534 56.2780184,39.7598567 56.2780184,40.4941299" id="Fill-18" fill="#FEFEFE"></path>
                            <g id="Group-22" transform="translate(56.276524, 39.209053)">
                                <path d="M0.288590165,1.43471418 C0.288590165,1.77493441 0.29169806,1.87142104 0.29169806,1.87142104 L0.29169806,1.87142104 L0.287258211,6.11263751 L0.287258211,6.11389603 C0.287258211,6.20534857 0.29169806,10.1185105 0.29169806,10.5002619 L0.29169806,10.5002619 C0.29169806,11.3661245 1.05801595,11.8615624 1.72354927,11.8615624 L1.72354927,11.8615624 C2.38952657,11.8615624 3.15806438,11.3900364 3.15806438,10.4927108 L3.15806438,10.4927108 C3.15806438,10.1138959 3.16161626,6.12228617 3.16161626,6.12228617 L3.16161626,6.12228617 L3.16472415,1.86596744 C3.16472415,1.86596744 3.15806438,1.77870997 3.15806438,1.42926059 L3.15806438,1.42926059 C3.15806438,0.734137371 2.58354796,0.0650235958 1.72088536,0.0650235958 L1.72088536,0.0650235958 C0.970994911,0.0650235958 0.288590165,0.651913986 0.288590165,1.43471418 L0.288590165,1.43471418 Z" id="Clip-21"></path>
                                <polygon id="Fill-20" fill="#FEFEFE" points="0.287258211 11.8615624 3.16472415 11.8615624 3.16472415 0.0654431028 0.287258211 0.0654431028"></polygon>
                            </g>
                            <path d="M56.2765238,36.2089805 C56.2765238,37.1005536 56.9983957,37.8252045 57.8877738,37.8252045 C58.7826357,37.8252045 59.5055046,37.1005536 59.5055046,36.2089805 C59.5055046,35.3203792 58.7826357,34.5962236 57.8877738,34.5962236 C56.9983957,34.5962236 56.2765238,35.3203792 56.2765238,36.2089805" id="Fill-23" fill="#FEFEFE"></path>
                            <g id="Group-27" transform="translate(56.276524, 34.596224)">
                                <path d="M0.288590165,1.70623386 C0.288590165,2.50540662 0.931480257,3.15540047 1.72354927,3.15540047 L1.72354927,3.15540047 C2.52050211,3.15540047 3.16428017,2.50540662 3.16428017,1.70623386 L3.16428017,1.70623386 C3.16428017,0.910168983 2.52050211,0.261063104 1.72354927,0.261063104 L1.72354927,0.261063104 C0.931480257,0.261063104 0.288590165,0.910168983 0.288590165,1.70623386 L0.288590165,1.70623386 Z" id="Clip-26"></path>
                                <polygon id="Fill-25" fill="#FEFEFE" points="0.288590165 3.15540047 3.16428017 3.15540047 3.16428017 0.261063104 0.288590165 0.261063104"></polygon>
                            </g>
                            <path d="M75.1914606,40.0906202 C74.9146391,40.2521226 74.7686708,40.4475011 74.7030282,40.6594237 C74.480189,41.3806697 74.9910781,41.8277556 75.3702502,41.9585331 C75.5900663,42.0345574 75.7939037,42.0329818 75.7939037,42.0329818 C76.6394833,41.9738956 77.3002274,41.3369459 78.2412478,41.3243408 C79.6918617,41.3058272 80.7607124,41.7044623 80.7607124,42.4954301 C80.7607124,43.062658 80.8928612,43.4900484 77.3680292,43.7346655 C73.8190131,43.9800703 72.4232453,45.4517115 72.4232453,46.9851964 C72.4232453,46.9851964 72.1991106,50.279845 76.72931,50.279845 C80.9222276,50.279845 83.4922197,47.9605132 83.4922197,45.3819898 L83.4922197,42.1054609 C83.4922197,41.7804866 83.4438515,41.4917518 83.3497063,41.2380749 C82.8461588,39.9862345 81.1105181,39.2090534 78.8795352,39.2090534 C78.8795352,39.2090534 76.6990799,39.2066901 75.1914606,40.0906202 M75.29122,47.1439414 C75.1279773,45.7309925 77.0765245,45.6025784 77.0765245,45.6025784 C79.3334189,45.3705664 80.1090374,45.2980873 80.6479973,45.0022622 C80.6479973,45.0022622 81.5168973,48.1456501 77.5070878,48.163376 C77.5070878,48.163376 77.4047372,48.1728298 77.2419264,48.1728298 C76.6787825,48.1728298 75.401344,48.0696258 75.29122,47.1439414" id="Fill-28" fill="#FEFEFE"></path>
                            <g id="Group-32" transform="translate(72.421428, 39.209053)">
                                <mask id="mask-5" fill="white">
                                    <use xlink:href="#path-4"></use>
                                </mask>
                                <g id="Clip-31"></g>
                                <polygon id="Fill-30" fill="#FEFEFE" mask="url(#mask-5)" points="-0.17772493 11.9899642 10.841961 11.9899642 10.841961 0.0661702484 -0.17772493 0.0661702484"></polygon>
                            </g>
                            <path d="M98.5721061,39.2090534 C96.9133253,39.2090534 95.8132013,39.7280768 94.8772364,40.751553 L94.8450062,40.751553 C93.7706663,39.8005353 92.7053509,39.2090534 91.019067,39.2090534 L90.8819812,39.2090534 C89.4625634,39.2090534 88.6615355,39.6859406 87.8076502,40.1927563 C86.4269086,41.2079628 85.8102375,42.5807362 85.8102375,43.8889271 L85.7986346,48.3482748 C85.7986346,48.3541818 85.8046509,48.7042666 85.8046509,48.9948881 C85.8046509,49.8072896 86.5403589,50.2766946 87.192698,50.2766946 C87.9193815,50.2766946 88.5850425,49.7159289 88.5850425,48.9937067 L88.5850425,48.3829289 L88.5850425,44.6320204 C88.5850425,44.6320204 88.5781668,44.7202308 88.5781668,44.0834624 C88.5781668,42.741405 89.7088021,41.7758168 90.9812502,41.7758168 C92.2476821,41.7758168 93.4041015,42.7236842 93.4041015,43.9921017 C93.4041015,44.1322931 93.4036718,44.0810996 93.4036718,44.0291185 C93.4002339,43.9428771 93.3976555,43.8550606 93.3976555,44.6859705 L93.4083989,49.2181706 C93.4083989,49.2181706 93.6606539,50.279845 94.7895703,50.279845 C96.1307762,50.279845 96.196096,48.9976447 96.196096,48.9976447 L96.196096,43.8326142 C96.2893487,42.646894 97.3997864,41.7769982 98.6086337,41.7769982 C99.8785034,41.7769982 101.012147,42.7449492 101.012147,44.0866127 C101.012147,44.7214122 101.005701,44.6339894 101.005701,44.6339894 L101.005701,48.3856855 L101.005701,48.9948881 C101.005701,49.7182917 101.670932,50.277876 102.395897,50.277876 C103.051244,50.277876 103.785663,49.8088648 103.785663,48.9976447 C103.785663,48.7050541 103.788671,48.3502438 103.788671,48.3502438 L103.779217,43.8916836 C103.779217,42.5815238 103.163405,41.2103256 101.780085,40.1959066 C100.929208,39.6879096 100.12861,39.2090534 98.7087622,39.2090534 L98.5721061,39.2090534 Z" id="Fill-33" fill="#FEFEFE"></path>
                            <g id="Group-37" transform="translate(85.798635, 39.209053)">
                                <path d="M12.7395157,0.0679601452 C11.0861457,0.0679601452 9.98961015,0.620870463 9.05669827,1.71074983 L9.05669827,1.71074983 L9.02414487,1.71074983 C7.95373771,0.698059763 6.89189723,0.0679601452 5.21111384,0.0679601452 L5.21111384,0.0679601452 L5.07447524,0.0679601452 C3.65925905,0.0679601452 2.86127244,0.575563699 2.01017239,1.1154693 L2.01017239,1.1154693 C0.633934612,2.19737803 0.0188467047,3.65936017 0.0188467047,5.05296265 L0.0188467047,5.05296265 L0.00771001555,9.80388021 C0.00771001555,9.80975331 0.0137066943,10.1831146 0.0137066943,10.4927108 L0.0137066943,10.4927108 C0.0137066943,11.3577344 0.74701484,11.8582063 1.39679782,11.8582063 L1.39679782,11.8582063 C2.12111095,11.8582063 2.78460062,11.2604088 2.78460062,10.4910328 L2.78460062,10.4910328 L2.78460062,9.84037733 L2.78460062,5.844992 C2.78460062,5.844992 2.7781756,5.93896158 2.7781756,5.26019914 L2.7781756,5.26019914 C2.7781756,3.83051905 3.90512288,2.80188772 5.1729921,2.80188772 L5.1729921,2.80188772 C6.43572131,2.80188772 7.58794031,3.81164123 7.58794031,5.16329301 L7.58794031,5.16329301 C7.58794031,5.31263753 7.58751197,5.25810161 7.58751197,5.20272667 L7.58751197,5.20272667 C7.5840853,5.11085463 7.58194363,5.01730455 7.58194363,5.90204496 L7.58194363,5.90204496 L7.59265198,10.7305713 C7.59265198,10.7305713 7.84408416,11.8615624 8.96931809,11.8615624 L8.96931809,11.8615624 C10.3061491,11.8615624 10.3708276,10.4956474 10.3708276,10.4956474 L10.3708276,10.4956474 L10.3708276,4.99339265 C10.4642044,3.73025686 11.57102,2.80356574 12.7754958,2.80356574 L12.7754958,2.80356574 C14.0416517,2.80356574 15.1711689,3.83429461 15.1711689,5.26397471 L15.1711689,5.26397471 C15.1711689,5.9398006 15.1651723,5.84708953 15.1651723,5.84708953 L15.1651723,5.84708953 L15.1651723,9.84331388 L15.1651723,10.4927108 C15.1651723,11.2633453 15.8282336,11.8594649 16.5508334,11.8594649 L16.5508334,11.8594649 C17.204043,11.8594649 17.9360662,11.3598319 17.9360662,10.4956474 L17.9360662,10.4956474 C17.9360662,10.1839536 17.9386362,9.80597775 17.9386362,9.80597775 L17.9386362,9.80597775 L17.9296412,5.0558992 C17.9296412,3.66061869 17.3158383,2.19989507 15.9366021,1.11882535 L15.9366021,1.11882535 C15.0889288,0.578080742 14.2905138,0.0679601452 12.875726,0.0679601452 L12.875726,0.0679601452 L12.7395157,0.0679601452 Z" id="Clip-36"></path>
                                <polygon id="Fill-35" fill="#FEFEFE" points="0.00771001555 11.8615624 17.9386362 11.8615624 17.9386362 0.0679601452 0.00771001555 0.0679601452"></polygon>
                            </g>
                            <path d="M104.711237,44.7542994 C104.711237,48.3641859 107.688173,50.279845 110.210492,50.279845 C113.955263,50.279845 115.782028,47.1912289 115.782028,44.7688776 C115.782028,42.3315541 113.955263,39.2090534 110.244065,39.2090534 C107.549932,39.2090534 104.711237,41.3232917 104.711237,44.7542994 M107.254094,44.7428732 C107.254094,42.8930132 108.786208,41.7547287 110.237746,41.7547287 C112.239881,41.7547287 113.223767,43.435954 113.223767,44.7507533 C113.223767,46.0560965 112.239881,47.7219555 110.219972,47.7219555 C108.860463,47.7219555 107.254094,46.6900528 107.254094,44.7428732" id="Fill-38" fill="#FEFEFE"></path>
                            <g id="Group-42" transform="translate(104.711237, 39.209053)">
                                <mask id="mask-7" fill="white">
                                    <use xlink:href="#path-6"></use>
                                </mask>
                                <g id="Clip-41"></g>
                                <polygon id="Fill-40" fill="#FEFEFE" mask="url(#mask-7)" points="0.0746536136 11.9899642 11.9636657 11.9899642 11.9636657 0.0716844358 0.0746536136 0.0716844358"></polygon>
                            </g>
                            <path d="M119.134368,39.6431016 C118.381699,39.9320729 117.813314,40.3188134 117.424463,40.8045058 C117.039929,41.2890156 116.847878,41.8062465 116.847878,42.3502851 C116.847878,42.9601603 117.055897,43.4785739 117.471505,43.8952759 C117.892292,44.3139491 118.451615,44.6529877 119.147747,44.9100262 C119.845174,45.1631224 120.749758,45.4087283 121.862793,45.6421129 C122.847649,45.8400168 123.555003,46.0509304 123.986579,46.2701227 C124.413408,46.4897093 124.627901,46.8393921 124.627901,47.3168057 C124.627901,47.629825 124.419881,47.9073636 124.009452,48.1513925 C123.594276,48.3926618 123.062143,48.5144791 122.418663,48.5144791 C121.622405,48.5144791 120.993598,48.3950272 120.532243,48.1549406 C120.069162,47.9168251 119.675996,47.55295 119.342819,47.069623 C119.176663,46.8161325 119.001874,46.6190171 118.821044,46.4794593 C118.641077,46.3391131 118.381699,46.2701227 118.043775,46.2701227 C117.657083,46.2701227 117.337717,46.3765651 117.086108,46.589844 C116.833204,46.8019402 116.704594,47.059373 116.704594,47.3582 C116.704594,47.810777 116.902688,48.2605944 117.296285,48.7092292 C117.692041,49.1582582 118.302289,49.5331717 119.129621,49.8319987 C119.956952,50.13122 120.950441,50.279845 122.109223,50.279845 C123.324541,50.279845 124.354713,50.1402873 125.202329,49.8678737 C126.049944,49.5903352 126.690403,49.1838832 127.126727,48.6493061 C127.559166,48.1123636 127.775386,47.4713442 127.775386,46.7183632 C127.775386,46.2212381 127.610092,45.7761514 127.282958,45.3874398 C126.956686,44.996757 126.475479,44.6612665 125.84063,44.3758434 C125.208371,44.090026 124.387945,43.8436317 123.386256,43.635872 C122.542525,43.4647758 121.879192,43.3169392 121.39928,43.1990642 C120.918936,43.0796122 120.539149,42.9286218 120.255603,42.7460929 C119.9699,42.5611986 119.828774,42.3266312 119.828774,42.0412081 C119.828774,41.728583 120.020394,41.4683906 120.406223,41.2578713 C120.792915,41.048929 121.276712,40.9420924 121.862793,40.9420924 C122.430315,40.9420924 122.880449,41.023304 123.208879,41.1817848 C123.540761,41.3430252 123.828622,41.5559099 124.07462,41.820833 C124.373703,42.1405543 124.639122,42.3818236 124.870447,42.5395159 C125.104361,42.6999679 125.384886,42.7788141 125.718494,42.7788141 C126.175102,42.7788141 126.527699,42.6790736 126.775856,42.4799871 C127.024012,42.280112 127.147011,42.0238619 127.147011,41.7120253 C127.147011,41.4250252 127.030485,41.1329001 126.798298,40.8348616 C126.564383,40.5336692 126.227322,40.2616499 125.782367,40.0160441 C125.336118,39.7708325 124.781111,39.5733228 124.116052,39.4278516 C123.448835,39.2811977 122.695735,39.2090534 121.862793,39.2090534 C120.798526,39.2090534 119.888332,39.3525535 119.134368,39.6431016" id="Fill-43" fill="#FEFEFE"></path>
                            <g id="Group-47" transform="translate(116.704594, 39.209053)">
                                <path d="M2.54663514,0.521726959 C1.81125895,0.832642293 1.25667152,1.24875135 0.876972981,1.77175082 L0.876972981,1.77175082 C0.501488634,2.29262944 0.313535751,2.8491382 0.313535751,3.43449039 L0.313535751,3.43449039 C0.313535751,4.09067869 0.516659719,4.64803578 0.922907655,5.09722997 L0.922907655,5.09722997 C1.33336978,5.54727249 1.87952883,5.91205719 2.55927771,6.18903907 L2.55927771,6.18903907 C3.24071227,6.46093092 4.12400653,6.72518775 5.21042477,6.97629536 L5.21042477,6.97629536 C6.17210297,7.18880365 6.86323017,7.41615784 7.28422777,7.65157123 L7.28422777,7.65157123 C7.7014326,7.88825711 7.91087785,8.26449436 7.91087785,8.77816212 L7.91087785,8.77816212 C7.91087785,9.11495172 7.70775388,9.41356617 7.30698439,9.67612633 L7.30698439,9.67612633 C6.90115788,9.9357173 6.38154823,10.0667853 5.75363388,10.0667853 L5.75363388,10.0667853 C4.97569437,10.0667853 4.36168686,9.93826231 3.91161135,9.67994384 L3.91161135,9.67994384 C3.45900732,9.42374621 3.07509459,9.03266308 2.75018053,8.51220862 L2.75018053,8.51220862 C2.58751278,8.23946843 2.4172595,8.0273843 2.24068493,7.87722874 L2.24068493,7.87722874 C2.0649532,7.72664901 1.81125895,7.65157123 1.48170928,7.65157123 L1.48170928,7.65157123 C1.10411783,7.65157123 0.791846339,7.76652082 0.54615905,7.99599585 L0.54615905,7.99599585 C0.299207504,8.22419838 0.173624636,8.50118025 0.173624636,8.82269979 L0.173624636,8.82269979 C0.173624636,9.30964495 0.367055967,9.79362093 0.751811532,10.2763244 L0.751811532,10.2763244 C1.13825277,10.7590279 1.73413927,11.1628361 2.54199953,11.4839314 L2.54199953,11.4839314 C3.34985979,11.8058752 4.31954496,11.9662108 5.45105503,11.9662108 L5.45105503,11.9662108 C6.63777099,11.9662108 7.64369819,11.815631 8.47136515,11.5225308 L8.47136515,11.5225308 C9.29945352,11.2243405 9.92441793,10.787023 10.3504726,10.2118508 L10.3504726,10.2118508 C10.7731558,9.63413367 10.9842868,8.94486025 10.9842868,8.1342747 L10.9842868,8.1342747 C10.9842868,7.59897436 10.8224619,7.12051256 10.5030262,6.70228266 L10.5030262,6.70228266 C10.1848549,6.28193192 9.71455126,5.92096473 9.09464388,5.61386691 L9.09464388,5.61386691 C8.47768643,5.30676909 7.67614746,5.04123976 6.69803391,4.81770309 L6.69803391,4.81770309 C5.87458114,4.63361406 5.22686011,4.47497513 4.75824216,4.34772466 L4.75824216,4.34772466 C4.28878137,4.2187775 3.91793263,4.05674523 3.64106034,3.86035533 L3.64106034,3.86035533 C3.36208094,3.66142041 3.22469834,3.4090403 3.22469834,3.10194248 L3.22469834,3.10194248 C3.22469834,2.76557705 3.41180839,2.485626 3.78813557,2.25912015 L3.78813557,2.25912015 C4.16572702,2.03473514 4.63813774,1.91936137 5.21042477,1.91936137 L5.21042477,1.91936137 C5.76459078,1.91936137 6.20413082,2.00674003 6.52525211,2.17725567 L6.52525211,2.17725567 C6.84890192,2.35074049 7.12998841,2.57979135 7.37061867,2.86483242 L7.37061867,2.86483242 C7.66224063,3.20883288 7.92141333,3.46842385 8.14771534,3.63809116 L8.14771534,3.63809116 C8.37612445,3.81030347 8.64962539,3.89556129 8.97580371,3.89556129 L8.97580371,3.89556129 C9.42166504,3.89556129 9.76554296,3.78824672 10.0078589,3.57404175 L10.0078589,3.57404175 C10.2501748,3.35941261 10.3707007,3.08327908 10.3707007,2.74776198 L10.3707007,2.74776198 C10.3707007,2.43896749 10.2564961,2.12465881 10.0301941,1.80398761 L10.0301941,1.80398761 C9.80136358,1.47992306 9.47223532,1.18767113 9.03817373,0.922990132 L9.03817373,0.922990132 C8.60242646,0.659157475 8.06006018,0.447073345 7.41065347,0.290131089 L7.41065347,0.290131089 C6.75956109,0.132340497 6.0241849,0.0547177054 5.21042477,0.0547177054 L5.21042477,0.0547177054 C4.17162688,0.0547177054 3.28285417,0.209114952 2.54663514,0.521726959 L2.54663514,0.521726959 Z" id="Clip-46"></path>
                                <polygon id="Fill-45" fill="#FEFEFE" points="0.174046055 11.9662108 10.9842868 11.9662108 10.9842868 0.0547177054 0.174046055 0.0547177054"></polygon>
                            </g>
                            <path d="M68.7682854,40.0911428 C68.7121202,40.241897 65.9470673,47.0526026 65.9470673,47.0526026 C65.9470673,47.0526026 63.1884949,40.1800996 63.1249851,40.0474516 C62.8363827,39.4570304 62.1671534,39.0484589 61.3579434,39.2948613 C60.6822336,39.5026896 60.2151988,40.2926732 60.5266993,40.9736257 C60.6887142,41.3617292 64.0469574,48.9982373 64.0469574,48.9982373 C64.0469574,48.9982373 64.6198418,50.279845 65.9531158,50.279845 C67.200846,50.279845 67.8052693,48.9982373 67.8052693,48.9982373 C67.8052693,48.9982373 70.6722836,42.7193044 71.4175518,40.871286 C71.682392,40.2111951 71.2728185,39.5207959 70.5867398,39.2822657 C70.4428706,39.2334575 70.2851762,39.2090534 70.1218652,39.2090534 C69.5895925,39.2090534 69.0097955,39.4782855 68.7682854,40.0911428" id="Fill-48" fill="#FEFEFE"></path>
                            <g id="Group-52" transform="translate(60.428071, 39.209053)">
                                <path d="M8.19935625,1.01036879 C8.14605244,1.17282524 5.52227484,8.51220862 5.52227484,8.51220862 L5.52227484,8.51220862 C5.52227484,8.51220862 2.90423765,1.10623082 2.84355331,0.963286116 L2.84355331,0.963286116 C2.57006376,0.327033728 1.93492835,-0.113252925 1.16694344,0.152276405 L1.16694344,0.152276405 C0.525657585,0.376237246 0.0820058634,1.22754294 0.37804703,1.9617782 L0.37804703,1.9617782 C0.531808024,2.37915977 3.71855588,10.6092965 3.71855588,10.6092965 L3.71855588,10.6092965 C3.71855588,10.6092965 4.26266478,11.9899642 5.52801525,11.9899642 L5.52801525,11.9899642 C6.71176989,11.9899642 7.28540091,10.6092965 7.28540091,10.6092965 L7.28540091,10.6092965 C7.28540091,10.6092965 10.0063555,3.84254026 10.7140661,1.85149445 L10.7140661,1.85149445 C10.965414,1.13974011 10.5762962,0.395748986 9.92516965,0.138703021 L9.92516965,0.138703021 C9.78862989,0.0865303248 9.63896919,0.0598077245 9.4839781,0.0598077245 L9.4839781,0.0598077245 C8.97923202,0.0598077245 8.42856264,0.350362982 8.19935625,1.01036879 L8.19935625,1.01036879 Z" id="Clip-51"></path>
                                <polygon id="Fill-50" fill="#FEFEFE" points="0.0824158927 11.9899642 10.965414 11.9899642 10.965414 -0.113252925 0.0824158927 -0.113252925"></polygon>
                            </g>
                            <g id="Group-85">
                                <path d="M3.79422473,2.19473679 C3.58215364,1.24203619 3.09711976,0.915515896 2.34752196,0.915515896 C1.41146957,0.915515896 0.900399247,1.49762855 0.900399247,3.00558152 L0.900399247,3.67582948 C0.900399247,5.18336276 1.41146957,5.76589511 2.34752196,5.76589511 C3.14121375,5.76589511 3.59181232,5.3780998 3.79422473,4.48709391 L4.52660488,4.48709391 C4.33259133,5.8544501 3.50362435,6.45377012 2.34752196,6.45377012 C0.997406022,6.45377012 0.141142758,5.64250569 0.141142758,3.67582948 L0.141142758,3.00558152 C0.141142758,1.03890531 0.997406022,0.227640883 2.34752196,0.227640883 C3.54771833,0.227640883 4.34183007,0.862634717 4.53542368,2.19473679 L3.79422473,2.19473679 Z" id="Fill-53" fill="#FEFEFE"></path>
                                <polygon id="Fill-55" fill="#FEFEFE" points="8.0707537 5.69530293 10.9826367 5.69530293 10.9826367 6.38317794 7.31107727 6.38317794 7.31107727 0.298484874 8.0707537 0.298484874"></polygon>
                                <path d="M17.9066108,0.298316998 L17.9066108,3.90514913 C17.9066108,5.70394858 17.0507674,6.453938 15.7006515,6.453938 C14.3505356,6.453938 13.4942723,5.70394858 13.4942723,3.91354297 L13.4942723,0.298316998 L14.2535288,0.298316998 L14.2535288,3.91354297 C14.2535288,5.24564503 14.7658589,5.76564329 15.7006515,5.76564329 C16.6362839,5.76564329 17.1473543,5.24564503 17.1473543,3.91354297 L17.1473543,0.298316998 L17.9066108,0.298316998 Z" id="Fill-57" fill="#FEFEFE"></path>
                                <path d="M21.9264287,5.69530293 L23.2236319,5.69530293 C24.1412068,5.69530293 24.5645091,5.29869409 24.5645091,4.63725967 C24.5645091,3.90489731 24.0878741,3.57040287 23.0821112,3.57040287 L21.9264287,3.57040287 L21.9264287,5.69530293 Z M21.9264287,2.88210817 L23.1614804,2.88210817 C24.0173237,2.88210817 24.3704955,2.44982552 24.3704955,1.8505055 C24.3704955,1.31246049 24.0971128,0.977126666 23.0291984,0.977126666 L21.9264287,0.977126666 L21.9264287,2.88210817 Z M23.0291984,0.298484874 C24.4502847,0.298484874 25.1293321,0.83611019 25.1293321,1.8505055 C25.1293321,2.48591902 24.7148486,3.06761199 24.1231493,3.20862846 C24.8912245,3.34922525 25.3237656,3.86124936 25.3237656,4.63725967 C25.3237656,5.51903233 24.7858189,6.38317794 23.2236319,6.38317794 L21.1671722,6.38317794 L21.1671722,0.298484874 L23.0291984,0.298484874 Z" id="Fill-59" fill="#FEFEFE"></path>
                                <path d="M35.5450461,3.65790863 L35.5450461,3.02333449 C35.5450461,1.51580121 35.0331359,0.986569733 34.0983433,0.986569733 L32.9157845,0.986569733 L32.9157845,5.69509308 L34.0983433,5.69509308 C35.0331359,5.69509308 35.5450461,5.1662813 35.5450461,3.65790863 L35.5450461,3.65790863 Z M32.156948,6.3829681 L32.156948,0.298275029 L34.0983433,0.298275029 C35.4484593,0.298275029 36.3043026,1.05665828 36.3043026,3.02333449 L36.3043026,3.65790863 C36.3043026,5.62500454 35.4484593,6.3829681 34.0983433,6.3829681 L32.156948,6.3829681 Z" id="Fill-61" fill="#FEFEFE"></path>
                                <polygon id="Fill-63" fill="#FEFEFE" points="42.9276396 0.298316998 42.9276396 0.986611703 40.0157566 0.986611703 40.0157566 2.89117351 42.6630757 2.89117351 42.6630757 3.57820914 40.0157566 3.57820914 40.0157566 5.69513505 42.9276396 5.69513505 42.9276396 6.38301007 39.2565001 6.38301007 39.2565001 0.298316998"></polygon>
                                <g id="Group-67" transform="translate(49.133302, 0.000000)">
                                    <polygon id="Clip-66" points="0.274264609 0.227473006 4.49216958 0.227473006 4.49216958 6.45389603 0.274264609 6.45389603"></polygon>
                                    <path d="M3.79506461,1.64758447 C3.46918904,1.22411534 3.11643713,0.915641803 2.34836184,0.915641803 C1.64243808,0.915641803 1.16580306,1.23292887 1.16580306,1.86792271 C1.16580306,2.59147153 1.71256852,2.83783067 2.60410698,2.9968939 C3.77784696,3.19960509 4.49216958,3.62265451 4.49216958,4.75162571 C4.49216958,5.54568277 3.96262177,6.45389603 2.44494868,6.45389603 C1.45682339,6.45389603 0.733681976,6.1185622 0.274264609,5.45712778 L0.901239133,5.02526482 C1.29850497,5.49196221 1.65125688,5.76602101 2.44494868,5.76602101 C3.4423127,5.76602101 3.73375297,5.30729777 3.73375297,4.78646013 C3.73375297,4.2135807 3.4423127,3.8253657 2.29544906,3.6495148 C1.14774553,3.4732442 0.406966518,2.92596597 0.406966518,1.86792271 C0.406966518,0.994963571 0.980188369,0.227347099 2.37439829,0.227347099 C3.34572587,0.227347099 3.95422291,0.554287083 4.38676395,1.22411534 L3.79506461,1.64758447 Z" id="Fill-65" fill="#FEFEFE"></path>
                                </g>
                                <path d="M60.9728735,0.298316998 L60.9728735,3.90514913 C60.9728735,5.70394858 60.1166102,6.453938 58.7664943,6.453938 C57.4167983,6.453938 56.560535,5.70394858 56.560535,3.91354297 L56.560535,0.298316998 L57.3197915,0.298316998 L57.3197915,3.91354297 C57.3197915,5.24564503 57.8317017,5.76564329 58.7664943,5.76564329 C59.7025467,5.76564329 60.213197,5.24564503 60.213197,3.91354297 L60.213197,0.298316998 L60.9728735,0.298316998 Z" id="Fill-68" fill="#FEFEFE"></path>
                                <g id="Group-72" transform="translate(63.831298, 0.000000)">
                                    <polygon id="Clip-71" points="0.0501411642 0.227473006 4.26762619 0.227473006 4.26762619 6.45389603 0.0501411642 6.45389603"></polygon>
                                    <path d="M3.57052123,1.64758447 C3.24464565,1.22411534 2.89189374,0.915641803 2.12381846,0.915641803 C1.41831464,0.915641803 0.941679619,1.23292887 0.941679619,1.86792271 C0.941679619,2.59147153 1.48844508,2.83783067 2.37998353,2.9968939 C3.55330357,3.19960509 4.26762619,3.62265451 4.26762619,4.75162571 C4.26762619,5.54568277 3.73849832,6.45389603 2.22082523,6.45389603 C1.23228,6.45389603 0.508718646,6.1185622 0.0501411642,5.45712778 L0.676695745,5.02526482 C1.07354164,5.49196221 1.42713344,5.76602101 2.22082523,5.76602101 C3.21776932,5.76602101 3.50920958,5.30729777 3.50920958,4.78646013 C3.50920958,4.2135807 3.21776932,3.8253657 2.07132561,3.6495148 C0.923622081,3.4732442 0.182003187,2.92596597 0.182003187,1.86792271 C0.182003187,0.994963571 0.755644982,0.227347099 2.14985491,0.227347099 C3.12118248,0.227347099 3.72967953,0.554287083 4.16180062,1.22411534 L3.57052123,1.64758447 Z" id="Fill-70" fill="#FEFEFE"></path>
                                </g>
                                <path d="M74.3780339,2.19473679 C74.1663828,1.24203619 73.6813489,0.915515896 72.9313312,0.915515896 C71.9961187,0.915515896 71.4846284,1.49762855 71.4846284,3.00558152 L71.4846284,3.67582948 C71.4846284,5.18336276 71.9961187,5.76589511 72.9313312,5.76589511 C73.7254429,5.76589511 74.1760415,5.3780998 74.3780339,4.48709391 L75.110834,4.48709391 C74.9172404,5.8544501 74.0878535,6.45377012 72.9313312,6.45377012 C71.5816352,6.45377012 70.7257918,5.64250569 70.7257918,3.67582948 L70.7257918,3.00558152 C70.7257918,1.03890531 71.5816352,0.227640883 72.9313312,0.227640883 C74.1315275,0.227640883 74.9260592,0.862634717 75.1196528,2.19473679 L74.3780339,2.19473679 Z" id="Fill-73" fill="#FEFEFE"></path>
                                <path d="M79.8372897,3.12918079 C80.8695089,3.12918079 81.2928112,2.81147402 81.2928112,2.0619043 C81.2928112,1.30352105 80.8695089,0.986653672 79.8372897,0.986653672 L78.6547309,0.986653672 L78.6547309,3.12918079 L79.8372897,3.12918079 Z M81.3633616,6.38305203 L80.0926149,3.8170558 L78.6547309,3.8170558 L78.6547309,6.38305203 L77.8958943,6.38305203 L77.8958943,0.298358967 L79.8372897,0.298358967 C81.2398984,0.298358967 82.0516478,0.880471623 82.0516478,2.0619043 C82.0516478,2.91723638 81.6283455,3.45528139 80.8518713,3.68443316 L82.2108061,6.38305203 L81.3633616,6.38305203 Z" id="Fill-75" fill="#FEFEFE"></path>
                                <polygon id="Clip-78" points="0 51.202411 127.689892 51.202411 127.689892 0.227473006 0 0.227473006"></polygon>
                                <polygon id="Fill-77" fill="#FEFEFE" points="85.0741017 6.383094 85.8337781 6.383094 85.8337781 0.298400936 85.0741017 0.298400936"></polygon>
                                <path d="M91.1261486,3.37633734 C92.1583679,3.37633734 92.5816702,2.93524116 92.5816702,2.18525175 C92.5816702,1.4268685 92.1583679,0.986611703 91.1261486,0.986611703 L89.9440098,0.986611703 L89.9440098,3.37633734 L91.1261486,3.37633734 Z M89.9440098,4.06421236 L89.9440098,6.38301007 L89.1843334,6.38301007 L89.1843334,0.298316998 L91.1261486,0.298316998 C92.5287574,0.298316998 93.3400868,1.00381907 93.3400868,2.18525175 C93.3400868,3.35829059 92.5371563,4.06421236 91.1261486,4.06421236 L89.9440098,4.06421236 Z" id="Fill-79" fill="#FEFEFE"></path>
                                <polygon id="Fill-80" fill="#FEFEFE" points="99.8940913 0.298316998 99.8940913 0.986611703 98.0408839 0.986611703 98.0408839 6.38301007 97.2820474 6.38301007 97.2820474 0.986611703 95.42884 0.986611703 95.42884 0.298316998"></polygon>
                                <path d="M102.900125,3.67595539 C102.900125,5.18348867 103.411196,5.76560132 104.346828,5.76560132 C105.282041,5.76560132 105.793531,5.18348867 105.793531,3.67595539 L105.793531,3.00528774 C105.793531,1.49775446 105.282041,0.915641803 104.346828,0.915641803 C103.411196,0.915641803 102.900125,1.49775446 102.900125,3.00528774 L102.900125,3.67595539 Z M104.346828,6.45389603 C102.996712,6.45389603 102.140449,5.6426316 102.140449,3.67595539 L102.140449,3.00528774 C102.140449,1.03903122 102.996712,0.227347099 104.346828,0.227347099 C105.696944,0.227347099 106.552787,1.03903122 106.552787,3.00528774 L106.552787,3.67595539 C106.552787,5.6426316 105.696944,6.45389603 104.346828,6.45389603 L104.346828,6.45389603 Z" id="Fill-81" fill="#FEFEFE"></path>
                                <path d="M111.44701,3.12918079 C112.47923,3.12918079 112.902532,2.81147402 112.902532,2.0619043 C112.902532,1.30352105 112.47923,0.986653672 111.44701,0.986653672 L110.264871,0.986653672 L110.264871,3.12918079 L111.44701,3.12918079 Z M112.973502,6.38305203 L111.702335,3.8170558 L110.264871,3.8170558 L110.264871,6.38305203 L109.505615,6.38305203 L109.505615,0.298358967 L111.44701,0.298358967 C112.849619,0.298358967 113.661368,0.880471623 113.661368,2.0619043 C113.661368,2.91723638 113.238066,3.45528139 112.461592,3.68443316 L113.820527,6.38305203 L112.973502,6.38305203 Z" id="Fill-82" fill="#FEFEFE"></path>
                                <polygon id="Fill-83" fill="#FEFEFE" points="120.267026 0.298316998 120.267026 0.986611703 117.355143 0.986611703 117.355143 2.89117351 120.002462 2.89117351 120.002462 3.57820914 117.355143 3.57820914 117.355143 5.69513505 120.267026 5.69513505 120.267026 6.38301007 116.596306 6.38301007 116.596306 0.298316998"></polygon>
                                <path d="M126.298789,1.64758447 C125.973334,1.22411534 125.620162,0.915641803 124.852087,0.915641803 C124.146583,0.915641803 123.669948,1.23292887 123.669948,1.86792271 C123.669948,2.59147153 124.216713,2.83783067 125.108252,2.9968939 C126.281992,3.19960509 126.996314,3.62265451 126.996314,4.75162571 C126.996314,5.54568277 126.466767,6.45389603 124.949093,6.45389603 C123.960968,6.45389603 123.237827,6.1185622 122.778409,5.45712778 L123.405384,5.02526482 C123.80223,5.49196221 124.155402,5.76602101 124.949093,5.76602101 C125.946458,5.76602101 126.237478,5.30729777 126.237478,4.78646013 C126.237478,4.2135807 125.946458,3.8253657 124.799594,3.6495148 C123.65147,3.4732442 122.911111,2.92596597 122.911111,1.86792271 C122.911111,0.994963571 123.484333,0.227347099 124.878123,0.227347099 C125.849451,0.227347099 126.457948,0.554287083 126.890069,1.22411534 L126.298789,1.64758447 Z" id="Fill-84" fill="#FEFEFE"></path>
                            </g>
                        </g>
                    </g>
                    <g id="Group-87" transform="translate(92.186190, 67.379572) rotate(-17.000000) translate(-92.186190, -67.379572) translate(28.277740, 40.971122)">
                        <g id="Group-86" transform="translate(-0.000000, 0.000000)">
                            <polygon id="Fill-1" fill="#4E538F" points="57.6603727 9.22565963 69.6537302 9.22565963 69.6537302 12.2695312 62.4333284 12.2695312 62.4333284 16.2683023 67.7438014 16.2683023 67.7438014 18.8935538 62.4333284 18.8935538 62.4333284 29.533274 69.6537302 29.533274 69.6537302 32.2898087 57.6603727 32.2898087"></polygon>
                            <polygon id="Fill-2" fill="#4E538F" points="33.2123747 9.22565963 48.4347131 9.22565963 48.4347131 12.43797 43.54085 12.4255848 43.54085 32.2898087 38.3699364 32.2898087 38.3699364 12.288109 33.2123747 12.288109"></polygon>
                            <polygon id="Fill-3" fill="#4E538F" points="13.8384895 9.22565963 18.7501271 9.22565963 18.7501271 29.533274 25.831847 29.533274 25.831847 32.2898087 13.8384895 32.2898087"></polygon>
                            <polygon id="Fill-4" fill="#4E538F" points="0 9.22565963 0 32.2898087 11.9933575 32.2898087 11.9933575 29.5329105 4.85068936 29.5329105 4.85068936 18.8933808 10.1112551 18.8933808 10.1112551 16.1344184 4.85068936 16.1344184 4.85068936 12.2694767 11.9933575 12.2694767 11.9933575 9.22565963"></polygon>
                            <g id="Group-14" transform="translate(48.591549, 9.507042)" fill="#4E538F">
                                <path d="M78.9543442,11.8590943 C78.9543442,5.32742937 74.7288802,0.0174875403 69.5199104,0.0174875403 C64.3088408,0.0174875403 60.0787575,5.32742937 60.0787575,11.8590943 C60.0787575,18.3936971 64.3088408,23.6876906 69.5199104,23.6876906 C74.7288802,23.6876906 78.9543442,18.3936971 78.9543442,11.8590943 M72.5993506,11.8590943 C72.5993506,16.8828063 71.4428282,20.8627445 69.9461523,21.5837752 C69.7995923,21.6597394 69.6673103,21.8817564 69.5199104,21.8817564 C67.8162027,21.8817564 66.4320714,17.3906335 66.4320714,11.8590943 C66.4320714,6.32419762 67.8162027,1.83937005 69.5199104,1.83937005 C71.217319,1.83937005 72.5993506,6.32419762 72.5993506,11.8590943" id="Fill-5"></path>
                                <path d="M48.1221896,15.0485848 L48.1221896,23.5599364 L42.7565811,23.5599364 L42.7565811,0.128538015 L52.6663901,0.128538015 C56.2405228,0.128538015 58.5703652,3.74334429 58.5703652,7.93942384 C58.5703652,12.0595392 55.4325529,15.0326365 53.0737345,15.0326365 L48.1221896,15.0485848 Z M48.1221896,11.6335519 L51.5632005,11.6335519 C52.96035,11.6335519 54.0282644,9.50445491 54.0282644,7.37451855 C54.0282644,5.38517898 52.7138436,3.39458033 51.1491369,3.39458033 L48.1221896,3.39458033 L48.1221896,11.6335519 Z" id="Fill-7"></path>
                                <polygon id="Fill-9" points="26.1170216 23.5641333 22.8061929 23.5641333 22.8061929 0.113009415 26.1170216 0.113009415 31.615332 11.6335519 35.7408495 0.113009415 40.8334953 0.113009415 40.8334953 23.5641333 35.4695665 23.5641333 35.4695665 11.208404 31.2029482 23.5641333 30.5171817 23.5641333 26.1170216 11.9222999"></polygon>
                                <polygon id="Fill-11" points="0.931459156 23.5600623 5.75072214 23.5600623 5.75072214 0.113135323 0.931459156 0.113135323"></polygon>
                            </g>
                            <path d="M56.2805985,40.9043779 L56.2765238,44.8844139 C56.2765238,44.971818 56.2805985,48.6439711 56.2805985,49.0022491 C56.2805985,49.8152647 56.9839003,50.279845 57.5947052,50.279845 C58.2059176,50.279845 58.9112567,49.8373126 58.9112567,48.9951623 C58.9112567,48.6396402 58.9145165,44.893863 58.9145165,44.893863 L58.9173688,40.8992596 C58.9173688,40.8992596 58.9112567,40.8169738 58.9112567,40.4890116 C58.9112567,39.8370243 58.3835767,39.2090534 57.5922603,39.2090534 C56.9040352,39.2090534 56.2777462,39.7598567 56.2777462,40.4941299 C56.2777462,40.8138241 56.2805985,40.9043779 56.2805985,40.9043779 Z" id="Fill-18" fill="#4E538F"></path>
                            <path d="M57.5942961,38.3533735 C58.3261653,38.3533735 58.9173688,37.7607126 58.9173688,37.0315331 C58.9173688,36.3047842 58.3261653,35.7125284 57.5942961,35.7125284 C56.8669119,35.7125284 56.2765238,36.3047842 56.2765238,37.0315331 C56.2765238,37.7607126 56.8669119,38.3533735 57.5942961,38.3533735 Z" id="Fill-23" fill="#4E538F"></path>
                            <path d="M75.1914606,40.0906202 C74.9146391,40.2521226 74.7686708,40.4475011 74.7030282,40.6594237 C74.480189,41.3806697 74.9910781,41.8277556 75.3702502,41.9585331 C75.5900663,42.0345574 75.7939037,42.0329818 75.7939037,42.0329818 C76.6394833,41.9738956 77.3002274,41.3369459 78.2412478,41.3243408 C79.6918617,41.3058272 80.7607124,41.7044623 80.7607124,42.4954301 C80.7607124,43.062658 80.8928612,43.4900484 77.3680292,43.7346655 C73.8190131,43.9800703 72.4232453,45.4517115 72.4232453,46.9851964 C72.4232453,46.9851964 72.1991106,50.279845 76.72931,50.279845 C80.9222276,50.279845 83.4922197,47.9605132 83.4922197,45.3819898 L83.4922197,42.1054609 C83.4922197,41.7804866 83.4438515,41.4917518 83.3497063,41.2380749 C82.8461588,39.9862345 81.1105181,39.2090534 78.8795352,39.2090534 C78.8795352,39.2090534 76.6990799,39.2066901 75.1914606,40.0906202 M75.29122,47.1439414 C75.1279773,45.7309925 77.0765245,45.6025784 77.0765245,45.6025784 C79.3334189,45.3705664 80.1090374,45.2980873 80.6479973,45.0022622 C80.6479973,45.0022622 81.5168973,48.1456501 77.5070878,48.163376 C77.5070878,48.163376 77.4047372,48.1728298 77.2419264,48.1728298 C76.6787825,48.1728298 75.401344,48.0696258 75.29122,47.1439414" id="Fill-28" fill="#4E538F"></path>
                            <path d="M98.5721061,39.2090534 C96.9133253,39.2090534 95.8132013,39.7280768 94.8772364,40.751553 L94.8450062,40.751553 C93.7706663,39.8005353 92.7053509,39.2090534 91.019067,39.2090534 L90.8819812,39.2090534 C89.4625634,39.2090534 88.6615355,39.6859406 87.8076502,40.1927563 C86.4269086,41.2079628 85.8102375,42.5807362 85.8102375,43.8889271 L85.7986346,48.3482748 C85.7986346,48.3541818 85.8046509,48.7042666 85.8046509,48.9948881 C85.8046509,49.8072896 86.5403589,50.2766946 87.192698,50.2766946 C87.9193815,50.2766946 88.5850425,49.7159289 88.5850425,48.9937067 L88.5850425,48.3829289 L88.5850425,44.6320204 C88.5850425,44.6320204 88.5781668,44.7202308 88.5781668,44.0834624 C88.5781668,42.741405 89.7088021,41.7758168 90.9812502,41.7758168 C92.2476821,41.7758168 93.4041015,42.7236842 93.4041015,43.9921017 C93.4041015,44.1322931 93.4036718,44.0810996 93.4036718,44.0291185 C93.4002339,43.9428771 93.3976555,43.8550606 93.3976555,44.6859705 L93.4083989,49.2181706 C93.4083989,49.2181706 93.6606539,50.279845 94.7895703,50.279845 C96.1307762,50.279845 96.196096,48.9976447 96.196096,48.9976447 L96.196096,43.8326142 C96.2893487,42.646894 97.3997864,41.7769982 98.6086337,41.7769982 C99.8785034,41.7769982 101.012147,42.7449492 101.012147,44.0866127 C101.012147,44.7214122 101.005701,44.6339894 101.005701,44.6339894 L101.005701,48.3856855 L101.005701,48.9948881 C101.005701,49.7182917 101.670932,50.277876 102.395897,50.277876 C103.051244,50.277876 103.785663,49.8088648 103.785663,48.9976447 C103.785663,48.7050541 103.788671,48.3502438 103.788671,48.3502438 L103.779217,43.8916836 C103.779217,42.5815238 103.163405,41.2103256 101.780085,40.1959066 C100.929208,39.6879096 100.12861,39.2090534 98.7087622,39.2090534 L98.5721061,39.2090534 Z" id="Fill-33" fill="#FEFEFE"></path>
                            <g id="Group-37" transform="translate(85.798635, 39.209053)" fill="#4E538F">
                                <path d="M12.7395157,0.0679601452 C11.0861457,0.0679601452 9.98961015,0.620870463 9.05669827,1.71074983 L9.02414487,1.71074983 C7.95373771,0.698059763 6.89189723,0.0679601452 5.21111384,0.0679601452 L5.07447524,0.0679601452 C3.65925905,0.0679601452 2.86127244,0.575563699 2.01017239,1.1154693 C0.633934612,2.19737803 0.0188467047,3.65936017 0.0188467047,5.05296265 L0.00771001555,9.80388021 C0.00771001555,9.80975331 0.0137066943,10.1831146 0.0137066943,10.4927108 C0.0137066943,11.3577344 0.74701484,11.8582063 1.39679782,11.8582063 C2.12111095,11.8582063 2.78460062,11.2604088 2.78460062,10.4910328 L2.78460062,9.84037733 L2.78460062,5.844992 C2.78460062,5.844992 2.7781756,5.93896158 2.7781756,5.26019914 C2.7781756,3.83051905 3.90512288,2.80188772 5.1729921,2.80188772 C6.43572131,2.80188772 7.58794031,3.81164123 7.58794031,5.16329301 C7.58794031,5.31263753 7.58751197,5.25810161 7.58751197,5.20272667 C7.5840853,5.11085463 7.58194363,5.01730455 7.58194363,5.90204496 L7.59265198,10.7305713 C7.59265198,10.7305713 7.84408416,11.8615624 8.96931809,11.8615624 C10.3061491,11.8615624 10.3708276,10.4956474 10.3708276,10.4956474 L10.3708276,4.99339265 C10.4642044,3.73025686 11.57102,2.80356574 12.7754958,2.80356574 C14.0416517,2.80356574 15.1711689,3.83429461 15.1711689,5.26397471 C15.1711689,5.9398006 15.1651723,5.84708953 15.1651723,5.84708953 L15.1651723,9.84331388 L15.1651723,10.4927108 C15.1651723,11.2633453 15.8282336,11.8594649 16.5508334,11.8594649 C17.204043,11.8594649 17.9360662,11.3598319 17.9360662,10.4956474 C17.9360662,10.1839536 17.9386362,9.80597775 17.9386362,9.80597775 L17.9296412,5.0558992 C17.9296412,3.66061869 17.3158383,2.19989507 15.9366021,1.11882535 C15.0889288,0.578080742 14.2905138,0.0679601452 12.875726,0.0679601452 L12.7395157,0.0679601452 Z" id="Clip-36"></path>
                            </g>
                            <path d="M104.711237,44.7542994 C104.711237,48.3641859 107.688173,50.279845 110.210492,50.279845 C113.955263,50.279845 115.782028,47.1912289 115.782028,44.7688776 C115.782028,42.3315541 113.955263,39.2090534 110.244065,39.2090534 C107.549932,39.2090534 104.711237,41.3232917 104.711237,44.7542994 M107.254094,44.7428732 C107.254094,42.8930132 108.786208,41.7547287 110.237746,41.7547287 C112.239881,41.7547287 113.223767,43.435954 113.223767,44.7507533 C113.223767,46.0560965 112.239881,47.7219555 110.219972,47.7219555 C108.860463,47.7219555 107.254094,46.6900528 107.254094,44.7428732" id="Fill-38" fill="#4E538F"></path>
                            <g id="Group-42" transform="translate(106.823913, 41.321730)">
                                <mask id="mask-9" fill="white">
                                    <use xlink:href="#path-8"></use>
                                </mask>
                                <g id="Clip-41"></g>
                            </g>
                            <path d="M119.134368,39.6431016 C118.381699,39.9320729 117.813314,40.3188134 117.424463,40.8045058 C117.039929,41.2890156 116.847878,41.8062465 116.847878,42.3502851 C116.847878,42.9601603 117.055897,43.4785739 117.471505,43.8952759 C117.892292,44.3139491 118.451615,44.6529877 119.147747,44.9100262 C119.845174,45.1631224 120.749758,45.4087283 121.862793,45.6421129 C122.847649,45.8400168 123.555003,46.0509304 123.986579,46.2701227 C124.413408,46.4897093 124.627901,46.8393921 124.627901,47.3168057 C124.627901,47.629825 124.419881,47.9073636 124.009452,48.1513925 C123.594276,48.3926618 123.062143,48.5144791 122.418663,48.5144791 C121.622405,48.5144791 120.993598,48.3950272 120.532243,48.1549406 C120.069162,47.9168251 119.675996,47.55295 119.342819,47.069623 C119.176663,46.8161325 119.001874,46.6190171 118.821044,46.4794593 C118.641077,46.3391131 118.381699,46.2701227 118.043775,46.2701227 C117.657083,46.2701227 117.337717,46.3765651 117.086108,46.589844 C116.833204,46.8019402 116.704594,47.059373 116.704594,47.3582 C116.704594,47.810777 116.902688,48.2605944 117.296285,48.7092292 C117.692041,49.1582582 118.302289,49.5331717 119.129621,49.8319987 C119.956952,50.13122 120.950441,50.279845 122.109223,50.279845 C123.324541,50.279845 124.354713,50.1402873 125.202329,49.8678737 C126.049944,49.5903352 126.690403,49.1838832 127.126727,48.6493061 C127.559166,48.1123636 127.775386,47.4713442 127.775386,46.7183632 C127.775386,46.2212381 127.610092,45.7761514 127.282958,45.3874398 C126.956686,44.996757 126.475479,44.6612665 125.84063,44.3758434 C125.208371,44.090026 124.387945,43.8436317 123.386256,43.635872 C122.542525,43.4647758 121.879192,43.3169392 121.39928,43.1990642 C120.918936,43.0796122 120.539149,42.9286218 120.255603,42.7460929 C119.9699,42.5611986 119.828774,42.3266312 119.828774,42.0412081 C119.828774,41.728583 120.020394,41.4683906 120.406223,41.2578713 C120.792915,41.048929 121.276712,40.9420924 121.862793,40.9420924 C122.430315,40.9420924 122.880449,41.023304 123.208879,41.1817848 C123.540761,41.3430252 123.828622,41.5559099 124.07462,41.820833 C124.373703,42.1405543 124.639122,42.3818236 124.870447,42.5395159 C125.104361,42.6999679 125.384886,42.7788141 125.718494,42.7788141 C126.175102,42.7788141 126.527699,42.6790736 126.775856,42.4799871 C127.024012,42.280112 127.147011,42.0238619 127.147011,41.7120253 C127.147011,41.4250252 127.030485,41.1329001 126.798298,40.8348616 C126.564383,40.5336692 126.227322,40.2616499 125.782367,40.0160441 C125.336118,39.7708325 124.781111,39.5733228 124.116052,39.4278516 C123.448835,39.2811977 122.695735,39.2090534 121.862793,39.2090534 C120.798526,39.2090534 119.888332,39.3525535 119.134368,39.6431016" id="Fill-43" fill="#4E538F"></path>
                            <path d="M68.7682854,40.0911428 C68.7121202,40.241897 65.9470673,47.0526026 65.9470673,47.0526026 C65.9470673,47.0526026 63.1884949,40.1800996 63.1249851,40.0474516 C62.8363827,39.4570304 62.1671534,39.0484589 61.3579434,39.2948613 C60.6822336,39.5026896 60.2151988,40.2926732 60.5266993,40.9736257 C60.6887142,41.3617292 64.0469574,48.9982373 64.0469574,48.9982373 C64.0469574,48.9982373 64.6198418,50.279845 65.9531158,50.279845 C67.200846,50.279845 67.8052693,48.9982373 67.8052693,48.9982373 C67.8052693,48.9982373 70.6722836,42.7193044 71.4175518,40.871286 C71.682392,40.2111951 71.2728185,39.5207959 70.5867398,39.2822657 C70.4428706,39.2334575 70.2851762,39.2090534 70.1218652,39.2090534 C69.5895925,39.2090534 69.0097955,39.4782855 68.7682854,40.0911428" id="Fill-48" fill="#4E538F"></path>
                            <path d="M51.6500739,40.0911428 C51.5939088,40.241897 48.8288558,47.0526026 48.8288558,47.0526026 C48.8288558,47.0526026 46.0702834,40.1800996 46.0067736,40.0474516 C45.7181712,39.4570304 45.048942,39.0484589 44.2397319,39.2948613 C43.5640221,39.5026896 43.0969874,40.2926732 43.4084879,40.9736257 C43.5705027,41.3617292 46.928746,48.9982373 46.928746,48.9982373 C46.928746,48.9982373 47.5016304,50.279845 48.8349044,50.279845 C50.0826345,50.279845 50.6870578,48.9982373 50.6870578,48.9982373 C50.6870578,48.9982373 53.5540721,42.7193044 54.2993403,40.871286 C54.5641806,40.2111951 54.1546071,39.5207959 53.4685283,39.2822657 C53.3246591,39.2334575 53.1669647,39.2090534 53.0036538,39.2090534 C52.4713811,39.2090534 51.891584,39.4782855 51.6500739,40.0911428" id="Fill-48-Copy" fill="#4E538F"></path>
                            <g id="Group-85">
                                <path d="M3.79422473,2.19473679 C3.58215364,1.24203619 3.09711976,0.915515896 2.34752196,0.915515896 C1.41146957,0.915515896 0.900399247,1.49762855 0.900399247,3.00558152 L0.900399247,3.67582948 C0.900399247,5.18336276 1.41146957,5.76589511 2.34752196,5.76589511 C3.14121375,5.76589511 3.59181232,5.3780998 3.79422473,4.48709391 L4.52660488,4.48709391 C4.33259133,5.8544501 3.50362435,6.45377012 2.34752196,6.45377012 C0.997406022,6.45377012 0.141142758,5.64250569 0.141142758,3.67582948 L0.141142758,3.00558152 C0.141142758,1.03890531 0.997406022,0.227640883 2.34752196,0.227640883 C3.54771833,0.227640883 4.34183007,0.862634717 4.53542368,2.19473679 L3.79422473,2.19473679 Z" id="Fill-53" fill="#4E538F"></path>
                                <polygon id="Fill-55" fill="#4E538F" points="8.0707537 5.69530293 10.9826367 5.69530293 10.9826367 6.38317794 7.31107727 6.38317794 7.31107727 0.298484874 8.0707537 0.298484874"></polygon>
                                <path d="M17.9066108,0.298316998 L17.9066108,3.90514913 C17.9066108,5.70394858 17.0507674,6.453938 15.7006515,6.453938 C14.3505356,6.453938 13.4942723,5.70394858 13.4942723,3.91354297 L13.4942723,0.298316998 L14.2535288,0.298316998 L14.2535288,3.91354297 C14.2535288,5.24564503 14.7658589,5.76564329 15.7006515,5.76564329 C16.6362839,5.76564329 17.1473543,5.24564503 17.1473543,3.91354297 L17.1473543,0.298316998 L17.9066108,0.298316998 Z" id="Fill-57" fill="#4E538F"></path>
                                <path d="M21.9264287,5.69530293 L23.2236319,5.69530293 C24.1412068,5.69530293 24.5645091,5.29869409 24.5645091,4.63725967 C24.5645091,3.90489731 24.0878741,3.57040287 23.0821112,3.57040287 L21.9264287,3.57040287 L21.9264287,5.69530293 Z M21.9264287,2.88210817 L23.1614804,2.88210817 C24.0173237,2.88210817 24.3704955,2.44982552 24.3704955,1.8505055 C24.3704955,1.31246049 24.0971128,0.977126666 23.0291984,0.977126666 L21.9264287,0.977126666 L21.9264287,2.88210817 Z M23.0291984,0.298484874 C24.4502847,0.298484874 25.1293321,0.83611019 25.1293321,1.8505055 C25.1293321,2.48591902 24.7148486,3.06761199 24.1231493,3.20862846 C24.8912245,3.34922525 25.3237656,3.86124936 25.3237656,4.63725967 C25.3237656,5.51903233 24.7858189,6.38317794 23.2236319,6.38317794 L21.1671722,6.38317794 L21.1671722,0.298484874 L23.0291984,0.298484874 Z" id="Fill-59" fill="#4E538F"></path>
                                <path d="M35.5450461,3.65790863 L35.5450461,3.02333449 C35.5450461,1.51580121 35.0331359,0.986569733 34.0983433,0.986569733 L32.9157845,0.986569733 L32.9157845,5.69509308 L34.0983433,5.69509308 C35.0331359,5.69509308 35.5450461,5.1662813 35.5450461,3.65790863 L35.5450461,3.65790863 Z M32.156948,6.3829681 L32.156948,0.298275029 L34.0983433,0.298275029 C35.4484593,0.298275029 36.3043026,1.05665828 36.3043026,3.02333449 L36.3043026,3.65790863 C36.3043026,5.62500454 35.4484593,6.3829681 34.0983433,6.3829681 L32.156948,6.3829681 Z" id="Fill-61" fill="#4E538F"></path>
                                <polygon id="Fill-63" fill="#4E538F" points="42.9276396 0.298316998 42.9276396 0.986611703 40.0157566 0.986611703 40.0157566 2.89117351 42.6630757 2.89117351 42.6630757 3.57820914 40.0157566 3.57820914 40.0157566 5.69513505 42.9276396 5.69513505 42.9276396 6.38301007 39.2565001 6.38301007 39.2565001 0.298316998"></polygon>
                                <g id="Group-67" transform="translate(49.133302, 0.000000)">
                                    <polygon id="Clip-66" points="0.274264609 0.227473006 4.49216958 0.227473006 4.49216958 6.45389603 0.274264609 6.45389603"></polygon>
                                    <path d="M3.79506461,1.64758447 C3.46918904,1.22411534 3.11643713,0.915641803 2.34836184,0.915641803 C1.64243808,0.915641803 1.16580306,1.23292887 1.16580306,1.86792271 C1.16580306,2.59147153 1.71256852,2.83783067 2.60410698,2.9968939 C3.77784696,3.19960509 4.49216958,3.62265451 4.49216958,4.75162571 C4.49216958,5.54568277 3.96262177,6.45389603 2.44494868,6.45389603 C1.45682339,6.45389603 0.733681976,6.1185622 0.274264609,5.45712778 L0.901239133,5.02526482 C1.29850497,5.49196221 1.65125688,5.76602101 2.44494868,5.76602101 C3.4423127,5.76602101 3.73375297,5.30729777 3.73375297,4.78646013 C3.73375297,4.2135807 3.4423127,3.8253657 2.29544906,3.6495148 C1.14774553,3.4732442 0.406966518,2.92596597 0.406966518,1.86792271 C0.406966518,0.994963571 0.980188369,0.227347099 2.37439829,0.227347099 C3.34572587,0.227347099 3.95422291,0.554287083 4.38676395,1.22411534 L3.79506461,1.64758447 Z" id="Fill-65" fill="#4E538F"></path>
                                </g>
                                <path d="M60.9728735,0.298316998 L60.9728735,3.90514913 C60.9728735,5.70394858 60.1166102,6.453938 58.7664943,6.453938 C57.4167983,6.453938 56.560535,5.70394858 56.560535,3.91354297 L56.560535,0.298316998 L57.3197915,0.298316998 L57.3197915,3.91354297 C57.3197915,5.24564503 57.8317017,5.76564329 58.7664943,5.76564329 C59.7025467,5.76564329 60.213197,5.24564503 60.213197,3.91354297 L60.213197,0.298316998 L60.9728735,0.298316998 Z" id="Fill-68" fill="#4E538F"></path>
                                <g id="Group-72" transform="translate(63.831298, 0.000000)">
                                    <polygon id="Clip-71" points="0.0501411642 0.227473006 4.26762619 0.227473006 4.26762619 6.45389603 0.0501411642 6.45389603"></polygon>
                                    <path d="M3.57052123,1.64758447 C3.24464565,1.22411534 2.89189374,0.915641803 2.12381846,0.915641803 C1.41831464,0.915641803 0.941679619,1.23292887 0.941679619,1.86792271 C0.941679619,2.59147153 1.48844508,2.83783067 2.37998353,2.9968939 C3.55330357,3.19960509 4.26762619,3.62265451 4.26762619,4.75162571 C4.26762619,5.54568277 3.73849832,6.45389603 2.22082523,6.45389603 C1.23228,6.45389603 0.508718646,6.1185622 0.0501411642,5.45712778 L0.676695745,5.02526482 C1.07354164,5.49196221 1.42713344,5.76602101 2.22082523,5.76602101 C3.21776932,5.76602101 3.50920958,5.30729777 3.50920958,4.78646013 C3.50920958,4.2135807 3.21776932,3.8253657 2.07132561,3.6495148 C0.923622081,3.4732442 0.182003187,2.92596597 0.182003187,1.86792271 C0.182003187,0.994963571 0.755644982,0.227347099 2.14985491,0.227347099 C3.12118248,0.227347099 3.72967953,0.554287083 4.16180062,1.22411534 L3.57052123,1.64758447 Z" id="Fill-70" fill="#4E538F"></path>
                                </g>
                                <path d="M74.3780339,2.19473679 C74.1663828,1.24203619 73.6813489,0.915515896 72.9313312,0.915515896 C71.9961187,0.915515896 71.4846284,1.49762855 71.4846284,3.00558152 L71.4846284,3.67582948 C71.4846284,5.18336276 71.9961187,5.76589511 72.9313312,5.76589511 C73.7254429,5.76589511 74.1760415,5.3780998 74.3780339,4.48709391 L75.110834,4.48709391 C74.9172404,5.8544501 74.0878535,6.45377012 72.9313312,6.45377012 C71.5816352,6.45377012 70.7257918,5.64250569 70.7257918,3.67582948 L70.7257918,3.00558152 C70.7257918,1.03890531 71.5816352,0.227640883 72.9313312,0.227640883 C74.1315275,0.227640883 74.9260592,0.862634717 75.1196528,2.19473679 L74.3780339,2.19473679 Z" id="Fill-73" fill="#4E538F"></path>
                                <path d="M79.8372897,3.12918079 C80.8695089,3.12918079 81.2928112,2.81147402 81.2928112,2.0619043 C81.2928112,1.30352105 80.8695089,0.986653672 79.8372897,0.986653672 L78.6547309,0.986653672 L78.6547309,3.12918079 L79.8372897,3.12918079 Z M81.3633616,6.38305203 L80.0926149,3.8170558 L78.6547309,3.8170558 L78.6547309,6.38305203 L77.8958943,6.38305203 L77.8958943,0.298358967 L79.8372897,0.298358967 C81.2398984,0.298358967 82.0516478,0.880471623 82.0516478,2.0619043 C82.0516478,2.91723638 81.6283455,3.45528139 80.8518713,3.68443316 L82.2108061,6.38305203 L81.3633616,6.38305203 Z" id="Fill-75" fill="#4E538F"></path>
                                <polygon id="Fill-77" fill="#4E538F" points="85.0741017 6.383094 85.8337781 6.383094 85.8337781 0.298400936 85.0741017 0.298400936"></polygon>
                                <path d="M91.1261486,3.37633734 C92.1583679,3.37633734 92.5816702,2.93524116 92.5816702,2.18525175 C92.5816702,1.4268685 92.1583679,0.986611703 91.1261486,0.986611703 L89.9440098,0.986611703 L89.9440098,3.37633734 L91.1261486,3.37633734 Z M89.9440098,4.06421236 L89.9440098,6.38301007 L89.1843334,6.38301007 L89.1843334,0.298316998 L91.1261486,0.298316998 C92.5287574,0.298316998 93.3400868,1.00381907 93.3400868,2.18525175 C93.3400868,3.35829059 92.5371563,4.06421236 91.1261486,4.06421236 L89.9440098,4.06421236 Z" id="Fill-79" fill="#4E538F"></path>
                                <polygon id="Fill-80" fill="#4E538F" points="99.8940913 0.298316998 99.8940913 0.986611703 98.0408839 0.986611703 98.0408839 6.38301007 97.2820474 6.38301007 97.2820474 0.986611703 95.42884 0.986611703 95.42884 0.298316998"></polygon>
                                <path d="M102.900125,3.67595539 C102.900125,5.18348867 103.411196,5.76560132 104.346828,5.76560132 C105.282041,5.76560132 105.793531,5.18348867 105.793531,3.67595539 L105.793531,3.00528774 C105.793531,1.49775446 105.282041,0.915641803 104.346828,0.915641803 C103.411196,0.915641803 102.900125,1.49775446 102.900125,3.00528774 L102.900125,3.67595539 Z M104.346828,6.45389603 C102.996712,6.45389603 102.140449,5.6426316 102.140449,3.67595539 L102.140449,3.00528774 C102.140449,1.03903122 102.996712,0.227347099 104.346828,0.227347099 C105.696944,0.227347099 106.552787,1.03903122 106.552787,3.00528774 L106.552787,3.67595539 C106.552787,5.6426316 105.696944,6.45389603 104.346828,6.45389603 L104.346828,6.45389603 Z" id="Fill-81" fill="#4E538F"></path>
                                <path d="M111.44701,3.12918079 C112.47923,3.12918079 112.902532,2.81147402 112.902532,2.0619043 C112.902532,1.30352105 112.47923,0.986653672 111.44701,0.986653672 L110.264871,0.986653672 L110.264871,3.12918079 L111.44701,3.12918079 Z M112.973502,6.38305203 L111.702335,3.8170558 L110.264871,3.8170558 L110.264871,6.38305203 L109.505615,6.38305203 L109.505615,0.298358967 L111.44701,0.298358967 C112.849619,0.298358967 113.661368,0.880471623 113.661368,2.0619043 C113.661368,2.91723638 113.238066,3.45528139 112.461592,3.68443316 L113.820527,6.38305203 L112.973502,6.38305203 Z" id="Fill-82" fill="#4E538F"></path>
                                <polygon id="Fill-83" fill="#4E538F" points="120.267026 0.298316998 120.267026 0.986611703 117.355143 0.986611703 117.355143 2.89117351 120.002462 2.89117351 120.002462 3.57820914 117.355143 3.57820914 117.355143 5.69513505 120.267026 5.69513505 120.267026 6.38301007 116.596306 6.38301007 116.596306 0.298316998"></polygon>
                                <path d="M126.298789,1.64758447 C125.973334,1.22411534 125.620162,0.915641803 124.852087,0.915641803 C124.146583,0.915641803 123.669948,1.23292887 123.669948,1.86792271 C123.669948,2.59147153 124.216713,2.83783067 125.108252,2.9968939 C126.281992,3.19960509 126.996314,3.62265451 126.996314,4.75162571 C126.996314,5.54568277 126.466767,6.45389603 124.949093,6.45389603 C123.960968,6.45389603 123.237827,6.1185622 122.778409,5.45712778 L123.405384,5.02526482 C123.80223,5.49196221 124.155402,5.76602101 124.949093,5.76602101 C125.946458,5.76602101 126.237478,5.30729777 126.237478,4.78646013 C126.237478,4.2135807 125.946458,3.8253657 124.799594,3.6495148 C123.65147,3.4732442 122.911111,2.92596597 122.911111,1.86792271 C122.911111,0.994963571 123.484333,0.227347099 124.878123,0.227347099 C125.849451,0.227347099 126.457948,0.554287083 126.890069,1.22411534 L126.298789,1.64758447 Z" id="Fill-84" fill="#4E538F"></path>
                            </g>
                        </g>
                    </g>
                </g>
                <path d="M40.714628,392 C80.505078,392 117,283.839303 117,244.020641 C117,204.201979 91.9228856,114 52.1324356,114 C12.3419856,114 0,200.49811 0,240.316772 C0,280.135433 0.924178041,392 40.714628,392 Z" id="Oval" fill="url(#radialGradient-10)" filter="url(#filter-11)"></path>
                <path d="M363.238476,420 C407.450087,420 448,300.167285 448,256.051645 C448,211.936006 420.13654,112 375.924928,112 C331.713317,112 318,207.832438 318,251.948078 C318,296.063718 319.026864,420 363.238476,420 Z" id="Oval-Copy-4" fill="url(#radialGradient-12)" filter="url(#filter-13)"></path>
                <path d="M228.480097,122 C278.554736,122 337,106.418761 337,56.3600564 C337,6.3013521 277.74358,0 227.668941,0 C177.594302,0 86,0.982603534 86,51.0413079 C86,101.100012 178.405458,122 228.480097,122 Z" id="Oval-Copy-5" fill="url(#radialGradient-14)" filter="url(#filter-15)"></path>
                <path d="M230.480097,459 C280.554736,459 339,443.418761 339,393.360056 C339,343.301352 279.74358,337 229.668941,337 C179.594302,337 88,337.982604 88,388.041308 C88,438.100012 180.405458,459 230.480097,459 Z" id="Oval-Copy-6" fill="url(#radialGradient-14)" filter="url(#filter-16)"></path>
                <g id="Group-6" transform="translate(161.000000, 40.000000)">
                    <g id="Group-5">
                        <path d="M9.76408019,10.9578208 L17.118727,4.71404874 C18.2724936,3.73455154 19.9672561,3.73955298 21.1152215,4.72584284 L28.3967604,10.9818747 C28.7231799,11.2623224 28.9172136,11.6666691 28.931766,12.0967724 L29.6922292,34.5726558 C29.720961,35.4218387 29.055854,36.1335292 28.2066711,36.162261 C28.2054183,36.1623034 28.2041655,36.1623442 28.2029126,36.1623836 L10.9384106,36.7042773 C10.08916,36.7309333 9.37909731,36.0640887 9.35244125,35.2148381 C9.3520275,35.2016562 9.35178327,35.1884695 9.35170862,35.1752813 L9.22131451,12.1393474 C9.2187407,11.6846478 9.41744266,11.2521008 9.76408019,10.9578208 Z" id="Rectangle" fill="#0B545C" transform="translate(19.457208, 20.343906) rotate(-45.000000) translate(-19.457208, -20.343906) "></path>
                        <path d="M14.9440159,7.69230769 C14.4808683,9.80195798 14.5288361,12.2877303 15.087919,15.1496248 C16.3918023,21.8240839 24.2403058,22.3314908 25.8946171,28.4748201 C26.9267581,32.3077035 25.6321735,36.0397944 24.5124223,38.3048622 C23.9962601,38.4720489 23.4072129,38.3605454 22.9837605,37.9628664 C22.9741469,37.953838 22.9646498,37.9446863 22.9552716,37.9354136 L6.57420395,21.7387511 C6.25086285,21.4190499 6.08550947,20.9726895 6.12253181,20.5194924 L6.90803885,10.9039582 C7.03126596,9.39551284 8.23318056,8.20067134 9.74232691,8.08634948 L14.9440159,7.69230769 Z" id="Combined-Shape" fill="#206D75"></path>
                    </g>
                    <ellipse id="Oval" fill="#FFFFFF" cx="12.6176471" cy="14.1852909" rx="2.67647059" ry="2.69230769"></ellipse>
                </g>
                <text id="30" fill="#000325" font-family="BarlowCondensed-SemiBold, Barlow Condensed SemiBold" font-size="35" font-style="condensed" font-weight="500">
                    <tspan x="54" y="253">30</tspan>
                </text>
                <text id="Años-en-el-mercado" fill-opacity="0.8" fill="#000325" font-family="BarlowCondensed-Medium, Barlow Condensed Medium" font-size="24" font-style="condensed" font-weight="normal" line-spacing="22">
                    <tspan x="54" y="281">Años en el </tspan>
                    <tspan x="54" y="303">mercado</tspan>
                </text>
                <text id="+" fill="#6F77D6" font-family="BarlowCondensed-SemiBold, Barlow Condensed SemiBold" font-size="60" font-style="condensed" font-weight="500" line-spacing="110">
                    <tspan x="50" y="210">+</tspan>
                </text>
                <text id="150" fill="#000325" font-family="BarlowCondensed-SemiBold, Barlow Condensed SemiBold" font-size="35" font-style="condensed" font-weight="500">
                    <tspan x="201" y="75">150</tspan>
                </text>
                <text id="Marcas-aliadas" fill-opacity="0.8" fill="#000325" font-family="BarlowCondensed-Medium, Barlow Condensed Medium" font-size="24" font-style="condensed" font-weight="normal" line-spacing="40">
                    <tspan x="201" y="96">Marcas aliadas</tspan>
                </text>
                <g id="Group-3" transform="translate(355.000000, 206.000000)" stroke-width="0.600211575">
                    <ellipse id="Oval" stroke="#0B545C" fill="#0B545C" cx="11.8984395" cy="5.50193943" rx="5.49927878" ry="5.50193943"></ellipse>
                    <path d="M5.51187479,13.2205721 C4.11986985,14.0507475 0.780073477,16.4828549 0.260024492,24.2674349 C-0.0866748307,29.4571549 -0.0866748307,33.1363815 0.260024492,35.3051147 C0.654243625,36.1125608 1.27024357,36.5162838 2.10802432,36.5162838 C2.94580507,36.5162838 3.51415501,36.010181 3.81307414,34.9979752 C3.99651363,27.3525719 4.27772675,22.5233956 4.6567135,20.5104465 C5.02963054,18.529736 5.31159929,17.9765263 5.50261974,18.8508173 C5.50878281,18.8788693 5.51187479,18.9075068 5.51187479,18.9362278 L5.51187479,56.9707597 C6.18314092,58.5725189 7.22968336,59.3498762 8.6515021,59.3028317 C10.0733208,59.2557872 11.1106848,58.5750785 11.763594,57.2607056 L11.763594,34.2695129 C11.763594,33.9545793 12.0188981,33.6992752 12.3338317,33.6992752 C12.6487653,33.6992752 12.9040694,33.9545793 12.9040694,34.2695129 L12.9040694,57.2607056 C13.3383874,58.5750785 14.3398186,59.2557872 15.9083629,59.3028317 C17.4769072,59.3498762 18.4772968,58.5725189 18.9095318,56.9707597 L18.9095318,19.1419146 C18.9094347,19.031365 18.9990528,18.941747 19.1096023,18.941747 C19.1762014,18.941747 19.2384388,18.9748707 19.275637,19.0301132 C19.6103345,19.5271677 19.9375895,21.0532679 20.2574019,23.6084135 C20.6928916,27.087765 20.7763442,30.8842855 20.5077597,34.9979752 C20.6729724,36.010181 21.3527009,36.5162838 22.5469454,36.5162838 C23.7411898,36.5162838 24.3960518,36.010181 24.5115315,34.9979752 C24.6490134,29.7672251 24.5641287,25.8045001 24.2568774,23.1098002 C23.7960003,19.0677504 21.5910716,13.8624545 18.6253894,12.9591518 C17.116017,12.4994195 6.90387973,12.3903966 5.51187479,13.2205721 Z" id="Path-2" stroke="#0B545C" fill="#0B545C"></path>
                    <path d="M17.0767429,12.7492009 C16.7684885,14.1341464 16.4274921,15.5705317 16.053754,17.0583568 C15.2538589,20.2426824 12.7412978,23.5067236 9.87448624,28.6354846 C7.00767471,33.7642456 8.05480301,36.4128355 8.05480301,38.6136113 C8.05480301,40.023397 8.05480301,46.9092005 8.05480301,59.2710216 C6.9331299,59.1062538 6.08548716,58.3394998 5.51187479,56.9707597 L5.51187479,18.9362278 C5.51187479,18.9075068 5.50878281,18.8788693 5.50261974,18.8508173 C5.31159929,17.9765263 5.02963054,18.529736 4.6567135,20.5104465 C4.27772675,22.5233956 3.99651363,27.3525719 3.81307414,34.9979752 C3.51415501,36.010181 2.94580507,36.5162838 2.10802432,36.5162838 C1.27024357,36.5162838 0.654243625,36.1125608 0.260024492,35.3051147 C-0.0866748307,33.1363815 -0.0866748307,29.4571549 0.260024492,24.2674349 C0.780073477,16.4828549 4.11986985,14.0507475 5.51187479,13.2205721 C6.65447369,12.5391395 13.7397363,12.4905023 17.0767429,12.7492009 Z" id="Combined-Shape" stroke="#206D75" fill="#206D75"></path>
                </g>
                <text id="40%" fill="#000325" font-family="BarlowCondensed-SemiBold, Barlow Condensed SemiBold" font-size="35" font-style="condensed" font-weight="500">
                    <tspan x="385" y="248">40%</tspan>
                </text>
                <text id="De-descuento" fill-opacity="0.8" fill="#000325" font-family="BarlowCondensed-Medium, Barlow Condensed Medium" font-size="24" font-style="condensed" font-weight="normal" line-spacing="22">
                    <tspan x="386" y="275">De descuento</tspan>
                </text>
                <text id="Hasta" fill-opacity="0.8" fill="#000325" font-family="BarlowCondensed-Medium, Barlow Condensed Medium" font-size="15" font-style="condensed" font-weight="normal" line-spacing="22">
                    <tspan x="386" y="217">Hasta</tspan>
                </text>
                <text id="1.000.000" fill="#000325" font-family="BarlowCondensed-SemiBold, Barlow Condensed SemiBold" font-size="35" font-style="condensed" font-weight="500">
                    <tspan x="166" y="402">1.000.000</tspan>
                </text>
                <text id="Beneficios-redimidos" fill-opacity="0.8" fill="#000325" font-family="BarlowCondensed-Medium, Barlow Condensed Medium" font-size="24" font-style="condensed" font-weight="normal" line-spacing="40">
                    <tspan x="166" y="422">Beneficios redimidos</tspan>
                </text>
                <text id="+" fill="#6F77D6" font-family="BarlowCondensed-SemiBold, Barlow Condensed SemiBold" font-size="60" font-style="condensed" font-weight="500" line-spacing="110">
                    <tspan x="162" y="355">+</tspan>
                </text>
                <g id="Group-4" transform="translate(97.000000, 359.000000)">
                    <text id="+" fill="#0B545C" font-family="DiwanThuluth, Diwan Thuluth" font-size="22.256" font-weight="normal" line-spacing="32">
                        <tspan x="20.8" y="27">+</tspan>
                    </text>
                    <text id="+-copy" fill="#206D75" font-family="DiwanThuluth, Diwan Thuluth" font-size="22.256" font-weight="normal" line-spacing="32">
                        <tspan x="26.4" y="31">+</tspan>
                    </text>
                    <text id="+-copy-2" fill="#63AFB6" font-family="DiwanThuluth, Diwan Thuluth" font-size="19.056" font-weight="normal" line-spacing="32">
                        <tspan x="30.4" y="19">+</tspan>
                    </text>
                    <path d="M51.0251953,43.7972656 C48.3473307,43.128776 45.1388672,43.128776 41.3998047,43.7972656 C35.7912109,44.8 30.1958984,46.9964844 25.3830078,44.8 C22.1744141,43.3356771 13.8965495,38.0023438 0.549414063,28.8 C-0.183138021,27.7179688 -0.183138021,26.7145833 0.549414063,25.7898438 C1.28196615,24.8651042 2.46933594,24.6415365 4.11152344,25.1191406 L19.9009766,32.0082031 C19.951237,30.3561198 20.7216797,29.5300781 22.2123047,29.5300781 C24.4482422,29.5300781 31.1810547,30.2601563 33.6314453,29.5300781 C36.0818359,28.8 40.6419922,27.121875 45.4419922,27.9609375 C48.6419922,28.5203125 50.9072266,29.5283854 52.2376953,30.9851563 L52.2376953,43.7972656 L51.0251953,43.7972656 Z" id="Path-14" stroke="#0B545C" stroke-width="0.8" fill="#0B545C"></path>
                    <path d="M19.9009766,31.933053 C21.6714844,34.7821217 24.0796875,36.6441406 29.6,38.6675781 C35.1203125,40.6910156 37.6,38.2582031 43.0902344,35.2337741 C46.6572766,33.2687821 50.1961227,31.8167001 52.2376953,31.040506 L52.2376953,43.7221155 L51.0251953,43.7221155 C48.3473307,43.053626 45.1388672,43.053626 41.3998047,43.7221155 C35.7912109,44.7248499 30.1958984,46.9213343 25.3830078,44.7248499 C22.1744141,43.260527 13.8965495,37.9271937 0.549414063,28.7248499 C-0.183138021,27.6428187 -0.183138021,26.6394332 0.549414063,25.7146937 C1.28196615,24.7899541 2.46933594,24.5663864 4.11152344,25.0439905 L19.9009766,31.933053 Z" id="Combined-Shape" stroke="#206D75" stroke-width="0.8" fill="#206D75"></path>
                    <path d="M37.7669922,34.7884766 C33.9061849,34.7884766 30.2441732,34.7884766 26.780957,34.7884766 C23.3177409,34.7884766 20.9482422,33.7337891 19.6724609,31.6244141" id="Path-15" stroke="#63AFB6" stroke-width="0.8" stroke-linecap="round" stroke-linejoin="round"></path>
                    <rect id="Rectangle" stroke="#FFFFFF" stroke-width="0.8" fill="#0B545C" x="50.8" y="25.2" width="8.8" height="22.4" rx="0.8"></rect>
                    <path d="M58.9447303,25.8141039 C59.1017671,25.9601731 59.2,26.1686148 59.2,26.4 L59.2,46.4 C59.2,46.8418278 58.8418278,47.2 58.4,47.2 L52,47.2 C51.5581722,47.2 51.2,46.8418278 51.2,46.4 L51.2,36.6304061 C52.0938138,35.9328664 53.0979388,35.691959 54.4556572,33.5568983 C56.1122358,30.9518691 57.6508257,27.353015 58.9447303,25.8141039 Z" id="Combined-Shape" fill="#206D75"></path>
                </g>
                <g id="Group-7" transform="translate(10.000000, 223.000000)">
                    <rect id="Rectangle" fill="#0B545C" x="0" y="2.28571429" width="35" height="29.7142857" rx="1.14285714"></rect>
                    <path d="M35,9.71428571 C35,10.3454683 34.4883254,10.8571429 33.8571429,10.8571429 L1.14285714,10.8571429 C0.511674572,10.8571429 -3.66791638e-16,10.3454683 0,9.71428571 L0,6.57142857 L0,3.42857143 C-7.72975716e-17,2.79738886 0.511674572,2.28571429 1.14285714,2.28571429 L33.8571429,2.28571429 C34.4883254,2.28571429 35,2.79738886 35,3.42857143 L35,9.71428571 Z" id="Combined-Shape" fill="#206D75"></path>
                    <rect id="Rectangle" fill="#63AFB6" x="4.66666667" y="14.8571429" width="4.66666667" height="4.57142857" rx="1.14285714"></rect>
                    <rect id="Rectangle-Copy-8" fill="#63AFB6" x="4.66666667" y="22.2857143" width="4.66666667" height="4.57142857" rx="1.14285714"></rect>
                    <rect id="Rectangle-Copy-6" fill="#63AFB6" x="15.1666667" y="14.8571429" width="4.66666667" height="4.57142857" rx="1.14285714"></rect>
                    <rect id="Rectangle-Copy-9" fill="#63AFB6" x="15.1666667" y="22.2857143" width="4.66666667" height="4.57142857" rx="1.14285714"></rect>
                    <rect id="Rectangle-Copy-7" fill="#63AFB6" x="25.6666667" y="14.8571429" width="4.66666667" height="4.57142857" rx="1.14285714"></rect>
                    <rect id="Rectangle-Copy-10" fill="#63AFB6" x="25.6666667" y="22.2857143" width="4.66666667" height="4.57142857" rx="1.14285714"></rect>
                    <path d="M5.72064074,10.8571429 L1.14285714,10.8571429 C0.511674572,10.8571429 -3.66791638e-16,10.3454683 0,9.71428571 L0,6.57142857 L0,3.42857143 C-7.72975716e-17,2.79738886 0.511674572,2.28571429 1.14285714,2.28571429 L33.8571429,2.28571429 C34.4883254,2.28571429 35,2.79738886 35,3.42857143 L35,3.84846319 C34.6120674,4.53138994 34.0811429,5.15333078 33.4072266,5.71428571 C31.3071696,7.46233259 25.7808838,6.57142857 21.5833333,6.57142857 C17.3857829,6.57142857 12.0204264,7.45814732 9.12825521,9.42327009 C8.30325185,9.98382919 7.16738036,10.4617868 5.72064074,10.8571429 Z" id="Combined-Shape" fill="#358A93"></path>
                    <rect id="Rectangle" stroke="#0B545C" stroke-width="0.571428571" fill="#0B545C" x="4.95238095" y="0.285714286" width="2.3452381" height="5.14285714" rx="1.17261905"></rect>
                    <rect id="Rectangle-Copy-5" stroke="#0B545C" stroke-width="0.571428571" fill="#0B545C" x="27.702381" y="0.285714286" width="2.3452381" height="5.14285714" rx="1.17261905"></rect>
                </g>
            </g>
        </g>
    </g>
</svg>