<?xml version="1.0" encoding="UTF-8"?>
<svg width="11px" height="8px" viewBox="0 0 11 8" version="1.1" xmlns="http://www.w3.org/2000/svg" xmlns:xlink="http://www.w3.org/1999/xlink">
    <!-- Generator: Sketch 55.1 (78136) - https://sketchapp.com -->
    <title>Group 3 Copy 8</title>
    <desc>Created with Sketch.</desc>
    <g id="Zona-de-Usuario-Desktop" stroke="none" stroke-width="1" fill="none" fill-rule="evenodd">
        <g id="4_Mensaje-confirmación" transform="translate(-1213.000000, -508.000000)">
            <g id="Group-8" transform="translate(1012.000000, 250.000000)">
                <g id="Group-5">
                    <g id="Group-6" transform="translate(3.000000, 216.000000)">
                        <g id="Group-3-Copy-8" transform="translate(203.500000, 46.000000) rotate(-270.000000) translate(-203.500000, -46.000000) translate(200.000000, 41.000000)">
                            <polygon id="Clip-2" points="6.82121026e-13 0 7 0 7 10 6.82121026e-13 10"></polygon>
                            <path d="M0.15018932,9.77308544 L0.150042507,9.77308544 C-0.0814813652,9.50796069 -0.0405205786,9.1168948 0.241506916,8.89936008 L4.91265153,5.29713971 C5.11202339,5.14333425 5.11202339,4.85655259 4.91265153,4.70274713 L0.241506916,1.10052675 C-0.0405205786,0.88299204 -0.0814813652,0.491926145 0.150042507,0.226939343 C0.381419567,-0.0380474586 0.797780824,-0.0765333085 1.07980832,0.140863464 L6.75852956,4.52011177 C7.08049015,4.76840758 7.08049015,5.23147926 6.75852956,5.47963712 L1.07980832,9.85902338 C0.797780824,10.0765581 0.38156638,10.0380722 0.15018932,9.77308544" id="Fill-1" fill="#0B545C"></path>
                        </g>
                    </g>
                </g>
            </g>
        </g>
    </g>
</svg>