<?xml version="1.0" encoding="UTF-8"?>
<svg width="89px" height="104px" viewBox="0 0 89 104" version="1.1" xmlns="http://www.w3.org/2000/svg" xmlns:xlink="http://www.w3.org/1999/xlink">
    <!-- Generator: Sketch 55.1 (78136) - https://sketchapp.com -->
    <title>Group 4</title>
    <desc>Created with Sketch.</desc>
    <g id="Symbols" stroke="none" stroke-width="1" fill="none" fill-rule="evenodd">
        <g id="Group-4">
            <g id="Group-3">
                <g id="Group-9" transform="translate(68.000000, 0.000000)">
                    <g id="Group-5" transform="translate(1.065695, 4.369060)" stroke="#979797" stroke-width="1.05">
                        <path d="M-1.0658141e-14,5.02948501 C2.97269417,1.676495 5.94538834,0 8.9180825,0 C11.8907767,0 14.8634708,1.676495 17.836165,5.02948501 C15.1473136,9.9435654 8.9839196,11.7474699 4.0698392,9.05861851 C2.61656612,8.26342692 1.38018971,7.12437049 0.46878327,5.74101565 L-1.0658141e-14,5.02948501 Z" id="Path-9"></path>
                        <ellipse id="Oval" cx="8.74285714" cy="5.15625" rx="2.57142857" ry="2.578125"></ellipse>
                    </g>
                    <path d="M0.314290992,2 L19.0656949,16.2327676" id="Path" stroke="#979797"></path>
                    <rect id="Rectangle" fill="#FFFFFF" transform="translate(10.500000, 8.490725) rotate(37.000000) translate(-10.500000, -8.490725) " x="-2" y="7.7407247" width="25" height="1.5"></rect>
                </g>
                <g id="Group-2">
                    <g id="btn_google_light_normal_ios-copy">
                        <g id="logo_googleg_48dp">
                            <path d="M17.64,9.20454545 C17.64,8.56636364 17.5827273,7.95272727 17.4763636,7.36363636 L9,7.36363636 L9,10.845 L13.8436364,10.845 C13.635,11.97 13.0009091,12.9231818 12.0477273,13.5613636 L12.0477273,15.8195455 L14.9563636,15.8195455 C16.6581818,14.2527273 17.64,11.9454545 17.64,9.20454545 L17.64,9.20454545 Z" id="Shape" fill="#4285F4" fill-rule="nonzero"></path>
                            <path d="M9,18 C11.43,18 13.4672727,17.1940909 14.9563636,15.8195455 L12.0477273,13.5613636 C11.2418182,14.1013636 10.2109091,14.4204545 9,14.4204545 C6.65590909,14.4204545 4.67181818,12.8372727 3.96409091,10.71 L0.957272727,10.71 L0.957272727,13.0418182 C2.43818182,15.9831818 5.48181818,18 9,18 L9,18 Z" id="Shape" fill="#34A853" fill-rule="nonzero"></path>
                            <path d="M3.96409091,10.71 C3.78409091,10.17 3.68181818,9.59318182 3.68181818,9 C3.68181818,8.40681818 3.78409091,7.83 3.96409091,7.29 L3.96409091,4.95818182 L0.957272727,4.95818182 C0.347727273,6.17318182 0,7.54772727 0,9 C0,10.4522727 0.347727273,11.8268182 0.957272727,13.0418182 L3.96409091,10.71 L3.96409091,10.71 Z" id="Shape" fill="#FBBC05" fill-rule="nonzero"></path>
                            <path d="M9,3.57954545 C10.3213636,3.57954545 11.5077273,4.03363636 12.4404545,4.92545455 L15.0218182,2.34409091 C13.4631818,0.891818182 11.4259091,0 9,0 C5.48181818,0 2.43818182,2.01681818 0.957272727,4.95818182 L3.96409091,7.29 C4.67181818,5.16272727 6.65590909,3.57954545 9,3.57954545 L9,3.57954545 Z" id="Shape" fill="#EA4335" fill-rule="nonzero"></path>
                            <polygon id="Shape" points="0 0 18 0 18 18 0 18"></polygon>
                        </g>
                    </g>
                </g>
                <g id="Group-9" transform="translate(38.000000, 3.000000)" stroke="#979797" stroke-width="1.05">
                    <g id="Group-5" transform="translate(0.065695, 0.369060)">
                        <path d="M-1.0658141e-14,5.02948501 C2.97269417,1.676495 5.94538834,0 8.9180825,0 C11.8907767,0 14.8634708,1.676495 17.836165,5.02948501 C15.1473136,9.9435654 8.9839196,11.7474699 4.0698392,9.05861851 C2.61656612,8.26342692 1.38018971,7.12437049 0.46878327,5.74101565 L-1.0658141e-14,5.02948501 Z" id="Path-9"></path>
                        <ellipse id="Oval" cx="8.74285714" cy="5.15625" rx="2.57142857" ry="2.578125"></ellipse>
                    </g>
                </g>
                <g id="Group-2" transform="translate(0.000000, 66.000000)" stroke="#000325" stroke-width="3">
                    <rect id="Rectangle" x="1.5" y="1.5" width="45" height="35" rx="2.23529412"></rect>
                    <polygon id="Path-4" stroke-linecap="round" stroke-linejoin="round" points="2.28571429 2.23529412 22.9268199 20.1176471 43.4285714 2.23529412"></polygon>
                </g>
                <g id="Group-5-Copy-2" transform="translate(34.000000, 52.000000)">
                    <circle id="Oval-Copy" stroke="#FFFFFF" stroke-width="3.57777817" fill="#61AF74" cx="14" cy="14" r="14"></circle>
                    <polyline id="Path-5" stroke="#DCF7E1" stroke-width="3" stroke-linecap="round" stroke-linejoin="round" points="7 15.9829055 11.3051215 19.8888889 21 9"></polyline>
                </g>
            </g>
            <path d="M1.152,30 L16.848,30 C17.484232,30 18,30.515768 18,31.152 L18,46.848 C18,47.484232 17.484232,48 16.848,48 L12.5856686,48 C12.4266106,48 12.2976686,47.871058 12.2976686,47.712 L12.2976686,41.279883 C12.2976686,41.120825 12.4266106,40.991883 12.5856686,40.991883 L14.3810593,40.991883 C14.5264946,40.991883 14.6491079,40.883453 14.6668968,40.7391097 L14.9165627,38.7132627 C14.9360178,38.555399 14.8238155,38.4116536 14.6659518,38.3921985 C14.6542649,38.3907582 14.6425006,38.390036 14.6307252,38.390036 L12.5856686,38.390036 C12.4266106,38.390036 12.2976686,38.261094 12.2976686,38.102036 L12.2976686,35.5636575 C12.2976686,35.4045995 12.4266106,35.2756575 12.5856686,35.2756575 L14.6683972,35.2756575 C14.8274552,35.2756575 14.9563972,35.1467155 14.9563972,34.9876575 L14.9563972,33.1801109 C14.9563972,33.0210529 14.8274552,32.8921109 14.6683972,32.8921109 L12.3814165,32.8921109 C10.9592939,32.8921109 9.80643576,34.044969 9.80643576,35.4670916 L9.80643576,36.0213387 L9.80643576,38.102036 C9.80643576,38.261094 9.67749376,38.390036 9.51843576,38.390036 L7.47521662,38.390036 C7.31615862,38.390036 7.18721662,38.518978 7.18721662,38.678036 L7.18721662,40.703883 C7.18721662,40.862941 7.31615862,40.991883 7.47521662,40.991883 L9.51843576,40.991883 C9.67749376,40.991883 9.80643576,41.120825 9.80643576,41.279883 L9.80643576,47.712 C9.80643576,47.871058 9.67749376,48 9.51843576,48 L1.152,48 C0.515767968,48 2.99960557e-16,47.484232 0,46.848 L0,31.152 C1.44128653e-16,30.515768 0.515767968,30 1.152,30 Z" id="Combined-Shape" fill="#FFFFFF"></path>
        </g>
    </g>
</svg>