<?xml version="1.0" standalone="no"?>
<!DOCTYPE svg PUBLIC "-//W3C//DTD SVG 1.1//EN" "http://www.w3.org/Graphics/SVG/1.1/DTD/svg11.dtd" >
<svg xmlns="http://www.w3.org/2000/svg">
<metadata>Generated by IcoMoon</metadata>
<defs>
<font id="icon_et_2019" horiz-adv-x="1024">
<font-face units-per-em="1024" ascent="960" descent="-64" />
<missing-glyph horiz-adv-x="1024" />
<glyph unicode="&#x20;" horiz-adv-x="512" d="" />
<glyph unicode="&#xf0030;" glyph-name="f0030-facebook" horiz-adv-x="512" d="M497.778 763.497h-138.199c-16.288 0-34.424-23.946-34.424-55.791v-110.961h172.622v-157.982h-172.622v-474.319h-163.107v474.319h-147.826v157.982h147.826v92.923c0 133.538 83.177 241.887 197.531 241.887h138.199v-168.058z" />
<glyph unicode="&#xf0031;" glyph-name="f0031-twitter" horiz-adv-x="1170" d="M1007.419 778.681c46.808 30.18 82.794 78.055 99.687 135.002-43.905-28.024-92.384-48.234-144.032-59.193-41.265 47.516-100.303 77.067-165.5 77.067-125.203 0-226.738-109.313-226.738-244.136 0-19.132 1.936-37.725 5.807-55.6-188.376 10.24-355.46 107.337-467.377 255.094-19.533-36.108-30.707-78.055-30.707-122.786 0-84.612 40.033-159.344 100.919-203.267-37.13 1.258-72.148 12.395-102.767 30.539v-2.964c0-118.385 78.131-217.099 181.953-239.375-19.005-5.749-39.065-8.623-59.742-8.623-14.606 0-28.947 1.437-42.673 4.311 28.771-96.918 112.533-167.607 211.78-169.494-77.603-65.57-175.354-104.553-281.553-104.553-18.301 0-36.426 1.078-54.111 3.413 100.303-69.253 219.523-109.672 347.541-109.672 417.226 0 645.195 372.042 645.195 694.682 0 10.599-0.176 21.108-0.616 31.527 44.345 34.492 82.882 77.516 113.149 126.469-40.649-19.402-84.378-32.605-130.218-38.444z" />
<glyph unicode="&#xf0032;" glyph-name="f032-google" horiz-adv-x="1478" d="M1298.795 529.242v157.982h-112.825v-157.982h-162.557v-112.914h162.557v-162.465h112.825v162.465h157.982v112.914h-157.982zM477.138 538.304v-180.566c0 0 175.214 0.208 246.503 0.208-38.591-117.010-98.716-180.852-246.503-180.852-149.597 0-266.321 121.299-266.321 270.896s116.724 270.896 266.321 270.896c79.068 0 130.158-27.824 177.055-66.604 37.541 37.541 34.386 42.878 129.779 133.018-80.993 73.751-188.664 118.638-306.809 118.638-251.837 0-455.938-204.101-455.938-455.938s204.101-455.938 455.938-455.938c376.375 0 468.421 327.782 437.929 546.268h-437.929z" />
<glyph unicode="&#xf0033;" glyph-name="f0033-instangram" d="M430.245-63.777h163.511c67.853 0.274 87.882 1.070 129.274 2.958 54.479 2.485 91.687 11.138 124.243 23.79 33.658 13.080 62.202 30.582 90.659 59.036 28.455 28.457 45.956 57.001 59.036 90.659 12.652 32.557 21.305 69.764 23.79 124.243 2.491 54.593 3.080 72.023 3.080 211.029 0 139.008-0.589 156.438-3.080 211.031-2.485 54.479-11.138 91.687-23.79 124.243-13.080 33.658-30.582 62.202-59.036 90.659-28.457 28.455-57.001 45.956-90.659 59.034-32.557 12.654-69.764 21.307-124.243 23.792-54.593 2.491-72.023 3.080-211.029 3.080-139.008 0-156.438-0.589-211.031-3.080-54.479-2.485-91.687-11.138-124.243-23.792-33.658-13.078-62.202-30.58-90.659-59.034-28.455-28.457-45.956-57.001-59.034-90.659-12.654-32.557-21.307-69.764-23.792-124.243-2.491-54.593-3.080-72.023-3.080-211.031 0-139.006 0.589-156.436 3.080-211.029 2.485-54.479 11.138-91.687 23.792-124.243 13.078-33.658 30.58-62.202 59.034-90.659 28.457-28.455 57.001-45.956 90.659-59.036 32.557-12.652 69.764-21.305 124.243-23.79 41.392-1.889 61.421-2.684 129.275-2.958zM512.001 867.555c136.665 0 152.854-0.522 206.826-2.985 49.904-2.276 77.005-10.614 95.041-17.623 23.891-9.285 40.942-20.376 58.852-38.288 17.912-17.91 29.003-34.96 38.288-58.852 7.010-18.036 15.348-45.137 17.623-95.041 2.462-53.971 2.985-70.16 2.985-206.828 0-136.665-0.522-152.854-2.985-206.826-2.276-49.904-10.614-77.005-17.623-95.041-9.285-23.891-20.376-40.942-38.288-58.852-17.91-17.912-34.96-29.003-58.852-38.288-18.036-7.010-45.137-15.348-95.041-17.623-53.963-2.462-70.15-2.985-206.826-2.985-136.678 0-152.862 0.522-206.828 2.985-49.904 2.276-77.005 10.614-95.041 17.623-23.891 9.285-40.942 20.376-58.852 38.288-17.91 17.91-29.003 34.96-38.288 58.852-7.010 18.036-15.348 45.137-17.623 95.041-2.462 53.971-2.985 70.16-2.985 206.826s0.522 152.856 2.985 206.828c2.276 49.904 10.614 77.005 17.623 95.041 9.285 23.891 20.376 40.942 38.288 58.852 17.91 17.912 34.96 29.003 58.852 38.288 18.036 7.010 45.137 15.348 95.041 17.623 53.971 2.462 70.16 2.985 206.828 2.985zM512.001 277.327c-94.228 0-170.614 76.386-170.614 170.612 0 94.228 76.386 170.614 170.614 170.614 94.226 0 170.612-76.386 170.612-170.614 0-94.226-76.386-170.612-170.612-170.612v0zM846.642 721.16c0-33.922-27.5-61.42-61.422-61.42-33.92 0-61.42 27.498-61.42 61.42s27.5 61.422 61.42 61.422c33.922 0 61.422-27.5 61.422-61.422zM512.001 710.775c-145.162 0-262.837-117.675-262.837-262.837 0-145.16 117.675-262.835 262.837-262.835 145.16 0 262.835 117.675 262.835 262.835 0 145.162-117.675 262.837-262.835 262.837v0z" />
<glyph unicode="&#xf0034;" glyph-name="f0034-whatsapp" d="M520.946 952c-273.286 0-495.6-222.314-495.6-495.6 0-86.453 22.613-171.394 65.453-246.12l-81.396-244.171c-1.949-5.846-0.521-12.298 3.696-16.8 3.209-3.444 7.678-5.309 12.247-5.309 1.428 0 2.856 0.185 4.267 0.554l266.582 70.14c69.233-35.28 146.798-53.894 224.75-53.894 273.286 0 495.6 222.314 495.6 495.6s-222.314 495.6-495.6 495.6v0 0zM830.201 231.381l-29.534-29.551c-37.296-37.313-78.91-56.23-123.648-56.23-0.017 0 0 0-0.017 0-60.312 0-125.345 34.44-193.25 102.362l-171.242 171.242c-53.575 53.558-86.486 105.588-97.826 154.661-13.776 59.59 3.612 114.173 51.694 162.238l29.534 29.551c19.001 19.001 49.745 23.671 73.55 11.071 44.722-23.671 91.056-101.22 96.197-109.973 9.274-16.246 12.113-33.046 8.114-47.46-3.058-11.004-9.946-19.975-19.975-26.057-13.558-11.357-29.484-25.502-32.273-29.114-17.069-25.183-15.12-44.52 6.871-66.528l133.762-133.762c22.176-22.193 41.16-24.007 66.746-6.686 3.377 2.638 17.522 18.547 28.879 32.122 8.484 14.028 22.378 21.706 39.278 21.706 11.071 0 22.848-3.36 34.054-9.744 8.938-5.258 86.503-51.61 110.158-96.314 12.936-24.444 8.501-53.978-11.071-73.534v0 0z" />
<glyph unicode="&#xf0035;" glyph-name="f0035-linkedin" d="M860.347 87.438h-146.703v237.625c0 56.69-0.934 129.593-76.223 129.593-76.36 0-88.011-61.781-88.011-125.525v-241.692h-146.511v488.676h140.631v-66.816h2.006c19.564 38.428 67.43 78.933 138.817 78.933 148.544 0 175.994-101.177 175.994-232.789v-268.004zM237.456 642.873c-47.124 0-85.126 39.452-85.126 88.092 0 48.612 38.002 88.064 85.126 88.064 46.932 0 85.043-39.452 85.043-88.064 0-48.64-38.111-88.092-85.043-88.092v0zM163.981 87.438v488.676h146.868v-488.676h-146.868zM933.41 960h-843.041c-40.227 0-72.953-33.052-72.953-73.842v-876.288c0-40.761 32.726-73.87 72.953-73.87h843.041c40.337 0 73.173 33.109 73.173 73.87v876.288c0 40.789-32.836 73.842-73.173 73.842v0z" />
<glyph unicode="&#xf0036;" glyph-name="f0036-configuracion" d="M241.339 347.076c-0.249-88.239 70.297-159.417 158.106-159.567 86.466-0.149 158.603 71.377 158.952 157.627 0.348 87.195-69.352 157.229-154.325 159.915-89.053 2.785-164.922-72.67-162.733-157.975zM785.208 373.936c0-22.582 1.045-44.219-0.398-65.657-0.896-13.082-9.403-22.234-23.333-24.621-19.154-3.283-38.158-7.212-57.412-9.5-10.298-1.293-15.124-5.571-18.507-15.37-6.269-18.255-13.681-36.211-22.139-53.62-4.129-8.555-5.025-14.425 1.244-22.383 11.343-14.375 21.542-29.645 31.94-44.766 12.239-17.807 11.99-27.656-2.488-42.976-14.826-15.817-30.149-31.187-45.969-46.010-12.985-12.236-25.92-12.684-40.696-2.586-16.020 10.993-31.343 23.079-47.81 33.276-4.776 2.935-13.184 2.984-18.706 0.995-19.204-6.914-37.512-16.365-56.914-22.781-9.055-2.984-12.288-7.362-13.482-15.817-2.587-17.509-5.871-34.967-8.607-52.476-3.383-21.886-12.288-29.844-34.178-29.944-21.094-0.099-42.238-0.149-63.382 0-20.049 0.149-29.054 8.207-32.338 28.203-2.985 18.056-6.418 36.062-8.905 54.167-1.194 8.754-4.577 12.833-13.482 15.817-18.308 6.068-35.571 15.221-53.83 21.587-6.070 2.089-15.174 1.791-20.447-1.393-16.517-10.147-31.691-22.433-47.76-33.376-15.92-10.843-26.368-9.799-39.999 3.581-15.87 15.569-31.641 31.287-47.163 47.203-11.99 12.336-13.084 24.472-3.284 38.897 10.597 15.618 21.343 31.187 32.885 46.059 5.92 7.61 6.219 13.281 1.891 22.085-9.055 18.354-15.572 37.902-24.228 56.405-2.289 4.875-8.109 10.197-13.184 11.341-18.905 4.327-38.158 7.013-57.262 10.296-18.706 3.183-28.109 12.535-28.656 30.889-0.697 22.184-0.746 44.468 0 66.702 0.597 19.399 9.552 28.451 29.651 31.883 17.512 2.984 35.024 5.72 52.586 8.307 9.005 1.293 13.831 5.422 16.965 14.673 6.269 18.852 13.831 37.405 22.437 55.311 3.98 8.356 3.184 13.878-2.040 20.791-11.343 15.071-22.189 30.54-32.935 46.010-11.244 16.166-10.497 27.805 2.886 41.633 15.074 15.569 30.447 30.938 46.019 46.010 14.278 13.878 24.875 14.524 41.442 2.835 15.373-10.893 30.149-22.731 46.118-32.729 4.826-3.034 13.333-3.482 18.855-1.492 19.751 7.063 39.352 14.922 58.158 24.124 5.522 2.736 10.547 10.445 12.040 16.762 4.378 18.852 6.965 38.151 10.199 57.301 2.935 17.111 14.030 24.472 30.397 24.721 21.691 0.298 43.382 0.348 65.073 0 20.696-0.298 26.616-6.765 26.019-26.909-0.348-12.783-0.746-25.566-0.796-38.35-0.149-39.842 17.214-61.678 56.118-70.78 21.044-4.924 21.293-5.72 8.159-23.577-24.179-32.729-22.686-60.484 4.925-91.224 8.159-9.102 16.069-18.454 24.577-27.208 26.965-27.705 55.869-31.088 88.406-10.794 19.104 11.888 19.104 11.888 22.338-9.451 6.219-40.886 29.651-61.429 71.093-62.026 18.806-0.298 37.661-0.050 57.909-0.050zM758.184 781.557c-59.7 0.348-105.918-45.015-106.217-104.355-0.299-58.395 45.521-105.996 102.684-106.593 59.153-0.647 107.659 45.512 108.306 103.111 0.647 60.335-45.123 107.489-104.774 107.837zM584.605 787.227c-7.264 11.391-15.124 24.124-23.432 36.559-7.363 11.042-6.617 20.493 3.582 29.347 10.895 9.451 21.492 19.299 32.188 28.999 8.308 7.461 18.408 8.854 25.323 0.597 23.233-27.904 49.7-29.347 79.053-11.788 5.274 3.134 10.995 8.257 12.935 13.728 4.030 11.391 3.93 24.422 8.856 35.316 2.935 6.466 11.691 13.43 18.656 14.425 14.079 2.039 28.805 0.298 43.233-0.149 13.781-0.448 23.631-8.058 22.686-21.388-2.388-33.575 13.831-50.287 44.178-60.335 11.293-3.78 18.308-4.924 28.109 1.641 42.835 28.899 37.959 28.849 71.988-9.401 20.149-22.582 20.398-24.522 0.995-48.895-0.697-0.846-1.294-1.84-2.090-2.586-14.577-13.48-14.627-26.76-8.308-46.457 7.91-24.621 20.597-33.774 44.676-36.659 26.019-3.134 28.905-9.003 27.263-35.515-2.886-47.402-2.836-47.751-49.8-54.963-11.492-1.741-16.318-7.262-22.636-17.061-17.363-27.158-15.472-49.989 6.020-73.466 9.204-10.048 6.866-21.587-3.682-30.789-4.627-3.979-9.204-8.058-13.681-12.186-30.099-27.407-30.746-28.153-62.436-1.592-12.686 10.595-22.238 10.097-38.009 6.267-29.104-7.113-39.85-23.726-41.79-51.133-1.194-16.514-11.144-24.82-28.507-22.284-0.498 0.099-1.095 0-1.642 0-52.238 0.298-52.437 0.249-59.999 51.68-1.493 10.346-7.015 14.574-15.721 20.244-26.815 17.409-49.899 16.166-73.182-5.77-10.796-10.197-22.238-7.362-31.89 3.681-8.756 9.998-19.403 18.852-26.169 30.043-4.030 6.615-2.189 16.812-2.786 25.467-0.099 0.846 0.945 2.039 1.791 2.686 30.248 23.129 24.975 50.984 10.149 79.734-2.090 4.079-6.617 8.356-10.945 9.699-12.139 3.78-24.676 6.218-37.114 8.953-11.642 2.586-17.064 10.097-16.666 21.488 0.597 15.569 0.448 31.336 3.433 46.457 1.244 6.267 8.955 13.878 15.323 16.016 11.94 3.929 25.223 3.581 37.611 6.416 4.826 1.144 10.597 5.173 12.836 9.5 7.164 13.679 12.836 28.153 19.602 43.473z" />
<glyph unicode="&#xf0037;" glyph-name="f0037-user" horiz-adv-x="1081" d="M917.549 187.876c-146.99 33.922-283.808 63.61-217.512 188.511 201.668 380.253 53.458 583.613-159.532 583.613-217.204 0-361.754-211.174-159.532-583.613 68.235-125.64-73.711-155.327-217.532-188.511-118.852-27.4-134.162-83.36-135.669-178.144-0.626-40.701 33.071-73.731 73.782-73.731h877.851c40.742 0 74.449 33.041 73.803 73.731-1.487 94.784-16.797 150.744-135.659 178.144v0z" />
<glyph unicode="&#xf0038;" glyph-name="f0038-informacion" d="M640 128h-256v64h64v256h-64v64h192v-320h64v-64zM448 640v128h128v-128h-128zM512 960c-282.816 0-512-229.184-512-512s229.184-512 512-512c282.816 0 512 229.184 512 512s-229.184 512-512 512v0z" />
<glyph unicode="&#xf0039;" glyph-name="f0009-articulos" horiz-adv-x="778" d="M5 959.936v-895.936l64.128 64v767.872h575.808v64.064h-639.936zM132.872 831.936v-895.872l320.256 320 319.872-320v895.872h-640.128z" />
<glyph unicode="&#xf0040;" glyph-name="f0040-vivamos" horiz-adv-x="1396" d="M201.152 425.635c-17.764-17.766-17.705-46.63 0.076-64.413l409.993-410.053c17.805-17.808 46.609-17.872 64.403-0.076l505.462 505.536c17.764 17.766 31.526 52.534 30.744 77.548l-11.559 369.381c-0.784 25.062-21.782 46.017-46.793 46.8l-369.327 11.561c-25.059 0.784-59.742-12.952-77.536-30.748l-505.462-505.536zM1101.748 851.821c26.065-26.069 26.202-68.198 0.306-94.098s-68.019-25.763-94.085 0.306c-26.065 26.069-26.202 68.198-0.306 94.098s68.019 25.763 94.085-0.306v0 0 0z" />
<glyph unicode="&#xf0041;" glyph-name="f0041-boletines" horiz-adv-x="942" d="M251.733 573.238v62.686h438.468v-62.686h-438.468zM251.733 197.456v62.619h438.468v-62.619h-438.468zM251.733 322.694v62.686h438.468v-62.686h-438.468zM251.733 447.933v62.686h438.468v-62.686h-438.468zM126.561 72.151v751.631h688.877v-751.631h-688.877zM846.916 949.154h-751.832c-51.612 0-93.895-42.35-93.895-93.962v-814.384c0-51.679 42.283-93.962 93.895-93.962h751.832c51.612 0 93.895 42.283 93.895 93.962v814.384c0 51.612-42.283 93.962-93.895 93.962v0z" />
<glyph unicode="&#xf0042;" glyph-name="f0042-impreso" horiz-adv-x="1365" d="M170.481 106.63v426.731h426.657v-426.731h-426.657zM682.5 106.63v85.361h256.009v-85.361h-256.009zM682.5 277.351v85.288h341.37v-85.288h-341.37zM682.5 448v85.361h341.37v-85.361h-341.37zM170.481 618.648v85.361h853.388v-85.361h-853.388zM85.121 21.342v853.315h1024.037v-853.315h-1024.037zM1194.518 789.37v170.648h-1194.685v-938.676c0-47.398 37.963-85.361 85.288-85.361h1152.041c70.805 0 128.005 57.273 128.005 128.005v725.384h-170.648z" />
<glyph unicode="&#xf0043;" glyph-name="f0043-suscripcion" horiz-adv-x="1396" d="M1265.282 32.368h-1134.564c-23.786 0-43.533 18.951-43.533 41.606v374.026h1221.631v-374.026c0-22.655-19.672-41.606-43.533-41.606v0zM130.718 863.632h1134.564c23.861 0 43.533-18.879 43.533-41.606v-124.675h-1221.631v124.675c0 22.727 19.747 41.606 43.533 41.606v0zM130.718 946.701c-71.957 0-130.9-56.211-130.9-124.675v-748.052c0-68.465 58.942-124.675 130.9-124.675h1134.564c71.957 0 130.9 56.211 130.9 124.675v748.052c0 68.465-58.942 124.675-130.9 124.675h-1134.564z" />
<glyph unicode="&#xf0044;" glyph-name="f0044-cerrarsesion" horiz-adv-x="942" d="M-0.040 950.465v-816.514l376.832-188.416v188.416h313.982v251.199h-62.783v-188.416h-251.199v565.315l-251.199 125.633h502.398v-251.266h62.783v314.049h-690.814zM753.691 573.633h-314.116v-125.633h314.116v-125.633l188.349 188.483-188.349 188.416v-125.633z" />
<glyph unicode="&#xf0045;" glyph-name="f0045-calendario" horiz-adv-x="1229" d="M981.606 781.69h152.961v-849.443h-1040.134v849.443h152.961v-91.012h183.553v91.012h367.106v-91.012h183.553v91.012zM767.461 356.907h183.614v182.023h-183.614v-182.023zM522.723 356.907h183.553v182.023h-183.553v-182.023zM277.986 356.907h183.614v182.023h-183.614v-182.023zM767.461 114.21h183.614v182.084h-183.614v-182.084zM522.723 114.21h183.553v182.084h-183.553v-182.084zM277.986 114.21h183.614v182.084h-183.614v-182.084zM828.652 720.996h122.43v242.757h-122.43zM277.992 720.996h122.43v242.757h-122.43z" />
<glyph unicode="&#xf0046;" glyph-name="f0046-mensaje" horiz-adv-x="1365" d="M731.583 483.068l430.904 430.904h-966.006l430.804-430.904c27.926-27.826 76.472-27.826 104.298 0zM812.219 402.422c-35.433-35.433-82.678-54.952-132.824-54.952-50.047 0-97.291 19.518-132.724 54.952l-441.914 441.914c-9.409 9.409-17.516 19.618-24.523 30.429-23.222-23.622-37.735-55.852-37.735-91.586v-670.328c0-72.268 58.555-130.823 130.723-130.823h1018.555c72.168 0 130.723 58.555 130.723 130.823v670.328c0 35.734-14.514 68.064-37.835 91.686l-472.443-472.443z" />
<glyph unicode="&#xf0047;" glyph-name="f0047-guardar" horiz-adv-x="663" d="M11.952 946.987v-997.974l319.548 249.494 319.548-249.494v997.974z" />
<glyph unicode="&#xf0048;" glyph-name="f0048-comentar" horiz-adv-x="1182" d="M147.922 960c-81.29 0-147.692-65.829-147.692-146.286v-512c0-80.457 66.402-146.286 147.692-146.286h295.385l295.385-219.429v219.429h295.385c81.231 0 147.692 65.829 147.692 146.286v512c0 80.457-66.462 146.286-147.692 146.286h-886.154z" />
<glyph unicode="&#xf0049;" glyph-name="f0049-calificar" horiz-adv-x="922" d="M122.183 540.417v-492.8h61.594v-30.822h-123.187c-33.894 0-61.594 41.626-61.594 92.416v369.613c0 50.79 27.699 92.416 61.594 92.416h123.187v-30.822h-61.594zM830.587 386.407c70.195 0 30.822-184.781-30.822-184.781 30.822 0 0-154.010-61.594-154.010 0-61.594-61.594-92.416-123.187-92.416-260.301 0-168.704 65.075-431.206 92.416v492.8c231.885 69.581 462.029 243.917 462.029 400.384 50.995 0 184.781-61.594 0-369.562h184.781c92.416 0 61.594-184.832 0-184.832v0z" />
<glyph unicode="&#xf0050;" glyph-name="f0050-reportar" horiz-adv-x="1084" d="M1045.122 48.544l-447.22 858.885c-25.060 47.121-86.745 47.121-111.805 0l-447.22-858.885c-25.060-47.121 5.783-107.093 55.903-107.093h892.513c52.047 0 82.89 59.972 57.83 107.093v0zM525.828 661.737c42.201 9.206 84.402-6.904 102.488-39.124 6.029-11.507 9.043-23.014 6.029-34.521-3.014-34.521-6.029-66.741-9.043-101.262-3.014-52.933-9.043-105.865-12.057-158.798 0-16.11-3.014-32.22-3.014-48.33-3.014-27.617-30.144-50.631-66.316-50.631s-63.302 20.713-66.316 48.33c-6.029 80.55-12.057 163.401-18.086 243.95-3.014 23.014-3.014 43.727-6.029 66.741 3.014 36.823 30.144 66.741 72.345 73.645v0zM541.084 22.176c-45.131 0-81.799 36.669-81.799 84.62 0 45.131 36.669 81.799 84.62 81.799 45.131 0 81.799-39.489 81.799-84.62-2.821-45.131-39.489-84.62-84.62-81.799v0z" />
<glyph unicode="&#xf0051;" glyph-name="f0051-comillas" horiz-adv-x="1297" d="M1272.116 189.952c0-73.273-23.893-131.413-71.68-174.421s-108.316-64.512-181.589-64.512c-86.016 0-156.899 28.672-212.651 86.016s-83.627 141.767-83.627 253.269c0 105.131 15.132 195.129 45.397 269.995s66.901 138.581 109.909 191.147c43.008 52.566 87.609 94.777 133.803 126.635s86.812 54.158 121.856 66.901l119.467-167.253c-70.087-35.044-126.634-82.033-169.643-140.971s-64.512-133.006-64.512-222.208c12.743 3.186 30.265 4.779 52.565 4.779 63.716 0 113.095-22.3 148.139-66.901s52.565-98.759 52.565-162.475v0zM574.431 189.952c0-73.273-23.893-131.413-71.68-174.421s-108.316-64.512-181.589-64.512c-86.016 0-156.899 28.672-212.651 86.016s-83.627 141.767-83.627 253.269c0 105.131 15.132 195.129 45.397 269.995s66.901 138.581 109.909 191.147c43.008 52.566 87.609 94.777 133.803 126.635s86.812 54.158 121.856 66.901l119.467-167.253c-70.087-35.044-126.634-82.033-169.643-140.971s-64.512-133.006-64.512-222.208c12.743 3.186 30.265 4.779 52.565 4.779 63.716 0 113.095-22.3 148.139-66.901s52.565-98.759 52.565-162.475v0z" />
<glyph unicode="&#xf0052;" glyph-name="f0052-flecha" horiz-adv-x="597" d="M454.676 448.535l-437.163-449.473 63.048-63.048 498.927 511.986-498.927 511.986-63.048-63.048z" />
<glyph unicode="&#xf0053;" glyph-name="f0053-lupa" d="M420.75 131.514c108.122 0 209.841 42.131 286.256 118.569 157.85 157.85 157.85 414.654-0.002 572.507-76.401 76.447-178.139 118.589-286.254 118.589-108.096 0-209.838-42.15-286.256-118.591-76.434-76.434-118.565-178.153-118.565-286.252s42.131-209.818 118.567-286.254c76.436-76.436 178.155-118.567 286.254-118.567zM207.078 749.992c57.086 57.106 132.908 88.513 213.672 88.513 80.777 0 156.581-31.401 213.672-88.513 117.8-117.8 117.8-309.532 0.002-427.33-57.091-57.091-132.917-88.494-213.675-88.494-80.77 0-156.57 31.39-213.675 88.494-57.091 57.111-88.494 132.938-88.494 213.675 0 80.751 31.392 156.551 88.494 213.653l0.002 0.002zM899.638-27.584c11.4-11.403 26.691-17.595 42.487-17.595s31.086 6.192 42.487 17.595c23.459 23.465 23.459 61.489 0 84.953l-265.846 265.924c-23.465 23.47-61.495 23.47-84.959 0.001-23.459-23.465-23.459-61.489 0-84.953l265.832-265.925z" />
<glyph unicode="&#xf0054;" glyph-name="f0054-play" d="M512-45.587c275.839 0 499.613 220.895 499.613 493.587s-223.775 493.587-499.613 493.587c-275.839 0-499.613-220.895-499.613-493.587s223.775-493.587 499.613-493.587v0zM512 17.107c-241.394 0-436.919 193.009-436.919 430.893s195.525 430.893 436.919 430.893c241.394 0 436.919-193.009 436.919-430.893s-195.525-430.893-436.919-430.893v0zM414.574 210.983v463.262l-48.004-26.555 369.287-231.631v53.111l-369.287-231.631 48.004-26.555zM351.88 210.983v-56.665l459.627 288.296-459.627 288.296v-519.927z" />
<glyph unicode="&#xf0055;" glyph-name="f0055-triangulo" horiz-adv-x="788" d="M5.274-48.37v992.74l777.452-496.37z" />
<glyph unicode="&#xf0056;" glyph-name="f0056-hamburguesa" horiz-adv-x="1463" d="M91.5 768.002h1280.001v127.998h-1280.001zM91.5 384.001h1280.001v127.998h-1280.001zM91.5 0h1280.001v127.998h-1280.001z" />
<glyph unicode="&#xf0057;" glyph-name="f0057-hamburguesa-open" horiz-adv-x="1463" d="M91.5 384h1280v128h-1280z" />
<glyph unicode="&#xf0058;" glyph-name="f0058-mas" d="M443.733 960h136.533v-1024h-136.533v1024zM0 379.733v136.533h1024v-136.533h-1024z" />
<glyph unicode="&#xf0059;" glyph-name="f0059-x" d="M579.737 445.676l430.245 430.245c18.691 18.713 18.691 49.024 0 67.737-18.713 18.68-49.024 18.68-67.737 0l-430.245-430.245-430.245 430.256c-18.713 18.68-49.024 18.68-67.737 0-18.691-18.713-18.691-49.024 0-67.737l430.245-430.256-430.245-430.245c-18.691-18.713-18.691-49.024 0-67.737 9.351-9.34 21.621-14.043 33.868-14.043s24.517 4.703 33.868 14.043l430.245 430.245 430.245-430.245c9.351-9.34 21.621-14.043 33.868-14.043s24.517 4.703 33.868 14.043c18.691 18.713 18.691 49.024 0 67.737l-430.245 430.245z" />
<glyph unicode="&#xf0060;" glyph-name="f0060-check" horiz-adv-x="1303" d="M1281.178 817.557c29.278 29.313 29.278 76.793 0 106.106-29.313 29.261-76.793 29.261-106.106 0l-774.209-774.209-272.934 272.951c-29.313 29.261-76.793 29.261-106.106 0-29.278-29.313-29.278-76.793 0-106.106 0 0 271.487-321.913 300.765-351.226 14.648-14.631 33.868-21.998 53.053-21.998s38.405 7.367 53.053 21.998l852.484 852.484z" />
<glyph unicode="&#xf0061;" glyph-name="f0061-enlace" d="M714.262 942.678c-94.657 0-195.608-52.937-299.996-157.339-105.746-105.733-255.136-311.085-67.774-498.447 42.818-42.831 106.737-85.932 198.438-93.145 3.606 3.502 12.558 7.032 16.216 10.715 33.952 33.965 56.546 84.709 75.454 114.861-44.347-16.137-81.627-11.39-91.669-11.39-42.495 0-81.849 18.688-120.285 57.164-58.883 58.87-115.917 158.386 67.774 342.090 82.922 82.896 157.533 124.938 221.857 124.938 42.456 0 81.81-18.688 120.285-57.151 56.078-56.078 107.18-166.711-85.895-356.151 6.514-38.721 2.080-19.242-7.639-60.199-3.916-16.556-26.506-86.407-33.187-103.208 66.648 31.476 112.065 74.243 137.112 99.264 81.409 81.409 131.749 160.945 149.701 236.474 22.54 95.212-5.79 185.811-81.952 261.999-59.412 59.412-126.179 89.526-198.438 89.526zM475.080 696.043c-3.58-3.438-7.698-0.837-11.278-4.456-36.123-36.123-63.23-91.761-81.194-120.155 36.981 16.646 77.28 16.646 87.607 16.646 42.482 0 81.836-18.688 120.298-57.138 49.668-49.668 66.34-99.93 52.498-158.295-13.157-55.277-53.597-117.119-120.311-183.821-82.896-82.896-157.52-124.938-221.792-124.938-42.495 0-81.849 18.688-120.311 57.151-49.655 49.681-66.34 99.943-52.485 158.283 11.477 48.311 79.914 128.578 132.425 185.794-8.763 54.734 22.297 113.937 45.819 172.6-39.792-11.919-110.431-70.675-136.15-96.394-81.384-81.397-131.736-160.958-149.675-236.448-13.724-57.84-8.666-113.978 14.497-166.214 14.966-33.751 37.491-65.873 67.39-95.772 59.412-59.425 126.192-89.565 198.477-89.565 53.013 0 107.997 16.609 164.453 49.561 44.348 25.885 89.605 61.854 135.53 107.779 81.384 81.397 131.736 160.919 149.662 236.461 22.617 95.225-5.7 185.824-81.888 261.999-42.844 42.882-89.603 70.411-139.452 82.469l-54.12 4.456z" />
<glyph unicode="&#xf0062;" glyph-name="f0062-puntos" horiz-adv-x="1463" d="M182.7 291.2c86.603 0 156.8 70.197 156.8 156.8s-70.197 156.8-156.8 156.8c-86.603 0-156.8-70.197-156.8-156.8s70.197-156.8 156.8-156.8zM731.5 291.2c86.603 0 156.8 70.197 156.8 156.8s-70.197 156.8-156.8 156.8c-86.603 0-156.8-70.197-156.8-156.8s70.197-156.8 156.8-156.8zM1280.3 291.2c86.603 0 156.8 70.197 156.8 156.8s-70.197 156.8-156.8 156.8c-86.603 0-156.8-70.197-156.8-156.8s70.197-156.8 156.8-156.8z" />
<glyph unicode="&#xf0063;" glyph-name="f0063-reloj" d="M512 960c-282.767 0-512-229.233-512-512s229.233-512 512-512c282.767 0 512 229.233 512 512s-229.233 512-512 512v0zM451.477 436.367c-0.602 3.767-0.917 7.656-0.917 11.633v307.2c0 33.925 22.917 61.44 51.2 61.44s51.2-27.515 51.2-61.44v-286.16l247.562-154.252c28.795-17.951 39.26-53.166 23.378-78.664-15.882-25.487-52.111-31.611-80.906-13.67l-260.731 162.468c-19.371 12.076-30.447 31.96-30.786 51.445zM512 38.4c-226.212 0-409.6 183.378-409.6 409.6 0 226.212 183.388 409.6 409.6 409.6 226.222 0 409.6-183.388 409.6-409.6 0-226.222-183.378-409.6-409.6-409.6z" />
<glyph unicode="&#xf0064;" glyph-name="f0064-play-big" d="M512-57.6c-279.040 0-505.6 226.56-505.6 505.6s226.56 505.6 505.6 505.6 505.6-226.56 505.6-505.6-226.56-505.6-505.6-505.6zM512 928c-264.96 0-480-215.040-480-480s215.040-480 480-480 480 215.040 480 480-215.040 480-480 480zM358.4 166.4v538.88l419.84-270.080-419.84-268.8zM384 657.92v-445.44l346.88 222.72-346.88 222.72z" />
<glyph unicode="&#xf0065;" glyph-name="f0065-descarga" horiz-adv-x="799" d="M4.46 960v-1024h794.76v761.446l-273.456 262.554h-521.303zM534.3 890.792l186.93-179.478h-186.93v179.478zM48.613-20.114v936.229h441.533v-248.686h264.92v-687.543h-706.453zM427.895 289.182v356.304h-54.046v-350.33l-147.708 151.934-42.169-34.84 219.94-216.325 229.621 225.867-35.414 34.834z" />
<glyph unicode="&#xf0066;" glyph-name="f0066-telefono" d="M278.663 959.86c-14.342 1.618-65.437-15.299-94.501-31.029s-89.192-49.032-111.018-125.27c-21.826-76.238 1.242-156.763 9.206-183.573s94.018-229.872 207.071-368.109c113.053-138.236 316.227-271.994 352.844-287.912s166.031-41.899 244.437 35.739c78.406 77.638 73.227 85.834 73.227 112.827s-44.063 63.21-51.302 70.377c-7.239 7.168-114.63 105.66-120.109 109.662s-39.612 37.050-73.642-7.261c-34.030-44.311-48.406-63.302-68.163-69.166s-83.263 22.901-126.394 61.998c-43.131 39.098-172.493 219.427-186.041 257.686s-20.274 70.842 0.62 92.345c20.893 21.503 62.887 53.059 76.024 58.179s28.374 30.307 6.446 76.48c-21.928 46.173-63.888 132.952-78.264 159.015s-46.098 36.392-60.44 38.011z" />
<glyph unicode="&#xf0067;" glyph-name="f0067-pregunta" d="M511.964 959.969c-282.732 0-511.964-229.231-511.964-512 0-282.805 229.231-512 511.964-512 282.793 0 512.036 229.195 512.036 512 0 282.769-229.243 512-512.036 512v0zM505.218 172.489c-36.238 0-56.416 23.058-56.416 53.128 0 30.877 20.179 54.356 56.416 54.356 35.816 0 56.826-23.48 56.826-54.356 0-30.069-20.588-53.128-56.826-53.128v0zM587.571 454.137c-30.069-27.588-37.9-59.296-38.322-100.472h-93.461c0 77.836 17.709 110.363 67.114 158.539 37.057 35.828 67.524 62.584 67.524 109.941 0 51.465-25.925 79.474-75.354 79.474-39.117 0-78.643-21.408-78.643-74.114h-100.063c1.241 103.352 78.234 157.708 178.706 157.708 110.761 0 175.429-58.886 175.429-159.358 0.012-72.897-50.224-122.302-102.93-171.719v0z" />
<glyph unicode="&#xf0068;" glyph-name="f0068-charla" d="M319.505 358.521c0 154.292 161.552 279.86 360.139 279.86 54.142 0 105.491-9.36 151.622-26.134-66.527 117.137-219.65 199.057-397.97 199.057-239.321 0-433.297-147.531-433.297-329.528 0-92.022 49.63-175.147 129.536-234.917l-31.638-152.908 142.587 92.763c58.108-22.052 123.522-34.466 192.813-34.466 1.073 0 2.147 0.089 3.211 0.089-71.845 51.151-117.002 124.63-117.002 206.184zM996.218 354.706c0 126.399-138.67 229.263-309.208 229.263s-309.297-102.865-309.297-229.263c0-126.409 138.76-229.263 309.297-229.263 38.865 0 76.934 5.466 113.234 16.121l98.871-59.305-14.631 96.647c71.1 43.925 111.733 107.5 111.733 175.8z" />
<glyph unicode="&#xf0069;" glyph-name="f0069-compra" d="M875.088 460.733c16.967 0 31.603 11.669 35.48 28.162l98.959 322.419c4.551 19.606-7.609 39.194-27.197 43.763s-39.14-7.591-43.727-27.143l-10.449-44.528h-669.25l-19.333 90.84c-3.568 16.821-18.423 28.836-35.626 28.836h-167.226c-20.116 0-36.445-16.311-36.445-36.409 0-20.116 16.311-36.445 36.445-36.445h137.735l92.733-435.541c-0.073-0.346-0.255-0.637-0.328-1.001l-23.72-116.235c-1.82-8.884 0.455-18.132 6.226-25.177 5.716-7.009 14.327-11.087 23.393-11.087h611.378c16.712 0 30.219 13.544 30.219 30.219s-13.508 30.219-30.219 30.219h-574.387l12.579 61.604 552.76 97.503zM347.013 174.85c-47.295 0-85.616-38.302-85.616-85.543 0-47.332 38.32-85.579 85.616-85.579 47.259 0 85.543 38.266 85.543 85.579 0 47.259-38.284 85.543-85.543 85.543zM799.066 174.85c-47.295 0-85.579-38.302-85.579-85.543 0-47.332 38.302-85.579 85.579-85.579 47.259 0 85.543 38.266 85.543 85.579 0 47.259-38.284 85.543-85.543 85.543z" />
<glyph unicode="&#xf0070;" glyph-name="f0070-full" d="M1023.913 960h-334.721v-93.26l180.441 3.228-285.518-276.551 62.457-64.211 285.431 276.381v-183.207h91.823v337.62h0.087zM932.090 275.163v-247.503h-242.811v-90.117h334.721v337.62h-91.91zM338.013 869.968v90.032h-338.013v-337.62h91.996v247.588h246.016zM380.806 363.567l-288.723-273.238v179.979h-92.083v-334.307h338.013v93.26l-180.441-3.143 285.518 276.381-62.284 61.069z" />
<glyph unicode="&#xf0071;" glyph-name="f0071-reduce" d="M584.165 523.038h334.749v94.595l-180.456-3.274 285.542 280.51-62.462 65.131-285.455-280.338v185.829h-91.831v-342.453h-0.087zM0-2.057l62.289-61.943 288.747 277.15v-182.556h92.091v342.367h-46.002l-292.039-3.274v-94.595l180.456 3.188-285.542-280.338z" />
<glyph unicode="&#xf0072;" glyph-name="f0072-rss" d="M208.33-57.235c-0.525 112.021-91.929 203.174-204.258 203.697l0.996-202.704 203.263-0.993zM614.828-59.298c-1.814 335.869-276.029 609.333-612.798 611.114l0.996-202.701c224.453-1.249 407.264-183.558 408.514-407.394l203.288-1.018zM1021.288-61.297c-3.027 559.695-460.052 1015.465-1021.289 1018.483l1.035-202.668c449.124-2.279 814.746-366.893 817.031-814.783l203.223-1.032z" />
<glyph unicode="&#xf0073;" glyph-name="f0073-star" d="M511.969 960.085l-158.202-320.624-353.767-51.362 255.985-249.603-60.419-352.429 316.404 166.436 316.404-166.436-60.316 352.429 255.985 249.603-353.87 51.362z" />
<glyph unicode="&#xf0074;" glyph-name="f0074-delete" horiz-adv-x="890" d="M317.781 960h254.874v-127.624h317.781v-190.593l-63.718 63.531h-762.998l-63.718-63.531v190.593h317.781v127.624zM381.437 832.438h127.624v63.718h-127.624v-63.718zM63.718 641.783l63.718-699.841h635.561l63.718 699.841h-762.998z" />
<glyph unicode="&#xf0075;" glyph-name="f0075-checkcircle" d="M1024 448c0 282.77-229.23 512-512 512s-512-229.23-512-512c0-282.77 229.23-512 512-512s512 229.23 512 512zM56.889 448c0 251.351 203.76 455.111 455.111 455.111s455.111-203.76 455.111-455.111c0-251.351-203.76-455.111-455.111-455.111s-455.111 203.76-455.111 455.111zM395.596 313.493l295.843 298.301 40.393-40.060-295.843-298.301c7.788 7.853 7.788 20.488 0 28.341-7.918 7.984-20.853 7.984-28.771 0l295.843 298.301c-7.788-7.853-7.788-20.488 0-28.341 7.918-7.984 20.853-7.984 28.771 0l-40.393 40.060c14.336 14.455 37.678 14.455 52.014 0 14.207-14.325 14.207-37.453 0-51.778l-295.843-298.301c-14.336-14.455-37.678-14.455-52.014 0-14.207 14.325-14.207 37.453 0 51.778zM374.105 261.715c14.336-14.455 37.678-14.455 52.014 0 14.207 14.325 14.207 37.453 0 51.778l-115.050 116.006c-14.336 14.455-37.678 14.455-52.014 0-14.207-14.325-14.207-37.453 0-51.778l40.393 40.060c7.788-7.853 7.788-20.488 0-28.341-7.918-7.984-20.853-7.984-28.771 0l115.050-116.006c-7.788 7.853-7.788 20.488 0 28.341 7.918 7.984 20.853 7.984 28.771 0l-115.050 116.006-40.393-40.060 115.050-116.006z" />
<glyph unicode="&#xf0076;" glyph-name="f0076-libros" d="M885.075 341.576l-386.721-308.949c-2.896-2.305-6.826-2.911-10.209-1.418-29.563 13.208-58.965 26.579-88.41 39.876-41.442 18.719-265.068 103.155-280.227 111.68-8.923 5.009-13.415 14.42-15.853 24.008-5.777 22.871-2.615 48.239 1.315 71.169 0.296 1.684 0.635 2.704 1.019 3.708-3.782 1.921 0.060 2.704 5.038-0.207 9.234-5.378 19.015-9.84 28.603-14.597 15.041-7.446 262.439-106.819 283.817-116.408 19.030-8.525 39.152-14.538 58.61-22.103 14.184-5.511 26.89-3.62 38.266 6.22 12.277 10.623 24.466 21.305 36.655 32.046l399.797 319.35c8.008 6.383 9.323 18.025 2.97 26.033-6.383 8.008-18.025 9.323-26.032 2.97l-48.608-38.679-386.75-308.949c-2.896-2.305-6.826-2.911-10.209-1.418-29.563 13.208-58.965 26.579-88.41 39.876-41.442 18.719-265.068 103.155-280.227 111.68-8.923 5.009-13.415 14.42-15.853 24.008-5.777 22.871-2.615 48.239 1.315 71.169 11.849-5.334 21.63-9.795 31.218-14.553 15.041-7.446 262.439-106.819 283.817-116.408 19.030-8.525 39.152-14.538 58.61-22.103 14.184-5.511 26.89-3.62 38.266 6.22 12.277 10.623 24.466 21.305 36.655 32.046l399.797 319.35c8.008 6.383 9.323 18.025 2.97 26.033-6.383 8.008-18.025 9.323-26.032 2.97l-48.608-38.679-386.765-308.963c-2.896-2.305-6.826-2.911-10.209-1.418-29.563 13.208-58.964 26.579-88.41 39.876-41.428 18.734-265.068 103.17-280.227 111.695-8.924 5.009-13.415 14.42-15.853 24.008-5.777 22.871-2.615 48.239 1.315 71.169 1.861 10.785 12.558 16.799 22.191 12.972 0 0 303.261-119.171 306.674-120.412 6.205-2.246 34.572-12.218 37.394-13.327 1.049-0.414 2.083-0.768 3.073-1.049 3.62-1.079 7.003-1.374 10.298-0.872 4.033 0.635 7.934 2.453 11.967 5.496 2.527 1.921 5.068 3.841 7.609 5.732 36.227 27.377 72.513 54.68 108.814 81.939 11.036 8.318 22.088 16.607 33.139 24.91 0.901 0.694 1.803 1.374 2.718 2.039 31.558 23.698 63.117 47.367 94.719 71.021 1.847 1.404 3.635 2.807 5.245 4.285 48.15 36.212 96.344 72.365 144.568 108.474 16.946 12.691 16.547 31.854-4.757 40.157-16.888 6.589-33.731 13.208-50.602 19.872-24.94 9.81-49.716 19.606-74.538 29.386-40.497 15.986-81.023 31.942-121.52 47.943-30.331 10.933-60.752 21.659-91.306 31.987-26.919 9.101-53.705 7.254-77.404-11.081-0.842-0.665-1.758-1.212-2.644-1.817-38.31-26.033-76.694-51.962-115.034-77.95-43.142-29.239-86.209-58.566-129.070-88.204-7.269-5.023-14.494-10.106-21.689-15.218-35.946-25.589-71.183-52.183-106.834-78.186-13.105-9.574-20.197-20.655-24.556-34.232-0.723-2.275-1.418-4.565-2.038-6.841-2.674-9.544-4.595-19.118-5.836-28.781-2.393-18.483-2.364-37.143-0.546-55.862 0.857-8.791 2.305-17.523 4.018-26.21 1.492-7.565 2.911-16.148 4.994-23.861-2.187-8.392-3.901-16.828-4.994-25.309-2.393-18.483-2.364-37.143-0.546-55.862 0.857-8.791 2.305-17.523 4.018-26.21 1.182-6.013 2.379-12.647 3.797-19.059-0.502-1.596-0.99-3.191-1.433-4.787-2.674-9.544-4.595-19.118-5.836-28.781-2.393-18.483-2.364-37.143-0.546-55.862 0.857-8.791 2.305-17.523 4.018-26.21 1.773-8.983 3.206-19.739 6.087-28.323 2.452-7.328 7.875-13.415 13.873-18.113 6.87-5.378 14.834-6.737 22.029-10.918 9.234-5.378 19.015-9.84 28.603-14.597 15.041-7.446 262.439-106.819 283.817-116.408 19.030-8.525 39.152-14.538 58.61-22.103 14.184-5.511 26.89-3.62 38.266 6.22 12.277 10.623 24.466 21.305 36.655 32.046l399.797 319.35c8.008 6.383 9.323 18.025 2.97 26.033-6.397 8.008-18.054 9.323-26.062 2.955l-48.608-38.679z" />
<glyph unicode="&#xf0077;" glyph-name="f0077-cancelar-suscribir" horiz-adv-x="1204" d="M143.758 550.842h348.337v-371.928h-348.337v371.928zM143.758 717.823h764.867v-74.459h-764.867v74.459zM561.025 549.737h343.914v-74.459h-343.914v74.459zM561.025 257.060h102.474v-74.459h-102.474v74.459zM1143.061 354.373v479.194h-95.47v126.433h-1047.591v-824.213c6.145-52.388 47.184-93.553 98.98-99.84l3.863-0.054h644.331c46.948-58.018 118.15-94.806 197.944-94.806 140.305 0 254.045 113.74 254.045 254.045 0 60.512-21.156 116.082-56.476 159.717zM74.091 108.878v777.4h899.778v-442.333c-8.109 0-16.219 0-24.328 0-51.441-0.005-99.282-15.414-139.162-41.866l-249.722 0.582v-73.722h175.827c-26.040-38.932-41.557-86.821-41.557-138.335 0-28.72 4.823-56.314 13.704-82.015zM1106.2 147.951h-311.107v84.78h310.37v-84.78z" />
<glyph unicode="&#xf0078;" glyph-name="f0078-beneficio" horiz-adv-x="1064" d="M1017.993 629.31h-290.855c79.037 24.343 158.073 63.229 182.417 126.459 19.285 49.319 2.529 103.696-48.687 160.603-26.297 27.131-63.077 43.971-103.79 43.971-0.968 0-1.933-0.010-2.896-0.028-60.24 0.002-163.62-35.406-221.159-255.445-58.803 221.303-162.183 255.447-221.303 255.447-1.231 0.038-2.678 0.059-4.13 0.059-40.841 0-77.715-16.983-103.946-44.272-52.21-58.219-68.965-112.596-49.68-161.915 24.343-63.229 103.38-101.483 182.417-126.459h-312.353c-13.27 0-24.027-10.757-24.027-24.027v-251.021c0-13.27 10.757-24.027 24.027-24.027h50.584v-369.892c0-13.27 10.757-24.027 24.027-24.027h844.745c13.27 0 24.027 10.757 24.027 24.027v371.473h50.584c13.27 0 24.027 10.757 24.027 24.027v251.021c0 13.27-10.757 24.027-24.027 24.027zM754.643 911.946c0.867 0.028 1.887 0.044 2.911 0.044 26.001 0 49.607-10.258 66.991-26.948 38.853-43.281 52.764-81.218 40.434-111.885-30.034-76.824-202.966-115.71-297.81-128.672 48.054 231.736 137.208 267.144 187.475 267.144zM198.856 772.841c-12.014 31.615 1.581 68.604 41.415 113.181 17.275 15.905 40.431 25.656 65.865 25.656 1.074 0 2.145-0.017 3.211-0.052 50.112 0.004 138.949-35.721 187.32-267.772-95.476 13.278-267.776 50.9-297.81 128.988zM122.981 330.235h373.053v-345.865h-373.053v345.865zM919.039-15.63h-374.002v345.865h374.002v-345.865z" />
<glyph unicode="&#xf0079;" glyph-name="f0079-direccion" horiz-adv-x="669" d="M329.657 954.18c159.091-2.35 290.173-108.136 317.504-258.802 14.586-80.55-2.278-155.789-47.878-224.778-86.596-131.023-173.241-262.092-260.080-393.021-3.344-5.028-5.573-17.905-15.362-3.008-89.795 136.662-182.933 271.35-269.578 409.892-118.725 189.954 5.96 436.209 232.7 465.816 14.15 1.833 28.445 2.632 42.692 3.901zM339.804-49.914c-64.644 0.752-115.575 9.023-163.404 31.816-18.318 8.741-35.036 19.644-48.847 34.541-29.027 31.44-29.754 66.263-1.841 98.502 3.974 4.559 8.432 8.741 13.084 12.595 44.679 37.126 47.684 36.703 78.601-10.433 21.467-32.803 42.935-65.558 64.644-98.173 27.379-41.074 70.072-40.98 97.451 0.329 28.009 42.155 56.067 84.309 83.253 126.981 6.397 10.104 11.727 11.279 21.807 5.686 14.974-8.318 29.705-16.73 42.499-28.103 38.428-34.306 38.525-79.563 0.242-114.104-31.208-28.197-69.684-41.685-110.002-50.614-29.318-6.485-59.265-9.587-77.486-9.023zM449.734 641.268c0.097 63.96-53.353 115.749-119.742 115.984-64.693 0.235-118.482-52.353-118.337-115.702 0.145-62.645 53.208-114.809 117.271-115.185 66.292-0.376 120.711 51.366 120.808 114.903z" />
<glyph unicode="&#xf0080;" glyph-name="f0080-msn" d="M562.784 321.58l-130.362 139.062-254.366-139.062 279.802 297.086 133.542-139.062 251.186 139.062-279.802-297.086zM511.911 960c-282.721 0-511.911-212.249-511.911-474.074 0-149.191 74.44-282.267 190.774-369.168v-180.758l174.301 95.677c46.517-12.875 95.797-19.825 146.836-19.825 282.721 0 511.911 212.249 511.911 474.074s-229.19 474.074-511.911 474.074v0z" />
<glyph unicode="&#xf0081;" glyph-name="icono-pin-mapa" horiz-adv-x="768" d="M549.361 682.063c0.317 81.534-72.876 147.513-163.777 147.641-90.814 0.102-166.225-64.777-166.282-143.087-0.058-84.22 70.861-149.356 163.518-150.174 90.238-0.819 166.225 65.621 166.541 145.62zM383.856 959.884c191.275 4.349 362.308-131.703 381.975-301.089 11.172-96.398-22.603-183.279-64.814-268.599-61.618-124.513-146.127-237.029-236.423-346.219-22.315-26.965-46.041-52.983-68.586-79.795-7.429-8.801-12.439-12.894-22.372-1.561-141.088 161.353-273.48 327.286-347.077 523.791-34.667 92.611-39.044 185.376 8.955 275.788 64.987 122.364 192.657 194.126 348.344 197.682z" />
<glyph unicode="&#xf0082;" glyph-name="icono-claqueta" horiz-adv-x="1088" d="M926.349 793.716c19.471 5.506 36.706 11.055 54.246 15.12 10.569 2.452 12.886 7.679 10.081 18.024-6.118 22.605-11.544 45.405-17.622 68.032-1.849 6.925-2.012 18.369-13.008 13.787-9.39-3.915-24.918 1.42-26.239-17.121-2.256-31.897-4.837-63.795-7.459-97.843zM84.602 446.715c0-8.517 0.976-17.207-0.204-25.552-2.845-20.218 5.386-25.444 23.475-24.563 43.434 2.108 31.544-6.367 46.91 35.425 2.195 5.936 4.085 12.002 6.098 18.003 15.243 45.47 15.243 45.47-29.918 45.47-46.361 0-46.361 0-46.361-48.782zM979.599 396.988c15.121 0 27.255 0.279 39.389-0.086 8.76-0.258 13.861 1.957 13.617 12.926-0.508 24.241-0.366 48.503-0.040 72.742 0.102 8.84-2.785 12.11-11.484 13.078-50.243 5.593-52.316 4.496-69.083-45.147-0.691-2.021-1.179-4.109-1.768-6.151-4.309-14.862-18.252-33.575-11.686-43.211 7.967-11.679 28.882-2.194 41.056-4.151zM168.665 682.387c-30.446-8.905-59.186-18.906-88.616-25.338-19.877-4.344-23.475-15.873-19.573-33.274 4.492-20.046 10.427-39.705 15.019-59.708 2.073-9.034 5.61-11.55 14.146-8.819 21.219 6.775 42.58 12.949 63.982 18.992 5.854 1.657 10.041 4.367 10.183 11.142 0.65 31.768 6.89 63.279 4.858 97.004zM766.454 397.030v-0.065c14.146 0 28.292 0.301 42.418-0.108 9.003-0.258 14.919 1.957 18.068 12.346 7.398 24.37 15.589 48.48 24.288 72.355 4.065 11.142 0.468 14.002-9.349 13.959-29.613-0.172-59.246-0.215-88.86 0.021-7.805 0.043-12.154-2.968-14.735-11.077-7.987-24.907-16.565-49.621-25.101-74.313-3.252-9.377-0.426-13.292 8.861-13.163 14.797 0.194 29.613 0.043 44.409 0.043zM571.378 495.432c-56.401 0.065-56.401 0.065-75.323-56.117-2.947-8.69-5.447-17.616-8.983-26.047-5.142-12.346-1.484-16.627 10.813-16.433 28.272 0.431 56.543 0.237 84.815 0.065 8.13-0.043 13.699 1.786 16.646 11.378 7.703 25.015 16.179 49.771 25.020 74.355 3.617 10.045 0.386 12.905-8.557 12.82-14.797-0.129-29.613-0.021-44.429-0.021zM313.133 396.988c14.837 0 29.674 0.344 44.511-0.15 8.516-0.258 13.719 2.581 16.605 11.571 7.784 24.283 15.935 48.438 24.45 72.442 4.289 12.023 0.040 15.164-10.792 14.776-14.817-0.537-29.674-0.129-44.491-0.129-53.8 0-53.8 0-71.868-52.997-15.507-45.555-15.507-45.555 29.45-45.555 4.045 0 8.089 0 12.134 0.043zM274.476 608.827c33.739 9.442 66.136 18.54 98.555 27.596 6.464 1.828 10.041 5.399 10.427 13.292 1.341 27.036 3.049 54.052 5.244 81.024 0.996 12.066-4.431 13.142-13.17 10.626-28.556-8.195-57.051-16.519-85.669-24.477-5.772-1.613-10.284-4.022-10.447-10.884-0.752-31.855-6.87-63.45-4.939-97.176zM606.641 790.575c3.069 13.357-2.419 17.53-18.008 11.808-15.203-5.57-31.117-9.012-46.726-13.378-44.735-12.518-44.897-12.497-48.108-61.644-1.199-18.347-1.524-36.78-2.256-55.17 18.354-0.172 34.694 8.819 52.113 12.926 3.293 0.774 6.585 1.549 9.817 2.517 46.035 13.529 45.975 13.55 49.673 65.15 0.813 11.378 2.093 22.692 3.496 37.791zM711.516 766.808c0.082 0 0.162 0 0.244-0.021-0.304-4.969 0-10.087-0.996-14.906-3.353-16.217 1.28-19.637 16.341-14.647 25.629 8.474 51.828 15.056 77.864 22.111 8.415 2.28 14.735 5.119 15.263 16.239 1.28 27.036 3.171 54.030 5.386 80.98 0.914 11.077-2.093 13.443-12.216 10.389-28.414-8.603-57.011-16.583-85.689-24.176-8.739-2.323-11.646-7.033-12.012-16.304-0.792-19.917-2.723-39.769-4.187-59.666zM129.133 528.405h24.39c295.663 0 591.347-0.215 887.010 0.495 19.369 0.043 24.45-4.689 24.349-25.574-0.914-163.574-0.488-327.169-0.528-490.765-0.020-53.126-22.398-76.528-73.026-76.528-288.244-0.021-576.489-0.021-864.734 0-51.645 0-73.331 23.036-73.372 78.485-0.122 141.441-2.053 282.947 0.834 424.324 1.362 66.29-11.077 128.644-27.54 191.299-11.219 42.695 5.59 72.613 45.913 84.702 0.65 0.194 1.301 0.431 1.951 0.602 281.070 80.142 562.14 160.326 843.231 240.381 45.649 13.013 73.636-4.56 86.279-53.686 8.15-31.639 15.406-63.579 24.532-94.918 4.167-14.325 1.545-19.121-12.5-23.057-165.423-46.394-330.682-93.563-495.963-140.624-123.615-35.21-247.209-70.57-370.824-105.866-6.22-1.786-13.069-2.194-19.999-9.271z" />
<glyph unicode="&#xf0083;" glyph-name="icono-pausa" d="M511.649-63.989c-282.616 0.197-511.647 229.349-511.647 511.993 0 282.766 229.227 511.993 511.993 511.993s511.993-229.227 511.993-511.993v0c-0.395-282.728-229.584-511.797-512.321-511.993h-0.020zM511.649 928.963c-265.552-0.099-480.784-215.393-480.784-480.958 0-265.626 215.332-480.958 480.958-480.958s480.958 215.332 480.958 480.958v0c-0.395 265.529-215.59 480.663-481.103 480.958h-0.028zM356.995 622.947h105.069v-349.882h-105.069v349.882zM561.583 622.947h105.069v-349.882h-105.069v349.882z" />
<glyph unicode="&#xf0084;" glyph-name="icono-podcast" horiz-adv-x="887" d="M443.438 345.661c-94.199 0-170.565-45.872-170.565-113.711-0.007-1.176-0.011-2.567-0.011-3.96 0-69.195 9.963-136.062 28.533-199.247l-1.257 4.988c10.388-31.544 21.277-57.825 33.82-83.14l-1.646 3.672c6.648-10.681 18.24-17.738 31.496-17.96h159.226c13.288 0.222 24.881 7.28 31.436 17.801l0.093 0.16c10.891 21.637 21.781 47.918 30.879 75.020l1.295 4.448c17.312 58.186 27.275 125.041 27.275 194.223 0 1.404-0.004 2.808-0.012 4.21l0.001-0.216c0 67.322-76.367 113.711-170.565 113.711zM545.777 516.227c0-56.521-45.819-102.339-102.339-102.339s-102.339 45.819-102.339 102.339c0 56.521 45.819 102.339 102.339 102.339s102.339-45.819 102.339-102.339zM443.438 959.696c-0.025 0-0.055 0-0.085 0-244.851 0-443.341-198.49-443.341-443.341 0-158.425 83.097-297.44 208.082-375.841l1.851-1.083c-3.102 26.045-4.974 56.427-5.167 87.206l-0.001 0.273c-83.331 69.231-136 172.887-136 288.843 0 206.956 167.771 374.726 374.726 374.726s374.726-167.771 374.726-374.726c0-115.957-52.668-219.611-135.387-288.347l-0.613-0.495c-0.201-31.059-2.073-61.441-5.532-91.339l0.363 3.859c126.836 79.483 209.932 218.499 209.932 376.924 0 244.851-198.49 443.341-443.341 443.341-0.075 0-0.151 0-0.226 0h0.012zM294.065 376.802c-34.22 36.494-55.24 85.723-55.24 139.862 0 113.041 91.637 204.679 204.679 204.679s204.679-91.637 204.679-204.679c0-54.139-21.019-103.369-55.343-139.974l0.103 0.111c20.465-11.859 37.855-26.49 52.352-43.643l0.239-0.29c43.996 48.278 70.94 112.762 70.94 183.54 0 150.721-122.184 272.905-272.905 272.905s-272.905-122.184-272.905-272.905c0-70.778 26.944-135.264 71.135-183.758l-0.195 0.217c14.702 17.435 32.048 32.065 51.531 43.432l0.931 0.502z" />
<glyph unicode="&#xf0085;" glyph-name="ondas-podcast" horiz-adv-x="316" d="M309.841 850.034c-49.12-51.591-88.279-113.179-114.063-181.339l-1.235-3.722c-24.297-63.318-38.369-136.563-38.369-213.097 0-79.707 15.264-155.847 43.028-225.661l-1.448 4.128c27.628-71.283 67.233-132.267 116.888-183.445l-0.13 0.135c-32.839 55.936-61.142 120.588-81.558 188.652l-1.632 6.333c-18.744 63.229-29.531 135.874-29.531 211.039 0 71.331 9.714 140.393 27.891 205.936l-1.279-5.404c21.281 74.886 49.038 140.088 83.737 200.812l-2.299-4.368zM197.171 955.991c-61.849-65.248-111.359-142.902-144.338-228.753l-1.608-4.762c-31.569-80.717-49.863-174.17-49.863-271.895 0-101.141 19.596-197.704 55.199-286.101l-1.832 5.15c36.111-90.855 87.338-168.512 151.299-233.616l-0.098 0.1c-46.781 70.383-86.381 151.367-114.722 237.465l-2.036 7.142c-26.724 81.566-42.136 175.439-42.136 272.91 0 91.147 13.476 179.148 38.545 262.116l-1.664-6.407c28.989 93.937 67.491 175.696 115.661 250.65l-2.406-4z" />
<glyph unicode="&#xf0086;" glyph-name="icono-descarga" horiz-adv-x="1198" d="M1197.996-41.647h-1197.99v561.435h66.253v-495.25h1065.484v495.25h66.253v-561.435zM638.005 449.687v487.966h-77.937v-487.966l-131.82 47.56c68.315-78.35 132.713-204.67 170.513-306.525 37.732 101.854 102.266 228.176 170.513 306.525z" />
<glyph unicode="&#xf0087;" glyph-name="icono-pausa-mini" d="M32 928h400v-960h-400zM592 928h400v-960h-400z" />
<glyph unicode="&#xf0088;" glyph-name="icono-contenido-exclusivo" horiz-adv-x="1843" d="M155.259 810.042c199.93 199.93 524.145 199.93 724.074 0 44.394-44.394 78.309-95.146 102.987-149.074h642.384l212.963-212.963-212.963-212.963-127.776 127.776-127.776-127.776-127.776 127.776-127.776-127.776h-131.271c-24.68-53.929-58.596-104.681-102.987-149.074-199.93-199.93-524.145-199.93-724.074 0s-199.93 524.145 0 724.074zM240.443 554.487c-58.821-58.821-58.821-154.142 0-212.963s154.142-58.821 212.963 0c58.821 58.821 58.821 154.142 0 212.963s-154.142 58.821-212.963 0z" />
<glyph unicode="&#xf0089;" glyph-name="icono-youtube" horiz-adv-x="1843" d="M824.211 302.079v291.84l252.723-145.92-252.723-145.92zM1387.554 682.147c-11.182 41.841-44.155 74.813-85.996 85.996-75.858 20.337-380.068 20.337-380.068 20.337s-304.21 0-380.068-20.316c-41.861-11.182-74.813-44.155-85.996-85.996-20.337-75.878-20.337-234.168-20.337-234.168s0-158.29 20.337-234.148c11.182-41.841 44.155-74.813 85.996-85.996 75.858-20.337 380.068-20.337 380.068-20.337s304.21 0 380.068 20.337c41.861 11.182 74.813 44.155 85.996 85.996 20.337 75.858 20.337 234.148 20.337 234.148s0 158.29-20.337 234.148z" />
<glyph unicode="&#xf0090;" glyph-name="F0090-message" d="M969.387 591.36c-30.72-13.653-392.533-204.8-409.6-215.040s-30.72-10.24-47.787-10.24c-17.067 0-30.72 0-47.787 10.24s-378.88 197.973-409.6 215.040c-20.48 10.24-20.48-3.413-20.48-13.653v-389.12c0-20.48 30.72-51.2 51.2-51.2h849.92c23.893 0 51.2 27.307 51.2 51.2v389.12c3.413 10.24 3.413 23.893-17.067 13.653zM64.853 697.173c27.307-13.653 385.707-208.213 399.36-215.040s30.72-10.24 47.787-10.24c17.067 0 34.133 3.413 47.787 10.24s372.053 201.387 399.36 215.040c23.893 13.653 51.2 58.027 3.413 58.027h-901.12c-44.373 0-20.48-44.373 3.413-58.027z" />
</font>
</defs>
</svg>
