<?xml version="1.0" encoding="UTF-8"?>
<svg width="24px" height="27px" viewBox="0 0 24 27" version="1.1" xmlns="http://www.w3.org/2000/svg" xmlns:xlink="http://www.w3.org/1999/xlink">
    <!-- Generator: Sketch 54.1 (76490) - https://sketchapp.com -->
    <title>Group Copy 10</title>
    <desc>Created with Sketch.</desc>
    <g id="Page-1" stroke="none" stroke-width="1" fill="none" fill-rule="evenodd">
        <g id="ubicacion/desktop_todas_ciudades" transform="translate(-386.000000, -338.000000)">
            <g id="Group-Copy-10" transform="translate(386.000000, 339.000000)">
                <path d="M3.64730115,18.3847763 L9.81452682,24.0074863 C11.2715089,25.3358288 12,26 12,26 C12,26 12.7284911,25.3358288 14.1854732,24.0074863 L20.3526989,18.3847763 C24.5584708,14.5503397 24.8594975,8.03246297 21.025061,3.82669106 C20.8114051,3.59234428 20.5870456,3.3679848 20.3526989,3.15432893 L20.3526989,3.15432893 C15.6200692,-1.16044818 8.37993085,-1.16044818 3.64730115,3.15432893 L3.64730115,3.15432893 C-0.558470763,6.9887655 -0.859497539,13.5066423 2.97493902,17.7124142 C3.18859489,17.946761 3.41295437,18.1711204 3.64730115,18.3847763 Z" id="Rectangle-3-Copy-4" fill="#F21C45"></path>
                <ellipse id="Oval-Copy-3" fill="#FFFFFF" cx="12" cy="10.7058824" rx="5.0625" ry="4.58823529"></ellipse>
            </g>
        </g>
    </g>
</svg>