<?xml version="1.0" encoding="UTF-8"?>
<svg width="100px" height="80px" viewBox="0 0 100 80" version="1.1" xmlns="http://www.w3.org/2000/svg" xmlns:xlink="http://www.w3.org/1999/xlink">
    <!-- Generator: Sketch 55.1 (78136) - https://sketchapp.com -->
    <title>Group 13</title>
    <desc>Created with Sketch.</desc>
    <g id="Symbols" stroke="none" stroke-width="1" fill="none" fill-rule="evenodd">
        <g id="Group-13">
            <g id="entretenimiento" transform="translate(11.000000, 16.000000)">
                <g id="Entretenimiento»" opacity="0.8" transform="translate(0.000000, 35.000000)" fill="#0B545C" font-family="ArialMT, Arial" font-size="10" font-weight="normal">
                    <text>
                        <tspan x="0.94329677" y="9">Entretenimiento»</tspan>
                    </text>
                </g>
                <g id="Group-27-Copy" transform="translate(23.000000, 0.000000)">
                    <path d="M29.8846154,19.1812532 L29.8846154,14.9833125 C29.8846154,14.045502 29.2278736,13.2856631 28.4173078,13.2856631 L2.96153833,13.2856631 C2.15125076,13.2856631 1.49423077,14.045502 1.49423077,14.9833125 L1.49423077,19.1812532 C2.52565758,19.1812532 3.36153611,20.1512466 3.36153611,21.3478078 C3.36153611,22.5446907 2.52565758,23.5150059 1.49423077,23.5150059 L1.49423077,27.7129467 C1.49423077,28.6504353 2.15125076,29.410596 2.96153833,29.410596 L28.4173078,29.410596 C29.2278736,29.410596 29.8846154,28.6504353 29.8846154,27.7129467 L29.8846154,23.5150059 C28.8531886,23.5150059 28.0170319,22.5446907 28.0170319,21.3478078 C28.0170319,20.1512466 28.8531886,19.1812532 29.8846154,19.1812532 Z" id="Stroke-26" stroke="#000325" stroke-width="0.718918919" fill="#FFFFFF" fill-rule="nonzero"></path>
                    <path d="M28.8815069,11.0770272 L28.8790429,7.37774428 C28.8784925,6.55133287 28.2527633,5.88133647 27.4810245,5.88082306 L3.2446132,5.86469889 C2.47313926,5.86418624 1.8480372,6.53335051 1.84858692,7.35976192 L1.85105159,11.0590449 C2.83307197,11.0596982 3.62948036,11.9149991 3.63018267,12.9694252 C3.63088518,14.0241349 2.83561563,14.8786605 1.85359525,14.8780072 L1.8560592,18.5772901 C1.85660945,19.4034179 2.48260366,20.0736981 3.2540776,20.0742113 L27.4904889,20.0903355 C28.2622277,20.0908483 28.8870647,19.4214003 28.8865152,18.5952725 L28.8840505,14.8959895 C27.9020302,14.8953362 27.1053567,14.0397516 27.1046542,12.9850419 C27.1039519,11.9306158 27.8994865,11.0763739 28.8815069,11.0770272 Z" id="Stroke-26" fill="#FFFFFF" fill-rule="nonzero" transform="translate(15.367551, 12.977517) rotate(-24.000000) translate(-15.367551, -12.977517) "></path>
                    <path d="M29.8846154,19.1812532 L29.8846154,14.9833125 C29.8846154,14.045502 29.2278736,13.2856631 28.4173078,13.2856631 L2.96153833,13.2856631 C2.15125076,13.2856631 1.49423077,14.045502 1.49423077,14.9833125 L1.49423077,19.1812532 C2.52565758,19.1812532 3.36153611,20.1512466 3.36153611,21.3478078 C3.36153611,22.5446907 2.52565758,23.5150059 1.49423077,23.5150059 L1.49423077,27.7129467 C1.49423077,28.6504353 2.15125076,29.410596 2.96153833,29.410596 L28.4173078,29.410596 C29.2278736,29.410596 29.8846154,28.6504353 29.8846154,27.7129467 L29.8846154,23.5150059 C28.8531886,23.5150059 28.0170319,22.5446907 28.0170319,21.3478078 C28.0170319,20.1512466 28.8531886,19.1812532 29.8846154,19.1812532 Z" id="Stroke-26" stroke="#000325" stroke-width="0.718918919" fill="#FFFFFF" fill-rule="nonzero"></path>
                    <path d="M10.8331731,13.2856631 C13.8034214,13.2856631 18.2933829,13.2856631 21.4175509,11.4530117 C22.1906937,10.9994826 22.9903065,10.4846767 23.478538,9.72783155 C24.2602138,8.51609613 24.2863644,5.65005618 23.5569898,1.12971172 C24.3018685,0.748043387 25.0952015,1.23008124 25.9369887,2.57582526 C26.7787759,3.92156929 26.7787759,5.704653 25.9369887,7.92507639 L28.6515832,9.44639341 L29.8846154,13.3524331 L10.8331731,13.2856631 Z" id="Path-6" fill-opacity="0.2" fill="#3A9CFF" fill-rule="nonzero"></path>
                    <path d="M2.12699507,13.64856 L9.40378449,13.2856631 C6.52622289,14.3268881 5.08744209,16.2920847 5.08744209,19.1812532 C5.08744209,23.5150059 6.05509503,25.3120801 9.92590363,26.3396915 C12.5064427,27.0247657 13.9295389,28.0484006 14.1951923,29.410596 L2.12699507,29.410596 C1.7051522,26.47879 1.49423077,25.0128871 1.49423077,25.0128871 C1.49423077,25.0128871 1.49423077,24.5135934 1.49423077,23.5150059 L3.18383351,21.9672732 L2.7445998,19.5785003 L1.49423077,19.1812532 L1.49423077,14.9833125 L2.12699507,13.64856 Z" id="Path-9" fill-opacity="0.2" fill="#3A9CFF" fill-rule="nonzero"></path>
                    <path d="M29.4937045,14.0379271 C29.8767271,13.6054659 30.0019617,12.9538833 29.7628775,12.3751484 L28.33786,8.92442023 C27.4181178,9.35630328 26.3430523,8.90909908 25.9369887,7.92507639 C25.530654,6.94134278 25.9470183,5.79341267 26.8670315,5.36152962 L25.442014,1.9108014 C25.1237772,1.13982946 24.2799348,0.790333737 23.5569898,1.12971172 L0.854023388,11.7909211 C0.131349472,12.13001 -0.196645816,13.0304891 0.121590935,13.8011719 L1.49423077,16.3570789" id="Stroke-30" stroke="#000325" stroke-width="0.718918919"></path>
                    <path d="M14.0552718,18.020194 L14.6879464,19.4055214 C14.7237532,19.4839254 14.7965111,19.5391318 14.8816607,19.5525057 L16.3270861,19.7795295 C16.4671716,19.8015318 16.5628969,19.93293 16.5408946,20.0730155 C16.5328165,20.1244475 16.5092939,20.1722087 16.4734466,20.2099644 L15.4032705,21.3371128 C15.3482784,21.3950325 15.3233709,21.4752444 15.3358835,21.5541257 L15.5849977,23.1245794 C15.6072136,23.2646312 15.5116886,23.3961751 15.3716368,23.4183909 C15.3141198,23.4275146 15.2552097,23.4168141 15.2045754,23.3880458 L13.9485757,22.6744398 C13.8699265,22.6297547 13.7735664,22.6297522 13.6949149,22.6744332 L12.4386766,23.3880878 C12.3153802,23.458131 12.1586475,23.4149609 12.0886043,23.2916645 C12.0598409,23.2410327 12.0491429,23.1821272 12.0582659,23.1246147 L12.3073857,21.5541257 C12.3198983,21.4752444 12.2949909,21.3950325 12.2399988,21.3371128 L11.1698227,20.2099644 C11.0721855,20.1071294 11.0763992,19.9446146 11.1792342,19.8469775 C11.2169898,19.8111302 11.264751,19.7876076 11.3161831,19.7795295 L12.7616236,19.5525033 C12.8467649,19.5391307 12.9195175,19.4839336 12.9553281,19.4055406 L13.5881755,18.0201725 C13.6470956,17.8911901 13.7994208,17.8343935 13.9284032,17.8933137 C13.9845753,17.9189735 14.0296171,17.9640195 14.0552718,18.020194 Z" id="Stroke-34" stroke="#3A9CFF" stroke-width="0.718918919" fill="#3A9CFF" fill-rule="nonzero"></path>
                    <path d="M23.9076923,13.2856631 L23.9076923,29.410596" id="Path-8" stroke="#000325" stroke-width="0.718918919" stroke-linecap="round" stroke-linejoin="round" stroke-dasharray="1.848648452758789"></path>
                    <path d="M20.078726,4.07141579 L23.9076923,13.2856631" id="Path-8-Copy" stroke="#000325" stroke-width="0.718918919" stroke-linecap="round" stroke-linejoin="round" stroke-dasharray="1.848648452758789"></path>
                </g>
            </g>
            <rect id="Rectangle" stroke="#FFFFFF" fill-opacity="0" fill="#FFFFFF" x="0.5" y="0.5" width="99" height="79"></rect>
        </g>
    </g>
</svg>