<?xml version="1.0" encoding="UTF-8"?>
<svg width="100px" height="80px" viewBox="0 0 100 80" version="1.1" xmlns="http://www.w3.org/2000/svg" xmlns:xlink="http://www.w3.org/1999/xlink">
    <!-- Generator: Sketch 55.1 (78136) - https://sketchapp.com -->
    <title>Group 14</title>
    <desc>Created with Sketch.</desc>
    <g id="Symbols" stroke="none" stroke-width="1" fill="none" fill-rule="evenodd">
        <g id="Group-14">
            <g id="gastronomia" transform="translate(19.000000, 18.000000)">
                <g id="Gastronomía»" opacity="0.799990699" transform="translate(0.000000, 34.000000)" fill="#0B545C" font-family="ArialMT, Arial" font-size="10" font-weight="normal">
                    <text>
                        <tspan x="0.81787109" y="9">Gastronomía»</tspan>
                    </text>
                </g>
                <g id="Group-5-Copy-2" transform="translate(19.000000, 0.000000)">
                    <path d="M6.69853932,27.5750303 C8.5754254,27.5623954 15.7769371,24.5421319 9.37555537,14.8251176 C8.88932254,14.2133329 9.6959493,10.5565742 11.4316159,9.18274889 C13.1607856,7.80155027 13.0195661,3.71076318 10.7918538,0.684919877 C10.4895825,0.347740816 9.48052969,-0.668977605 9.50480714,0.728163291 C9.54207815,2.13048543 9.61012339,6.08695887 9.61012339,6.08695887 C9.61012339,6.08695887 9.62209115,6.57140468 8.62534804,6.57140468 C7.62792106,6.57658592 7.56055969,6.10509321 7.56055969,6.10509321 C7.56055969,6.10509321 7.40019176,1.25545395 7.40019176,0.810664551 C7.38822401,0.367668657 6.72281677,0 6.2123065,0 L6.16306773,0.00358701129 C5.65221551,0.00358701129 4.99980185,0.383810208 5.01211154,0.828599607 C5.01826638,1.27338901 5.05485352,6.11744847 5.05485352,6.11744847 C5.05485352,6.11744847 5.00595669,6.59272747 4.00887165,6.60368778 C3.01178661,6.60707551 3.01178661,6.126416 3.01178661,6.126416 C3.01178661,6.126416 2.9259607,2.17372884 2.89484453,0.773000932 C2.87603806,-0.624339242 1.89775949,0.408919287 1.61463658,0.745899069 C-0.496475579,3.80223196 -0.472198131,7.89680535 1.30689428,9.24711582 C3.09795445,10.6012126 4.04545879,14.2474096 3.59034213,14.8643755 C-2.42294236,24.6676773 4.90132431,27.5875045 6.77821039,27.5750303 L6.69853932,27.5750303 Z" id="Stroke-7" fill="#FFFFFF" fill-rule="nonzero"></path>
                    <path d="M26.2868484,10.0509864 C28.0126688,8.74354182 28.4301055,5.09017245 21.6950446,0.626827082 C21.3959855,0.309310326 17.7203964,-0.64246927 17.7574327,0.689251492 L18.0627222,15.4437619 C18.0627222,15.4437619 18.1125654,19.6747497 17.2839224,20.6906878 C16.4680863,21.7052771 14.2808703,27.6007232 21.6019348,27.5750743 C23.5018602,27.5436935 30.5982842,24.6513625 24.2432776,15.4350918 C23.7697673,14.847262 24.5734888,11.3671011 26.2868484,10.0509864 Z" id="Stroke-9" fill="#FFFFFF" fill-rule="nonzero"></path>
                    <path d="M26.496245,21.0347839 C26.106939,22.113156 25.0683933,22.8363548 23.3806078,23.2043804 C20.8489296,23.7564188 20.0682886,23.0085353 20.0682886,21.2985628 C20.0682886,19.5885902 20.5569501,17.4867235 20.5569501,15.010915 C20.5569501,12.5351065 20.5569501,7.30461427 20.5569501,5.65992343 C20.5569501,4.01523259 20.570594,0.834789744 20.0682886,0.417394872 C19.7334183,0.139131624 19.1157344,-3.55271368e-15 18.215237,-3.55271368e-15 L17.5771222,1.10020066 L18.0627222,15.4437619 L17.5771222,19.7844353 L16.3357372,22.6105209 C16.1066016,24.5738681 16.3371485,25.7732153 17.027378,26.2085627 C18.0627222,26.8615837 20.3262632,27.7641032 22.2607584,27.3128434 C24.1952536,26.8615837 26.1431828,25.4308944 26.496245,24.647106 C26.7316197,24.1245804 26.8537851,23.2201568 26.8627411,21.9338353 L26.496245,21.0347839 Z" id="Path-14" fill-opacity="0.2" fill="#D43131" fill-rule="nonzero"></path>
                    <path d="M2.57932692,-1.42108547e-14 L2.9498113,2.6912381 L2.9498113,6.36047767 L4.83665779,6.36047767 L5.24387575,0.298663779 L6.58496622,-1.42108547e-14 L7.52471611,1.17731467 L7.52471611,6.06364994 C7.83019954,6.98588997 7.61469588,8.02488903 6.87820513,9.18064713 C5.773469,10.9142843 6.02507652,12.516542 6.30502137,13.7874951 C6.58496622,15.0584482 7.36697163,15.8006196 6.39930422,18.0389659 C5.43163681,20.2773122 3.9000565,20.8889201 4.35471324,23.1745956 C4.80936999,25.4602712 7.21909274,25.4247743 8.4816783,25.4247743 C9.32340201,25.4247743 9.90260308,25.4247743 10.2192815,25.4247743 L8.4816783,26.9743986 C7.86371456,27.4684771 7.16958987,27.6686744 6.39930422,27.5749903 C5.24387575,27.4344641 3.30854093,26.220191 2.57932692,25.4247743 C1.85011292,24.6293575 0.78546886,22.764749 1.31779089,20.3662585 C1.85011292,17.967768 3.59034213,15.6260676 3.59034213,14.8643755 C3.59034213,14.1026833 3.45106722,12.054062 2.57932692,10.8667511 C1.70758663,9.67944013 -7.54951657e-14,8.21876208 -7.54951657e-14,6.83540205 C-7.54951657e-14,5.45204201 0.19689198,3.40954081 0.757341434,2.29342774 C1.1309744,1.54935236 1.45227077,0.884431037 1.72123053,0.298663779 L2.57932692,-1.42108547e-14 Z" id="Path-15" fill-opacity="0.2" fill="#D43131" fill-rule="nonzero"></path>
                    <g id="Group-9-Copy-4" stroke="#000325" stroke-width="0.95">
                        <g id="Group">
                            <path d="M6.69853932,27.5750303 C8.5754254,27.5623954 15.7769371,24.5421319 9.37555537,14.8251176 C8.88932254,14.2133329 9.6959493,10.5565742 11.4316159,9.18274889 C13.1607856,7.80155027 13.0195661,3.71076318 10.7918538,0.684919877 C10.4895825,0.347740816 9.48052969,-0.668977605 9.50480714,0.728163291 C9.54207815,2.13048543 9.61012339,6.08695887 9.61012339,6.08695887 C9.61012339,6.08695887 9.62209115,6.57140468 8.62534804,6.57140468 C7.62792106,6.57658592 7.56055969,6.10509321 7.56055969,6.10509321 C7.56055969,6.10509321 7.40019176,1.25545395 7.40019176,0.810664551 C7.38822401,0.367668657 6.72281677,0 6.2123065,0 L6.16306773,0.00358701129 C5.65221551,0.00358701129 4.99980185,0.383810208 5.01211154,0.828599607 C5.01826638,1.27338901 5.05485352,6.11744847 5.05485352,6.11744847 C5.05485352,6.11744847 5.00595669,6.59272747 4.00887165,6.60368778 C3.01178661,6.60707551 3.01178661,6.126416 3.01178661,6.126416 C3.01178661,6.126416 2.9259607,2.17372884 2.89484453,0.773000932 C2.87603806,-0.624339242 1.89775949,0.408919287 1.61463658,0.745899069 C-0.496475579,3.80223196 -0.472198131,7.89680535 1.30689428,9.24711582 C3.09795445,10.6012126 4.04545879,14.2474096 3.59034213,14.8643755 C-2.42294236,24.6676773 4.90132431,27.5875045 6.77821039,27.5750303 L6.69853932,27.5750303 Z" id="Stroke-7"></path>
                            <path d="M26.2868484,10.0509864 C28.0126688,8.74354182 28.4301055,5.09017245 21.6950446,0.626827082 C21.3959855,0.309310326 17.7203964,-0.64246927 17.7574327,0.689251492 L18.0627222,15.4437619 C18.0627222,15.4437619 18.1125654,19.6747497 17.2839224,20.6906878 C16.4680863,21.7052771 14.2808703,27.6007232 21.6019348,27.5750743 C23.5018602,27.5436935 30.5982842,24.6513625 24.2432776,15.4350918 C23.7697673,14.847262 24.5734888,11.3671011 26.2868484,10.0509864 Z" id="Stroke-9"></path>
                        </g>
                    </g>
                    <ellipse id="Oval" fill="#D43131" fill-rule="nonzero" cx="6.44831731" cy="22.1435528" rx="2.1494391" ry="2.08901441"></ellipse>
                </g>
            </g>
            <rect id="Rectangle" stroke="#FFFFFF" fill-opacity="0" fill="#FFFFFF" x="0.5" y="0.5" width="99" height="79"></rect>
        </g>
    </g>
</svg>