<?xml version="1.0" encoding="UTF-8"?>
<svg width="100px" height="80px" viewBox="0 0 100 80" version="1.1" xmlns="http://www.w3.org/2000/svg" xmlns:xlink="http://www.w3.org/1999/xlink">
    <!-- Generator: Sketch 55.1 (78136) - https://sketchapp.com -->
    <title>Group 16</title>
    <desc>Created with Sketch.</desc>
    <g id="Symbols" stroke="none" stroke-width="1" fill="none" fill-rule="evenodd">
        <g id="Group-16">
            <g id="hogar" transform="translate(8.000000, 18.000000)">
                <g id="Hogar-y-servicios»" opacity="0.8" transform="translate(0.000000, 34.000000)" fill="#0B545C" font-family="ArialMT, Arial" font-size="10" font-weight="normal">
                    <text>
                        <tspan x="0.87451172" y="9">Hogar y servicios»</tspan>
                    </text>
                </g>
                <g id="Group-28-Copy" transform="translate(28.000000, 0.000000)" fill-rule="nonzero">
                    <path d="M13.6434251,16.1051987 C15.7417725,15.9897111 17.5364404,17.5971366 17.651928,19.695484 C17.6527756,19.7108835 17.6535295,19.726288 17.6541897,19.7416967 L18.025641,28.410596 L9.48717949,28.410596 L9.69873322,20.1672941 C9.75455028,17.9923528 11.4710555,16.2247604 13.6434251,16.1051987 Z" id="Rectangle-Copy" fill="#9741FF"></path>
                    <path d="M23.7642034,9.98541532 L23.7642034,1.58302264 C23.7642034,1.39843156 23.6145628,1.24879092 23.4299717,1.24879092 L19.0939708,1.24879092 C18.9093797,1.24879092 18.7597391,1.39843156 18.7597391,1.58302264 L18.7597391,4.99440798 L13.9936423,0.235729078 C13.8631811,0.105470985 13.651885,0.105445549 13.5213925,0.235672229 L0.57197522,13.1587109 C0.441316601,13.2891034 0.441100838,13.5007271 0.571493298,13.6313857 C0.634193383,13.6942138 0.7193098,13.729521 0.808071654,13.729521 L2.50109668,13.729521 L2.50109668,27.1293444 C2.50109668,27.3139355 2.65073732,27.4635762 2.83532841,27.4635762 L9.67242598,27.4635762 C9.85701707,27.4635762 10.0066577,27.3139355 10.0066577,27.1293444 L10.0066577,19.9749661 C10.0066577,17.904035 11.6854791,16.2252136 13.7564103,16.2252136 C15.8273414,16.2252136 17.5061628,17.904035 17.5061628,19.9749661 L17.5061628,27.1293444 C17.5061628,27.3139355 17.6558034,27.4635762 17.8403945,27.4635762 L24.6759781,27.4635762 C24.8605692,27.4635762 25.0102098,27.3139355 25.0102098,27.1293444 L25.0102098,13.729521 L26.7052262,13.729521 C26.8898173,13.729521 27.0394579,13.5798803 27.0394579,13.3952893 C27.0394579,13.3065758 27.004189,13.2215016 26.9414213,13.1588095 L23.7642034,9.98541532 Z" id="Stroke-25-Copy-4" stroke="#000325" stroke-width="0.959368836" fill="#FFFFFF"></path>
                    <path d="M14.5957538,1.1550261 L14.2274734,0 L0.948717949,12.8785027 L1.63241195,13.5205298 L2.76423066,13.5205298 L2.76423066,27.4635762 L10.0980487,27.4635762 C7.39499048,26.3567485 6.04346136,24.2613834 6.04346136,21.1774808 C6.04346136,16.5516268 8.37524873,16.8090786 11.6274461,13.5205298 C11.6274461,13.5205298 11.6274461,13.5205298 11.6274461,13.5205298 C14.8402139,10.2718513 15.9837425,5.50810269 14.5957538,1.1550261 Z" id="Path-12" fill-opacity="0.2" fill="#9741FF"></path>
                    <rect id="Rectangle" fill="#9741FF" x="4.74358974" y="12.3112583" width="3.79487179" height="3.78807947" rx="0.557052873"></rect>
                </g>
            </g>
            <rect id="Rectangle" stroke="#FFFFFF" fill-opacity="0" fill="#FFFFFF" x="0.5" y="0.5" width="99" height="79"></rect>
        </g>
    </g>
</svg>