<?xml version="1.0" encoding="UTF-8"?>
<svg width="100px" height="80px" viewBox="0 0 100 80" version="1.1" xmlns="http://www.w3.org/2000/svg" xmlns:xlink="http://www.w3.org/1999/xlink">
    <!-- Generator: Sketch 55.1 (78136) - https://sketchapp.com -->
    <title>Group 18</title>
    <desc>Created with Sketch.</desc>
    <g id="Symbols" stroke="none" stroke-width="1" fill="none" fill-rule="evenodd">
        <g id="Group-18">
            <g id="salud" transform="translate(7.000000, 16.000000)">
                <g id="Salud-y-Bienestar»" opacity="0.799990699" transform="translate(0.000000, 34.000000)" fill="#0B545C" font-family="ArialMT, Arial" font-size="10" font-weight="normal">
                    <text>
                        <tspan x="0.88875952" y="9">Salud y Bienestar»</tspan>
                    </text>
                </g>
                <g id="Group-7-Copy-3" transform="translate(26.000000, 0.000000)">
                    <g id="Group-14-Copy-5">
                        <g id="Group-14-Copy-3">
                            <path d="M27.1914287,3.15673289 C25.2793704,-0.81543013 19.4555675,-0.81543013 15.119627,2.91361929 L15.1105296,2.91361929 C2.88088214,-7.6458258 -11.6786219,12.7257149 15.1105296,28.410596 L15.119627,28.410596 C20.3795324,25.0855728 23.957593,21.5555673 26.219336,18.1465277 L27.1914287,3.15673289 Z" id="Stroke-24" fill="#FFFFFF" fill-rule="nonzero"></path>
                            <path d="M23.4387816,21.629954 C19.9881409,22.4617351 16.1272294,21.8989937 11.8560471,19.9417296 C5.44927363,17.0058335 2.99869277,9.72031202 4.50598562,5.89659432 C6.15164993,1.7218543 10.700095,1.0658141e-14 8.99170444,1.0658141e-14 C8.99170444,1.0658141e-14 2.27798853,0.139003863 0.821481036,5.19919288 C-0.635026459,10.2593819 0.195011671,13.7653059 3.1953991,18.033229 C6.19578652,22.301152 13.1040637,27.0830531 14.1615404,27.7468246 C14.8665249,28.1893389 15.6801994,28.1893389 16.6025641,27.7468246 L21.2143875,23.8810599 L23.4387816,21.629954 Z" id="Path-16" fill-opacity="0.2" fill="#48C7AC" fill-rule="nonzero"></path>
                            <path d="M27.1914287,3.15673289 C25.2793704,-0.81543013 19.4555675,-0.81543013 15.119627,2.91361929 L15.1105296,2.91361929 C2.88088214,-7.6458258 -11.6786219,12.7257149 15.1105296,28.410596 L15.119627,28.410596 C20.3795324,25.0855728 23.957593,21.5555673 26.219336,18.1465277 L27.1914287,3.15673289 Z" id="Stroke-24" stroke="#000325" stroke-width="1.06875"></path>
                            <path d="M32.5574009,7.94422795 L28.8170214,7.94422795 C28.4592915,7.94422795 28.1692941,7.65423057 28.1692941,7.29650067 L28.1692941,3.80446016 C28.1692941,3.44673027 27.8792967,3.15673289 27.5215668,3.15673289 L23.9496953,3.15673289 C23.5919654,3.15673289 23.301968,3.44673027 23.301968,3.80446016 L23.301968,7.29650067 C23.301968,7.65423057 23.0119706,7.94422795 22.6542407,7.94422795 L18.9105478,7.94422795 C18.5528179,7.94422795 18.2628205,8.23422532 18.2628205,8.59195522 L18.2628205,11.9280479 C18.2628205,12.2857778 18.5528179,12.5757752 18.9105478,12.5757752 L22.6542407,12.5757752 C23.0119706,12.5757752 23.301968,12.8657725 23.301968,13.2235024 L23.301968,16.7143036 C23.301968,17.0720335 23.5919654,17.3620309 23.9496953,17.3620309 L27.5215668,17.3620309 C27.8792967,17.3620309 28.1692941,17.0720335 28.1692941,16.7143036 L28.1692941,13.2235024 C28.1692941,12.8657725 28.4592915,12.5757752 28.8170214,12.5757752 L32.5574009,12.5757752 C32.9151308,12.5757752 33.2051282,12.2857778 33.2051282,11.9280479 L33.2051282,8.59195522 C33.2051282,8.23422532 32.9151308,7.94422795 32.5574009,7.94422795 Z" id="Stroke-23" stroke="#48C7AC" stroke-width="1.04931818" fill="#48C7AC" fill-rule="nonzero"></path>
                        </g>
                    </g>
                </g>
            </g>
            <rect id="Rectangle" stroke="#FFFFFF" fill-opacity="0" fill="#FFFFFF" x="0.5" y="0.5" width="99" height="79"></rect>
        </g>
    </g>
</svg>