<?xml version="1.0" encoding="UTF-8"?>
<svg width="100px" height="80px" viewBox="0 0 100 80" version="1.1" xmlns="http://www.w3.org/2000/svg" xmlns:xlink="http://www.w3.org/1999/xlink">
    <!-- Generator: Sketch 55.1 (78136) - https://sketchapp.com -->
    <title>Group 12</title>
    <desc>Created with Sketch.</desc>
    <g id="Symbols" stroke="none" stroke-width="1" fill="none" fill-rule="evenodd">
        <g id="Group-12">
            <rect id="Rectangle" stroke="#FFFFFF" fill-opacity="0" fill="#FFFFFF" x="0.5" y="0.5" width="99" height="79"></rect>
            <g id="Group-3-Copy-2" transform="translate(35.000000, 18.000000)">
                <g id="Turismo»" opacity="0.799990699" transform="translate(0.000000, 34.000000)" fill="#0B545C" font-family="ArialMT, Arial" font-size="10" font-weight="normal">
                    <text>
                        <tspan x="0.59173427" y="9">Turismo»</tspan>
                    </text>
                </g>
                <g id="Group-4-Copy-5" transform="translate(7.000000, 0.000000)">
                    <g id="Group-4-Copy-3">
                        <g id="Group-4-Copy">
                            <path d="M17.0993958,10.1551803 L17.979424,10.1551803 C18.562785,10.1551803 18.2518941,8.44273331 18.2518941,8.26325098 C18.2518941,8.08376865 17.7068548,8.26325098 16.6272102,8.26325098 L15.4929288,8.26325098 L14.2673965,6.4818307 L15.494135,6.4818307 C15.5864705,6.4818307 15.4953413,5.01048155 15.494135,4.77366871 C15.4929288,4.53685587 15.0245326,4.53685587 14.2673965,4.53685587 L12.6131176,4.53685587 C10.7042467,2.07174694 9.50072092,0.836282931 8.99855622,0.836282931 C8.76729865,0.836282931 8.51384492,0.929570101 8.24730113,1.11450783 C7.97316891,1.28962585 7.83923302,1.48438327 7.83923302,1.68768748 C7.83923302,1.89390122 8.1264553,2.42616545 8.70089984,3.27884291 C9.27989745,4.1358847 10.1165224,5.73722353 11.2124822,8.08376865 C12.3099596,10.4234036 12.8591726,11.8408958 12.8591726,12.3324264 C12.8591726,12.6415652 12.3716157,12.8152285 11.389103,12.8434146 C8.16781227,12.8632359 5.85504692,13.0128954 4.45441149,13.2811188 C4.28917331,13.1498257 3.88869364,12.650112 3.25240334,11.7957979 C2.60852461,10.9414838 2.17560438,10.4290408 1.93391272,10.2681068 C1.69241077,10.106991 1.26954522,10.0251601 0.656968781,10.0251601 C0.329907222,10.0251601 0.11192942,10.0704399 0,10.1551803 C0,10.5363302 0.483003903,11.9145436 1.44939113,14.2836376 C0.483003903,16.4368801 0,17.8107292 0,18.405003 C0.11192942,18.4939258 0.329907222,18.5392056 0.656968781,18.5392056 C1.26954522,18.5392056 1.69241077,18.4601024 1.926514,18.302078 C2.16080693,18.1451446 2.60283329,17.6383388 3.24348693,16.7771146 C3.88584797,15.9171633 4.28917331,15.4159948 4.45441149,15.2805192 C5.85504692,15.5232841 7.47252189,15.6560319 9.31802934,15.6743984 C11.1549998,15.6956744 12.2111203,15.7478643 12.4689374,15.8311499 C12.7296001,15.911526 12.8591726,16.0457286 12.8591726,16.2335759 C12.8591726,16.7134684 12.3099596,18.1296876 11.2124822,20.4749598 C10.1165224,22.8231416 9.27989745,24.4255715 8.70089984,25.2813403 C8.1264553,26.1369273 7.83923302,26.6664639 7.83923302,26.8724958 C7.83923302,27.0799824 7.97316891,27.2665568 8.24730113,27.448585 C8.51384492,27.6207934 8.76729865,27.7111711 8.99855622,27.7111711 C9.50072092,27.7111711 10.7042467,26.4813443 12.6131176,24.0289646 L14.2673965,24.0289646 C15.0245326,24.0289646 15.9520687,24.1636823 15.9520687,23.6159611 C15.9520687,23.1402511 16.0305694,22.1722212 15.4929288,22.1722212 L13.9079665,22.1722212 L15.4929288,20.298387 L16.6272102,20.298387 C17.5966135,20.298387 18.7137141,20.5397594 18.7137141,19.9962207 C18.7137141,19.5119639 18.8352551,18.5392056 18.2518941,18.5392056 L16.8873306,18.5392056 L19.414063,15.6589415 L22.9671581,15.6589415 C25.9953232,15.6589415 27.5128205,15.1774124 27.5128205,14.2088988 C27.5128205,13.8261122 26.904228,13.5155187 25.6802134,13.2712991 C24.4620798,13.0256247 23.5592458,12.9041513 22.9671581,12.9041513 L19.414063,12.9041513 L17.0993958,10.1551803 Z" id="Stroke-22-Copy-4" fill="#FFFFFF" fill-rule="nonzero"></path>
                            <path d="M19.5526031,15.185741 C19.5526031,15.185741 19.5526031,15.185741 19.5526031,15.185741 C17.3538028,15.185741 15.3079685,16.3110799 14.1306731,18.168147 L8.24730113,27.448585 L9.62368935,27.1589622 L16.0213817,18.8137384 C18.5451815,16.3950735 19.7222553,15.185741 19.5526031,15.185741 Z" id="Path-2" fill-opacity="0.4" fill="#FFE161" fill-rule="nonzero"></path>
                            <path d="M19.5133645,0.698280702 C19.3970891,0.698233656 18.8178976,0.688747581 17.7757901,0.669822475 C16.7023627,0.650327845 15.6961879,1.19100088 15.1200294,2.09690805 L8.21322178,12.9566391 C8.15689774,13.7814347 9.03103565,13.2021248 10.8356355,11.2187095 C12.6402353,9.23529419 14.465237,6.84801022 16.3106405,4.05685763 C18.6154408,1.81787499 19.6830155,0.698349343 19.5133645,0.698280702 Z" id="Path-2-Copy" fill-opacity="0.4" fill="#FFE161" fill-rule="nonzero" transform="translate(13.870738, 6.994663) scale(-1, 1) rotate(179.000000) translate(-13.870738, -6.994663) "></path>
                            <path d="M12.5083922,4.51233031 L14.4446146,4.51233031 L15.4030058,5.3588013 L15.4030058,6.4818307 L13.7564103,6.4818307 C12.3861825,5.04736301 11.6144938,4.18647743 11.4413441,3.89917396 C11.2681944,3.61187049 11.6238771,3.81625594 12.5083922,4.51233031 Z" id="Path-13" fill="#FFE161" fill-rule="nonzero"></path>
                            <path d="M15.5066551,8.25832798 L17.2963362,8.25832798 L18.3564019,9.18654389 L17.458719,9.97460231 L16.3912004,9.97460231 C15.7931568,9.44923003 15.1606531,8.60670605 14.4936891,7.44703038 C13.8267251,6.2873547 14.1643805,6.55778724 15.5066551,8.25832798 Z" id="Path-13-Copy" fill="#FFE161" fill-rule="nonzero"></path>
                            <path d="M15.8940062,19.0517716 L18.3564019,19.3232388 L18.4889562,20.1697098 L18.3564019,20.6703451 L16.2589971,20.6703451 C15.474657,19.8148396 15.0824869,19.1895377 15.0824869,18.7944393 C15.0824869,18.399341 15.3529934,18.4851184 15.8940062,19.0517716 Z" id="Path-13-Copy-2" fill="#FFE161" fill-rule="nonzero" transform="translate(16.785722, 19.610659) scale(-1, 1) rotate(-180.000000) translate(-16.785722, -19.610659) "></path>
                            <path d="M12.9177169,23.0663171 L15.494135,22.8441905 L15.8940062,24.6314448 L14.6825519,24.6314448 L13.4009153,24.6314448 C12.7080203,23.5880263 12.1714514,22.8427931 11.7912088,22.395745 C11.4109661,21.948697 11.7864688,22.172221 12.9177169,23.0663171 Z" id="Path-13-Copy-3" fill="#FFE161" fill-rule="nonzero" transform="translate(13.770865, 23.401833) scale(-1, 1) rotate(-180.000000) translate(-13.770865, -23.401833) "></path>
                            <path d="M17.0993958,10.1551803 L17.979424,10.1551803 C18.562785,10.1551803 18.2518941,8.44273331 18.2518941,8.26325098 C18.2518941,8.08376865 17.7068548,8.26325098 16.6272102,8.26325098 L15.4929288,8.26325098 L14.2673965,6.4818307 L15.494135,6.4818307 C15.5864705,6.4818307 15.4953413,5.01048155 15.494135,4.77366871 C15.4929288,4.53685587 15.0245326,4.53685587 14.2673965,4.53685587 L12.6131176,4.53685587 C10.7042467,2.07174694 9.50072092,0.836282931 8.99855622,0.836282931 C8.76729865,0.836282931 8.51384492,0.929570101 8.24730113,1.11450783 C7.97316891,1.28962585 7.83923302,1.48438327 7.83923302,1.68768748 C7.83923302,1.89390122 8.1264553,2.42616545 8.70089984,3.27884291 C9.27989745,4.1358847 10.1165224,5.73722353 11.2124822,8.08376865 C12.3099596,10.4234036 12.8591726,11.8408958 12.8591726,12.3324264 C12.8591726,12.6415652 12.3716157,12.8152285 11.389103,12.8434146 C8.16781227,12.8632359 5.85504692,13.0128954 4.45441149,13.2811188 C4.28917331,13.1498257 3.88869364,12.650112 3.25240334,11.7957979 C2.60852461,10.9414838 2.17560438,10.4290408 1.93391272,10.2681068 C1.69241077,10.106991 1.26954522,10.0251601 0.656968781,10.0251601 C0.329907222,10.0251601 0.11192942,10.0704399 0,10.1551803 C0,10.5363302 0.483003903,11.9145436 1.44939113,14.2836376 C0.483003903,16.4368801 0,17.8107292 0,18.405003 C0.11192942,18.4939258 0.329907222,18.5392056 0.656968781,18.5392056 C1.26954522,18.5392056 1.69241077,18.4601024 1.926514,18.302078 C2.16080693,18.1451446 2.60283329,17.6383388 3.24348693,16.7771146 C3.88584797,15.9171633 4.28917331,15.4159948 4.45441149,15.2805192 C5.85504692,15.5232841 7.47252189,15.6560319 9.31802934,15.6743984 C11.1549998,15.6956744 12.2111203,15.7478643 12.4689374,15.8311499 C12.7296001,15.911526 12.8591726,16.0457286 12.8591726,16.2335759 C12.8591726,16.7134684 12.3099596,18.1296876 11.2124822,20.4749598 C10.1165224,22.8231416 9.27989745,24.4255715 8.70089984,25.2813403 C8.1264553,26.1369273 7.83923302,26.6664639 7.83923302,26.8724958 C7.83923302,27.0799824 7.97316891,27.2665568 8.24730113,27.448585 C8.51384492,27.6207934 8.76729865,27.7111711 8.99855622,27.7111711 C9.50072092,27.7111711 10.7042467,26.4813443 12.6131176,24.0289646 L14.2673965,24.0289646 C15.0245326,24.0289646 15.9520687,24.1636823 15.9520687,23.6159611 C15.9520687,23.1402511 16.0305694,22.1722212 15.4929288,22.1722212 L13.9079665,22.1722212 L15.4929288,20.298387 L16.6272102,20.298387 C17.5966135,20.298387 18.7137141,20.5397594 18.7137141,19.9962207 C18.7137141,19.5119639 18.8352551,18.5392056 18.2518941,18.5392056 L16.8873306,18.5392056 L19.414063,15.6589415 L22.9671581,15.6589415 C25.9953232,15.6589415 27.5128205,15.1774124 27.5128205,14.2088988 C27.5128205,13.8261122 26.904228,13.5155187 25.6802134,13.2712991 C24.4620798,13.0256247 23.5592458,12.9041513 22.9671581,12.9041513 L19.414063,12.9041513 L17.0993958,10.1551803 Z" id="Stroke-22-Copy-4" stroke="#000325" stroke-width="0.863636364"></path>
                        </g>
                    </g>
                </g>
            </g>
        </g>
    </g>
</svg>